  0
SECTION
  2
HEADER
  9
$ACADVER
  1
AC1032
  9
$ACADMAINTVER
 90
      174
  9
$DWGCODEPAGE
  3
ANSI_936
  9
$LASTSAVEDBY
  1
admin
  9
$REQUIREDVERSIONS
160
                 0
  9
$INSBASE
 10
0.0
 20
0.0
 30
0.0
  9
$EXTMIN
 10
21.22827133224086
 20
-33.89204175633118
 30
-0.0000000000001409
  9
$EXTMAX
 10
193.1884731617974
 20
233.0008577369996
 30
0.0
  9
$LIMMIN
 10
0.0
 20
0.0
  9
$LIMMAX
 10
420.0
 20
297.0
  9
$ORTHOMODE
 70
     0
  9
$REGENMODE
 70
     1
  9
$FILLMODE
 70
     1
  9
$QTEXTMODE
 70
     0
  9
$MIRRTEXT
 70
     0
  9
$LTSCALE
 40
1.0
  9
$ATTMODE
 70
     1
  9
$TEXTSIZE
 40
2.5
  9
$TRACEWID
 40
1.0
  9
$TEXTSTYLE
  7
Standard
  9
$CLAYER
  8
KS3
  9
$CELTYPE
  6
ByLayer
  9
$CECOLOR
 62
   256
  9
$CELTSCALE
 40
1.0
  9
$DISPSILH
 70
     0
  9
$DIMSCALE
 40
1.0
  9
$DIMASZ
 40
2.5
  9
$DIMEXO
 40
0.625
  9
$DIMDLI
 40
3.75
  9
$DIMRND
 40
0.0
  9
$DIMDLE
 40
0.0
  9
$DIMEXE
 40
1.25
  9
$DIMTP
 40
0.0
  9
$DIMTM
 40
0.0
  9
$DIMTXT
 40
2.5
  9
$DIMCEN
 40
2.5
  9
$DIMTSZ
 40
0.0
  9
$DIMTOL
 70
     0
  9
$DIMLIM
 70
     0
  9
$DIMTIH
 70
     0
  9
$DIMTOH
 70
     0
  9
$DIMSE1
 70
     0
  9
$DIMSE2
 70
     0
  9
$DIMTAD
 70
     1
  9
$DIMZIN
 70
     8
  9
$DIMBLK
  1

  9
$DIMASO
 70
     1
  9
$DIMSHO
 70
     1
  9
$DIMPOST
  1

  9
$DIMAPOST
  1

  9
$DIMALT
 70
     0
  9
$DIMALTD
 70
     3
  9
$DIMALTF
 40
0.03937007874016
  9
$DIMLFAC
 40
1.0
  9
$DIMTOFL
 70
     1
  9
$DIMTVP
 40
0.0
  9
$DIMTIX
 70
     0
  9
$DIMSOXD
 70
     0
  9
$DIMSAH
 70
     0
  9
$DIMBLK1
  1

  9
$DIMBLK2
  1

  9
$DIMSTYLE
  2
ISO-25
  9
$DIMCLRD
 70
     0
  9
$DIMCLRE
 70
     0
  9
$DIMCLRT
 70
     0
  9
$DIMTFAC
 40
1.0
  9
$DIMGAP
 40
0.625
  9
$DIMJUST
 70
     0
  9
$DIMSD1
 70
     0
  9
$DIMSD2
 70
     0
  9
$DIMTOLJ
 70
     0
  9
$DIMTZIN
 70
     8
  9
$DIMALTZ
 70
     0
  9
$DIMALTTZ
 70
     0
  9
$DIMUPT
 70
     0
  9
$DIMDEC
 70
     2
  9
$DIMTDEC
 70
     2
  9
$DIMALTU
 70
     2
  9
$DIMALTTD
 70
     3
  9
$DIMTXSTY
  7
Standard
  9
$DIMAUNIT
 70
     0
  9
$DIMADEC
 70
     0
  9
$DIMALTRND
 40
0.0
  9
$DIMAZIN
 70
     0
  9
$DIMDSEP
 70
    44
  9
$DIMATFIT
 70
     3
  9
$DIMFRAC
 70
     0
  9
$DIMLDRBLK
  1

  9
$DIMLUNIT
 70
     2
  9
$DIMLWD
 70
    -2
  9
$DIMLWE
 70
    -2
  9
$DIMTMOVE
 70
     0
  9
$DIMFXL
 40
1.0
  9
$DIMFXLON
 70
     0
  9
$DIMJOGANG
 40
0.7853981633974483
  9
$DIMTFILL
 70
     0
  9
$DIMTFILLCLR
 70
     0
  9
$DIMARCSYM
 70
     0
  9
$DIMLTYPE
  6

  9
$DIMLTEX1
  6

  9
$DIMLTEX2
  6

  9
$DIMTXTDIRECTION
 70
     0
  9
$LUNITS
 70
     2
  9
$LUPREC
 70
     4
  9
$SKETCHINC
 40
1.0
  9
$FILLETRAD
 40
0.0
  9
$AUNITS
 70
     0
  9
$AUPREC
 70
     0
  9
$MENU
  1
.
  9
$ELEVATION
 40
0.0
  9
$PELEVATION
 40
0.0
  9
$THICKNESS
 40
0.0
  9
$LIMCHECK
 70
     0
  9
$CHAMFERA
 40
0.0
  9
$CHAMFERB
 40
0.0
  9
$CHAMFERC
 40
0.0
  9
$CHAMFERD
 40
0.0
  9
$SKPOLY
 70
     0
  9
$TDCREATE
 40
2460523.632442130
  9
$TDUCREATE
 40
2460523.299108797
  9
$TDUPDATE
 40
2460523.660405093
  9
$TDUUPDATE
 40
2460523.327071760
  9
$TDINDWG
 40
0.0279629630
  9
$TDUSRTIMER
 40
0.0279629630
  9
$USRTIMER
 70
     1
  9
$ANGBASE
 50
0.0
  9
$ANGDIR
 70
     0
  9
$PDMODE
 70
     0
  9
$PDSIZE
 40
0.0
  9
$PLINEWID
 40
0.0
  9
$SPLFRAME
 70
     0
  9
$SPLINETYPE
 70
     6
  9
$SPLINESEGS
 70
     8
  9
$HANDSEED
  5
5B8
  9
$SURFTAB1
 70
     6
  9
$SURFTAB2
 70
     6
  9
$SURFTYPE
 70
     6
  9
$SURFU
 70
     6
  9
$SURFV
 70
     6
  9
$UCSBASE
  2

  9
$UCSNAME
  2

  9
$UCSORG
 10
0.0
 20
0.0
 30
0.0
  9
$UCSXDIR
 10
1.0
 20
0.0
 30
0.0
  9
$UCSYDIR
 10
0.0
 20
1.0
 30
0.0
  9
$UCSORTHOREF
  2

  9
$UCSORTHOVIEW
 70
     0
  9
$UCSORGTOP
 10
0.0
 20
0.0
 30
0.0
  9
$UCSORGBOTTOM
 10
0.0
 20
0.0
 30
0.0
  9
$UCSORGLEFT
 10
0.0
 20
0.0
 30
0.0
  9
$UCSORGRIGHT
 10
0.0
 20
0.0
 30
0.0
  9
$UCSORGFRONT
 10
0.0
 20
0.0
 30
0.0
  9
$UCSORGBACK
 10
0.0
 20
0.0
 30
0.0
  9
$PUCSBASE
  2

  9
$PUCSNAME
  2

  9
$PUCSORG
 10
0.0
 20
0.0
 30
0.0
  9
$PUCSXDIR
 10
1.0
 20
0.0
 30
0.0
  9
$PUCSYDIR
 10
0.0
 20
1.0
 30
0.0
  9
$PUCSORTHOREF
  2

  9
$PUCSORTHOVIEW
 70
     0
  9
$PUCSORGTOP
 10
0.0
 20
0.0
 30
0.0
  9
$PUCSORGBOTTOM
 10
0.0
 20
0.0
 30
0.0
  9
$PUCSORGLEFT
 10
0.0
 20
0.0
 30
0.0
  9
$PUCSORGRIGHT
 10
0.0
 20
0.0
 30
0.0
  9
$PUCSORGFRONT
 10
0.0
 20
0.0
 30
0.0
  9
$PUCSORGBACK
 10
0.0
 20
0.0
 30
0.0
  9
$USERI1
 70
     0
  9
$USERI2
 70
     0
  9
$USERI3
 70
     0
  9
$USERI4
 70
     0
  9
$USERI5
 70
     0
  9
$USERR1
 40
0.0
  9
$USERR2
 40
0.0
  9
$USERR3
 40
0.0
  9
$USERR4
 40
0.0
  9
$USERR5
 40
0.0
  9
$WORLDVIEW
 70
     1
  9
$SHADEDGE
 70
     3
  9
$SHADEDIF
 70
    70
  9
$TILEMODE
 70
     1
  9
$MAXACTVP
 70
    64
  9
$PINSBASE
 10
0.0
 20
0.0
 30
0.0
  9
$PLIMCHECK
 70
     0
  9
$PEXTMIN
 10
0.0
 20
0.0
 30
0.0
  9
$PEXTMAX
 10
0.0
 20
0.0
 30
0.0
  9
$PLIMMIN
 10
0.0
 20
0.0
  9
$PLIMMAX
 10
12.0
 20
9.0
  9
$UNITMODE
 70
     0
  9
$VISRETAIN
 70
     1
  9
$PLINEGEN
 70
     0
  9
$PSLTSCALE
 70
     1
  9
$TREEDEPTH
 70
  3020
  9
$CMLSTYLE
  2
Standard
  9
$CMLJUST
 70
     0
  9
$CMLSCALE
 40
20.0
  9
$PROXYGRAPHICS
 70
     1
  9
$MEASUREMENT
 70
     1
  9
$CELWEIGHT
370
    -1
  9
$ENDCAPS
280
     0
  9
$JOINSTYLE
280
     0
  9
$LWDISPLAY
290
     0
  9
$INSUNITS
 70
     4
  9
$HYPERLINKBASE
  1

  9
$STYLESHEET
  1

  9
$XEDIT
290
     1
  9
$CEPSNTYPE
380
     0
  9
$PSTYLEMODE
290
     1
  9
$FINGERPRINTGUID
  2
{554FEAD0-61BF-764B-A782-BD66336BDF5E}
  9
$VERSIONGUID
  2
{98FE9F4A-A546-5344-9638-BC9CA60E7454}
  9
$EXTNAMES
290
     1
  9
$PSVPSCALE
 40
0.0
  9
$OLESTARTUP
290
     0
  9
$SORTENTS
280
   127
  9
$INDEXCTL
280
     0
  9
$HIDETEXT
280
     1
  9
$XCLIPFRAME
280
     2
  9
$HALOGAP
280
     0
  9
$OBSCOLOR
 70
   257
  9
$OBSLTYPE
280
     0
  9
$INTERSECTIONDISPLAY
280
     0
  9
$INTERSECTIONCOLOR
 70
   257
  9
$DIMASSOC
280
     2
  9
$PROJECTNAME
  1

  9
$CAMERADISPLAY
290
     0
  9
$LENSLENGTH
 40
50.0
  9
$CAMERAHEIGHT
 40
0.0
  9
$STEPSPERSEC
 40
2.0
  9
$STEPSIZE
 40
6.0
  9
$3DDWFPREC
 40
2.0
  9
$PSOLWIDTH
 40
5.0
  9
$PSOLHEIGHT
 40
80.0
  9
$LOFTANG1
 40
1.570796326794896
  9
$LOFTANG2
 40
1.570796326794896
  9
$LOFTMAG1
 40
0.0
  9
$LOFTMAG2
 40
0.0
  9
$LOFTPARAM
 70
     7
  9
$LOFTNORMALS
280
     1
  9
$LATITUDE
 40
37.795
  9
$LONGITUDE
 40
-122.394
  9
$NORTHDIRECTION
 40
0.0
  9
$TIMEZONE
 70
 -8000
  9
$LIGHTGLYPHDISPLAY
280
     1
  9
$TILEMODELIGHTSYNCH
280
     1
  9
$CMATERIAL
347
EC
  9
$SOLIDHIST
280
     0
  9
$SHOWHIST
280
     1
  9
$DWFFRAME
280
     2
  9
$DGNFRAME
280
     0
  9
$REALWORLDSCALE
290
     1
  9
$INTERFERECOLOR
 62
     1
  9
$INTERFEREOBJVS
345
F9
  9
$INTERFEREVPVS
346
F6
  9
$CSHADOW
280
     0
  9
$SHADOWPLANELOCATION
 40
0.0
  0
ENDSEC
  0
SECTION
  2
CLASSES
  0
CLASS
  1
ACDBDICTIONARYWDFLT
  2
AcDbDictionaryWithDefault
  3
ObjectDBX Classes
 90
        0
 91
        1
280
     0
281
     0
  0
CLASS
  1
DICTIONARYVAR
  2
AcDbDictionaryVar
  3
ObjectDBX Classes
 90
        0
 91
       11
280
     0
281
     0
  0
CLASS
  1
TABLESTYLE
  2
AcDbTableStyle
  3
ObjectDBX Classes
 90
     4095
 91
        1
280
     0
281
     0
  0
CLASS
  1
MATERIAL
  2
AcDbMaterial
  3
ObjectDBX Classes
 90
     1153
 91
        3
280
     0
281
     0
  0
CLASS
  1
VISUALSTYLE
  2
AcDbVisualStyle
  3
ObjectDBX Classes
 90
     4095
 91
       24
280
     0
281
     0
  0
CLASS
  1
SCALE
  2
AcDbScale
  3
ObjectDBX Classes
 90
     1153
 91
       17
280
     0
281
     0
  0
CLASS
  1
MLEADERSTYLE
  2
AcDbMLeaderStyle
  3
ACDB_MLEADERSTYLE_CLASS
 90
     4095
 91
        2
280
     0
281
     0
  0
CLASS
  1
CELLSTYLEMAP
  2
AcDbCellStyleMap
  3
ObjectDBX Classes
 90
     1152
 91
       16
280
     0
281
     0
  0
CLASS
  1
EXACXREFPANELOBJECT
  2
ExAcXREFPanelObject
  3
EXAC_ESW
 90
     1025
 91
        0
280
     0
281
     0
  0
CLASS
  1
NPOCOLLECTION
  2
AcDbImpNonPersistentObjectsCollection
  3
ObjectDBX Classes
 90
     1153
 91
        0
280
     0
281
     0
  0
CLASS
  1
LAYER_INDEX
  2
AcDbLayerIndex
  3
ObjectDBX Classes
 90
        0
 91
        0
280
     0
281
     0
  0
CLASS
  1
SPATIAL_INDEX
  2
AcDbSpatialIndex
  3
ObjectDBX Classes
 90
        0
 91
        0
280
     0
281
     0
  0
CLASS
  1
IDBUFFER
  2
AcDbIdBuffer
  3
ObjectDBX Classes
 90
        0
 91
        0
280
     0
281
     0
  0
CLASS
  1
ACDBSECTIONVIEWSTYLE
  2
AcDbSectionViewStyle
  3
ObjectDBX Classes
 90
     1025
 91
        1
280
     0
281
     0
  0
CLASS
  1
ACDBDETAILVIEWSTYLE
  2
AcDbDetailViewStyle
  3
ObjectDBX Classes
 90
     1025
 91
        1
280
     0
281
     0
  0
CLASS
  1
SORTENTSTABLE
  2
AcDbSortentsTable
  3
ObjectDBX Classes
 90
        0
 91
        1
280
     0
281
     0
  0
ENDSEC
  0
SECTION
  2
TABLES
  0
TABLE
  2
VPORT
  5
8
330
0
100
AcDbSymbolTable
 70
     1
  0
VPORT
  5
EA
330
8
100
AcDbSymbolTableRecord
100
AcDbViewportTableRecord
  2
*Active
 70
     0
 10
0.0
 20
0.0
 11
1.0
 21
1.0
 12
82.47196499205916
 22
24.16027530517669
 13
0.0
 23
0.0
 14
10.0
 24
10.0
 15
10.0
 25
10.0
 16
0.0
 26
0.0
 36
1.0
 17
0.0
 27
0.0
 37
0.0
 40
152.6866376323703
 41
2.26284348864994
 42
50.0
 43
0.0
 44
0.0
 50
0.0
 51
0.0
 71
     0
 72
  1000
 73
     1
 74
     3
 75
     0
 76
     1
 77
     0
 78
     0
281
     0
 65
     1
110
0.0
120
0.0
130
0.0
111
1.0
121
0.0
131
0.0
112
0.0
122
1.0
132
0.0
 79
     0
146
0.0
348
F5
 60
     3
 61
     5
292
     1
282
     1
141
0.0
142
0.0
 63
   250
421
  3355443
1001
ACAD_NAV_VCDISPLAY
1070
     3
  0
ENDTAB
  0
TABLE
  2
LTYPE
  5
5
330
0
100
AcDbSymbolTable
 70
     2
  0
LTYPE
  5
14
330
5
100
AcDbSymbolTableRecord
100
AcDbLinetypeTableRecord
  2
ByBlock
 70
     0
  3

 72
    65
 73
     0
 40
0.0
  0
LTYPE
  5
15
330
5
100
AcDbSymbolTableRecord
100
AcDbLinetypeTableRecord
  2
ByLayer
 70
     0
  3

 72
    65
 73
     0
 40
0.0
  0
LTYPE
  5
16
330
5
100
AcDbSymbolTableRecord
100
AcDbLinetypeTableRecord
  2
Continuous
 70
     0
  3
Solid line
 72
    65
 73
     0
 40
0.0
  0
ENDTAB
  0
TABLE
  2
LAYER
  5
2
102
{ACAD_XDICTIONARY
360
1FF
102
}
330
0
100
AcDbSymbolTable
 70
     7
  0
LAYER
  5
10
102
{ACAD_XDICTIONARY
360
13C
102
}
330
2
100
AcDbSymbolTableRecord
100
AcDbLayerTableRecord
  2
0
 70
     0
 62
     7
  6
Continuous
370
    -3
390
F
347
EE
348
0
  0
LAYER
  5
299
330
2
100
AcDbSymbolTableRecord
100
AcDbLayerTableRecord
  2
KS3
 70
     0
 62
     6
  6
Continuous
370
    -3
390
F
347
EE
348
0
1001
AcAecLayerStandard
1000

1000

  0
LAYER
  5
29A
330
2
100
AcDbSymbolTableRecord
100
AcDbLayerTableRecord
  2
KS2
 70
     0
 62
     5
  6
Continuous
370
    -3
390
F
347
EE
348
0
1001
AcAecLayerStandard
1000

1000

  0
LAYER
  5
29B
102
{ACAD_XDICTIONARY
360
29C
102
}
330
2
100
AcDbSymbolTableRecord
100
AcDbLayerTableRecord
  2
KISSCUT1
 70
     0
 62
     3
  6
Continuous
370
    -3
390
F
347
EE
348
0
1001
AcAecLayerStandard
1000

1000

  0
ENDTAB
  0
TABLE
  2
STYLE
  5
3
330
0
100
AcDbSymbolTable
 70
     3
  0
STYLE
  5
11
330
3
100
AcDbSymbolTableRecord
100
AcDbTextStyleTableRecord
  2
Standard
 70
     0
 40
0.0
 41
1.0
 50
0.0
 71
     0
 42
2.5
  3
arial.ttf
  4

1001
ACAD
1000
Arial
1071
       34
  0
STYLE
  5
132
330
3
100
AcDbSymbolTableRecord
100
AcDbTextStyleTableRecord
  2
Annotative
 70
     0
 40
0.0
 41
1.0
 50
0.0
 71
     0
 42
2.5
  3
arial.ttf
  4

1001
AcadAnnotative
1000
AnnotativeData
1002
{
1070
     1
1070
     1
1002
}
1001
ACAD
1000
Arial
1071
       34
  0
STYLE
  5
2A1
330
3
100
AcDbSymbolTableRecord
100
AcDbTextStyleTableRecord
  2
bz
 70
     0
 40
0.0
 41
1.0
 50
0.0
 71
     0
 42
3.5
  3
txt.shx
  4
hztxt.shx
  0
ENDTAB
  0
TABLE
  2
VIEW
  5
6
330
0
100
AcDbSymbolTable
 70
    17
  0
ENDTAB
  0
TABLE
  2
UCS
  5
7
330
0
100
AcDbSymbolTable
 70
     0
  0
ENDTAB
  0
TABLE
  2
APPID
  5
9
330
0
100
AcDbSymbolTable
 70
    10
  0
APPID
  5
12
330
9
100
AcDbSymbolTableRecord
100
AcDbRegAppTableRecord
  2
ACAD
 70
     0
  0
APPID
  5
9E
330
9
100
AcDbSymbolTableRecord
100
AcDbRegAppTableRecord
  2
ACAD_PSEXT
 70
     0
  0
APPID
  5
133
330
9
100
AcDbSymbolTableRecord
100
AcDbRegAppTableRecord
  2
AcadAnnoPO
 70
     0
  0
APPID
  5
134
330
9
100
AcDbSymbolTableRecord
100
AcDbRegAppTableRecord
  2
AcadAnnotative
 70
     0
  0
APPID
  5
135
330
9
100
AcDbSymbolTableRecord
100
AcDbRegAppTableRecord
  2
ACAD_DSTYLE_DIMJAG
 70
     0
  0
APPID
  5
136
330
9
100
AcDbSymbolTableRecord
100
AcDbRegAppTableRecord
  2
ACAD_DSTYLE_DIMTALN
 70
     0
  0
APPID
  5
165
330
9
100
AcDbSymbolTableRecord
100
AcDbRegAppTableRecord
  2
ACAD_MLEADERVER
 70
     0
  0
APPID
  5
217
330
9
100
AcDbSymbolTableRecord
100
AcDbRegAppTableRecord
  2
ACAD_NAV_VCDISPLAY
 70
     0
  0
APPID
  5
2A3
330
9
100
AcDbSymbolTableRecord
100
AcDbRegAppTableRecord
  2
AcAecLayerStandard
 70
     0
  0
APPID
  5
54C
330
9
100
AcDbSymbolTableRecord
100
AcDbRegAppTableRecord
  2
ACAD_EXEMPT_FROM_CAD_STANDARDS
 70
     0
  0
ENDTAB
  0
TABLE
  2
DIMSTYLE
  5
A
330
0
100
AcDbSymbolTable
 70
     5
100
AcDbDimStyleTable
 71
     2
340
27
340
137
  0
DIMSTYLE
105
1B0
330
A
100
AcDbSymbolTableRecord
100
AcDbDimStyleTableRecord
  2
Standard
 70
     0
340
11
  0
DIMSTYLE
105
137
330
A
100
AcDbSymbolTableRecord
100
AcDbDimStyleTableRecord
  2
Annotative
 70
     0
 40
0.0
 41
2.5
 42
0.625
 43
3.75
 44
1.25
 73
     0
 74
     0
 77
     1
 78
     8
140
2.5
141
2.5
143
0.03937007874016
147
0.625
171
     3
172
     1
271
     2
272
     2
274
     3
278
    44
283
     0
284
     8
340
11
1001
AcadAnnotative
1000
AnnotativeData
1002
{
1070
     1
1070
     1
1002
}
1001
ACAD_DSTYLE_DIMJAG
1070
   388
1040
1.5
1001
ACAD_DSTYLE_DIMTALN
1070
   392
1070
     0
  0
DIMSTYLE
105
27
330
A
100
AcDbSymbolTableRecord
100
AcDbDimStyleTableRecord
  2
ISO-25
 70
     0
 41
2.5
 42
0.625
 43
3.75
 44
1.25
 73
     0
 74
     0
 77
     1
 78
     8
140
2.5
141
2.5
143
0.03937007874016
147
0.625
171
     3
172
     1
271
     2
272
     2
274
     3
278
    44
283
     0
284
     8
340
11
  0
DIMSTYLE
105
2A2
330
A
100
AcDbSymbolTableRecord
100
AcDbDimStyleTableRecord
  2
0.005
 70
     0
 41
3.0
 42
0.0
 44
1.0
 73
     0
 74
     0
 77
     1
 78
     8
 79
     2
140
3.5
141
0.0
144
0.05
147
1.0
172
     1
176
   256
177
   256
179
     3
271
     3
272
     3
279
     1
284
     8
289
     2
340
11
371
    -1
372
    -1
  0
ENDTAB
  0
TABLE
  2
BLOCK_RECORD
  5
1
330
0
100
AcDbSymbolTable
 70
     3
  0
BLOCK_RECORD
  5
1F
102
{ACAD_XDICTIONARY
360
1CE
102
}
330
1
100
AcDbSymbolTableRecord
100
AcDbBlockTableRecord
  2
*Model_Space
340
22
 70
     0
280
     1
281
     0
  0
BLOCK_RECORD
  5
D2
330
1
100
AcDbSymbolTableRecord
100
AcDbBlockTableRecord
  2
*Paper_Space
340
D3
 70
     0
280
     1
281
     0
  0
BLOCK_RECORD
  5
D6
330
1
100
AcDbSymbolTableRecord
100
AcDbBlockTableRecord
  2
*Paper_Space0
340
D7
 70
     0
280
     1
281
     0
  0
ENDTAB
  0
ENDSEC
  0
SECTION
  2
BLOCKS
  0
BLOCK
  5
20
330
1F
100
AcDbEntity
  8
0
100
AcDbBlockBegin
  2
*Model_Space
 70
     0
 10
0.0
 20
0.0
 30
0.0
  3
*Model_Space
  1

  0
ENDBLK
  5
21
330
1F
100
AcDbEntity
  8
0
100
AcDbBlockEnd
  0
BLOCK
  5
D4
330
D2
100
AcDbEntity
 67
     1
  8
0
100
AcDbBlockBegin
  2
*Paper_Space
 70
     0
 10
0.0
 20
0.0
 30
0.0
  3
*Paper_Space
  1

  0
ENDBLK
  5
D5
330
D2
100
AcDbEntity
 67
     1
  8
0
100
AcDbBlockEnd
  0
BLOCK
  5
D8
330
D6
100
AcDbEntity
 67
     1
  8
0
100
AcDbBlockBegin
  2
*Paper_Space0
 70
     0
 10
0.0
 20
0.0
 30
0.0
  3
*Paper_Space0
  1

  0
ENDBLK
  5
D9
330
D6
100
AcDbEntity
 67
     1
  8
0
100
AcDbBlockEnd
  0
ENDSEC
  0
SECTION
  2
ENTITIES
  0
LINE
  5
3E5
330
1F
100
AcDbEntity
  8
KS2
100
AcDbLine
 10
89.89025478109397
 20
196.0941299712312
 30
0.0
 11
89.89025478109397
 21
196.5741882144966
 31
0.0
  0
LINE
  5
3E6
330
1F
100
AcDbEntity
  8
KS2
100
AcDbLine
 10
89.89025478109397
 20
200.6142088751249
 30
0.0
 11
89.89025478109397
 21
201.0942671183939
 31
0.0
  0
LINE
  5
3ED
330
1F
100
AcDbEntity
  8
KS2
100
AcDbLine
 10
183.0153694524815
 20
201.2898035112166
 30
0.0
 11
183.0153694524815
 21
201.769861754482
 31
0.0
  0
LINE
  5
3EE
330
1F
100
AcDbEntity
  8
KS2
100
AcDbLine
 10
183.0153694524815
 20
205.8098824151102
 30
0.0
 11
183.0153694524815
 21
206.2899406583792
 31
0.0
  0
LINE
  5
3F5
330
1F
100
AcDbEntity
  8
KS2
100
AcDbLine
 10
22.8152092505843
 20
191.6896109795007
 30
0.0
 11
22.8152092505843
 21
192.169669222766
 31
0.0
  0
LINE
  5
3F6
330
1F
100
AcDbEntity
  8
KS2
100
AcDbLine
 10
22.8152092505843
 20
196.2096898833943
 30
0.0
 11
22.8152092505843
 21
196.6897481266633
 31
0.0
  0
LWPOLYLINE
  5
3F7
330
1F
100
AcDbEntity
  8
KISSCUT1
100
AcDbPolyline
 90
        4
 70
     1
 43
0.0
 10
101.5814864449494
 20
214.2658383253683
 10
101.5814864449494
 20
179.2058383253707
 10
91.52148644494809
 20
179.2058383253707
 10
91.52148644494809
 20
214.2658383253683
  0
LWPOLYLINE
  5
3F8
330
1F
100
AcDbEntity
  8
KISSCUT1
100
AcDbPolyline
 90
        6
 70
     1
 43
0.0
 10
38.2814864449465
 20
210.2258383253675
 10
38.2814864449465
 20
200.1958383253686
 10
26.72148644494882
 20
200.1958383253686
 10
26.72148644494882
 20
210.2258383253675
 42
-0.414213562373041
 10
28.25148644494766
 20
211.7558383253663
 10
36.75148644494766
 20
211.7558383253663
 42
-0.414213562373041
  0
LWPOLYLINE
  5
3F9
330
1F
100
AcDbEntity
  8
KS2
100
AcDbPolyline
 90
        9
 70
     0
 43
0.0
 10
193.1884726929929
 20
220.0670269132197
 10
185.3902543130752
 20
220.0808131592812
 42
0.2258472754914219
 10
184.6134864350606
 20
219.7127759432214
 42
-0.441219520110441
 10
184.3184864449504
 20
219.6963396073397
 10
184.3184864449504
 20
217.6640376336463
 10
184.3687396344467
 20
217.3790376336501
 10
184.3687396344467
 20
194.6651618400419
 10
184.3184864449504
 20
194.3801618400421
 10
184.3184864449504
 20
169.5451159956746
  0
LWPOLYLINE
  5
3FA
330
1F
100
AcDbEntity
  8
KS2
100
AcDbPolyline
 90
       40
 70
     0
 43
0.0
 10
184.3184864449504
 20
169.5451159956746
 42
-0.0221475400565879
 10
184.3315006585872
 20
168.2451388694053
 42
-0.0183292660253892
 10
184.2542597107385
 20
166.5767456069543
 42
-0.0474368856086104
 10
183.8946529676395
 20
164.5782281752353
 42
-0.0933064407201617
 10
182.775314366525
 20
162.2934630805275
 42
-0.0919685626218707
 10
181.1447654037656
 20
160.7905637245448
 42
-0.0700108438908218
 10
179.2228442797495
 20
159.9288997857174
 42
-0.0537144924380884
 10
177.0429567309402
 20
159.5449406940815
 42
-0.0214209939112217
 10
174.1617661525743
 20
159.475238324575
 10
31.23151245286499
 20
159.4756449356964
 42
-0.0153750902019385
 10
28.77712339265782
 20
159.5553893196074
 42
-0.0716324286831471
 10
25.90484736614599
 20
160.1018292661711
 42
-0.0841590963491591
 10
23.87358797062916
 20
161.2725693215861
 42
-0.079918020919868
 10
22.52721893022681
 20
162.8112629331981
 42
-0.0650116504163371
 10
21.70123640330712
 20
164.6602193865865
 42
-0.0431665816099187
 10
21.35643892353619
 20
166.2315063337764
 42
-0.0269472704145808
 10
21.23475294877426
 20
168.3211310270299
 42
-0.0037000490443395
 10
21.22848644494661
 20
169.5452041176167
 10
21.22848644494661
 20
222.9264554629326
 42
-0.0019148612922037
 10
21.23084333331644
 20
223.8035527892489
 42
-0.0074479861409863
 10
21.25332912614249
 20
224.8765740294866
 42
-0.0306985247960921
 10
21.38857027816994
 20
226.4574436676948
 42
-0.0305344539807888
 10
21.65797104188823
 20
227.685144436301
 42
-0.0596248477063371
 10
22.36275795070833
 20
229.4202445759975
 42
-0.0591049845334056
 10
23.28112082852022
 20
230.6735040291051
 42
-0.1034963864446348
 10
25.60280423956283
 20
232.2667321719155
 42
-0.0770645813077584
 10
28.30685302185884
 20
232.8998191081
 42
-0.0234095901090013
 10
31.46124364167917
 20
232.996438325371
 10
174.1616641992805
 20
232.996438325371
 42
-0.0126361890883132
 10
176.4460700929776
 20
232.9657822314321
 42
-0.0274924953684784
 10
177.8849894887753
 20
232.8314764733032
 42
-0.0455301250239864
 10
179.5309446323226
 20
232.4453675920622
 42
-0.0606228427894645
 10
181.1446891495215
 20
231.6811609710485
 42
-0.0786777913869432
 10
182.6025859400179
 20
230.395452482323
 42
-0.0733688673524364
 10
183.6305867099508
 20
228.6979837614408
 42
-0.0229338351578221
 10
183.8895259278542
 20
227.9476625776979
 42
-0.047287732334987
 10
184.2012079666238
 20
226.3438209037404
 42
-0.3902845721619235
 10
184.4721420819987
 20
226.3404402527258
 42
0.191460109869802
 10
185.1586556198963
 20
226.0675572737627
 10
193.1884731617974
 20
226.0675572737627
  0
LWPOLYLINE
  5
3FB
330
1F
100
AcDbEntity
  8
KS3
100
AcDbPolyline
 90
        7
 70
     0
 43
0.0
 10
184.2012079666456
 20
226.3438209037586
 42
0.183357021934292
 10
184.1361306731705
 20
226.2177072030636
 42
-0.0242927321537796
 10
184.2514783625011
 20
224.2278919310438
 42
-0.00390924325302
 10
184.2584864331511
 20
222.9309201875321
 10
184.2584864331511
 20
220.93078739873
 10
184.2584864331511
 20
219.8391681874773
 42
0.2015127761170709
 10
184.3184864449504
 20
219.6963396073397
 42
0.2015127761170709
  0
CIRCLE
  5
3FC
330
1F
100
AcDbEntity
  8
KISSCUT1
100
AcDbCircle
 10
33.55148644459405
 20
219.2358383250639
 30
0.0
 40
5.03
  0
CIRCLE
  5
3FD
330
1F
100
AcDbEntity
  8
KISSCUT1
100
AcDbCircle
 10
174.5514864445977
 20
208.2358383250639
 30
0.0
 40
5.03
  0
CIRCLE
  5
3FE
330
1F
100
AcDbEntity
  8
KISSCUT1
100
AcDbCircle
 10
121.551486444594
 20
222.2358383250639
 30
0.0
 40
5.03
  0
CIRCLE
  5
3FF
330
1F
100
AcDbEntity
  8
KISSCUT1
100
AcDbCircle
 10
66.55148644459405
 20
222.2358383250639
 30
0.0
 40
5.03
  0
CIRCLE
  5
400
330
1F
100
AcDbEntity
  8
KISSCUT1
100
AcDbCircle
 10
66.55148644459405
 20
169.2358383250639
 30
0.0
 40
5.03
  0
CIRCLE
  5
401
330
1F
100
AcDbEntity
  8
KISSCUT1
100
AcDbCircle
 10
109.551486444594
 20
169.2358383250639
 30
0.0
 40
5.03
  0
LWPOLYLINE
  5
402
330
1F
100
AcDbEntity
  8
KISSCUT1
100
AcDbPolyline
 90
        4
 70
     1
 43
0.0
 10
68.2214864445923
 20
206.2658383250628
 10
78.28148644459725
 20
206.2658383250628
 10
78.28148644459725
 20
196.2058383250651
 10
68.2214864445923
 20
196.2058383250651
  0
LINE
  5
403
330
1F
100
AcDbEntity
  8
KS3
100
AcDbLine
 10
141.0214864445952
 20
230.376391715562
 30
0.0
 11
143.5214864445952
 21
230.376391715562
 31
0.0
  0
LINE
  5
404
330
1F
100
AcDbEntity
  8
KS3
100
AcDbLine
 10
146.5214864445952
 20
230.376391715562
 30
0.0
 11
149.0214864445952
 21
230.376391715562
 31
0.0
  0
LINE
  5
405
330
1F
100
AcDbEntity
  8
KS3
100
AcDbLine
 10
152.0214864445952
 20
230.376391715562
 30
0.0
 11
154.5214864445952
 21
230.376391715562
 31
0.0
  0
LINE
  5
406
330
1F
100
AcDbEntity
  8
KS3
100
AcDbLine
 10
157.5214864445952
 20
230.376391715562
 30
0.0
 11
160.0214864445952
 21
230.376391715562
 31
0.0
  0
LINE
  5
407
330
1F
100
AcDbEntity
  8
KS3
100
AcDbLine
 10
163.0214864445952
 20
230.376391715562
 30
0.0
 11
165.5214864445952
 21
230.376391715562
 31
0.0
  0
LINE
  5
408
330
1F
100
AcDbEntity
  8
KS3
100
AcDbLine
 10
145.1514864445926
 20
161.5952383250651
 30
0.0
 11
142.6514864445926
 21
161.5952383250651
 31
0.0
  0
LINE
  5
409
330
1F
100
AcDbEntity
  8
KS3
100
AcDbLine
 10
148.1514864445926
 20
161.5952383250651
 30
0.0
 11
150.6514864445926
 21
161.5952383250651
 31
0.0
  0
LINE
  5
40A
330
1F
100
AcDbEntity
  8
KS3
100
AcDbLine
 10
153.6514864445926
 20
161.5952383250651
 30
0.0
 11
156.1514864445926
 21
161.5952383250651
 31
0.0
  0
LWPOLYLINE
  5
40B
330
1F
100
AcDbEntity
  8
KS2
100
AcDbPolyline
 90
        3
 70
     0
 43
0.0
 10
31.88961693834426
 20
175.8132166094756
 10
28.88961693834426
 20
175.8132166094756
 10
28.88961693834426
 20
172.8132166094756
  0
LWPOLYLINE
  5
40C
330
1F
100
AcDbEntity
  8
KS2
100
AcDbPolyline
 90
        3
 70
     0
 43
0.0
 10
154.839651049715
 20
209.0403293226655
 42
1.067896706230057
 10
154.8560762108463
 20
205.6745812535619
 10
159.8560762108463
 20
205.6745812535619
 42
-32.90422217352893
  0
LWPOLYLINE
  5
40D
330
1F
100
AcDbEntity
  8
KS2
100
AcDbPolyline
 90
        3
 70
     0
 43
0.0
 10
138.5103772599759
 20
210.7307557019985
 10
138.5103772599759
 20
206.7307557019985
 10
134.5103772599759
 20
206.7307557019985
  0
LINE
  5
436
330
1F
100
AcDbEntity
  8
KS2
100
AcDbLine
 10
124.2143291570937
 20
192.5858383250624
 30
0.0
 11
174.9643291574466
 21
192.5858383250624
 31
0.0
  0
LINE
  5
437
330
1F
100
AcDbEntity
  8
KS2
100
AcDbLine
 10
124.2143291570937
 20
187.5858383250625
 30
0.0
 11
174.9643291574466
 21
187.5858383250625
 31
0.0
  0
LINE
  5
438
330
1F
100
AcDbEntity
  8
KS2
100
AcDbLine
 10
124.2143291570937
 20
182.5858383250625
 30
0.0
 11
174.9643291574466
 21
182.5858383250625
 31
0.0
  0
LINE
  5
439
330
1F
100
AcDbEntity
  8
KS2
100
AcDbLine
 10
124.2143291570937
 20
177.5858383250624
 30
0.0
 11
174.9643291574466
 21
177.5858383250624
 31
0.0
  0
LINE
  5
43A
330
1F
100
AcDbEntity
  8
KS2
100
AcDbLine
 10
124.2143291570937
 20
172.5858383250624
 30
0.0
 11
174.9643291574466
 21
172.5858383250624
 31
0.0
  0
LINE
  5
43B
330
1F
100
AcDbEntity
  8
KS2
100
AcDbLine
 10
124.2143291570937
 20
167.5858383250624
 30
0.0
 11
174.9643291574466
 21
167.5858383250624
 31
0.0
  0
LWPOLYLINE
  5
448
330
1F
100
AcDbEntity
  8
KISSCUT1
100
AcDbPolyline
 90
        5
 70
     0
 43
0.0
 10
51.55148644459405
 20
186.2358383250639
 10
51.55148644459405
 20
180.2358383250639
 10
45.55148644459404
 20
180.2358383250639
 10
45.55148644459404
 20
186.2358383250639
 10
51.55148644459405
 20
186.2358383250639
  0
LWPOLYLINE
  5
44B
330
1F
100
AcDbEntity
  8
KS2
100
AcDbPolyline
 90
        2
 70
     0
 43
0.0
 10
52.68971626405255
 20
218.9715948658586
 10
50.96717858748888
 20
218.548754883609
  0
LWPOLYLINE
  5
44C
330
1F
100
AcDbEntity
  8
KS2
100
AcDbPolyline
 90
        2
 70
     0
 43
0.0
 10
50.36717858749034
 20
218.4014698675555
 10
48.32088252446919
 20
217.8991552867219
  0
LINE
  5
44D
330
1F
100
AcDbEntity
  8
KS2
100
AcDbLine
 10
52.68971626405255
 20
219.4267823035652
 30
-0.0000000000001409
 11
50.96717858748888
 21
219.8604633229215
 31
-0.0000000000001409
  0
LINE
  5
44E
330
1F
100
AcDbEntity
  8
KS2
100
AcDbLine
 10
50.36717858749034
 20
220.0115245247462
 30
-0.0000000000001409
 11
48.3480976019855
 21
220.5198658584986
 31
-0.0000000000001409
  0
LINE
  5
44F
330
1F
100
AcDbEntity
  8
KS2
100
AcDbLine
 10
50.26625242739829
 20
220.0369345698082
 30
-0.0000000000001409
 11
50.26625242739829
 21
218.3766950157032
 31
-0.0000000000001409
  0
LWPOLYLINE
  5
450
330
1F
100
AcDbEntity
  8
KS2
100
AcDbPolyline
 90
        2
 70
     0
 43
0.0
 10
52.68971626405255
 20
218.9715948658586
 10
50.96717858748888
 20
218.548754883609
  0
LWPOLYLINE
  5
451
330
1F
100
AcDbEntity
  8
KS2
100
AcDbPolyline
 90
        2
 70
     0
 43
0.0
 10
50.36717858749034
 20
218.4014698675555
 10
48.32088252446919
 20
217.8991552867219
  0
LINE
  5
452
330
1F
100
AcDbEntity
  8
KS2
100
AcDbLine
 10
52.68971626405255
 20
219.4267823035652
 30
-0.0000000000001409
 11
50.96717858748888
 21
219.8604633229215
 31
-0.0000000000001409
  0
LINE
  5
453
330
1F
100
AcDbEntity
  8
KS2
100
AcDbLine
 10
50.36717858749034
 20
220.0115245247462
 30
-0.0000000000001409
 11
48.3480976019855
 21
220.5198658584986
 31
-0.0000000000001409
  0
LINE
  5
454
330
1F
100
AcDbEntity
  8
KS2
100
AcDbLine
 10
50.26625242739829
 20
220.0369345698082
 30
-0.0000000000001409
 11
50.26625242739829
 21
218.3766950157032
 31
-0.0000000000001409
  0
LWPOLYLINE
  5
455
330
1F
100
AcDbEntity
  8
KS2
100
AcDbPolyline
 90
        2
 70
     0
 43
0.0
 10
52.12445803928858
 20
208.1853918061488
 42
-0.5889617970550704
 10
52.13420874662915
 20
205.5520013073064
  0
LWPOLYLINE
  5
456
330
1F
100
AcDbEntity
  8
KS2
100
AcDbPolyline
 90
        2
 70
     0
 43
0.0
 10
48.78149414251675
 20
205.7093524913571
 42
-0.5917799031814205
 10
48.81169789501655
 20
208.1762859444379
 42
-0.9121375415680898
  0
LWPOLYLINE
  5
457
330
1F
100
AcDbEntity
  8
KS2
100
AcDbPolyline
 90
        2
 70
     0
 43
0.0
 10
52.12445803928858
 20
216.6011496287347
 42
-0.5889617970550704
 10
52.13420874662915
 20
213.9677591298923
  0
LWPOLYLINE
  5
458
330
1F
100
AcDbEntity
  8
KS2
100
AcDbPolyline
 90
        2
 70
     0
 43
0.0
 10
49.32195151240012
 20
213.9512589291944
 42
-0.9121375415680898
 10
49.36756200066156
 20
216.7535131850045
 42
-0.9121375415680898
  0
LINE
  5
459
330
1F
100
AcDbEntity
  8
KS2
100
AcDbLine
 10
50.27706343667524
 20
216.7322923974598
 30
0.0
 11
51.52460759941459
 21
216.7322923974598
 31
0.0
  0
LINE
  5
45A
330
1F
100
AcDbEntity
  8
KS2
100
AcDbLine
 10
52.91816932054643
 20
211.0838489291918
 30
0.0
 11
50.95187794859521
 21
211.0838489291918
 31
0.0
  0
LINE
  5
45B
330
1F
100
AcDbEntity
  8
KS2
100
AcDbLine
 10
50.30187794859376
 20
211.0838489291918
 30
0.0
 11
48.08558657664616
 21
211.0838489291918
 31
0.0
  0
LINE
  5
45C
330
1F
100
AcDbEntity
  8
KS2
100
AcDbLine
 10
52.91816932054643
 20
202.523186899819
 30
0.0
 11
50.95187794859521
 21
202.523186899819
 31
0.0
  0
LINE
  5
45D
330
1F
100
AcDbEntity
  8
KS2
100
AcDbLine
 10
50.30187794859376
 20
202.523186899819
 30
0.0
 11
48.08558657664616
 21
202.523186899819
 31
0.0
  0
LINE
  5
45E
330
1F
100
AcDbEntity
  8
KS2
100
AcDbLine
 10
50.51463111862904
 20
207.3643810523708
 30
0.0
 11
50.51463111862904
 21
206.4060629114383
 31
0.0
  0
LWPOLYLINE
  5
45F
330
1F
100
AcDbEntity
  8
KS2
100
AcDbPolyline
 90
        2
 70
     0
 43
0.0
 10
51.76035065447649
 20
205.5090440403428
 42
-0.2928658672646596
 10
50.76998228719458
 20
206.0008019955376
 42
-0.1880837426674811
  0
LWPOLYLINE
  5
460
330
1F
100
AcDbEntity
  8
KS2
100
AcDbPolyline
 90
        2
 70
     0
 43
0.0
 10
51.81727894371579
 20
208.2278615256646
 42
0.3639580689676818
 10
50.73384875170086
 20
207.7528627187303
 42
0.1185077641328896
  0
LWPOLYLINE
  5
461
330
1F
100
AcDbEntity
  8
KS2
100
AcDbPolyline
 90
        2
 70
     0
 43
0.0
 10
49.05321736722908
 20
205.5545982485155
 42
0.3401012939161061
 10
50.27627543822745
 20
206.0008019955376
 42
0.1880837426674811
  0
LWPOLYLINE
  5
462
330
1F
100
AcDbEntity
  8
KS2
100
AcDbPolyline
 90
        2
 70
     0
 43
0.0
 10
49.09671292934581
 20
208.1881727481914
 42
-0.4197457753775934
 10
50.25219178438783
 20
207.7528627187303
 42
-0.1185077641328896
  0
LWPOLYLINE
  5
493
330
1F
100
AcDbEntity
  8
KS3
100
AcDbPolyline
 90
      189
 70
     0
 43
0.0
 10
122.8824320405874
 20
161.345838325421
 10
107.6795932261484
 20
161.345838325421
 42
-0.1581322929043098
 10
107.2510913008154
 20
161.4848340107264
 42
0.0785779530377947
 10
106.9754358236678
 20
161.6250313534428
 42
0.078577952776594
 10
106.6699722514458
 20
161.6733350085187
 10
96.87200063854835
 20
161.6733350085187
 42
0.1581322928155658
 10
96.29088158917875
 20
161.4848340107264
 42
-0.0785779528080562
 10
96.08762047973142
 20
161.3814561720892
 42
-0.0785779530936686
 10
95.86237966384578
 20
161.345838325421
 10
81.49443661844998
 20
161.345838325421
 42
0.043660942908671
 10
81.06205265605968
 20
161.3080096304211
 10
80.42392352752358
 20
161.1954902478383
 10
79.78579439917666
 20
161.0829708653136
 42
-0.0218200777066378
 10
79.56869838744023
 20
161.0543896332083
 42
-0.0218200774155451
 10
79.34993747315457
 20
161.0448383254179
 10
69.73296059784843
 20
161.0448383254179
 42
-0.0436609429086898
 10
69.29710367190273
 20
161.0829708653573
 10
68.55175899707319
 20
161.2143952413889
 10
67.80727591741015
 20
161.3456676950181
 10
61.01687246284564
 20
161.3456676950181
 42
0.0436609429984822
 10
60.58448850052809
 20
161.3078389999891
 10
59.94967885932419
 20
161.1959049326388
 10
59.31486921812757
 20
161.0839708652884
 42
-0.021820077920887
 10
59.09777320643479
 20
161.0553896332085
 42
-0.0218200771559838
 10
58.8790122921564
 20
161.0458383254181
 10
49.22296059785003
 20
161.0458383254181
 42
-0.0436609427454782
 10
48.78710367182794
 20
161.0839708652956
 10
48.15181018427392
 20
161.1959902478365
 10
47.51651669679995
 20
161.3080096303665
 42
0.0218200772786022
 10
47.30115053377812
 20
161.3363631236671
 42
0.0218200780685668
 10
47.08413273435872
 20
161.345838325421
 10
38.94911702474201
 20
161.345838325421
 42
-0.0486718754551794
 10
38.41943947211985
 20
161.5374182455189
 42
0.1115389484219242
 10
38.20881622614979
 20
161.5849955423209
 42
0.1271124420687983
 10
37.97143434598547
 20
161.5236560641451
 42
-0.1070921106263623
 10
37.26579582168779
 20
161.3112645636383
 42
-0.1070921108129533
 10
36.53552923637472
 20
161.4099893871635
 42
0.0434146780103029
 10
36.36974092196761
 20
161.454265169431
 42
0.043414677538214
 10
36.19879754359136
 20
161.4692475426191
 10
29.65447142392804
 20
161.4734816038135
 42
-0.3482592303032666
 10
29.15819162808475
 20
161.8673834795363
 42
0.1692307955085779
 10
28.98555871342251
 20
162.1397374824473
 42
0.1782507549263066
 10
28.66298578859278
 20
162.2458383101029
 42
0.1147622679388053
 10
28.22607854571834
 20
162.1442998638804
 42
-0.3078348902910648
 10
26.2882577053897
 20
162.4181408853719
 42
-0.211353743018182
 10
25.71848644494821
 20
163.7058383254216
 42
-0.0905873481390574
 10
25.83086299990828
 20
164.3210146587435
 42
0.0452011325659781
 10
25.87868561779032
 20
164.4931257147064
 42
0.0452011328046524
 10
25.89480138464569
 20
164.6710287794149
 10
25.89480138464569
 20
165.4296827186181
 42
0.2478917706189573
 10
25.68099979333056
 20
165.8344226833387
 10
24.67324712702975
 20
166.522122705489
 10
23.66549446072531
 20
167.2098227276756
 42
-0.1220981064783845
 10
23.34174483740207
 20
167.5723305978745
 42
-0.1220981066376205
 10
23.22480138464744
 20
168.0440826550211
 10
23.22480138464744
 20
183.7158383254164
 42
-0.3698961751198035
 10
23.65675190670663
 20
184.219830665631
 42
0.090120630267754
 10
23.82231734020024
 20
184.2771702049567
 42
0.0901206305837061
 10
23.95712496971464
 20
184.389092671513
 10
24.10243168952002
 20
184.5622624768648
 10
24.24773840933267
 20
184.7354322822311
 42
0.087488663328915
 10
24.41965010522836
 20
185.033192073929
 42
0.0874886637314639
 10
24.47935441065056
 20
185.3717920158151
 10
24.47935441065056
 20
186.1783376170197
 42
0.2412360080822551
 10
24.06775173197821
 20
186.9818029483676
 42
-0.2412360080724284
 10
23.34848644494923
 20
188.3858383254182
 42
-0.2412360081017587
 10
24.06775173192
 20
189.7898737024252
 42
0.1189124449445212
 10
24.37046545589692
 20
190.1419596744881
 42
0.1189124451591703
 10
24.47935441065056
 20
190.593339033715
 42
0.0000321706965906
 10
24.47863984073411
 20
201.6992012175315
 42
0.1033233842104849
 10
24.39608557647443
 20
202.094176949201
 42
0.1026380270103929
 10
24.16276029816072
 20
202.4234212090187
 42
-0.2076129707669972
 10
23.43848930068634
 20
204.0822390703788
 42
-0.2083204667884696
 10
24.15751611054657
 20
205.7433638941902
 42
0.1030254552424468
 10
24.38931887083527
 20
206.0722520837544
 42
0.1023401394907558
 10
24.47109462414664
 20
206.4662496243718
 10
24.47109462184744
 20
211.163497228491
 42
0.3047853544802835
 10
23.85512797335104
 20
212.0801209527262
 42
-0.1490089987167826
 10
23.39841406595951
 20
212.45192649418
 42
-0.1490089987869249
 10
23.22671755414922
 20
213.0152623280182
 10
23.22671755414922
 20
222.4842804740283
 42
0.0753723324464898
 10
23.18223101506737
 20
222.7777158066228
 42
0.0753723325494981
 10
23.05276948426035
 20
223.0447795790342
 42
-0.2639480296831515
 10
22.89739030819328
 20
224.8530664003729
 42
-0.2639480303432336
 10
24.37003138572618
 20
225.9139020018401
 42
0.1401084590262261
 10
24.87403099552466
 20
226.1190387399029
 42
-0.0009115728081062
 10
24.9234559452525
 20
226.1576456062021
 42
-0.0036214057556303
 10
25.12118645905139
 20
226.3092309107806
 42
0.0932369352892078
 10
25.61624445318012
 20
226.8535422943923
 42
0.0932369363535124
 10
25.87968312969315
 20
227.5405338253031
 42
-0.1544003904072501
 10
27.06728174542877
 20
229.78530070947
 42
-0.1544003893455039
 10
29.32984358779504
 20
230.9386361964744
 42
-0.0832417958484795
 10
30.72198818040852
 20
230.9371510477531
 42
-0.077180155673788
 10
31.94791930341307
 20
230.5292266891656
 42
0.15518992602704
 10
33.13732700576657
 20
230.3282955083732
 42
0.1551899271287029
 10
34.22428992985442
 20
230.8513400770344
 42
-0.5311665471656032
 10
37.0381186454033
 20
230.2217561937387
 42
0.1507080297991033
 10
37.4020033474626
 20
229.7655565004197
 42
0.1507080297982667
 10
37.95963351814862
 20
229.5935715325204
 10
38.31554165195121
 20
229.5935715325204
 42
0.3201612741666512
 10
39.25167372353462
 20
230.2614585950023
 42
-0.1561761922517577
 10
39.62012018966925
 20
230.755032664968
 42
-0.1561760351625474
 10
40.20671755414878
 20
230.942838325419
 10
72.17414544684288
 20
230.942838325419
 42
0.0766379258978734
 10
72.55316841541935
 20
230.9718838355065
 42
-0.0381128233826393
 10
73.08995839017007
 20
231.0548086316075
 42
0.0381128234278422
 10
73.62373945364016
 20
231.1372686028435
 42
-0.0573159194758573
 10
73.81628741302847
 20
231.1595006520465
 42
0.018975548931468
 10
74.00731183893367
 20
231.1668383254173
 10
83.73822254624974
 20
231.1668383254173
 42
-0.0349251381852304
 10
84.08759041121811
 20
231.1424050806845
 10
84.70415943414264
 20
231.0557409817657
 10
85.32072845735092
 20
230.9690768829123
 42
0.0174572471727728
 10
85.49359721841756
 20
230.9509053561296
 42
0.0174572473365537
 10
85.66731251444435
 20
230.9448383254157
 10
95.84240316534851
 20
230.9448383254157
 42
0.0248149469652876
 10
96.08910392135294
 20
230.9570896018804
 10
96.87952565496381
 20
231.0357891234553
 10
97.66994738848007
 20
231.1144886450957
 42
-0.0124055639960747
 10
97.7941353043243
 20
231.1237490041703
 42
-0.0124055640961904
 10
97.91862967675115
 20
231.1268383254164
 10
104.7542388352485
 20
231.1268383254164
 42
-0.0218113471983878
 10
104.9729124673467
 20
231.1172946522156
 10
105.4148707331878
 20
231.078643859516
 10
105.8568289992145
 20
231.0399930668018
 42
0.0109043773331375
 10
105.9651913545458
 20
231.0328934719173
 42
0.0109043759024301
 10
106.073760211766
 20
231.0305254389195
 10
112.8241652897486
 20
231.0305254389195
 42
0.0218200773439604
 10
113.0411830893754
 20
231.0400006406226
 10
113.4828767544677
 20
231.0786438290989
 10
113.9245704196801
 20
231.1172870175897
 42
-0.0109303645040632
 10
114.0340635501634
 20
231.1244588213039
 10
122.9667825812685
 20
231.1268384416826
 10
123.517870733187
 20
231.0786438595669
 10
124.0680880054096
 20
231.0305254389195
 10
130.9271652897514
 20
231.0305254389195
 42
0.0218200773193055
 10
131.1441830891308
 20
231.0400006406007
 10
131.5858767544705
 20
231.0786438290989
 10
132.0275704196829
 20
231.1172870175897
 42
-0.0109087399131995
 10
132.1368466718486
 20
231.1244493615877
 42
-0.0109087412447688
 10
132.246331334165
 20
231.1268383254164
 10
138.6514864449491
 20
231.1268383254164
 42
-0.4142135623732376
 10
139.6614864449511
 20
230.116838325418
 10
139.6614864449511
 20
228.5863917159177
 42
0.4142135623732189
 10
140.6514864449491
 20
227.5963917159197
 10
153.0951900584478
 20
227.5963917159197
 42
0.1540460809404266
 10
153.6634468969496
 20
227.7757227541979
 42
0.1540460807951945
 10
154.0258328488671
 20
228.2487469372272
 42
-0.3155809593995078
 10
155.19148644495
 20
229.0658383254186
 10
158.5014864449476
 20
229.0658383254186
 42
-0.1540460807613606
 10
159.2132424850897
 20
228.8412216714123
 42
-0.1540460809258648
 10
159.6671400410305
 20
228.2487469372236
 42
0.3155809594512905
 10
160.5977828314498
 20
227.5963917159197
 10
167.5096331772511
 20
227.5963917159197
 42
0.5665995835901983
 10
167.9417000277535
 20
228.3175155716117
 42
-0.5665995836745927
 10
169.4714864449488
 20
230.8707442628174
 42
-0.4364209505359357
 10
171.2014864449593
 20
229.0054596017608
 10
171.2014864449484
 20
228.0863917159177
 42
0.4142135623733452
 10
171.69148644495
 20
227.5963917159197
 10
176.4246778406596
 20
227.5963917159197
 42
-0.0796805858898968
 10
176.7559257218672
 20
227.5454744791596
 42
-0.0849081167294128
 10
177.0206155382548
 20
227.4064092460057
 42
-0.1833820722001629
 10
177.3441306612658
 20
226.8730815556146
 42
0.1733293911056375
 10
177.6872895413253
 20
226.3018688534712
 42
0.1733490717646335
 10
178.3148413261515
 20
226.0775572740195
 10
179.9514864449484
 20
226.0775572740195
 42
-1.0
 10
179.9514864449447
 20
222.5941193767166
 10
178.355039835551
 20
222.5941193767166
 42
0.4142135623732188
 10
177.3650398355457
 20
221.6041193767187
 10
177.3650398355457
 20
218.3058383254202
 42
0.4142135623732188
 10
178.355039835551
 20
217.3158383254186
 10
182.3884864449501
 20
217.3158383254186
 42
-0.4142135623728549
 10
182.8984864449485
 20
216.8058383254201
 10
182.8984864449485
 20
200.0358383254197
 42
-0.4142135623728549
 10
182.3884864449501
 20
199.5258383254176
 10
180.7064529417475
 20
199.5258383254176
 42
0.4142135623730734
 10
180.2164529417496
 20
199.0358383254197
 10
180.2164529417496
 20
198.6108892438196
 42
0.4142135623730733
 10
180.7064529417475
 20
198.120889243818
 10
182.3884864449501
 20
198.120889243818
 42
-0.414213562373116
 10
182.8984864449448
 20
197.6108892438196
 10
182.8984864449485
 20
195.1607874069186
 42
-0.4142135623728549
 10
182.3884864449501
 20
194.6507874069166
 10
181.5064529417504
 20
194.6507874069166
 42
0.4142135623730733
 10
181.0164529417452
 20
194.1607874069186
 10
181.0164529417452
 20
188.8443366699166
 42
-0.4142135623731056
 10
180.0064529417504
 20
187.8343366699182
 10
178.9343291574478
 20
187.8343366699182
 42
0.2624583085618617
 10
178.0873013203672
 20
187.3568245655869
 42
0.2602482618703583
  0
LWPOLYLINE
  5
494
330
1F
100
AcDbEntity
  8
KS2
100
AcDbPolyline
 90
       45
 70
     0
 43
0.0
 10
143.9673304369862
 20
163.9603383251187
 42
-0.39963753424722
 10
143.4579683359916
 20
163.4758383251128
 10
140.6359761027124
 20
163.4758383251128
 42
0.1126969576775002
 10
140.2080579597641
 20
163.3709773969849
 42
0.2838640865764784
 10
139.6614864449438
 20
162.4858646426828
 10
139.6614864449511
 20
161.8558383254158
 42
-0.4142135623728549
 10
139.1514864449491
 20
161.345838325421
 10
131.7755292026486
 20
161.345838325421
 42
-0.0795573219683006
 10
131.4601568037687
 20
161.3963383254185
 42
0.0397159159794338
 10
131.307562147027
 20
161.4333849994973
 42
0.0397159159011391
 10
131.1510294028485
 20
161.4458383254195
 10
129.8369434871492
 20
161.4458383254195
 42
0.0795573219689147
 10
129.5278160862654
 20
161.3963383254185
 42
-0.039715915981185
 10
129.3721387091864
 20
161.3585432336831
 42
-0.039715915898643
 10
129.2124436873491
 20
161.345838325421
 10
122.8824320405874
 20
161.345838325421
 42
-0.2643038937755036
 10
121.2343291570942
 20
163.8548696215866
 10
121.2343291570942
 20
193.5358383250668
 42
-0.4142135623730467
 10
123.764329157093
 20
196.0658383250656
 10
175.4343291570912
 20
196.0658383250656
 42
-0.4142135623730466
 10
177.9643291570974
 20
193.5358383250668
 10
177.9643291573884
 20
187.9592238381474
 42
0.0555965368761659
 10
177.9771084897438
 20
187.8446498694238
 10
178.0873013203672
 20
187.3568245655869
 42
0.1368750484104073
 10
177.9443291574498
 20
186.8443366699166
 10
177.9443291574498
 20
172.9887135072194
 42
0.4142135623730844
 10
178.9343291574478
 20
171.9987135072178
 10
180.0064529417504
 20
171.9987135072178
 42
-0.4142135623731056
 10
181.0164529417452
 20
170.9887135072194
 10
181.0164529417452
 20
169.0829631435181
 42
-0.4142135623731056
 10
180.0064529417504
 20
168.0729631435197
 10
178.9343291574478
 20
168.0729631435197
 42
0.4142135623730844
 10
177.9443291574498
 20
167.0829631435181
 10
177.9443291574498
 20
165.4358383254175
 42
-0.4142135623731056
 10
176.9343291574478
 20
164.4258383254191
 10
163.7267175541492
 20
164.4258383254191
 42
0.4142135623733452
 10
163.2367175541512
 20
163.9358383254175
 10
163.2367175541512
 20
163.022488948317
 42
-0.0932357521583244
 10
163.1676842937595
 20
162.6554990371542
 42
-0.3090427304165006
 10
161.5514864449505
 20
161.5510694345166
 42
-0.4142135624934126
 10
159.8167175540511
 20
163.2858383254197
 10
159.8167175541457
 20
163.9358383254175
 42
0.414213562373617
 10
159.3267175541477
 20
164.4258383254191
 10
144.4567175541488
 20
164.4258383254191
 42
0.3992184494004598
 10
143.9673663677604
 20
163.9610458006709
 42
0.3992184494004598
  0
LWPOLYLINE
  5
49F
330
1F
100
AcDbEntity
  8
KS2
100
AcDbPolyline
 90
        4
 70
     0
 43
0.0
 10
55.27806769040035
 20
192.7180645710659
 10
55.51761419546892
 20
192.2389715609324
 10
56.23625371066736
 20
191.5203320457303
 10
51.22973175476727
 20
191.5203320457303
  0
LWPOLYLINE
  5
4A0
330
1F
100
AcDbEntity
  8
KS2
100
AcDbPolyline
 90
       14
 70
     0
 43
0.0
 10
55.03852118533178
 20
117.3368510660029
 10
55.27806769040035
 20
117.3368510660029
 10
55.75716070053386
 20
117.0973045609362
 10
55.99670720560244
 20
116.8577580558694
 10
56.23625371066736
 20
116.3786650457341
 10
56.23625371066736
 20
115.4444336759725
 10
55.99670720560244
 20
114.965340665839
 10
55.75716070053386
 20
114.7257941607722
 10
55.27806769040035
 20
114.4862476557054
 10
54.79897468026684
 20
114.4862476557054
 10
54.34383632064054
 20
114.7257941607722
 10
53.62519680543846
 20
115.2048871709057
 10
51.22973175476727
 20
117.5763975710697
 10
51.22973175476727
 20
114.2467011506387
  0
LWPOLYLINE
  5
4A1
330
1F
100
AcDbEntity
  8
KS2
100
AcDbPolyline
 90
       15
 70
     0
 43
0.0
 10
56.23625371066736
 20
41.9556375609327
 10
56.23625371066736
 20
39.34458065570197
 10
54.34383632064054
 20
40.7579050355971
 10
54.34383632064054
 20
40.06322017090224
 10
54.10428981557197
 20
39.58412716076873
 10
53.8647433105034
 20
39.34458065570197
 10
53.14610379530495
 20
39.10503415063522
 10
52.66701078517144
 20
39.10503415063522
 10
51.94837126996936
 20
39.34458065570197
 10
51.46927825983585
 20
39.82367366583549
 10
51.22973175476727
 20
40.51835853053034
 10
51.22973175476727
 20
41.23699804573061
 10
51.46927825983585
 20
41.9556375609327
 10
51.70882476490078
 20
42.19518406599945
 10
52.18791777503793
 20
42.43473057106621
  0
LWPOLYLINE
  5
4A2
330
1F
100
AcDbEntity
  8
KISSCUT1
100
AcDbPolyline
 90
        4
 70
     1
 43
0.0
 10
101.5814864449494
 20
139.1241723253688
 10
101.5814864449494
 20
104.0641723253711
 10
91.52148644494809
 20
104.0641723253711
 10
91.52148644494809
 20
139.1241723253688
  0
LWPOLYLINE
  5
4A3
330
1F
100
AcDbEntity
  8
KISSCUT1
100
AcDbPolyline
 90
        6
 70
     1
 43
0.0
 10
38.2814864449465
 20
135.0841723253679
 10
38.2814864449465
 20
125.0541723253691
 10
26.72148644494882
 20
125.0541723253691
 10
26.72148644494882
 20
135.0841723253679
 42
-0.414213562373041
 10
28.25148644494766
 20
136.6141723253668
 10
36.75148644494766
 20
136.6141723253668
 42
-0.414213562373041
  0
LWPOLYLINE
  5
4A4
330
1F
100
AcDbEntity
  8
KS2
100
AcDbPolyline
 90
        9
 70
     0
 43
0.0
 10
193.1884726929929
 20
144.9253609132201
 10
185.3902543130752
 20
144.9391471592816
 42
0.2258472754914219
 10
184.6134864350606
 20
144.5711099432219
 42
-0.441219520110441
 10
184.3184864449504
 20
144.5546736073402
 10
184.3184864449504
 20
142.5223716336468
 10
184.3687396344467
 20
142.2373716336505
 10
184.3687396344467
 20
119.5234958400424
 10
184.3184864449504
 20
119.2384958400425
 10
184.3184864449504
 20
94.40344999567514
  0
LWPOLYLINE
  5
4A5
330
1F
100
AcDbEntity
  8
KS2
100
AcDbPolyline
 90
       40
 70
     0
 43
0.0
 10
184.3184864449504
 20
94.40344999567514
 42
-0.0221475400565879
 10
184.3315006585872
 20
93.10347286940578
 42
-0.0183292660253892
 10
184.2542597107385
 20
91.43507960695478
 42
-0.0474368856086104
 10
183.8946529676395
 20
89.43656217523585
 42
-0.0933064407201617
 10
182.775314366525
 20
87.15179708052801
 42
-0.0919685626218707
 10
181.1447654037656
 20
85.64889772454534
 42
-0.0700108438908218
 10
179.2228442797495
 20
84.78723378571794
 42
-0.0537144924380884
 10
177.0429567309402
 20
84.40327469408202
 42
-0.0214209939112217
 10
174.1617661525743
 20
84.33357232457547
 10
31.23151245286499
 20
84.3339789356969
 42
-0.0153750902019385
 10
28.77712339265782
 20
84.41372331960792
 42
-0.0716324286831471
 10
25.90484736614599
 20
84.96016326617155
 42
-0.0841590963491591
 10
23.87358797062916
 20
86.13090332158662
 42
-0.079918020919868
 10
22.52721893022681
 20
87.6695969331986
 42
-0.0650116504163371
 10
21.70123640330712
 20
89.51855338658697
 42
-0.0431665816099187
 10
21.35643892353619
 20
91.08984033377693
 42
-0.0269472704145808
 10
21.23475294877426
 20
93.17946502703035
 42
-0.0037000490443395
 10
21.22848644494661
 20
94.40353811761724
 10
21.22848644494661
 20
147.7847894629331
 42
-0.0019148612922037
 10
21.23084333331644
 20
148.6618867892493
 42
-0.0074479861409863
 10
21.25332912614249
 20
149.7349080294871
 42
-0.0306985247960921
 10
21.38857027816994
 20
151.3157776676953
 42
-0.0305344539807888
 10
21.65797104188823
 20
152.5434784363015
 42
-0.0596248477063371
 10
22.36275795070833
 20
154.2785785759979
 42
-0.0591049845334056
 10
23.28112082852022
 20
155.5318380291055
 42
-0.1034963864446348
 10
25.60280423956283
 20
157.1250661719159
 42
-0.0770645813077584
 10
28.30685302185884
 20
157.7581531081005
 42
-0.0234095901090013
 10
31.46124364167917
 20
157.8547723253714
 10
174.1616641992805
 20
157.8547723253714
 42
-0.0126361890883132
 10
176.4460700929776
 20
157.8241162314325
 42
-0.0274924953684784
 10
177.8849894887753
 20
157.6898104733036
 42
-0.0455301250239864
 10
179.5309446323226
 20
157.3037015920627
 42
-0.0606228427894645
 10
181.1446891495215
 20
156.5394949710489
 42
-0.0786777913869432
 10
182.6025859400179
 20
155.2537864823234
 42
-0.0733688673524364
 10
183.6305867099508
 20
153.5563177614412
 42
-0.0229338351578221
 10
183.8895259278542
 20
152.8059965776983
 42
-0.047287732334987
 10
184.2012079666238
 20
151.2021549037408
 42
-0.3902845721619235
 10
184.4721420819987
 20
151.1987742527262
 42
0.191460109869802
 10
185.1586556198963
 20
150.9258912737632
 10
193.1884731617974
 20
150.9258912737632
  0
LWPOLYLINE
  5
4A6
330
1F
100
AcDbEntity
  8
KS3
100
AcDbPolyline
 90
        7
 70
     0
 43
0.0
 10
184.2012079666456
 20
151.202154903759
 42
0.183357021934292
 10
184.1361306731705
 20
151.076041203064
 42
-0.0242927321537796
 10
184.2514783625011
 20
149.0862259310443
 42
-0.00390924325302
 10
184.2584864331511
 20
147.7892541875326
 10
184.2584864331511
 20
145.7891213987304
 10
184.2584864331511
 20
144.6975021874777
 42
0.2015127761170709
 10
184.3184864449504
 20
144.5546736073402
 42
0.2015127761170709
  0
CIRCLE
  5
4A7
330
1F
100
AcDbEntity
  8
KISSCUT1
100
AcDbCircle
 10
33.55148644459405
 20
144.0941723250644
 30
0.0
 40
5.03
  0
CIRCLE
  5
4A8
330
1F
100
AcDbEntity
  8
KISSCUT1
100
AcDbCircle
 10
174.5514864445977
 20
133.0941723250644
 30
0.0
 40
5.03
  0
CIRCLE
  5
4A9
330
1F
100
AcDbEntity
  8
KISSCUT1
100
AcDbCircle
 10
121.551486444594
 20
147.0941723250644
 30
0.0
 40
5.03
  0
CIRCLE
  5
4AA
330
1F
100
AcDbEntity
  8
KISSCUT1
100
AcDbCircle
 10
66.55148644459405
 20
147.0941723250644
 30
0.0
 40
5.03
  0
CIRCLE
  5
4AB
330
1F
100
AcDbEntity
  8
KISSCUT1
100
AcDbCircle
 10
66.55148644459405
 20
94.0941723250644
 30
0.0
 40
5.03
  0
CIRCLE
  5
4AC
330
1F
100
AcDbEntity
  8
KISSCUT1
100
AcDbCircle
 10
109.551486444594
 20
94.0941723250644
 30
0.0
 40
5.03
  0
LWPOLYLINE
  5
4AD
330
1F
100
AcDbEntity
  8
KISSCUT1
100
AcDbPolyline
 90
        4
 70
     1
 43
0.0
 10
68.2214864445923
 20
131.1241723250632
 10
78.28148644459725
 20
131.1241723250632
 10
78.28148644459725
 20
121.0641723250655
 10
68.2214864445923
 20
121.0641723250655
  0
LINE
  5
4AE
330
1F
100
AcDbEntity
  8
KS3
100
AcDbLine
 10
141.0214864445952
 20
155.2347257155625
 30
0.0
 11
143.5214864445952
 21
155.2347257155625
 31
0.0
  0
LINE
  5
4AF
330
1F
100
AcDbEntity
  8
KS3
100
AcDbLine
 10
146.5214864445952
 20
155.2347257155625
 30
0.0
 11
149.0214864445952
 21
155.2347257155625
 31
0.0
  0
LINE
  5
4B0
330
1F
100
AcDbEntity
  8
KS3
100
AcDbLine
 10
152.0214864445952
 20
155.2347257155625
 30
0.0
 11
154.5214864445952
 21
155.2347257155625
 31
0.0
  0
LINE
  5
4B1
330
1F
100
AcDbEntity
  8
KS3
100
AcDbLine
 10
157.5214864445952
 20
155.2347257155625
 30
0.0
 11
160.0214864445952
 21
155.2347257155625
 31
0.0
  0
LINE
  5
4B2
330
1F
100
AcDbEntity
  8
KS3
100
AcDbLine
 10
163.0214864445952
 20
155.2347257155625
 30
0.0
 11
165.5214864445952
 21
155.2347257155625
 31
0.0
  0
LINE
  5
4B3
330
1F
100
AcDbEntity
  8
KS3
100
AcDbLine
 10
145.1514864445926
 20
86.45357232506558
 30
0.0
 11
142.6514864445926
 21
86.45357232506558
 31
0.0
  0
LINE
  5
4B4
330
1F
100
AcDbEntity
  8
KS3
100
AcDbLine
 10
148.1514864445926
 20
86.45357232506558
 30
0.0
 11
150.6514864445926
 21
86.45357232506558
 31
0.0
  0
LINE
  5
4B5
330
1F
100
AcDbEntity
  8
KS3
100
AcDbLine
 10
153.6514864445926
 20
86.45357232506558
 30
0.0
 11
156.1514864445926
 21
86.45357232506558
 31
0.0
  0
LWPOLYLINE
  5
4B6
330
1F
100
AcDbEntity
  8
KS2
100
AcDbPolyline
 90
        3
 70
     0
 43
0.0
 10
31.88961693834426
 20
100.6715506094761
 10
28.88961693834426
 20
100.6715506094761
 10
28.88961693834426
 20
97.67155060947608
  0
LWPOLYLINE
  5
4B7
330
1F
100
AcDbEntity
  8
KS2
100
AcDbPolyline
 90
        3
 70
     0
 43
0.0
 10
154.839651049715
 20
133.8986633226659
 42
1.067896706230057
 10
154.8560762108463
 20
130.5329152535623
 10
159.8560762108463
 20
130.5329152535623
 42
-32.90422217352893
  0
LWPOLYLINE
  5
4B8
330
1F
100
AcDbEntity
  8
KS2
100
AcDbPolyline
 90
        3
 70
     0
 43
0.0
 10
138.5103772599759
 20
135.589089701999
 10
138.5103772599759
 20
131.589089701999
 10
134.5103772599759
 20
131.589089701999
  0
LINE
  5
4B9
330
1F
100
AcDbEntity
  8
KS2
100
AcDbLine
 10
124.2143291570937
 20
117.4441723250629
 30
0.0
 11
174.9643291574466
 21
117.4441723250629
 31
0.0
  0
LINE
  5
4BA
330
1F
100
AcDbEntity
  8
KS2
100
AcDbLine
 10
124.2143291570937
 20
112.4441723250629
 30
0.0
 11
174.9643291574466
 21
112.4441723250629
 31
0.0
  0
LINE
  5
4BB
330
1F
100
AcDbEntity
  8
KS2
100
AcDbLine
 10
124.2143291570937
 20
107.4441723250629
 30
0.0
 11
174.9643291574466
 21
107.4441723250629
 31
0.0
  0
LINE
  5
4BC
330
1F
100
AcDbEntity
  8
KS2
100
AcDbLine
 10
124.2143291570937
 20
102.4441723250629
 30
0.0
 11
174.9643291574466
 21
102.4441723250629
 31
0.0
  0
LINE
  5
4BD
330
1F
100
AcDbEntity
  8
KS2
100
AcDbLine
 10
124.2143291570937
 20
97.44417232506293
 30
0.0
 11
174.9643291574466
 21
97.44417232506293
 31
0.0
  0
LINE
  5
4BE
330
1F
100
AcDbEntity
  8
KS2
100
AcDbLine
 10
124.2143291570937
 20
92.44417232506293
 30
0.0
 11
174.9643291574466
 21
92.44417232506293
 31
0.0
  0
LWPOLYLINE
  5
4BF
330
1F
100
AcDbEntity
  8
KISSCUT1
100
AcDbPolyline
 90
        5
 70
     0
 43
0.0
 10
51.55148644459405
 20
111.0941723250644
 10
51.55148644459405
 20
105.0941723250644
 10
45.55148644459404
 20
105.0941723250644
 10
45.55148644459404
 20
111.0941723250644
 10
51.55148644459405
 20
111.0941723250644
  0
LWPOLYLINE
  5
4C0
330
1F
100
AcDbEntity
  8
KS2
100
AcDbPolyline
 90
        2
 70
     0
 43
0.0
 10
52.68971626405255
 20
143.8299288658591
 10
50.96717858748888
 20
143.4070888836095
  0
LWPOLYLINE
  5
4C1
330
1F
100
AcDbEntity
  8
KS2
100
AcDbPolyline
 90
        2
 70
     0
 43
0.0
 10
50.36717858749034
 20
143.259803867556
 10
48.32088252446919
 20
142.7574892867224
  0
LINE
  5
4C2
330
1F
100
AcDbEntity
  8
KS2
100
AcDbLine
 10
52.68971626405255
 20
144.2851163035657
 30
-0.0000000000001409
 11
50.96717858748888
 21
144.718797322922
 31
-0.0000000000001409
  0
LINE
  5
4C3
330
1F
100
AcDbEntity
  8
KS2
100
AcDbLine
 10
50.36717858749034
 20
144.8698585247466
 30
-0.0000000000001409
 11
48.3480976019855
 21
145.3781998584991
 31
-0.0000000000001409
  0
LINE
  5
4C4
330
1F
100
AcDbEntity
  8
KS2
100
AcDbLine
 10
50.26625242739829
 20
144.8952685698086
 30
-0.0000000000001409
 11
50.26625242739829
 21
143.2350290157037
 31
-0.0000000000001409
  0
LWPOLYLINE
  5
4C5
330
1F
100
AcDbEntity
  8
KS2
100
AcDbPolyline
 90
        2
 70
     0
 43
0.0
 10
52.68971626405255
 20
143.8299288658591
 10
50.96717858748888
 20
143.4070888836095
  0
LWPOLYLINE
  5
4C6
330
1F
100
AcDbEntity
  8
KS2
100
AcDbPolyline
 90
        2
 70
     0
 43
0.0
 10
50.36717858749034
 20
143.259803867556
 10
48.32088252446919
 20
142.7574892867224
  0
LINE
  5
4C7
330
1F
100
AcDbEntity
  8
KS2
100
AcDbLine
 10
52.68971626405255
 20
144.2851163035657
 30
-0.0000000000001409
 11
50.96717858748888
 21
144.718797322922
 31
-0.0000000000001409
  0
LINE
  5
4C8
330
1F
100
AcDbEntity
  8
KS2
100
AcDbLine
 10
50.36717858749034
 20
144.8698585247466
 30
-0.0000000000001409
 11
48.3480976019855
 21
145.3781998584991
 31
-0.0000000000001409
  0
LINE
  5
4C9
330
1F
100
AcDbEntity
  8
KS2
100
AcDbLine
 10
50.26625242739829
 20
144.8952685698086
 30
-0.0000000000001409
 11
50.26625242739829
 21
143.2350290157037
 31
-0.0000000000001409
  0
LWPOLYLINE
  5
4CA
330
1F
100
AcDbEntity
  8
KS2
100
AcDbPolyline
 90
        2
 70
     0
 43
0.0
 10
52.12445803928858
 20
133.0437258061492
 42
-0.5889617970550704
 10
52.13420874662915
 20
130.4103353073069
  0
LWPOLYLINE
  5
4CB
330
1F
100
AcDbEntity
  8
KS2
100
AcDbPolyline
 90
        2
 70
     0
 43
0.0
 10
48.78149414251675
 20
130.5676864913575
 42
-0.5917799031814205
 10
48.81169789501655
 20
133.0346199444384
 42
-0.9121375415680898
  0
LWPOLYLINE
  5
4CC
330
1F
100
AcDbEntity
  8
KS2
100
AcDbPolyline
 90
        2
 70
     0
 43
0.0
 10
52.12445803928858
 20
141.4594836287351
 42
-0.5889617970550704
 10
52.13420874662915
 20
138.8260931298928
  0
LWPOLYLINE
  5
4CD
330
1F
100
AcDbEntity
  8
KS2
100
AcDbPolyline
 90
        2
 70
     0
 43
0.0
 10
49.32195151240012
 20
138.8095929291949
 42
-0.9121375415680898
 10
49.36756200066156
 20
141.611847185005
 42
-0.9121375415680898
  0
LINE
  5
4CE
330
1F
100
AcDbEntity
  8
KS2
100
AcDbLine
 10
50.27706343667524
 20
141.5906263974602
 30
0.0
 11
51.52460759941459
 21
141.5906263974602
 31
0.0
  0
LINE
  5
4CF
330
1F
100
AcDbEntity
  8
KS2
100
AcDbLine
 10
52.91816932054643
 20
135.9421829291923
 30
0.0
 11
50.95187794859521
 21
135.9421829291923
 31
0.0
  0
LINE
  5
4D0
330
1F
100
AcDbEntity
  8
KS2
100
AcDbLine
 10
50.30187794859376
 20
135.9421829291923
 30
0.0
 11
48.08558657664616
 21
135.9421829291923
 31
0.0
  0
LINE
  5
4D1
330
1F
100
AcDbEntity
  8
KS2
100
AcDbLine
 10
52.91816932054643
 20
127.3815208998194
 30
0.0
 11
50.95187794859521
 21
127.3815208998194
 31
0.0
  0
LINE
  5
4D2
330
1F
100
AcDbEntity
  8
KS2
100
AcDbLine
 10
50.30187794859376
 20
127.3815208998194
 30
0.0
 11
48.08558657664616
 21
127.3815208998194
 31
0.0
  0
LINE
  5
4D3
330
1F
100
AcDbEntity
  8
KS2
100
AcDbLine
 10
50.51463111862904
 20
132.2227150523713
 30
0.0
 11
50.51463111862904
 21
131.2643969114388
 31
0.0
  0
LWPOLYLINE
  5
4D4
330
1F
100
AcDbEntity
  8
KS2
100
AcDbPolyline
 90
        2
 70
     0
 43
0.0
 10
51.76035065447649
 20
130.3673780403433
 42
-0.2928658672646596
 10
50.76998228719458
 20
130.859135995538
 42
-0.1880837426674811
  0
LWPOLYLINE
  5
4D5
330
1F
100
AcDbEntity
  8
KS2
100
AcDbPolyline
 90
        2
 70
     0
 43
0.0
 10
51.81727894371579
 20
133.086195525665
 42
0.3639580689676818
 10
50.73384875170086
 20
132.6111967187307
 42
0.1185077641328896
  0
LWPOLYLINE
  5
4D6
330
1F
100
AcDbEntity
  8
KS2
100
AcDbPolyline
 90
        2
 70
     0
 43
0.0
 10
49.05321736722908
 20
130.412932248516
 42
0.3401012939161061
 10
50.27627543822745
 20
130.859135995538
 42
0.1880837426674811
  0
LWPOLYLINE
  5
4D7
330
1F
100
AcDbEntity
  8
KS2
100
AcDbPolyline
 90
        2
 70
     0
 43
0.0
 10
49.09671292934581
 20
133.0465067481918
 42
-0.4197457753775934
 10
50.25219178438783
 20
132.6111967187307
 42
-0.1185077641328896
  0
LWPOLYLINE
  5
4D8
330
1F
100
AcDbEntity
  8
KS3
100
AcDbPolyline
 90
      189
 70
     0
 43
0.0
 10
122.8824320405874
 20
86.2041723254215
 10
107.6795932261484
 20
86.2041723254215
 42
-0.1581322929043098
 10
107.2510913008154
 20
86.3431680107269
 42
0.0785779530377947
 10
106.9754358236678
 20
86.48336535344332
 42
0.078577952776594
 10
106.6699722514458
 20
86.53166900851919
 10
96.87200063854835
 20
86.53166900851919
 42
0.1581322928155658
 10
96.29088158917875
 20
86.3431680107269
 42
-0.0785779528080562
 10
96.08762047973142
 20
86.23979017208966
 42
-0.0785779530936686
 10
95.86237966384578
 20
86.2041723254215
 10
81.49443661844998
 20
86.2041723254215
 42
0.043660942908671
 10
81.06205265605968
 20
86.16634363042157
 10
80.42392352752358
 20
86.05382424783874
 10
79.78579439917666
 20
85.94130486531412
 42
-0.0218200777066378
 10
79.56869838744023
 20
85.91272363320877
 42
-0.0218200774155451
 10
79.34993747315457
 20
85.90317232541838
 10
69.73296059784843
 20
85.90317232541838
 42
-0.0436609429086898
 10
69.29710367190273
 20
85.94130486535778
 10
68.55175899707319
 20
86.07272924138943
 10
67.80727591741015
 20
86.20400169501863
 10
61.01687246284564
 20
86.20400169501863
 42
0.0436609429984822
 10
60.58448850052809
 20
86.16617299998962
 10
59.94967885932419
 20
86.05423893263923
 10
59.31486921812757
 20
85.94230486528886
 42
-0.021820077920887
 10
59.09777320643479
 20
85.91372363320898
 42
-0.0218200771559838
 10
58.8790122921564
 20
85.90417232541858
 10
49.22296059785003
 20
85.90417232541858
 42
-0.0436609427454782
 10
48.78710367182794
 20
85.94230486529614
 10
48.15181018427392
 20
86.05432424783703
 10
47.51651669679995
 20
86.166343630367
 42
0.0218200772786022
 10
47.30115053377812
 20
86.19469712366754
 42
0.0218200780685668
 10
47.08413273435872
 20
86.2041723254215
 10
38.94911702474201
 20
86.2041723254215
 42
-0.0486718754551794
 10
38.41943947211985
 20
86.39575224551936
 42
0.1115389484219242
 10
38.20881622614979
 20
86.4433295423214
 42
0.1271124420687983
 10
37.97143434598547
 20
86.38199006414561
 42
-0.1070921106263623
 10
37.26579582168779
 20
86.16959856363882
 42
-0.1070921108129533
 10
36.53552923637472
 20
86.26832338716395
 42
0.0434146780103029
 10
36.36974092196761
 20
86.31259916943145
 42
0.043414677538214
 10
36.19879754359136
 20
86.32758154261955
 10
29.65447142392804
 20
86.331815603814
 42
-0.3482592303032666
 10
29.15819162808475
 20
86.7257174795368
 42
0.1692307955085779
 10
28.98555871342251
 20
86.99807148244781
 42
0.1782507549263066
 10
28.66298578859278
 20
87.10417231010342
 42
0.1147622679388053
 10
28.22607854571834
 20
87.00263386388087
 42
-0.3078348902910648
 10
26.2882577053897
 20
87.27647488537241
 42
-0.211353743018182
 10
25.71848644494821
 20
88.56417232542208
 42
-0.0905873481390574
 10
25.83086299990828
 20
89.17934865874395
 42
0.0452011325659781
 10
25.87868561779032
 20
89.35145971470683
 42
0.0452011328046524
 10
25.89480138464569
 20
89.52936277941535
 10
25.89480138464569
 20
90.28801671861856
 42
0.2478917706189573
 10
25.68099979333056
 20
90.6927566833392
 10
24.67324712702975
 20
91.38045670548946
 10
23.66549446072531
 20
92.06815672767607
 42
-0.1220981064783845
 10
23.34174483740207
 20
92.43066459787497
 42
-0.1220981066376205
 10
23.22480138464744
 20
92.90241665502163
 10
23.22480138464744
 20
108.5741723254168
 42
-0.3698961751198035
 10
23.65675190670663
 20
109.0781646656314
 42
0.090120630267754
 10
23.82231734020024
 20
109.1355042049572
 42
0.0901206305837061
 10
23.95712496971464
 20
109.2474266715135
 10
24.10243168952002
 20
109.4205964768653
 10
24.24773840933267
 20
109.5937662822316
 42
0.087488663328915
 10
24.41965010522836
 20
109.8915260739295
 42
0.0874886637314639
 10
24.47935441065056
 20
110.2301260158156
 10
24.47935441065056
 20
111.0366716170201
 42
0.2412360080822551
 10
24.06775173197821
 20
111.8401369483681
 42
-0.2412360080724284
 10
23.34848644494923
 20
113.2441723254187
 42
-0.2412360081017587
 10
24.06775173192
 20
114.6482077024256
 42
0.1189124449445212
 10
24.37046545589692
 20
115.0002936744886
 42
0.1189124451591703
 10
24.47935441065056
 20
115.4516730337154
 42
0.0000321706965906
 10
24.47863984073411
 20
126.5575352175319
 42
0.1033233842104849
 10
24.39608557647443
 20
126.9525109492015
 42
0.1026380270103929
 10
24.16276029816072
 20
127.2817552090191
 42
-0.2076129707669972
 10
23.43848930068634
 20
128.9405730703793
 42
-0.2083204667884696
 10
24.15751611054657
 20
130.6016978941907
 42
0.1030254552424468
 10
24.38931887083527
 20
130.9305860837548
 42
0.1023401394907558
 10
24.47109462414664
 20
131.3245836243723
 10
24.47109462184744
 20
136.0218312284914
 42
0.3047853544802835
 10
23.85512797335104
 20
136.9384549527267
 42
-0.1490089987167826
 10
23.39841406595951
 20
137.3102604941805
 42
-0.1490089987869249
 10
23.22671755414922
 20
137.8735963280187
 10
23.22671755414922
 20
147.3426144740288
 42
0.0753723324464898
 10
23.18223101506737
 20
147.6360498066233
 42
0.0753723325494981
 10
23.05276948426035
 20
147.9031135790346
 42
-0.2639480296831515
 10
22.89739030819328
 20
149.7114004003733
 42
-0.2639480303432336
 10
24.37003138572618
 20
150.7722360018406
 42
0.1401084590262261
 10
24.87403099552466
 20
150.9773727399033
 42
-0.0009115728081062
 10
24.9234559452525
 20
151.0159796062025
 42
-0.0036214057556303
 10
25.12118645905139
 20
151.167564910781
 42
0.0932369352892078
 10
25.61624445318012
 20
151.7118762943928
 42
0.0932369363535124
 10
25.87968312969315
 20
152.3988678253035
 42
-0.1544003904072501
 10
27.06728174542877
 20
154.6436347094704
 42
-0.1544003893455039
 10
29.32984358779504
 20
155.7969701964748
 42
-0.0832417958484795
 10
30.72198818040852
 20
155.7954850477536
 42
-0.077180155673788
 10
31.94791930341307
 20
155.3875606891661
 42
0.15518992602704
 10
33.13732700576657
 20
155.1866295083737
 42
0.1551899271287029
 10
34.22428992985442
 20
155.7096740770348
 42
-0.5311665471656032
 10
37.0381186454033
 20
155.0800901937391
 42
0.1507080297991033
 10
37.4020033474626
 20
154.6238905004202
 42
0.1507080297982667
 10
37.95963351814862
 20
154.4519055325208
 10
38.31554165195121
 20
154.4519055325208
 42
0.3201612741666512
 10
39.25167372353462
 20
155.1197925950027
 42
-0.1561761922517577
 10
39.62012018966925
 20
155.6133666649684
 42
-0.1561760351625474
 10
40.20671755414878
 20
155.8011723254194
 10
72.17414544684288
 20
155.8011723254194
 42
0.0766379258978734
 10
72.55316841541935
 20
155.830217835507
 42
-0.0381128233826393
 10
73.08995839017007
 20
155.913142631608
 42
0.0381128234278422
 10
73.62373945364016
 20
155.9956026028439
 42
-0.0573159194758573
 10
73.81628741302847
 20
156.017834652047
 42
0.018975548931468
 10
74.00731183893367
 20
156.0251723254177
 10
83.73822254624974
 20
156.0251723254177
 42
-0.0349251381852304
 10
84.08759041121811
 20
156.000739080685
 10
84.70415943414264
 20
155.9140749817661
 10
85.32072845735092
 20
155.8274108829128
 42
0.0174572471727728
 10
85.49359721841756
 20
155.8092393561301
 42
0.0174572473365537
 10
85.66731251444435
 20
155.8031723254162
 10
95.84240316534851
 20
155.8031723254162
 42
0.0248149469652876
 10
96.08910392135294
 20
155.8154236018808
 10
96.87952565496381
 20
155.8941231234557
 10
97.66994738848007
 20
155.9728226450961
 42
-0.0124055639960747
 10
97.7941353043243
 20
155.9820830041708
 42
-0.0124055640961904
 10
97.91862967675115
 20
155.9851723254169
 10
104.7542388352485
 20
155.9851723254169
 42
-0.0218113471983878
 10
104.9729124673467
 20
155.975628652216
 10
105.4148707331878
 20
155.9369778595164
 10
105.8568289992145
 20
155.8983270668022
 42
0.0109043773331375
 10
105.9651913545458
 20
155.8912274719177
 42
0.0109043759024301
 10
106.073760211766
 20
155.88885943892
 10
112.8241652897486
 20
155.88885943892
 42
0.0218200773439604
 10
113.0411830893754
 20
155.898334640623
 10
113.4828767544677
 20
155.9369778290993
 10
113.9245704196801
 20
155.9756210175901
 42
-0.0109303645040632
 10
114.0340635501634
 20
155.9827928213044
 10
122.9667825812685
 20
155.985172441683
 10
123.517870733187
 20
155.9369778595673
 10
124.0680880054096
 20
155.88885943892
 10
130.9271652897514
 20
155.88885943892
 42
0.0218200773193055
 10
131.1441830891308
 20
155.8983346406012
 10
131.5858767544705
 20
155.9369778290993
 10
132.0275704196829
 20
155.9756210175901
 42
-0.0109087399131995
 10
132.1368466718486
 20
155.9827833615882
 42
-0.0109087412447688
 10
132.246331334165
 20
155.9851723254169
 10
138.6514864449491
 20
155.9851723254169
 42
-0.4142135623732376
 10
139.6614864449511
 20
154.9751723254185
 10
139.6614864449511
 20
153.4447257159181
 42
0.4142135623732189
 10
140.6514864449491
 20
152.4547257159202
 10
153.0951900584478
 20
152.4547257159202
 42
0.1540460809404266
 10
153.6634468969496
 20
152.6340567541983
 42
0.1540460807951945
 10
154.0258328488671
 20
153.1070809372277
 42
-0.3155809593995078
 10
155.19148644495
 20
153.924172325419
 10
158.5014864449476
 20
153.924172325419
 42
-0.1540460807613606
 10
159.2132424850897
 20
153.6995556714128
 42
-0.1540460809258648
 10
159.6671400410305
 20
153.107080937224
 42
0.3155809594512905
 10
160.5977828314498
 20
152.4547257159202
 10
167.5096331772511
 20
152.4547257159202
 42
0.5665995835901983
 10
167.9417000277535
 20
153.1758495716121
 42
-0.5665995836745927
 10
169.4714864449488
 20
155.7290782628179
 42
-0.4364209505359357
 10
171.2014864449593
 20
153.8637936017612
 10
171.2014864449484
 20
152.9447257159181
 42
0.4142135623733452
 10
171.69148644495
 20
152.4547257159202
 10
176.4246778406596
 20
152.4547257159202
 42
-0.0796805858898968
 10
176.7559257218672
 20
152.40380847916
 42
-0.0849081167294128
 10
177.0206155382548
 20
152.2647432460062
 42
-0.1833820722001629
 10
177.3441306612658
 20
151.731415555615
 42
0.1733293911056375
 10
177.6872895413253
 20
151.1602028534716
 42
0.1733490717646335
 10
178.3148413261515
 20
150.9358912740199
 10
179.9514864449484
 20
150.9358912740199
 42
-1.0
 10
179.9514864449447
 20
147.4524533767171
 10
178.355039835551
 20
147.4524533767171
 42
0.4142135623732188
 10
177.3650398355457
 20
146.4624533767191
 10
177.3650398355457
 20
143.1641723254206
 42
0.4142135623732188
 10
178.355039835551
 20
142.174172325419
 10
182.3884864449501
 20
142.174172325419
 42
-0.4142135623728549
 10
182.8984864449485
 20
141.6641723254206
 10
182.8984864449485
 20
124.8941723254202
 42
-0.4142135623728549
 10
182.3884864449501
 20
124.3841723254181
 10
180.7064529417475
 20
124.3841723254181
 42
0.4142135623730734
 10
180.2164529417496
 20
123.8941723254202
 10
180.2164529417496
 20
123.4692232438201
 42
0.4142135623730733
 10
180.7064529417475
 20
122.9792232438185
 10
182.3884864449501
 20
122.9792232438185
 42
-0.414213562373116
 10
182.8984864449448
 20
122.4692232438201
 10
182.8984864449485
 20
120.0191214069191
 42
-0.4142135623728549
 10
182.3884864449501
 20
119.509121406917
 10
181.5064529417504
 20
119.509121406917
 42
0.4142135623730733
 10
181.0164529417452
 20
119.0191214069191
 10
181.0164529417452
 20
113.7026706699171
 42
-0.4142135623731056
 10
180.0064529417504
 20
112.6926706699187
 10
178.9343291574478
 20
112.6926706699187
 42
0.2624583085618617
 10
178.0873013203672
 20
112.2151585655874
 42
0.2602482618703583
  0
LWPOLYLINE
  5
4D9
330
1F
100
AcDbEntity
  8
KS2
100
AcDbPolyline
 90
       45
 70
     0
 43
0.0
 10
143.9673304369862
 20
88.81867232511922
 42
-0.39963753424722
 10
143.4579683359916
 20
88.33417232511328
 10
140.6359761027124
 20
88.33417232511328
 42
0.1126969576775002
 10
140.2080579597641
 20
88.22931139698539
 42
0.2838640865764784
 10
139.6614864449438
 20
87.3441986426833
 10
139.6614864449511
 20
86.71417232541626
 42
-0.4142135623728549
 10
139.1514864449491
 20
86.2041723254215
 10
131.7755292026486
 20
86.2041723254215
 42
-0.0795573219683006
 10
131.4601568037687
 20
86.25467232541906
 42
0.0397159159794338
 10
131.307562147027
 20
86.29171899949779
 42
0.0397159159011391
 10
131.1510294028485
 20
86.30417232542004
 10
129.8369434871492
 20
86.30417232542004
 42
0.0795573219689147
 10
129.5278160862654
 20
86.25467232541906
 42
-0.039715915981185
 10
129.3721387091864
 20
86.21687723368358
 42
-0.039715915898643
 10
129.2124436873491
 20
86.2041723254215
 10
122.8824320405874
 20
86.2041723254215
 42
-0.2643038937755036
 10
121.2343291570942
 20
88.71320362158712
 10
121.2343291570942
 20
118.3941723250673
 42
-0.4142135623730467
 10
123.764329157093
 20
120.9241723250661
 10
175.4343291570912
 20
120.9241723250661
 42
-0.4142135623730466
 10
177.9643291570974
 20
118.3941723250673
 10
177.9643291573884
 20
112.8175578381479
 42
0.0555965368761659
 10
177.9771084897438
 20
112.7029838694243
 10
178.0873013203672
 20
112.2151585655874
 42
0.1368750484104073
 10
177.9443291574498
 20
111.7026706699171
 10
177.9443291574498
 20
97.84704750721994
 42
0.4142135623730844
 10
178.9343291574478
 20
96.85704750721834
 10
180.0064529417504
 20
96.85704750721834
 42
-0.4142135623731056
 10
181.0164529417452
 20
95.84704750721995
 10
181.0164529417452
 20
93.94129714351857
 42
-0.4142135623731056
 10
180.0064529417504
 20
92.93129714352017
 10
178.9343291574478
 20
92.93129714352017
 42
0.4142135623730844
 10
177.9443291574498
 20
91.94129714351857
 10
177.9443291574498
 20
90.29417232541801
 42
-0.4142135623731056
 10
176.9343291574478
 20
89.2841723254196
 10
163.7267175541492
 20
89.2841723254196
 42
0.4142135623733452
 10
163.2367175541512
 20
88.79417232541801
 10
163.2367175541512
 20
87.88082294831747
 42
-0.0932357521583244
 10
163.1676842937595
 20
87.51383303715465
 42
-0.3090427304165006
 10
161.5514864449505
 20
86.40940343451712
 42
-0.4142135624934126
 10
159.8167175540511
 20
88.14417232542018
 10
159.8167175541457
 20
88.79417232541801
 42
0.414213562373617
 10
159.3267175541477
 20
89.2841723254196
 10
144.4567175541488
 20
89.2841723254196
 42
0.3992184494004598
 10
143.9673663677604
 20
88.8193798006714
 42
0.3992184494004598
  0
LWPOLYLINE
  5
4DA
330
1F
100
AcDbEntity
  8
KISSCUT1
100
AcDbPolyline
 90
        4
 70
     1
 43
0.0
 10
101.5814864449494
 20
63.98250632536747
 10
101.5814864449494
 20
28.9225063253698
 10
91.52148644494809
 20
28.9225063253698
 10
91.52148644494809
 20
63.98250632536747
  0
LWPOLYLINE
  5
4DB
330
1F
100
AcDbEntity
  8
KISSCUT1
100
AcDbPolyline
 90
        6
 70
     1
 43
0.0
 10
38.2814864449465
 20
59.94250632536659
 10
38.2814864449465
 20
49.91250632536775
 10
26.72148644494882
 20
49.91250632536775
 10
26.72148644494882
 20
59.94250632536659
 42
-0.414213562373041
 10
28.25148644494766
 20
61.47250632536543
 10
36.75148644494766
 20
61.47250632536543
 42
-0.414213562373041
  0
LWPOLYLINE
  5
4DC
330
1F
100
AcDbEntity
  8
KS2
100
AcDbPolyline
 90
        9
 70
     0
 43
0.0
 10
193.1884726929929
 20
69.78369491321882
 10
185.3902543130752
 20
69.79748115928032
 42
0.2258472754914219
 10
184.6134864350606
 20
69.42944394322058
 42
-0.441219520110441
 10
184.3184864449504
 20
69.41300760733884
 10
184.3184864449504
 20
67.38070563364544
 10
184.3687396344467
 20
67.09570563364923
 10
184.3687396344467
 20
44.38182984004106
 10
184.3184864449504
 20
44.0968298400412
 10
184.3184864449504
 20
19.26178399567379
  0
LWPOLYLINE
  5
4DD
330
1F
100
AcDbEntity
  8
KS2
100
AcDbPolyline
 90
       40
 70
     0
 43
0.0
 10
184.3184864449504
 20
19.26178399567379
 42
-0.0221475400565879
 10
184.3315006585872
 20
17.96180686940443
 42
-0.0183292660253892
 10
184.2542597107385
 20
16.29341360695343
 42
-0.0474368856086104
 10
183.8946529676395
 20
14.2948961752345
 42
-0.0933064407201617
 10
182.775314366525
 20
12.01013108052666
 42
-0.0919685626218707
 10
181.1447654037656
 20
10.507231724544
 42
-0.0700108438908218
 10
179.2228442797495
 20
9.645567785716593
 42
-0.0537144924380884
 10
177.0429567309402
 20
9.261608694080678
 42
-0.0214209939112217
 10
174.1617661525743
 20
9.191906324574119
 10
31.23151245286499
 20
9.192312935695554
 42
-0.0153750902019385
 10
28.77712339265782
 20
9.272057319606574
 42
-0.0716324286831471
 10
25.90484736614599
 20
9.818497266170197
 42
-0.0841590963491591
 10
23.87358797062916
 20
10.98923732158528
 42
-0.079918020919868
 10
22.52721893022681
 20
12.52793093319724
 42
-0.0650116504163371
 10
21.70123640330712
 20
14.37688738658562
 42
-0.0431665816099187
 10
21.35643892353619
 20
15.94817433377557
 42
-0.0269472704145808
 10
21.23475294877426
 20
18.03779902702899
 42
-0.0037000490443395
 10
21.22848644494661
 20
19.26187211761589
 10
21.22848644494661
 20
72.64312346293173
 42
-0.0019148612922037
 10
21.23084333331644
 20
73.52022078924801
 42
-0.0074479861409863
 10
21.25332912614249
 20
74.59324202948574
 42
-0.0306985247960921
 10
21.38857027816994
 20
76.17411166769398
 42
-0.0305344539807888
 10
21.65797104188823
 20
77.40181243630013
 42
-0.0596248477063371
 10
22.36275795070833
 20
79.13691257599658
 42
-0.0591049845334056
 10
23.28112082852022
 20
80.39017202910418
 42
-0.1034963864446348
 10
25.60280423956283
 20
81.98340017191458
 42
-0.0770645813077584
 10
28.30685302185884
 20
82.61648710809913
 42
-0.0234095901090013
 10
31.46124364167917
 20
82.71310632537007
 10
174.1616641992805
 20
82.71310632537007
 42
-0.0126361890883132
 10
176.4460700929776
 20
82.68245023143117
 42
-0.0274924953684784
 10
177.8849894887753
 20
82.54814447330227
 42
-0.0455301250239864
 10
179.5309446323226
 20
82.16203559206133
 42
-0.0606228427894645
 10
181.1446891495215
 20
81.3978289710476
 42
-0.0786777913869432
 10
182.6025859400179
 20
80.11212048232209
 42
-0.0733688673524364
 10
183.6305867099508
 20
78.41465176143993
 42
-0.0229338351578221
 10
183.8895259278542
 20
77.664330577697
 42
-0.047287732334987
 10
184.2012079666238
 20
76.0604889037395
 42
-0.3902845721619235
 10
184.4721420819987
 20
76.0571082527249
 42
0.191460109869802
 10
185.1586556198963
 20
75.78422527376187
 10
193.1884731617974
 20
75.78422527376187
  0
LWPOLYLINE
  5
4DE
330
1F
100
AcDbEntity
  8
KS3
100
AcDbPolyline
 90
        7
 70
     0
 43
0.0
 10
184.2012079666456
 20
76.06048890375769
 42
0.183357021934292
 10
184.1361306731705
 20
75.9343752030627
 42
-0.0242927321537796
 10
184.2514783625011
 20
73.94455993104293
 42
-0.00390924325302
 10
184.2584864331511
 20
72.64758818753126
 10
184.2584864331511
 20
70.64745539872911
 10
184.2584864331511
 20
69.55583618747642
 42
0.2015127761170709
 10
184.3184864449504
 20
69.41300760733884
 42
0.2015127761170709
  0
CIRCLE
  5
4DF
330
1F
100
AcDbEntity
  8
KISSCUT1
100
AcDbCircle
 10
33.55148644459405
 20
68.95250632506304
 30
0.0
 40
5.03
  0
CIRCLE
  5
4E0
330
1F
100
AcDbEntity
  8
KISSCUT1
100
AcDbCircle
 10
174.5514864445977
 20
57.95250632506304
 30
0.0
 40
5.03
  0
CIRCLE
  5
4E1
330
1F
100
AcDbEntity
  8
KISSCUT1
100
AcDbCircle
 10
121.551486444594
 20
71.95250632506304
 30
0.0
 40
5.03
  0
CIRCLE
  5
4E2
330
1F
100
AcDbEntity
  8
KISSCUT1
100
AcDbCircle
 10
66.55148644459405
 20
71.95250632506304
 30
0.0
 40
5.03
  0
CIRCLE
  5
4E3
330
1F
100
AcDbEntity
  8
KISSCUT1
100
AcDbCircle
 10
66.55148644459405
 20
18.95250632506304
 30
0.0
 40
5.03
  0
CIRCLE
  5
4E4
330
1F
100
AcDbEntity
  8
KISSCUT1
100
AcDbCircle
 10
109.551486444594
 20
18.95250632506304
 30
0.0
 40
5.03
  0
LWPOLYLINE
  5
4E5
330
1F
100
AcDbEntity
  8
KISSCUT1
100
AcDbPolyline
 90
        4
 70
     1
 43
0.0
 10
68.2214864445923
 20
55.98250632506188
 10
78.28148644459725
 20
55.98250632506188
 10
78.28148644459725
 20
45.9225063250642
 10
68.2214864445923
 20
45.9225063250642
  0
LINE
  5
4E6
330
1F
100
AcDbEntity
  8
KS3
100
AcDbLine
 10
141.0214864445952
 20
80.09305971556115
 30
0.0
 11
143.5214864445952
 21
80.09305971556115
 31
0.0
  0
LINE
  5
4E7
330
1F
100
AcDbEntity
  8
KS3
100
AcDbLine
 10
146.5214864445952
 20
80.09305971556115
 30
0.0
 11
149.0214864445952
 21
80.09305971556115
 31
0.0
  0
LINE
  5
4E8
330
1F
100
AcDbEntity
  8
KS3
100
AcDbLine
 10
152.0214864445952
 20
80.09305971556115
 30
0.0
 11
154.5214864445952
 21
80.09305971556115
 31
0.0
  0
LINE
  5
4E9
330
1F
100
AcDbEntity
  8
KS3
100
AcDbLine
 10
157.5214864445952
 20
80.09305971556115
 30
0.0
 11
160.0214864445952
 21
80.09305971556115
 31
0.0
  0
LINE
  5
4EA
330
1F
100
AcDbEntity
  8
KS3
100
AcDbLine
 10
163.0214864445952
 20
80.09305971556115
 30
0.0
 11
165.5214864445952
 21
80.09305971556115
 31
0.0
  0
LINE
  5
4EB
330
1F
100
AcDbEntity
  8
KS3
100
AcDbLine
 10
145.1514864445926
 20
11.31190632506423
 30
0.0
 11
142.6514864445926
 21
11.31190632506423
 31
0.0
  0
LINE
  5
4EC
330
1F
100
AcDbEntity
  8
KS3
100
AcDbLine
 10
148.1514864445926
 20
11.31190632506423
 30
0.0
 11
150.6514864445926
 21
11.31190632506423
 31
0.0
  0
LINE
  5
4ED
330
1F
100
AcDbEntity
  8
KS3
100
AcDbLine
 10
153.6514864445926
 20
11.31190632506423
 30
0.0
 11
156.1514864445926
 21
11.31190632506423
 31
0.0
  0
LWPOLYLINE
  5
4EE
330
1F
100
AcDbEntity
  8
KS2
100
AcDbPolyline
 90
        3
 70
     0
 43
0.0
 10
31.88961693834426
 20
25.52988460947472
 10
28.88961693834426
 20
25.52988460947472
 10
28.88961693834426
 20
22.52988460947472
  0
LWPOLYLINE
  5
4EF
330
1F
100
AcDbEntity
  8
KS2
100
AcDbPolyline
 90
        3
 70
     0
 43
0.0
 10
154.839651049715
 20
58.75699732266458
 42
1.067896706230057
 10
154.8560762108463
 20
55.391249253561
 10
159.8560762108463
 20
55.391249253561
 42
-32.90422217352893
  0
LWPOLYLINE
  5
4F0
330
1F
100
AcDbEntity
  8
KS2
100
AcDbPolyline
 90
        3
 70
     0
 43
0.0
 10
138.5103772599759
 20
60.44742370199765
 10
138.5103772599759
 20
56.44742370199764
 10
134.5103772599759
 20
56.44742370199764
  0
LINE
  5
4F1
330
1F
100
AcDbEntity
  8
KS2
100
AcDbLine
 10
124.2143291570937
 20
42.30250632506158
 30
0.0
 11
174.9643291574466
 21
42.30250632506158
 31
0.0
  0
LINE
  5
4F2
330
1F
100
AcDbEntity
  8
KS2
100
AcDbLine
 10
124.2143291570937
 20
37.30250632506159
 30
0.0
 11
174.9643291574466
 21
37.30250632506159
 31
0.0
  0
LINE
  5
4F3
330
1F
100
AcDbEntity
  8
KS2
100
AcDbLine
 10
124.2143291570937
 20
32.30250632506159
 30
0.0
 11
174.9643291574466
 21
32.30250632506159
 31
0.0
  0
LINE
  5
4F4
330
1F
100
AcDbEntity
  8
KS2
100
AcDbLine
 10
124.2143291570937
 20
27.30250632506159
 30
0.0
 11
174.9643291574466
 21
27.30250632506159
 31
0.0
  0
LINE
  5
4F5
330
1F
100
AcDbEntity
  8
KS2
100
AcDbLine
 10
124.2143291570937
 20
22.30250632506159
 30
0.0
 11
174.9643291574466
 21
22.30250632506159
 31
0.0
  0
LINE
  5
4F6
330
1F
100
AcDbEntity
  8
KS2
100
AcDbLine
 10
124.2143291570937
 20
17.30250632506158
 30
0.0
 11
174.9643291574466
 21
17.30250632506158
 31
0.0
  0
LWPOLYLINE
  5
4F7
330
1F
100
AcDbEntity
  8
KISSCUT1
100
AcDbPolyline
 90
        5
 70
     0
 43
0.0
 10
51.55148644459405
 20
35.95250632506304
 10
51.55148644459405
 20
29.95250632506304
 10
45.55148644459404
 20
29.95250632506304
 10
45.55148644459404
 20
35.95250632506304
 10
51.55148644459405
 20
35.95250632506304
  0
LWPOLYLINE
  5
4F8
330
1F
100
AcDbEntity
  8
KS2
100
AcDbPolyline
 90
        2
 70
     0
 43
0.0
 10
52.68971626405255
 20
68.68826286585772
 10
50.96717858748888
 20
68.26542288360816
  0
LWPOLYLINE
  5
4F9
330
1F
100
AcDbEntity
  8
KS2
100
AcDbPolyline
 90
        2
 70
     0
 43
0.0
 10
50.36717858749034
 20
68.11813786755465
 10
48.32088252446919
 20
67.61582328672102
  0
LINE
  5
4FA
330
1F
100
AcDbEntity
  8
KS2
100
AcDbLine
 10
52.68971626405255
 20
69.14345030356435
 30
-0.0000000000001409
 11
50.96717858748888
 21
69.57713132292065
 31
-0.0000000000001409
  0
LINE
  5
4FB
330
1F
100
AcDbEntity
  8
KS2
100
AcDbLine
 10
50.36717858749034
 20
69.72819252474528
 30
-0.0000000000001409
 11
48.3480976019855
 21
70.23653385849775
 31
-0.0000000000001409
  0
LINE
  5
4FC
330
1F
100
AcDbEntity
  8
KS2
100
AcDbLine
 10
50.26625242739829
 20
69.7536025698073
 30
-0.0000000000001409
 11
50.26625242739829
 21
68.09336301570238
 31
-0.0000000000001409
  0
LWPOLYLINE
  5
4FD
330
1F
100
AcDbEntity
  8
KS2
100
AcDbPolyline
 90
        2
 70
     0
 43
0.0
 10
52.68971626405255
 20
68.68826286585772
 10
50.96717858748888
 20
68.26542288360816
  0
LWPOLYLINE
  5
4FE
330
1F
100
AcDbEntity
  8
KS2
100
AcDbPolyline
 90
        2
 70
     0
 43
0.0
 10
50.36717858749034
 20
68.11813786755465
 10
48.32088252446919
 20
67.61582328672102
  0
LINE
  5
4FF
330
1F
100
AcDbEntity
  8
KS2
100
AcDbLine
 10
52.68971626405255
 20
69.14345030356435
 30
-0.0000000000001409
 11
50.96717858748888
 21
69.57713132292065
 31
-0.0000000000001409
  0
LINE
  5
500
330
1F
100
AcDbEntity
  8
KS2
100
AcDbLine
 10
50.36717858749034
 20
69.72819252474528
 30
-0.0000000000001409
 11
48.3480976019855
 21
70.23653385849775
 31
-0.0000000000001409
  0
LINE
  5
501
330
1F
100
AcDbEntity
  8
KS2
100
AcDbLine
 10
50.26625242739829
 20
69.7536025698073
 30
-0.0000000000001409
 11
50.26625242739829
 21
68.09336301570238
 31
-0.0000000000001409
  0
LWPOLYLINE
  5
502
330
1F
100
AcDbEntity
  8
KS2
100
AcDbPolyline
 90
        2
 70
     0
 43
0.0
 10
52.12445803928858
 20
57.90205980614792
 42
-0.5889617970550704
 10
52.13420874662915
 20
55.26866930730557
  0
LWPOLYLINE
  5
503
330
1F
100
AcDbEntity
  8
KS2
100
AcDbPolyline
 90
        2
 70
     0
 43
0.0
 10
48.78149414251675
 20
55.42602049135621
 42
-0.5917799031814205
 10
48.81169789501655
 20
57.89295394443707
 42
-0.9121375415680898
  0
LWPOLYLINE
  5
504
330
1F
100
AcDbEntity
  8
KS2
100
AcDbPolyline
 90
        2
 70
     0
 43
0.0
 10
52.12445803928858
 20
66.31781762873379
 42
-0.5889617970550704
 10
52.13420874662915
 20
63.68442712989144
  0
LWPOLYLINE
  5
505
330
1F
100
AcDbEntity
  8
KS2
100
AcDbPolyline
 90
        2
 70
     0
 43
0.0
 10
49.32195151240012
 20
63.66792692919353
 42
-0.9121375415680898
 10
49.36756200066156
 20
66.47018118500364
 42
-0.9121375415680898
  0
LINE
  5
506
330
1F
100
AcDbEntity
  8
KS2
100
AcDbLine
 10
50.27706343667524
 20
66.44896039745891
 30
0.0
 11
51.52460759941459
 21
66.44896039745891
 31
0.0
  0
LINE
  5
507
330
1F
100
AcDbEntity
  8
KS2
100
AcDbLine
 10
52.91816932054643
 20
60.80051692919096
 30
0.0
 11
50.95187794859521
 21
60.80051692919096
 31
0.0
  0
LINE
  5
508
330
1F
100
AcDbEntity
  8
KS2
100
AcDbLine
 10
50.30187794859376
 20
60.80051692919096
 30
0.0
 11
48.08558657664616
 21
60.80051692919096
 31
0.0
  0
LINE
  5
509
330
1F
100
AcDbEntity
  8
KS2
100
AcDbLine
 10
52.91816932054643
 20
52.23985489981806
 30
0.0
 11
50.95187794859521
 21
52.23985489981806
 31
0.0
  0
LINE
  5
50A
330
1F
100
AcDbEntity
  8
KS2
100
AcDbLine
 10
50.30187794859376
 20
52.23985489981806
 30
0.0
 11
48.08558657664616
 21
52.23985489981806
 31
0.0
  0
LINE
  5
50B
330
1F
100
AcDbEntity
  8
KS2
100
AcDbLine
 10
50.51463111862904
 20
57.08104905236996
 30
0.0
 11
50.51463111862904
 21
56.12273091143743
 31
0.0
  0
LWPOLYLINE
  5
50C
330
1F
100
AcDbEntity
  8
KS2
100
AcDbPolyline
 90
        2
 70
     0
 43
0.0
 10
51.76035065447649
 20
55.22571204034193
 42
-0.2928658672646596
 10
50.76998228719458
 20
55.71746999553671
 42
-0.1880837426674811
  0
LWPOLYLINE
  5
50D
330
1F
100
AcDbEntity
  8
KS2
100
AcDbPolyline
 90
        2
 70
     0
 43
0.0
 10
51.81727894371579
 20
57.94452952566371
 42
0.3639580689676818
 10
50.73384875170086
 20
57.4695307187294
 42
0.1185077641328896
  0
LWPOLYLINE
  5
50E
330
1F
100
AcDbEntity
  8
KS2
100
AcDbPolyline
 90
        2
 70
     0
 43
0.0
 10
49.05321736722908
 20
55.27126624851462
 42
0.3401012939161061
 10
50.27627543822745
 20
55.71746999553671
 42
0.1880837426674811
  0
LWPOLYLINE
  5
50F
330
1F
100
AcDbEntity
  8
KS2
100
AcDbPolyline
 90
        2
 70
     0
 43
0.0
 10
49.09671292934581
 20
57.90484074819051
 42
-0.4197457753775934
 10
50.25219178438783
 20
57.4695307187294
 42
-0.1185077641328896
  0
LWPOLYLINE
  5
510
330
1F
100
AcDbEntity
  8
KS3
100
AcDbPolyline
 90
      189
 70
     0
 43
0.0
 10
122.8824320405874
 20
11.06250632542014
 10
107.6795932261484
 20
11.06250632542014
 42
-0.1581322929043098
 10
107.2510913008154
 20
11.20150201072556
 42
0.0785779530377947
 10
106.9754358236678
 20
11.34169935344198
 42
0.078577952776594
 10
106.6699722514458
 20
11.39000300851785
 10
96.87200063854835
 20
11.39000300851785
 42
0.1581322928155658
 10
96.29088158917875
 20
11.20150201072556
 42
-0.0785779528080562
 10
96.08762047973142
 20
11.09812417208832
 42
-0.0785779530936686
 10
95.86237966384578
 20
11.06250632542014
 10
81.49443661844998
 20
11.06250632542014
 42
0.043660942908671
 10
81.06205265605968
 20
11.02467763042023
 10
80.42392352752358
 20
10.9121582478374
 10
79.78579439917666
 20
10.79963886531277
 42
-0.0218200777066378
 10
79.56869838744023
 20
10.77105763320742
 42
-0.0218200774155451
 10
79.34993747315457
 20
10.76150632541703
 10
69.73296059784843
 20
10.76150632541703
 42
-0.0436609429086898
 10
69.29710367190273
 20
10.79963886535643
 10
68.55175899707319
 20
10.93106324138807
 10
67.80727591741015
 20
11.06233569501728
 10
61.01687246284564
 20
11.06233569501728
 42
0.0436609429984822
 10
60.58448850052809
 20
11.02450699998826
 10
59.94967885932419
 20
10.91257293263788
 10
59.31486921812757
 20
10.80063886528751
 42
-0.021820077920887
 10
59.09777320643479
 20
10.77205763320762
 42
-0.0218200771559838
 10
58.8790122921564
 20
10.76250632541723
 10
49.22296059785003
 20
10.76250632541723
 42
-0.0436609427454782
 10
48.78710367182794
 20
10.80063886529478
 10
48.15181018427392
 20
10.91265824783568
 10
47.51651669679995
 20
11.02467763036566
 42
0.0218200772786022
 10
47.30115053377812
 20
11.05303112366619
 42
0.0218200780685668
 10
47.08413273435872
 20
11.06250632542014
 10
38.94911702474201
 20
11.06250632542014
 42
-0.0486718754551794
 10
38.41943947211985
 20
11.25408624551801
 42
0.1115389484219242
 10
38.20881622614979
 20
11.30166354232005
 42
0.1271124420687983
 10
37.97143434598547
 20
11.24032406414426
 42
-0.1070921106263623
 10
37.26579582168779
 20
11.02793256363748
 42
-0.1070921108129533
 10
36.53552923637472
 20
11.12665738716259
 42
0.0434146780103029
 10
36.36974092196761
 20
11.1709331694301
 42
0.043414677538214
 10
36.19879754359136
 20
11.1859155426182
 10
29.65447142392804
 20
11.19014960381264
 42
-0.3482592303032666
 10
29.15819162808475
 20
11.58405147953544
 42
0.1692307955085779
 10
28.98555871342251
 20
11.85640548244646
 42
0.1782507549263066
 10
28.66298578859278
 20
11.96250631010207
 42
0.1147622679388053
 10
28.22607854571834
 20
11.86096786387952
 42
-0.3078348902910648
 10
26.2882577053897
 20
12.13480888537106
 42
-0.211353743018182
 10
25.71848644494821
 20
13.42250632542073
 42
-0.0905873481390574
 10
25.83086299990828
 20
14.0376826587426
 42
0.0452011325659781
 10
25.87868561779032
 20
14.20979371470548
 42
0.0452011328046524
 10
25.89480138464569
 20
14.387696779414
 10
25.89480138464569
 20
15.14635071861721
 42
0.2478917706189573
 10
25.68099979333056
 20
15.55109068333786
 10
24.67324712702975
 20
16.2387907054881
 10
23.66549446072531
 20
16.92649072767472
 42
-0.1220981064783845
 10
23.34174483740207
 20
17.28899859787361
 42
-0.1220981066376205
 10
23.22480138464744
 20
17.76075065502027
 10
23.22480138464744
 20
33.43250632541549
 42
-0.3698961751198035
 10
23.65675190670663
 20
33.9364986656301
 42
0.090120630267754
 10
23.82231734020024
 20
33.99383820495586
 42
0.0901206305837061
 10
23.95712496971464
 20
34.10576067151215
 10
24.10243168952002
 20
34.27893047686394
 10
24.24773840933267
 20
34.45210028223028
 42
0.087488663328915
 10
24.41965010522836
 20
34.74986007392818
 42
0.0874886637314639
 10
24.47935441065056
 20
35.08846001581424
 10
24.47935441065056
 20
35.8950056170188
 42
0.2412360080822551
 10
24.06775173197821
 20
36.69847094836678
 42
-0.2412360080724284
 10
23.34848644494923
 20
38.10250632541738
 42
-0.2412360081017587
 10
24.06775173192
 20
39.50654170242433
 42
0.1189124449445212
 10
24.37046545589692
 20
39.85862767448725
 42
0.1189124451591703
 10
24.47935441065056
 20
40.3100070337141
 42
0.0000321706965906
 10
24.47863984073411
 20
51.41586921753059
 42
0.1033233842104849
 10
24.39608557647443
 20
51.81084494920014
 42
0.1026380270103929
 10
24.16276029816072
 20
52.14008920901779
 42
-0.2076129707669972
 10
23.43848930068634
 20
53.79890707037794
 42
-0.2083204667884696
 10
24.15751611054657
 20
55.46003189418934
 42
0.1030254552424468
 10
24.38931887083527
 20
55.78892008375351
 42
0.1023401394907558
 10
24.47109462414664
 20
56.18291762437093
 10
24.47109462184744
 20
60.88016522849011
 42
0.3047853544802835
 10
23.85512797335104
 20
61.79678895272536
 42
-0.1490089987167826
 10
23.39841406595951
 20
62.16859449417916
 42
-0.1490089987869249
 10
23.22671755414922
 20
62.73193032801737
 10
23.22671755414922
 20
72.20094847402743
 42
0.0753723324464898
 10
23.18223101506737
 20
72.49438380662195
 42
0.0753723325494981
 10
23.05276948426035
 20
72.7614475790333
 42
-0.2639480296831515
 10
22.89739030819328
 20
74.569734400372
 42
-0.2639480303432336
 10
24.37003138572618
 20
75.63057000183926
 42
0.1401084590262261
 10
24.87403099552466
 20
75.83570673990198
 42
-0.0009115728081062
 10
24.9234559452525
 20
75.87431360620121
 42
-0.0036214057556303
 10
25.12118645905139
 20
76.02589891077968
 42
0.0932369352892078
 10
25.61624445318012
 20
76.57021029439147
 42
0.0932369363535124
 10
25.87968312969315
 20
77.25720182530221
 42
-0.1544003904072501
 10
27.06728174542877
 20
79.50196870946911
 42
-0.1544003893455039
 10
29.32984358779504
 20
80.65530419647348
 42
-0.0832417958484795
 10
30.72198818040852
 20
80.65381904775222
 42
-0.077180155673788
 10
31.94791930341307
 20
80.24589468916474
 42
0.15518992602704
 10
33.13732700576657
 20
80.04496350837234
 42
0.1551899271287029
 10
34.22428992985442
 20
80.56800807703348
 42
-0.5311665471656032
 10
37.0381186454033
 20
79.93842419373777
 42
0.1507080297991033
 10
37.4020033474626
 20
79.48222450041885
 42
0.1507080297982667
 10
37.95963351814862
 20
79.31023953251951
 10
38.31554165195121
 20
79.31023953251951
 42
0.3201612741666512
 10
39.25167372353462
 20
79.97812659500141
 42
-0.1561761922517577
 10
39.62012018966925
 20
80.47170066496709
 42
-0.1561760351625474
 10
40.20671755414878
 20
80.65950632541808
 10
72.17414544684288
 20
80.65950632541808
 42
0.0766379258978734
 10
72.55316841541935
 20
80.68855183550567
 42
-0.0381128233826393
 10
73.08995839017007
 20
80.77147663160667
 42
0.0381128234278422
 10
73.62373945364016
 20
80.85393660284262
 42
-0.0573159194758573
 10
73.81628741302847
 20
80.87616865204564
 42
0.018975548931468
 10
74.00731183893367
 20
80.88350632541642
 10
83.73822254624974
 20
80.88350632541642
 42
-0.0349251381852304
 10
84.08759041121811
 20
80.85907308068362
 10
84.70415943414264
 20
80.77240898176478
 10
85.32072845735092
 20
80.68574488291142
 42
0.0174572471727728
 10
85.49359721841756
 20
80.66757335612875
 42
0.0174572473365537
 10
85.66731251444435
 20
80.66150632541484
 10
95.84240316534851
 20
80.66150632541484
 42
0.0248149469652876
 10
96.08910392135294
 20
80.67375760187951
 10
96.87952565496381
 20
80.7524571234544
 10
97.66994738848007
 20
80.83115664509477
 42
-0.0124055639960747
 10
97.7941353043243
 20
80.84041700416946
 42
-0.0124055640961904
 10
97.91862967675115
 20
80.84350632541555
 10
104.7542388352485
 20
80.84350632541555
 42
-0.0218113471983878
 10
104.9729124673467
 20
80.83396265221471
 10
105.4148707331878
 20
80.79531185951509
 10
105.8568289992145
 20
80.75666106680092
 42
0.0109043773331375
 10
105.9651913545458
 20
80.74956147191642
 42
0.0109043759024301
 10
106.073760211766
 20
80.74719343891866
 10
112.8241652897486
 20
80.74719343891866
 42
0.0218200773439604
 10
113.0411830893754
 20
80.75666864062169
 10
113.4828767544677
 20
80.79531182909795
 10
113.9245704196801
 20
80.83395501758877
 42
-0.0109303645040632
 10
114.0340635501634
 20
80.84112682130308
 10
122.9667825812685
 20
80.84350644168171
 10
123.517870733187
 20
80.79531185956602
 10
124.0680880054096
 20
80.74719343891866
 10
130.9271652897514
 20
80.74719343891866
 42
0.0218200773193055
 10
131.1441830891308
 20
80.75666864059986
 10
131.5858767544705
 20
80.79531182909795
 10
132.0275704196829
 20
80.83395501758877
 42
-0.0109087399131995
 10
132.1368466718486
 20
80.84111736158684
 42
-0.0109087412447688
 10
132.246331334165
 20
80.84350632541555
 10
138.6514864449491
 20
80.84350632541555
 42
-0.4142135623732376
 10
139.6614864449511
 20
79.83350632541714
 10
139.6614864449511
 20
78.30305971591679
 42
0.4142135623732189
 10
140.6514864449491
 20
77.31305971591883
 10
153.0951900584478
 20
77.31305971591883
 42
0.1540460809404266
 10
153.6634468969496
 20
77.492390754197
 42
0.1540460807951945
 10
154.0258328488671
 20
77.96541493722634
 42
-0.3155809593995078
 10
155.19148644495
 20
78.78250632541767
 10
158.5014864449476
 20
78.78250632541767
 42
-0.1540460807613606
 10
159.2132424850897
 20
78.55788967141143
 42
-0.1540460809258648
 10
159.6671400410305
 20
77.9654149372227
 42
0.3155809594512905
 10
160.5977828314498
 20
77.31305971591883
 10
167.5096331772511
 20
77.31305971591883
 42
0.5665995835901983
 10
167.9417000277535
 20
78.03418357161081
 42
-0.5665995836745927
 10
169.4714864449488
 20
80.58741226281654
 42
-0.4364209505359357
 10
171.2014864449593
 20
78.72212760175989
 10
171.2014864449484
 20
77.80305971591679
 42
0.4142135623733452
 10
171.69148644495
 20
77.31305971591883
 10
176.4246778406596
 20
77.31305971591883
 42
-0.0796805858898968
 10
176.7559257218672
 20
77.26214247915868
 42
-0.0849081167294128
 10
177.0206155382548
 20
77.12307724600487
 42
-0.1833820722001629
 10
177.3441306612658
 20
76.58974955561371
 42
0.1733293911056375
 10
177.6872895413253
 20
76.01853685347032
 42
0.1733490717646335
 10
178.3148413261515
 20
75.79422527401857
 10
179.9514864449484
 20
75.79422527401857
 42
-1.0
 10
179.9514864449447
 20
72.31078737671578
 10
178.355039835551
 20
72.31078737671578
 42
0.4142135623732188
 10
177.3650398355457
 20
71.32078737671782
 10
177.3650398355457
 20
68.02250632541927
 42
0.4142135623732188
 10
178.355039835551
 20
67.03250632541767
 10
182.3884864449501
 20
67.03250632541767
 42
-0.4142135623728549
 10
182.8984864449485
 20
66.52250632541927
 10
182.8984864449485
 20
49.75250632541883
 42
-0.4142135623728549
 10
182.3884864449501
 20
49.2425063254168
 10
180.7064529417475
 20
49.2425063254168
 42
0.4142135623730734
 10
180.2164529417496
 20
48.75250632541884
 10
180.2164529417496
 20
48.32755724381877
 42
0.4142135623730733
 10
180.7064529417475
 20
47.83755724381717
 10
182.3884864449501
 20
47.83755724381717
 42
-0.414213562373116
 10
182.8984864449448
 20
47.32755724381877
 10
182.8984864449485
 20
44.87745540691776
 42
-0.4142135623728549
 10
182.3884864449501
 20
44.36745540691572
 10
181.5064529417504
 20
44.36745540691572
 42
0.4142135623730733
 10
181.0164529417452
 20
43.87745540691776
 10
181.0164529417452
 20
38.56100466991575
 42
-0.4142135623731056
 10
180.0064529417504
 20
37.55100466991735
 10
178.9343291574478
 20
37.55100466991735
 42
0.2624583085618617
 10
178.0873013203672
 20
37.0734925655861
 42
0.2602482618703583
  0
LWPOLYLINE
  5
511
330
1F
100
AcDbEntity
  8
KS2
100
AcDbPolyline
 90
       45
 70
     0
 43
0.0
 10
143.9673304369862
 20
13.67700632511787
 42
-0.39963753424722
 10
143.4579683359916
 20
13.19250632511193
 10
140.6359761027124
 20
13.19250632511193
 42
0.1126969576775002
 10
140.2080579597641
 20
13.08764539698404
 42
0.2838640865764784
 10
139.6614864449438
 20
12.20253264268194
 10
139.6614864449511
 20
11.5725063254149
 42
-0.4142135623728549
 10
139.1514864449491
 20
11.06250632542014
 10
131.7755292026486
 20
11.06250632542014
 42
-0.0795573219683006
 10
131.4601568037687
 20
11.1130063254177
 42
0.0397159159794338
 10
131.307562147027
 20
11.15005299949644
 42
0.0397159159011391
 10
131.1510294028485
 20
11.16250632541869
 10
129.8369434871492
 20
11.16250632541869
 42
0.0795573219689147
 10
129.5278160862654
 20
11.1130063254177
 42
-0.039715915981185
 10
129.3721387091864
 20
11.07521123368224
 42
-0.039715915898643
 10
129.2124436873491
 20
11.06250632542014
 10
122.8824320405874
 20
11.06250632542014
 42
-0.2643038937755036
 10
121.2343291570942
 20
13.57153762158577
 10
121.2343291570942
 20
43.25250632506595
 42
-0.4142135623730467
 10
123.764329157093
 20
45.78250632506478
 10
175.4343291570912
 20
45.78250632506478
 42
-0.4142135623730466
 10
177.9643291570974
 20
43.25250632506595
 10
177.9643291573884
 20
37.67589183814653
 42
0.0555965368761659
 10
177.9771084897438
 20
37.56131786942296
 10
178.0873013203672
 20
37.0734925655861
 42
0.1368750484104073
 10
177.9443291574498
 20
36.56100466991575
 10
177.9443291574498
 20
22.70538150721859
 42
0.4142135623730844
 10
178.9343291574478
 20
21.71538150721699
 10
180.0064529417504
 20
21.71538150721699
 42
-0.4142135623731056
 10
181.0164529417452
 20
20.70538150721859
 10
181.0164529417452
 20
18.79963114351722
 42
-0.4142135623731056
 10
180.0064529417504
 20
17.78963114351881
 10
178.9343291574478
 20
17.78963114351881
 42
0.4142135623730844
 10
177.9443291574498
 20
16.79963114351721
 10
177.9443291574498
 20
15.15250632541665
 42
-0.4142135623731056
 10
176.9343291574478
 20
14.14250632541825
 10
163.7267175541492
 20
14.14250632541825
 42
0.4142135623733452
 10
163.2367175541512
 20
13.65250632541665
 10
163.2367175541512
 20
12.73915694831612
 42
-0.0932357521583244
 10
163.1676842937595
 20
12.3721670371533
 42
-0.3090427304165006
 10
161.5514864449505
 20
11.26773743451576
 42
-0.4142135624934126
 10
159.8167175540511
 20
13.00250632541883
 10
159.8167175541457
 20
13.65250632541665
 42
0.414213562373617
 10
159.3267175541477
 20
14.14250632541825
 10
144.4567175541488
 20
14.14250632541825
 42
0.3992184494004598
 10
143.9673663677604
 20
13.67771380067006
 42
0.3992184494004598
  0
ENDSEC
  0
SECTION
  2
OBJECTS
  0
DICTIONARY
  5
C
330
0
100
AcDbDictionary
281
     1
  3
ACAD_CIP_PREVIOUS_PRODUCT_INFO
350
216
  3
ACAD_COLOR
350
6B
  3
ACAD_DETAILVIEWSTYLE
350
21B
  3
ACAD_GROUP
350
D
  3
ACAD_LAYOUT
350
1A
  3
ACAD_MATERIAL
350
6A
  3
ACAD_MLEADERSTYLE
350
12D
  3
ACAD_MLINESTYLE
350
17
  3
ACAD_PLOTSETTINGS
350
19
  3
ACAD_PLOTSTYLENAME
350
E
  3
ACAD_SCALELIST
350
10C
  3
ACAD_SECTIONVIEWSTYLE
350
219
  3
ACAD_TABLESTYLE
350
7E
  3
ACAD_VISUALSTYLE
350
EF
  3
ACDB_RECOMPOSE_DATA
350
5B7
  3
AcDbVariableDictionary
350
5E
  0
DICTIONARY
  5
1FF
330
2
100
AcDbDictionary
280
     1
281
     1
  3
ACAD_LAYERSTATES
360
200
  3
ACLYDICTIONARY
360
542
  0
DICTIONARY
  5
13C
330
10
100
AcDbDictionary
280
     1
281
     1
  0
DICTIONARY
  5
29C
330
29B
100
AcDbDictionary
280
     1
281
     1
  0
DICTIONARY
  5
1CE
330
1F
100
AcDbDictionary
280
     1
281
     1
  0
XRECORD
  5
216
102
{ACAD_REACTORS
330
C
102
}
330
C
100
AcDbXrecord
280
     1
300
ACD
300
2021
300

  0
DICTIONARY
  5
6B
102
{ACAD_REACTORS
330
C
102
}
330
C
100
AcDbDictionary
281
     1
  0
DICTIONARY
  5
21B
102
{ACAD_REACTORS
330
C
102
}
330
C
100
AcDbDictionary
281
     1
  3
Metric50
350
21C
  0
DICTIONARY
  5
D
102
{ACAD_REACTORS
330
C
102
}
330
C
100
AcDbDictionary
281
     1
  0
DICTIONARY
  5
1A
102
{ACAD_REACTORS
330
C
102
}
330
C
100
AcDbDictionary
281
     1
  3
Model
350
22
  3
1
350
D3
  3
2
350
D7
  0
DICTIONARY
  5
6A
102
{ACAD_REACTORS
330
C
102
}
330
C
100
AcDbDictionary
281
     1
  3
ByBlock
350
ED
  3
ByLayer
350
EC
  3
Global
350
EE
  0
DICTIONARY
  5
12D
102
{ACAD_REACTORS
330
C
102
}
330
C
100
AcDbDictionary
281
     1
  3
Annotative
350
13B
  3
Standard
350
12E
  0
DICTIONARY
  5
17
102
{ACAD_REACTORS
330
C
102
}
330
C
100
AcDbDictionary
281
     1
  3
Standard
350
18
  0
DICTIONARY
  5
19
102
{ACAD_REACTORS
330
C
102
}
330
C
100
AcDbDictionary
281
     1
  0
ACDBDICTIONARYWDFLT
  5
E
102
{ACAD_REACTORS
330
C
102
}
330
C
100
AcDbDictionary
281
     1
  3
Normal
350
F
100
AcDbDictionaryWithDefault
340
F
  0
DICTIONARY
  5
10C
102
{ACAD_REACTORS
330
C
102
}
330
C
100
AcDbDictionary
281
     1
  3
A0
350
10D
  3
A1
350
1BE
  3
A2
350
1BF
  3
A3
350
1C0
  3
A4
350
1C1
  3
A5
350
1C2
  3
A6
350
1C3
  3
A7
350
1C4
  3
A8
350
1C5
  3
A9
350
1C6
  3
B0
350
1C7
  3
B1
350
1C8
  3
B2
350
1C9
  3
B3
350
1CA
  3
B4
350
1CB
  3
B5
350
1CC
  3
B6
350
1CD
  0
DICTIONARY
  5
219
102
{ACAD_REACTORS
330
C
102
}
330
C
100
AcDbDictionary
281
     1
  3
Metric50
350
21A
  0
DICTIONARY
  5
7E
102
{ACAD_REACTORS
330
C
102
}
330
C
100
AcDbDictionary
281
     1
  3
Standard
350
7F
  0
DICTIONARY
  5
EF
102
{ACAD_REACTORS
330
C
102
}
330
C
100
AcDbDictionary
281
     1
  3
2dWireframe
350
F5
  3
Basic
350
F4
  3
Brighten
350
FB
  3
ColorChange
350
FF
  3
Conceptual
350
F8
  3
Dim
350
FA
  3
EdgeColorOff
350
1E6
  3
Facepattern
350
FE
  3
Flat
350
F0
  3
FlatWithEdges
350
F1
  3
Gouraud
350
F2
  3
GouraudWithEdges
350
F3
  3
Hidden
350
F7
  3
JitterOff
350
1E4
  3
Linepattern
350
FD
  3
OverhangOff
350
1E5
  3
Realistic
350
F9
  3
Shaded
350
1F3
  3
Shaded with edges
350
1F2
  3
Shades of Gray
350
1EF
  3
Sketchy
350
1F0
  3
Thicken
350
FC
  3
Wireframe
350
F6
  3
X-Ray
350
1F1
  0
XRECORD
  5
5B7
102
{ACAD_REACTORS
330
C
102
}
330
C
100
AcDbXrecord
280
     1
 90
        1
330
7F
  0
DICTIONARY
  5
5E
102
{ACAD_REACTORS
330
C
102
}
330
C
100
AcDbDictionary
281
     1
  3
CANNOSCALE
350
146
  3
CENTEREXE
350
259
  3
CENTERLTYPEFILE
350
25A
  3
CMLEADERSTYLE
350
145
  3
CTABLESTYLE
350
84
  3
CVIEWDETAILSTYLE
350
227
  3
CVIEWSECTIONSTYLE
350
228
  3
DIMASSOC
350
5F
  3
HIDETEXT
350
63
  3
LAYEREVAL
350
1AE
  3
LAYERNOTIFY
350
1AF
  0
DICTIONARY
  5
200
102
{ACAD_REACTORS
330
1FF
102
}
330
1FF
100
AcDbDictionary
281
     1
  0
DICTIONARY
  5
542
102
{ACAD_REACTORS
330
1FF
102
}
330
1FF
100
AcDbDictionary
281
     1
1001
ACAD
1000
<AllUsed
  0
ACDBDETAILVIEWSTYLE
  5
21C
102
{ACAD_REACTORS
330
21B
102
}
330
21B
100
AcDbModelDocViewStyle
 70
     0
  3
Metric50
290
     0
300
Metric50
 90
        0
100
AcDbDetailViewStyle
 70
     0
 71
     0
 90
        3
 71
     1
340
11
 62
   256
 40
5.0
340
0
 62
   256
 40
5.0
300

 40
0.0
280
     1
 71
     2
340
16
 90
       25
 62
   256
 71
     3
340
11
 62
   256
 40
5.0
 90
        0
 40
15.0
 90
        1
300
%<\AcVar ViewDetailId>% (%<\AcVar ViewScale \f "%sn">%)
 71
     4
340
16
 90
       25
 62
   256
340
16
 90
       25
 62
   256
280
     0
  0
LAYOUT
  5
22
102
{ACAD_XDICTIONARY
360
205
102
}
102
{ACAD_REACTORS
330
1A
102
}
330
1A
100
AcDbPlotSettings
  1

  2
none_device
  4
ISO_A4_(210.00_x_297.00_MM)
  6

 40
7.5
 41
20.0
 42
7.5
 43
20.0
 44
210.0
 45
297.0
 46
11.54999923706054
 47
-13.65000009536743
 48
0.0
 49
0.0
140
0.0
141
0.0
142
1.0
143
8.704084754739808
 70
 11952
 72
     1
 73
     0
 74
     0
  7

 75
     0
147
0.1148885871608098
 76
     0
 77
     2
 78
   300
148
0.0
149
0.0
100
AcDbLayout
  1
Model
 70
     1
 71
     0
 10
0.0
 20
0.0
 11
12.0
 21
9.0
 12
0.0
 22
0.0
 32
0.0
 14
0.0
 24
0.0
 34
0.0
 15
0.0
 25
0.0
 35
0.0
146
0.0
 13
0.0
 23
0.0
 33
0.0
 16
1.0
 26
0.0
 36
0.0
 17
0.0
 27
1.0
 37
0.0
 76
     0
330
1F
331
EA
1001
ACAD_PSEXT
1000
None
1000
None
1000
Not applicable
1000
The layout will not be plotted unless a new plotter configuration name is selected.
1070
     0
  0
LAYOUT
  5
D3
102
{ACAD_REACTORS
330
1A
102
}
330
1A
100
AcDbPlotSettings
  1

  2
C:\Documents and Settings\basas\Application Data\Autodesk\AutoCAD 2005\R16.1\enu\plotters\Default Windows System Printer.pc3
  4

  6

 40
0.0
 41
0.0
 42
0.0
 43
0.0
 44
0.0
 45
0.0
 46
0.0
 47
0.0
 48
0.0
 49
0.0
140
0.0
141
0.0
142
1.0
143
1.0
 70
   688
 72
     0
 73
     0
 74
     5
  7

 75
    16
147
1.0
 76
     0
 77
     2
 78
   300
148
0.0
149
0.0
100
AcDbLayout
  1
1
 70
     1
 71
     1
 10
0.0
 20
0.0
 11
12.0
 21
9.0
 12
0.0
 22
0.0
 32
0.0
 14
0.0
 24
0.0
 34
0.0
 15
0.0
 25
0.0
 35
0.0
146
0.0
 13
0.0
 23
0.0
 33
0.0
 16
1.0
 26
0.0
 36
0.0
 17
0.0
 27
1.0
 37
0.0
 76
     0
330
D2
  0
LAYOUT
  5
D7
102
{ACAD_REACTORS
330
1A
102
}
330
1A
100
AcDbPlotSettings
  1

  2
C:\Documents and Settings\basas\Application Data\Autodesk\AutoCAD 2005\R16.1\enu\plotters\Default Windows System Printer.pc3
  4

  6

 40
0.0
 41
0.0
 42
0.0
 43
0.0
 44
0.0
 45
0.0
 46
0.0
 47
0.0
 48
0.0
 49
0.0
140
0.0
141
0.0
142
1.0
143
1.0
 70
   688
 72
     0
 73
     0
 74
     5
  7

 75
    16
147
1.0
 76
     0
 77
     2
 78
   300
148
0.0
149
0.0
100
AcDbLayout
  1
2
 70
     1
 71
     2
 10
0.0
 20
0.0
 11
12.0
 21
9.0
 12
0.0
 22
0.0
 32
0.0
 14
0.0
 24
0.0
 34
0.0
 15
0.0
 25
0.0
 35
0.0
146
0.0
 13
0.0
 23
0.0
 33
0.0
 16
1.0
 26
0.0
 36
0.0
 17
0.0
 27
1.0
 37
0.0
 76
     0
330
D6
  0
MATERIAL
  5
ED
102
{ACAD_XDICTIONARY
360
1F9
102
}
102
{ACAD_REACTORS
330
6A
102
}
330
6A
100
AcDbMaterial
  1
ByBlock
 94
       63
  0
MATERIAL
  5
EC
102
{ACAD_XDICTIONARY
360
1F7
102
}
102
{ACAD_REACTORS
330
6A
102
}
330
6A
100
AcDbMaterial
  1
ByLayer
 94
       63
  0
MATERIAL
  5
EE
102
{ACAD_XDICTIONARY
360
173
102
}
102
{ACAD_REACTORS
330
6A
102
}
330
6A
100
AcDbMaterial
  1
Global
 43
0.0007999999797903
 43
0.0
 43
0.0
 43
0.0
 43
0.0
 43
0.0007999999797903
 43
0.0
 43
0.0
 43
0.0
 43
0.0
 43
1.0
 43
0.0
 43
0.0
 43
0.0
 43
0.0
 43
1.0
 49
0.0007999999797903
 49
0.0
 49
0.0
 49
0.0
 49
0.0
 49
0.0007999999797903
 49
0.0
 49
0.0
 49
0.0
 49
0.0
 49
1.0
 49
0.0
 49
0.0
 49
0.0
 49
0.0
 49
1.0
142
0.0007999999797903
142
0.0
142
0.0
142
0.0
142
0.0
142
0.0007999999797903
142
0.0
142
0.0
142
0.0
142
0.0
142
1.0
142
0.0
142
0.0
142
0.0
142
0.0
142
1.0
144
0.0007999999797903
144
0.0
144
0.0
144
0.0
144
0.0
144
0.0007999999797903
144
0.0
144
0.0
144
0.0
144
0.0
144
1.0
144
0.0
144
0.0
144
0.0
144
0.0
144
1.0
 94
       63
1001
ACAD
1070
    -1
1070
     3
1070
     0
1000

1071
        0
1070
     0
  0
MLEADERSTYLE
  5
13B
102
{ACAD_REACTORS
330
12D
102
}
330
12D
100
AcDbMLeaderStyle
179
     2
170
     2
171
     1
172
     0
 90
        2
 40
0.0
 41
0.0
173
     1
 91
-1056964608
340
14
 92
       -2
290
     1
 42
2.0
291
     1
 43
8.0
  3
Standard
 44
4.0
300

342
11
174
     1
178
     1
175
     1
176
     0
 93
-1056964608
 45
4.0
292
     0
297
     0
 46
4.0
 94
-1056964608
 47
1.0
 49
1.0
140
1.0
293
     1
141
0.0
294
     1
177
     0
142
1.0
295
     0
296
     1
143
3.75
271
     0
272
     9
273
     9
298
     0
  0
MLEADERSTYLE
  5
12E
102
{ACAD_REACTORS
330
12D
102
}
330
12D
100
AcDbMLeaderStyle
179
     2
170
     2
171
     1
172
     0
 90
        2
 40
0.0
 41
0.0
173
     1
 91
-1056964608
340
14
 92
       -2
290
     1
 42
2.0
291
     1
 43
8.0
  3
Standard
 44
4.0
300

342
11
174
     1
178
     1
175
     1
176
     0
 93
-1056964608
 45
4.0
292
     0
297
     0
 46
4.0
 94
-1056964608
 47
1.0
 49
1.0
140
1.0
293
     1
141
0.0
294
     1
177
     0
142
1.0
295
     0
296
     0
143
3.75
271
     0
272
     9
273
     9
298
     0
  0
MLINESTYLE
  5
18
102
{ACAD_REACTORS
330
17
102
}
330
17
100
AcDbMlineStyle
  2
STANDARD
 70
     0
  3

 62
   256
 51
90.0
 52
90.0
 71
     2
 49
0.5
 62
   256
  6
BYLAYER
 49
-0.5
 62
   256
  6
BYLAYER
  0
ACDBPLACEHOLDER
  5
F
102
{ACAD_REACTORS
330
E
102
}
330
E
  0
SCALE
  5
10D
102
{ACAD_REACTORS
330
10C
102
}
330
10C
100
AcDbScale
 70
     0
300
1:1
140
1.0
141
1.0
290
     1
  0
SCALE
  5
1BE
102
{ACAD_REACTORS
330
10C
102
}
330
10C
100
AcDbScale
 70
     0
300
1:2
140
1.0
141
2.0
290
     0
  0
SCALE
  5
1BF
102
{ACAD_REACTORS
330
10C
102
}
330
10C
100
AcDbScale
 70
     0
300
1:4
140
1.0
141
4.0
290
     0
  0
SCALE
  5
1C0
102
{ACAD_REACTORS
330
10C
102
}
330
10C
100
AcDbScale
 70
     0
300
1:5
140
1.0
141
5.0
290
     0
  0
SCALE
  5
1C1
102
{ACAD_REACTORS
330
10C
102
}
330
10C
100
AcDbScale
 70
     0
300
1:8
140
1.0
141
8.0
290
     0
  0
SCALE
  5
1C2
102
{ACAD_REACTORS
330
10C
102
}
330
10C
100
AcDbScale
 70
     0
300
1:10
140
1.0
141
10.0
290
     0
  0
SCALE
  5
1C3
102
{ACAD_REACTORS
330
10C
102
}
330
10C
100
AcDbScale
 70
     0
300
1:16
140
1.0
141
16.0
290
     0
  0
SCALE
  5
1C4
102
{ACAD_REACTORS
330
10C
102
}
330
10C
100
AcDbScale
 70
     0
300
1:20
140
1.0
141
20.0
290
     0
  0
SCALE
  5
1C5
102
{ACAD_REACTORS
330
10C
102
}
330
10C
100
AcDbScale
 70
     0
300
1:30
140
1.0
141
30.0
290
     0
  0
SCALE
  5
1C6
102
{ACAD_REACTORS
330
10C
102
}
330
10C
100
AcDbScale
 70
     0
300
1:40
140
1.0
141
40.0
290
     0
  0
SCALE
  5
1C7
102
{ACAD_REACTORS
330
10C
102
}
330
10C
100
AcDbScale
 70
     0
300
1:50
140
1.0
141
50.0
290
     0
  0
SCALE
  5
1C8
102
{ACAD_REACTORS
330
10C
102
}
330
10C
100
AcDbScale
 70
     0
300
1:100
140
1.0
141
100.0
290
     0
  0
SCALE
  5
1C9
102
{ACAD_REACTORS
330
10C
102
}
330
10C
100
AcDbScale
 70
     0
300
2:1
140
2.0
141
1.0
290
     0
  0
SCALE
  5
1CA
102
{ACAD_REACTORS
330
10C
102
}
330
10C
100
AcDbScale
 70
     0
300
4:1
140
4.0
141
1.0
290
     0
  0
SCALE
  5
1CB
102
{ACAD_REACTORS
330
10C
102
}
330
10C
100
AcDbScale
 70
     0
300
8:1
140
8.0
141
1.0
290
     0
  0
SCALE
  5
1CC
102
{ACAD_REACTORS
330
10C
102
}
330
10C
100
AcDbScale
 70
     0
300
10:1
140
10.0
141
1.0
290
     0
  0
SCALE
  5
1CD
102
{ACAD_REACTORS
330
10C
102
}
330
10C
100
AcDbScale
 70
     0
300
100:1
140
100.0
141
1.0
290
     0
  0
ACDBSECTIONVIEWSTYLE
  5
21A
102
{ACAD_REACTORS
330
219
102
}
330
219
100
AcDbModelDocViewStyle
 70
     0
  3
Metric50
290
     0
300
Metric50
 90
        0
100
AcDbSectionViewStyle
 70
     0
 71
     0
 90
      102
 71
     1
340
11
 62
   256
 40
5.0
340
0
340
0
 62
   256
 40
5.0
300
I, O, Q, S, X, Z
 40
10.0
 90
        0
 40
2.5
 90
        0
 71
     2
340
16
 90
       25
 62
   256
340
16
 90
       50
 62
   256
 40
5.0
 40
2.5
 40
5.0
 71
     3
340
11
 62
   256
 40
5.0
 90
        0
 40
15.0
 90
        1
300
%<\AcVar ViewSectionStartId>%-%<\AcVar ViewSectionEndId>% (%<\AcVar ViewScale \f "%sn">%)
 71
     4
 62
   256
 62
   257
300
ANSI31
 40
1.0
 90
        0
290
     0
290
     0
 90
        6
 40
0.0
 40
1.570796326794896
 40
0.2617993877991494
 40
1.308996938995747
 40
-0.2617993877991494
 40
1.832595714594046
  0
TABLESTYLE
  5
7F
102
{ACAD_XDICTIONARY
360
162
102
}
102
{ACAD_REACTORS
330
7E
102
}
330
7E
100
AcDbTableStyle
280
     0
  3
Standard
 70
     0
 71
     0
 40
1.5
 41
1.5
280
     0
281
     0
  7
Standard
140
4.5
170
     2
 62
     0
 63
     7
283
     0
 90
      512
 91
        0
  1

274
    -2
284
     1
 64
     0
275
    -2
285
     1
 65
     0
276
    -2
286
     1
 66
     0
277
    -2
287
     1
 67
     0
278
    -2
288
     1
 68
     0
279
    -2
289
     1
 69
     0
  7
Standard
140
6.0
170
     5
 62
     0
 63
     7
283
     0
 90
      512
 91
        0
  1

274
    -2
284
     1
 64
     0
275
    -2
285
     1
 65
     0
276
    -2
286
     1
 66
     0
277
    -2
287
     1
 67
     0
278
    -2
288
     1
 68
     0
279
    -2
289
     1
 69
     0
  7
Standard
140
4.5
170
     5
 62
     0
 63
     7
283
     0
 90
      512
 91
        0
  1

274
    -2
284
     1
 64
     0
275
    -2
285
     1
 65
     0
276
    -2
286
     1
 66
     0
277
    -2
287
     1
 67
     0
278
    -2
288
     1
 68
     0
279
    -2
289
     1
 69
     0
  0
VISUALSTYLE
  5
F5
102
{ACAD_REACTORS
330
EF
102
}
330
EF
100
AcDbVisualStyle
  2
2dWireframe
 70
     4
177
     3
291
     0
 70
    58
 90
        0
176
     1
 90
        2
176
     1
 90
        1
176
     1
 90
        0
176
     1
 40
0.6
176
     1
 40
30.0
176
     1
 62
     7
420
 16777215
176
     1
 90
        1
176
     1
 90
        4
176
     1
 62
     7
176
     1
 62
   257
176
     1
 90
        1
176
     1
 90
        1
176
     1
 40
1.0
176
     1
 90
        0
176
     1
 62
   257
176
     1
 40
1.0
176
     1
 90
        1
176
     1
 90
        6
176
     1
 90
        2
176
     1
 62
     7
176
     1
 90
        5
176
     1
 90
        0
176
     1
 90
        0
176
     1
290
     0
176
     1
 90
        1
176
     1
 40
0.0
176
     1
 90
        0
176
     1
290
     1
176
     1
290
     1
176
     1
290
     0
176
     1
290
     0
176
     1
290
     0
176
     1
290
     0
176
     1
290
     0
176
     1
290
     0
176
     1
290
     0
176
     1
 90
       50
176
     1
 40
0.0
176
     1
 40
1.0
176
     1
 90
        0
176
     1
 62
    18
420
        0
176
     1
 90
       50
176
     1
 90
        3
176
     1
 62
     5
420
      255
176
     1
290
     0
176
     1
 90
       50
176
     1
 90
       50
176
     1
 90
       50
176
     1
290
     0
176
     1
 90
       50
176
     1
 62
   256
176
     0
 40
1.0
176
     0
 90
        2
176
     1
  1
strokes_ogs.tif
176
     1
290
     0
176
     1
 40
1.0
176
     1
 40
1.0
176
     1
  0
VISUALSTYLE
  5
F4
102
{ACAD_REACTORS
330
EF
102
}
330
EF
100
AcDbVisualStyle
  2
Basic
 70
     7
177
     3
291
     1
 70
    58
 90
        1
176
     1
 90
        0
176
     1
 90
        1
176
     1
 90
        0
176
     1
 40
0.6
176
     1
 40
30.0
176
     1
 62
     7
420
 16777215
176
     1
 90
        0
176
     1
 90
        4
176
     1
 62
     7
176
     1
 62
   257
176
     1
 90
        1
176
     1
 90
        1
176
     1
 40
1.0
176
     1
 90
        8
176
     1
 62
     7
176
     1
 40
1.0
176
     1
 90
        1
176
     1
 90
        6
176
     1
 90
        2
176
     1
 62
     7
176
     1
 90
        5
176
     1
 90
        0
176
     1
 90
        0
176
     1
290
     0
176
     1
 90
        1
176
     1
 40
0.0
176
     1
 90
        0
176
     1
290
     0
176
     1
290
     1
176
     1
290
     1
176
     1
290
     0
176
     1
290
     0
176
     1
290
     0
176
     1
290
     0
176
     1
290
     0
176
     1
290
     0
176
     1
 90
       50
176
     1
 40
0.0
176
     1
 40
1.0
176
     1
 90
        0
176
     1
 62
    18
420
        0
176
     1
 90
       50
176
     1
 90
        3
176
     1
 62
     5
420
      255
176
     1
290
     0
176
     1
 90
       50
176
     1
 90
       50
176
     1
 90
       50
176
     1
290
     0
176
     1
 90
       50
176
     1
 62
   256
176
     0
 40
1.0
176
     0
 90
        2
176
     1
  1
strokes_ogs.tif
176
     1
290
     0
176
     1
 40
1.0
176
     1
 40
1.0
176
     1
  0
VISUALSTYLE
  5
FB
102
{ACAD_REACTORS
330
EF
102
}
330
EF
100
AcDbVisualStyle
  2
Brighten
 70
    12
177
     3
291
     1
 70
    58
 90
        2
176
     1
 90
        2
176
     1
 90
        1
176
     1
 90
        0
176
     1
 40
0.6
176
     1
 40
30.0
176
     1
 62
     7
420
 16777215
176
     1
 90
        1
176
     1
 90
        4
176
     1
 62
     7
176
     1
 62
   257
176
     1
 90
        1
176
     1
 90
        1
176
     1
 40
1.0
176
     1
 90
        8
176
     1
 62
     7
176
     1
 40
1.0
176
     1
 90
        1
176
     1
 90
        6
176
     1
 90
        2
176
     1
 62
     7
176
     1
 90
        5
176
     1
 90
        0
176
     1
 90
        0
176
     1
290
     0
176
     1
 90
        1
176
     1
 40
50.0
176
     1
 90
        0
176
     1
290
     0
176
     1
290
     1
176
     1
290
     1
176
     1
290
     0
176
     1
290
     0
176
     1
290
     0
176
     1
290
     0
176
     1
290
     0
176
     1
290
     0
176
     1
 90
       50
176
     1
 40
0.0
176
     1
 40
1.0
176
     1
 90
        0
176
     1
 62
    18
420
        0
176
     1
 90
       50
176
     1
 90
        3
176
     1
 62
     5
420
      255
176
     1
290
     0
176
     1
 90
       50
176
     1
 90
       50
176
     1
 90
       50
176
     1
290
     0
176
     1
 90
       50
176
     1
 62
   256
176
     0
 40
1.0
176
     0
 90
        2
176
     1
  1
strokes_ogs.tif
176
     1
290
     0
176
     1
 40
1.0
176
     1
 40
1.0
176
     1
  0
VISUALSTYLE
  5
FF
102
{ACAD_REACTORS
330
EF
102
}
330
EF
100
AcDbVisualStyle
  2
ColorChange
 70
    16
177
     3
291
     1
 70
    58
 90
        2
176
     1
 90
        2
176
     1
 90
        3
176
     1
 90
        0
176
     1
 40
0.6
176
     1
 40
30.0
176
     1
 62
     8
420
  8421504
176
     1
 90
        1
176
     1
 90
        4
176
     1
 62
     7
176
     1
 62
   257
176
     1
 90
        1
176
     1
 90
        1
176
     1
 40
1.0
176
     1
 90
        8
176
     1
 62
     8
420
  8421504
176
     1
 40
1.0
176
     1
 90
        1
176
     1
 90
        6
176
     1
 90
        2
176
     1
 62
     7
176
     1
 90
        5
176
     1
 90
        0
176
     1
 90
        0
176
     1
290
     0
176
     1
 90
        1
176
     1
 40
0.0
176
     1
 90
        0
176
     1
290
     0
176
     1
290
     1
176
     1
290
     1
176
     1
290
     0
176
     1
290
     0
176
     1
290
     0
176
     1
290
     0
176
     1
290
     0
176
     1
290
     0
176
     1
 90
       50
176
     1
 40
0.0
176
     1
 40
1.0
176
     1
 90
        0
176
     1
 62
    18
420
        0
176
     1
 90
       50
176
     1
 90
        3
176
     1
 62
     5
420
      255
176
     1
290
     0
176
     1
 90
       50
176
     1
 90
       50
176
     1
 90
       50
176
     1
290
     0
176
     1
 90
       50
176
     1
 62
   256
176
     0
 40
1.0
176
     0
 90
        2
176
     1
  1
strokes_ogs.tif
176
     1
290
     0
176
     1
 40
1.0
176
     1
 40
1.0
176
     1
  0
VISUALSTYLE
  5
F8
102
{ACAD_REACTORS
330
EF
102
}
330
EF
100
AcDbVisualStyle
  2
Conceptual
 70
     9
177
     3
291
     0
 70
    58
 90
        3
176
     1
 90
        2
176
     1
 90
        1
176
     1
 90
        0
176
     1
 40
0.6
176
     1
 40
30.0
176
     1
 62
     7
420
 16777215
176
     1
 90
        2
176
     1
 90
        2
176
     1
 62
     7
176
     1
 62
   257
176
     1
 90
        1
176
     1
 90
        1
176
     1
 40
40.0
176
     1
 90
        8
176
     1
 62
     7
176
     1
 40
1.0
176
     1
 90
        1
176
     1
 90
        6
176
     1
 90
        2
176
     1
 62
     7
176
     1
 90
        3
176
     1
 90
        0
176
     1
 90
        0
176
     1
290
     0
176
     1
 90
        1
176
     1
 40
0.0
176
     1
 90
        0
176
     1
290
     0
176
     1
290
     1
176
     1
290
     1
176
     1
290
     0
176
     1
290
     0
176
     1
290
     0
176
     1
290
     0
176
     1
290
     0
176
     1
290
     0
176
     1
 90
       50
176
     1
 40
0.0
176
     1
 40
1.0
176
     1
 90
        0
176
     1
 62
    18
420
        0
176
     1
 90
       50
176
     1
 90
        3
176
     1
 62
     5
420
      255
176
     1
290
     0
176
     1
 90
       50
176
     1
 90
       50
176
     1
 90
       50
176
     1
290
     0
176
     1
 90
       50
176
     1
 62
   256
176
     0
 40
1.0
176
     0
 90
        2
176
     1
  1
strokes_ogs.tif
176
     1
290
     0
176
     1
 40
1.0
176
     1
 40
1.0
176
     1
  0
VISUALSTYLE
  5
FA
102
{ACAD_REACTORS
330
EF
102
}
330
EF
100
AcDbVisualStyle
  2
Dim
 70
    11
177
     3
291
     1
 70
    58
 90
        2
176
     1
 90
        2
176
     1
 90
        1
176
     1
 90
        0
176
     1
 40
0.6
176
     1
 40
30.0
176
     1
 62
     7
420
 16777215
176
     1
 90
        1
176
     1
 90
        4
176
     1
 62
     7
176
     1
 62
   257
176
     1
 90
        1
176
     1
 90
        1
176
     1
 40
1.0
176
     1
 90
        8
176
     1
 62
     7
176
     1
 40
1.0
176
     1
 90
        1
176
     1
 90
        6
176
     1
 90
        2
176
     1
 62
     7
176
     1
 90
        5
176
     1
 90
        0
176
     1
 90
        0
176
     1
290
     0
176
     1
 90
        1
176
     1
 40
-50.0
176
     1
 90
        0
176
     1
290
     0
176
     1
290
     1
176
     1
290
     1
176
     1
290
     0
176
     1
290
     0
176
     1
290
     0
176
     1
290
     0
176
     1
290
     0
176
     1
290
     0
176
     1
 90
       50
176
     1
 40
0.0
176
     1
 40
1.0
176
     1
 90
        0
176
     1
 62
    18
420
        0
176
     1
 90
       50
176
     1
 90
        3
176
     1
 62
     5
420
      255
176
     1
290
     0
176
     1
 90
       50
176
     1
 90
       50
176
     1
 90
       50
176
     1
290
     0
176
     1
 90
       50
176
     1
 62
   256
176
     0
 40
1.0
176
     0
 90
        2
176
     1
  1
strokes_ogs.tif
176
     1
290
     0
176
     1
 40
1.0
176
     1
 40
1.0
176
     1
  0
VISUALSTYLE
  5
1E6
102
{ACAD_REACTORS
330
EF
102
}
330
EF
100
AcDbVisualStyle
  2
EdgeColorOff
 70
    22
177
     3
291
     1
 70
    58
 90
        2
176
     0
 90
        2
176
     0
 90
        0
176
     0
 90
        0
176
     0
 40
0.6
176
     0
 40
30.0
176
     0
 62
     7
420
 16777215
176
     0
 90
        1
176
     0
 90
        4
176
     0
 62
     7
176
     0
 62
   257
176
     0
 90
        1
176
     0
 90
        1
176
     0
 40
1.0
176
     0
 90
        8
176
     2
 62
     7
176
     0
 40
1.0
176
     0
 90
        1
176
     0
 90
        6
176
     0
 90
        2
176
     0
 62
     7
176
     0
 90
        5
176
     0
 90
        0
176
     0
 90
        0
176
     0
290
     0
176
     0
 90
        1
176
     0
 40
0.0
176
     0
 90
        0
176
     0
290
     0
176
     1
290
     1
176
     1
290
     1
176
     1
290
     0
176
     1
290
     0
176
     1
290
     0
176
     1
290
     0
176
     1
290
     0
176
     1
290
     0
176
     1
 90
       50
176
     1
 40
0.0
176
     1
 40
1.0
176
     1
 90
        0
176
     1
 62
    18
420
        0
176
     1
 90
       50
176
     1
 90
        3
176
     1
 62
     5
420
      255
176
     1
290
     0
176
     1
 90
       50
176
     1
 90
       50
176
     1
 90
       50
176
     1
290
     0
176
     1
 90
       50
176
     1
 62
   256
176
     0
 40
1.0
176
     0
 90
        2
176
     1
  1
strokes_ogs.tif
176
     1
290
     0
176
     1
 40
1.0
176
     1
 40
1.0
176
     1
  0
VISUALSTYLE
  5
FE
102
{ACAD_REACTORS
330
EF
102
}
330
EF
100
AcDbVisualStyle
  2
Facepattern
 70
    15
177
     3
291
     1
 70
    58
 90
        2
176
     1
 90
        2
176
     1
 90
        1
176
     1
 90
        0
176
     1
 40
0.6
176
     1
 40
30.0
176
     1
 62
     7
420
 16777215
176
     1
 90
        1
176
     1
 90
        4
176
     1
 62
     7
176
     1
 62
   257
176
     1
 90
        1
176
     1
 90
        1
176
     1
 40
1.0
176
     1
 90
        8
176
     1
 62
     7
176
     1
 40
1.0
176
     1
 90
        1
176
     1
 90
        6
176
     1
 90
        2
176
     1
 62
     7
176
     1
 90
        5
176
     1
 90
        0
176
     1
 90
        0
176
     1
290
     0
176
     1
 90
        1
176
     1
 40
0.0
176
     1
 90
        0
176
     1
290
     0
176
     1
290
     1
176
     1
290
     1
176
     1
290
     0
176
     1
290
     0
176
     1
290
     0
176
     1
290
     0
176
     1
290
     0
176
     1
290
     0
176
     1
 90
       50
176
     1
 40
0.0
176
     1
 40
1.0
176
     1
 90
        0
176
     1
 62
    18
420
        0
176
     1
 90
       50
176
     1
 90
        3
176
     1
 62
     5
420
      255
176
     1
290
     0
176
     1
 90
       50
176
     1
 90
       50
176
     1
 90
       50
176
     1
290
     0
176
     1
 90
       50
176
     1
 62
   256
176
     0
 40
1.0
176
     0
 90
        2
176
     1
  1
strokes_ogs.tif
176
     1
290
     0
176
     1
 40
1.0
176
     1
 40
1.0
176
     1
  0
VISUALSTYLE
  5
F0
102
{ACAD_REACTORS
330
EF
102
}
330
EF
100
AcDbVisualStyle
  2
Flat
 70
     0
177
     3
291
     1
 70
    58
 90
        2
176
     1
 90
        1
176
     1
 90
        1
176
     1
 90
        2
176
     1
 40
0.6
176
     1
 40
30.0
176
     1
 62
     7
420
 16777215
176
     1
 90
        0
176
     1
 90
        0
176
     1
 62
     7
176
     1
 62
   257
176
     1
 90
        1
176
     1
 90
        1
176
     1
 40
1.0
176
     1
 90
        8
176
     1
 62
     7
176
     1
 40
1.0
176
     1
 90
        1
176
     1
 90
        6
176
     1
 90
        2
176
     1
 62
     7
176
     1
 90
        5
176
     1
 90
        0
176
     1
 90
        0
176
     1
290
     0
176
     1
 90
       13
176
     1
 40
0.0
176
     1
 90
        0
176
     1
290
     0
176
     1
290
     1
176
     1
290
     1
176
     1
290
     0
176
     1
290
     0
176
     1
290
     0
176
     1
290
     0
176
     1
290
     0
176
     1
290
     0
176
     1
 90
       50
176
     1
 40
0.0
176
     1
 40
1.0
176
     1
 90
        0
176
     1
 62
    18
420
        0
176
     1
 90
       50
176
     1
 90
        3
176
     1
 62
     5
420
      255
176
     1
290
     0
176
     1
 90
       50
176
     1
 90
       50
176
     1
 90
       50
176
     1
290
     0
176
     1
 90
       50
176
     1
 62
   256
176
     0
 40
1.0
176
     0
 90
        2
176
     1
  1
strokes_ogs.tif
176
     1
290
     0
176
     1
 40
1.0
176
     1
 40
1.0
176
     1
  0
VISUALSTYLE
  5
F1
102
{ACAD_REACTORS
330
EF
102
}
330
EF
100
AcDbVisualStyle
  2
FlatWithEdges
 70
     1
177
     3
291
     1
 70
    58
 90
        2
176
     1
 90
        1
176
     1
 90
        1
176
     1
 90
        2
176
     1
 40
0.6
176
     1
 40
30.0
176
     1
 62
     7
420
 16777215
176
     1
 90
        1
176
     1
 90
        0
176
     1
 62
     7
176
     1
 62
   257
176
     1
 90
        1
176
     1
 90
        1
176
     1
 40
1.0
176
     1
 90
        0
176
     1
 62
   257
176
     1
 40
1.0
176
     1
 90
        1
176
     1
 90
        6
176
     1
 90
        2
176
     1
 62
     7
176
     1
 90
        5
176
     1
 90
        0
176
     1
 90
        0
176
     1
290
     0
176
     1
 90
       13
176
     1
 40
0.0
176
     1
 90
        0
176
     1
290
     0
176
     1
290
     1
176
     1
290
     1
176
     1
290
     0
176
     1
290
     0
176
     1
290
     0
176
     1
290
     0
176
     1
290
     0
176
     1
290
     0
176
     1
 90
       50
176
     1
 40
0.0
176
     1
 40
1.0
176
     1
 90
        0
176
     1
 62
    18
420
        0
176
     1
 90
       50
176
     1
 90
        3
176
     1
 62
     5
420
      255
176
     1
290
     0
176
     1
 90
       50
176
     1
 90
       50
176
     1
 90
       50
176
     1
290
     0
176
     1
 90
       50
176
     1
 62
   256
176
     0
 40
1.0
176
     0
 90
        2
176
     1
  1
strokes_ogs.tif
176
     1
290
     0
176
     1
 40
1.0
176
     1
 40
1.0
176
     1
  0
VISUALSTYLE
  5
F2
102
{ACAD_REACTORS
330
EF
102
}
330
EF
100
AcDbVisualStyle
  2
Gouraud
 70
     2
177
     3
291
     1
 70
    58
 90
        2
176
     1
 90
        2
176
     1
 90
        1
176
     1
 90
        2
176
     1
 40
0.6
176
     1
 40
30.0
176
     1
 62
     7
420
 16777215
176
     1
 90
        0
176
     1
 90
        0
176
     1
 62
     7
176
     1
 62
   257
176
     1
 90
        1
176
     1
 90
        1
176
     1
 40
1.0
176
     1
 90
        0
176
     1
 62
     7
176
     1
 40
1.0
176
     1
 90
        1
176
     1
 90
        6
176
     1
 90
        2
176
     1
 62
     7
176
     1
 90
        5
176
     1
 90
        0
176
     1
 90
        0
176
     1
290
     0
176
     1
 90
       13
176
     1
 40
0.0
176
     1
 90
        0
176
     1
290
     0
176
     1
290
     1
176
     1
290
     1
176
     1
290
     0
176
     1
290
     0
176
     1
290
     0
176
     1
290
     0
176
     1
290
     0
176
     1
290
     0
176
     1
 90
       50
176
     1
 40
0.0
176
     1
 40
1.0
176
     1
 90
        0
176
     1
 62
    18
420
        0
176
     1
 90
       50
176
     1
 90
        3
176
     1
 62
     5
420
      255
176
     1
290
     0
176
     1
 90
       50
176
     1
 90
       50
176
     1
 90
       50
176
     1
290
     0
176
     1
 90
       50
176
     1
 62
   256
176
     0
 40
1.0
176
     0
 90
        2
176
     1
  1
strokes_ogs.tif
176
     1
290
     0
176
     1
 40
1.0
176
     1
 40
1.0
176
     1
  0
VISUALSTYLE
  5
F3
102
{ACAD_REACTORS
330
EF
102
}
330
EF
100
AcDbVisualStyle
  2
GouraudWithEdges
 70
     3
177
     3
291
     1
 70
    58
 90
        2
176
     1
 90
        2
176
     1
 90
        1
176
     1
 90
        2
176
     1
 40
0.6
176
     1
 40
30.0
176
     1
 62
     7
420
 16777215
176
     1
 90
        1
176
     1
 90
        0
176
     1
 62
     7
176
     1
 62
   257
176
     1
 90
        1
176
     1
 90
        1
176
     1
 40
1.0
176
     1
 90
        0
176
     1
 62
   257
176
     1
 40
1.0
176
     1
 90
        1
176
     1
 90
        6
176
     1
 90
        2
176
     1
 62
     7
176
     1
 90
        5
176
     1
 90
        0
176
     1
 90
        0
176
     1
290
     0
176
     1
 90
       13
176
     1
 40
0.0
176
     1
 90
        0
176
     1
290
     0
176
     1
290
     1
176
     1
290
     1
176
     1
290
     0
176
     1
290
     0
176
     1
290
     0
176
     1
290
     0
176
     1
290
     0
176
     1
290
     0
176
     1
 90
       50
176
     1
 40
0.0
176
     1
 40
1.0
176
     1
 90
        0
176
     1
 62
    18
420
        0
176
     1
 90
       50
176
     1
 90
        3
176
     1
 62
     5
420
      255
176
     1
290
     0
176
     1
 90
       50
176
     1
 90
       50
176
     1
 90
       50
176
     1
290
     0
176
     1
 90
       50
176
     1
 62
   256
176
     0
 40
1.0
176
     0
 90
        2
176
     1
  1
strokes_ogs.tif
176
     1
290
     0
176
     1
 40
1.0
176
     1
 40
1.0
176
     1
  0
VISUALSTYLE
  5
F7
102
{ACAD_REACTORS
330
EF
102
}
330
EF
100
AcDbVisualStyle
  2
Hidden
 70
     6
177
     3
291
     0
 70
    58
 90
        1
176
     1
 90
        2
176
     1
 90
        2
176
     1
 90
        0
176
     1
 40
0.6
176
     1
 40
30.0
176
     1
 62
     7
420
 16777215
176
     1
 90
        2
176
     1
 90
        2
176
     1
 62
     7
176
     1
 62
   257
176
     1
 90
        2
176
     1
 90
        1
176
     1
 40
40.0
176
     1
 90
        0
176
     1
 62
   257
176
     1
 40
1.0
176
     1
 90
        1
176
     1
 90
        6
176
     1
 90
        2
176
     1
 62
     7
176
     1
 90
        3
176
     1
 90
        0
176
     1
 90
        0
176
     1
290
     0
176
     1
 90
        1
176
     1
 40
0.0
176
     1
 90
        0
176
     1
290
     0
176
     1
290
     1
176
     1
290
     1
176
     1
290
     0
176
     1
290
     0
176
     1
290
     0
176
     1
290
     0
176
     1
290
     0
176
     1
290
     0
176
     1
 90
       50
176
     1
 40
0.0
176
     1
 40
1.0
176
     1
 90
        0
176
     1
 62
    18
420
        0
176
     1
 90
       50
176
     1
 90
        3
176
     1
 62
     5
420
      255
176
     1
290
     0
176
     1
 90
       50
176
     1
 90
       50
176
     1
 90
       50
176
     1
290
     0
176
     1
 90
       50
176
     1
 62
   256
176
     0
 40
1.0
176
     0
 90
        2
176
     1
  1
strokes_ogs.tif
176
     1
290
     0
176
     1
 40
1.0
176
     1
 40
1.0
176
     1
  0
VISUALSTYLE
  5
1E4
102
{ACAD_REACTORS
330
EF
102
}
330
EF
100
AcDbVisualStyle
  2
JitterOff
 70
    20
177
     3
291
     1
 70
    58
 90
        2
176
     0
 90
        2
176
     0
 90
        0
176
     0
 90
        0
176
     0
 40
0.6
176
     0
 40
30.0
176
     0
 62
     7
420
 16777215
176
     0
 90
        1
176
     0
 90
        4
176
     0
 62
     7
176
     0
 62
   257
176
     0
 90
        1
176
     0
 90
        1
176
     0
 40
1.0
176
     0
 90
       10
176
     2
 62
     7
176
     0
 40
1.0
176
     0
 90
        1
176
     0
 90
        6
176
     0
 90
        2
176
     0
 62
     7
176
     0
 90
        5
176
     0
 90
        0
176
     0
 90
        0
176
     0
290
     0
176
     0
 90
        1
176
     0
 40
0.0
176
     0
 90
        0
176
     0
290
     0
176
     1
290
     1
176
     1
290
     1
176
     1
290
     0
176
     1
290
     0
176
     1
290
     0
176
     1
290
     0
176
     1
290
     0
176
     1
290
     0
176
     1
 90
       50
176
     1
 40
0.0
176
     1
 40
1.0
176
     1
 90
        0
176
     1
 62
    18
420
        0
176
     1
 90
       50
176
     1
 90
        3
176
     1
 62
     5
420
      255
176
     1
290
     0
176
     1
 90
       50
176
     1
 90
       50
176
     1
 90
       50
176
     1
290
     0
176
     1
 90
       50
176
     1
 62
   256
176
     0
 40
1.0
176
     0
 90
        2
176
     1
  1
strokes_ogs.tif
176
     1
290
     0
176
     1
 40
1.0
176
     1
 40
1.0
176
     1
  0
VISUALSTYLE
  5
FD
102
{ACAD_REACTORS
330
EF
102
}
330
EF
100
AcDbVisualStyle
  2
Linepattern
 70
    14
177
     3
291
     1
 70
    58
 90
        2
176
     1
 90
        2
176
     1
 90
        1
176
     1
 90
        0
176
     1
 40
0.6
176
     1
 40
30.0
176
     1
 62
     7
420
 16777215
176
     1
 90
        1
176
     1
 90
        4
176
     1
 62
     7
176
     1
 62
   257
176
     1
 90
        7
176
     1
 90
        7
176
     1
 40
1.0
176
     1
 90
        8
176
     1
 62
     7
176
     1
 40
1.0
176
     1
 90
        1
176
     1
 90
        6
176
     1
 90
        2
176
     1
 62
     7
176
     1
 90
        5
176
     1
 90
        0
176
     1
 90
        0
176
     1
290
     0
176
     1
 90
        1
176
     1
 40
0.0
176
     1
 90
        0
176
     1
290
     0
176
     1
290
     1
176
     1
290
     1
176
     1
290
     0
176
     1
290
     0
176
     1
290
     0
176
     1
290
     0
176
     1
290
     0
176
     1
290
     0
176
     1
 90
       50
176
     1
 40
0.0
176
     1
 40
1.0
176
     1
 90
        0
176
     1
 62
    18
420
        0
176
     1
 90
       50
176
     1
 90
        3
176
     1
 62
     5
420
      255
176
     1
290
     0
176
     1
 90
       50
176
     1
 90
       50
176
     1
 90
       50
176
     1
290
     0
176
     1
 90
       50
176
     1
 62
   256
176
     0
 40
1.0
176
     0
 90
        2
176
     1
  1
strokes_ogs.tif
176
     1
290
     0
176
     1
 40
1.0
176
     1
 40
1.0
176
     1
  0
VISUALSTYLE
  5
1E5
102
{ACAD_REACTORS
330
EF
102
}
330
EF
100
AcDbVisualStyle
  2
OverhangOff
 70
    21
177
     3
291
     1
 70
    58
 90
        2
176
     0
 90
        2
176
     0
 90
        0
176
     0
 90
        0
176
     0
 40
0.6
176
     0
 40
30.0
176
     0
 62
     7
420
 16777215
176
     0
 90
        1
176
     0
 90
        4
176
     0
 62
     7
176
     0
 62
   257
176
     0
 90
        1
176
     0
 90
        1
176
     0
 40
1.0
176
     0
 90
        9
176
     2
 62
     7
176
     0
 40
1.0
176
     0
 90
        1
176
     0
 90
        6
176
     0
 90
        2
176
     0
 62
     7
176
     0
 90
        5
176
     0
 90
        0
176
     0
 90
        0
176
     0
290
     0
176
     0
 90
        1
176
     0
 40
0.0
176
     0
 90
        0
176
     0
290
     0
176
     1
290
     1
176
     1
290
     1
176
     1
290
     0
176
     1
290
     0
176
     1
290
     0
176
     1
290
     0
176
     1
290
     0
176
     1
290
     0
176
     1
 90
       50
176
     1
 40
0.0
176
     1
 40
1.0
176
     1
 90
        0
176
     1
 62
    18
420
        0
176
     1
 90
       50
176
     1
 90
        3
176
     1
 62
     5
420
      255
176
     1
290
     0
176
     1
 90
       50
176
     1
 90
       50
176
     1
 90
       50
176
     1
290
     0
176
     1
 90
       50
176
     1
 62
   256
176
     0
 40
1.0
176
     0
 90
        2
176
     1
  1
strokes_ogs.tif
176
     1
290
     0
176
     1
 40
1.0
176
     1
 40
1.0
176
     1
  0
VISUALSTYLE
  5
F9
102
{ACAD_REACTORS
330
EF
102
}
330
EF
100
AcDbVisualStyle
  2
Realistic
 70
     8
177
     3
291
     0
 70
    58
 90
        2
176
     1
 90
        3
176
     1
 90
        0
176
     1
 90
        2
176
     1
 40
0.6
176
     1
 40
30.0
176
     1
 62
     7
420
 16777215
176
     1
 90
        0
176
     1
 90
        0
176
     1
 62
     7
176
     1
 62
   257
176
     1
 90
        1
176
     1
 90
        1
176
     1
 40
1.0
176
     1
 90
        8
176
     1
 62
   257
176
     1
 40
1.0
176
     1
 90
        1
176
     1
 90
        6
176
     1
 90
        2
176
     1
 62
     7
176
     1
 90
        3
176
     1
 90
        0
176
     1
 90
        0
176
     1
290
     0
176
     1
 90
       13
176
     1
 40
0.0
176
     1
 90
        0
176
     1
290
     0
176
     1
290
     1
176
     1
290
     1
176
     1
290
     0
176
     1
290
     0
176
     1
290
     0
176
     1
290
     0
176
     1
290
     0
176
     1
290
     0
176
     1
 90
       50
176
     1
 40
0.0
176
     1
 40
1.0
176
     1
 90
        0
176
     1
 62
    18
420
        0
176
     1
 90
       50
176
     1
 90
        3
176
     1
 62
     5
420
      255
176
     1
290
     0
176
     1
 90
       50
176
     1
 90
       50
176
     1
 90
       50
176
     1
290
     0
176
     1
 90
       50
176
     1
 62
   256
176
     0
 40
1.0
176
     0
 90
        2
176
     1
  1
strokes_ogs.tif
176
     1
290
     0
176
     1
 40
1.0
176
     1
 40
1.0
176
     1
  0
VISUALSTYLE
  5
1F3
102
{ACAD_REACTORS
330
EF
102
}
330
EF
100
AcDbVisualStyle
  2
Shaded
 70
    27
177
     3
291
     0
 70
    58
 90
        2
176
     1
 90
        2
176
     1
 90
        1
176
     1
 90
        2
176
     1
 40
0.6
176
     1
 40
30.0
176
     1
 62
     7
420
 16777215
176
     1
 90
        0
176
     1
 90
        4
176
     1
 62
     7
176
     1
 62
   257
176
     1
 90
        1
176
     1
 90
        1
176
     1
 40
1.0
176
     1
 90
        8
176
     1
 62
   257
176
     1
 40
1.0
176
     1
 90
        1
176
     1
 90
        6
176
     1
 90
        2
176
     1
 62
     8
420
  7895160
176
     1
 90
        3
176
     1
 90
        0
176
     1
 90
        0
176
     1
290
     0
176
     1
 90
        5
176
     1
 40
0.0
176
     1
 90
        0
176
     1
290
     0
176
     1
290
     1
176
     1
290
     1
176
     1
290
     0
176
     1
290
     0
176
     1
290
     0
176
     1
290
     0
176
     1
290
     0
176
     1
290
     0
176
     1
 90
       50
176
     1
 40
0.0
176
     1
 40
1.0
176
     1
 90
        0
176
     1
 62
    18
420
        0
176
     1
 90
       50
176
     1
 90
        3
176
     1
 62
     5
420
      255
176
     1
290
     0
176
     1
 90
       50
176
     1
 90
       50
176
     1
 90
       50
176
     1
290
     0
176
     1
 90
       50
176
     1
 62
   256
176
     0
 40
1.0
176
     0
 90
        2
176
     1
  1
strokes_ogs.tif
176
     1
290
     0
176
     1
 40
1.0
176
     1
 40
1.0
176
     1
  0
VISUALSTYLE
  5
1F2
102
{ACAD_REACTORS
330
EF
102
}
330
EF
100
AcDbVisualStyle
  2
Shaded with edges
 70
    26
177
     3
291
     0
 70
    58
 90
        2
176
     1
 90
        2
176
     1
 90
        1
176
     1
 90
        2
176
     1
 40
0.6
176
     1
 40
30.0
176
     1
 62
     7
420
 16777215
176
     1
 90
        1
176
     1
 90
        2
176
     1
 62
     7
176
     1
 62
   257
176
     1
 90
        2
176
     1
 90
        1
176
     1
 40
1.0
176
     1
 90
        8
176
     1
 62
   257
176
     1
 40
1.0
176
     1
 90
        1
176
     1
 90
        6
176
     1
 90
        2
176
     1
 62
     7
176
     1
 90
        3
176
     1
 90
        0
176
     1
 90
        0
176
     1
290
     0
176
     1
 90
        5
176
     1
 40
0.0
176
     1
 90
        0
176
     1
290
     0
176
     1
290
     1
176
     1
290
     1
176
     1
290
     0
176
     1
290
     0
176
     1
290
     0
176
     1
290
     0
176
     1
290
     0
176
     1
290
     0
176
     1
 90
       50
176
     1
 40
0.0
176
     1
 40
1.0
176
     1
 90
        0
176
     1
 62
    18
420
        0
176
     1
 90
       50
176
     1
 90
        3
176
     1
 62
     5
420
      255
176
     1
290
     0
176
     1
 90
       50
176
     1
 90
       50
176
     1
 90
       50
176
     1
290
     0
176
     1
 90
       50
176
     1
 62
   256
176
     0
 40
1.0
176
     0
 90
        2
176
     1
  1
strokes_ogs.tif
176
     1
290
     0
176
     1
 40
1.0
176
     1
 40
1.0
176
     1
  0
VISUALSTYLE
  5
1EF
102
{ACAD_REACTORS
330
EF
102
}
330
EF
100
AcDbVisualStyle
  2
Shades of Gray
 70
    23
177
     3
291
     0
 70
    58
 90
        2
176
     1
 90
        2
176
     1
 90
        3
176
     1
 90
        0
176
     1
 40
0.6
176
     1
 40
30.0
176
     1
 62
     7
420
 16777215
176
     1
 90
        2
176
     1
 90
        2
176
     1
 62
     7
176
     1
 62
     7
176
     1
 90
        1
176
     1
 90
        1
176
     1
 40
40.0
176
     1
 90
        8
176
     1
 62
     7
176
     1
 40
1.0
176
     1
 90
        1
176
     1
 90
        6
176
     1
 90
        2
176
     1
 62
     7
176
     1
 90
        3
176
     1
 90
        0
176
     1
 90
        0
176
     1
290
     0
176
     1
 90
        1
176
     1
 40
0.0
176
     1
 90
        0
176
     1
290
     0
176
     1
290
     1
176
     1
290
     1
176
     1
290
     0
176
     1
290
     0
176
     1
290
     0
176
     1
290
     0
176
     1
290
     0
176
     1
290
     0
176
     1
 90
       50
176
     1
 40
0.0
176
     1
 40
1.0
176
     1
 90
        0
176
     1
 62
    18
420
        0
176
     1
 90
       50
176
     1
 90
        3
176
     1
 62
     5
420
      255
176
     1
290
     0
176
     1
 90
       50
176
     1
 90
       50
176
     1
 90
       50
176
     1
290
     0
176
     1
 90
       50
176
     1
 62
   256
176
     0
 40
1.0
176
     0
 90
        2
176
     1
  1
strokes_ogs.tif
176
     1
290
     0
176
     1
 40
1.0
176
     1
 40
1.0
176
     1
  0
VISUALSTYLE
  5
1F0
102
{ACAD_REACTORS
330
EF
102
}
330
EF
100
AcDbVisualStyle
  2
Sketchy
 70
    24
177
     3
291
     0
 70
    58
 90
        1
176
     1
 90
        2
176
     1
 90
        2
176
     1
 90
        0
176
     1
 40
0.6
176
     1
 40
30.0
176
     1
 62
     7
420
 16777215
176
     1
 90
        2
176
     1
 90
        2
176
     1
 62
     7
176
     1
 62
     7
176
     1
 90
        1
176
     1
 90
        1
176
     1
 40
40.0
176
     1
 90
       11
176
     1
 62
     7
176
     1
 40
1.0
176
     1
 90
        1
176
     1
 90
        6
176
     1
 90
        2
176
     1
 62
     7
176
     1
 90
        6
176
     1
 90
        0
176
     1
 90
        0
176
     1
290
     0
176
     1
 90
        1
176
     1
 40
0.0
176
     1
 90
        0
176
     1
290
     0
176
     1
290
     1
176
     1
290
     1
176
     1
290
     0
176
     1
290
     0
176
     1
290
     0
176
     1
290
     0
176
     1
290
     0
176
     1
290
     0
176
     1
 90
       50
176
     1
 40
0.0
176
     1
 40
1.0
176
     1
 90
        0
176
     1
 62
    18
420
        0
176
     1
 90
       50
176
     1
 90
        3
176
     1
 62
     5
420
      255
176
     1
290
     0
176
     1
 90
       50
176
     1
 90
       50
176
     1
 90
       50
176
     1
290
     0
176
     1
 90
       50
176
     1
 62
   256
176
     0
 40
1.0
176
     0
 90
        2
176
     1
  1
strokes_ogs.tif
176
     1
290
     0
176
     1
 40
1.0
176
     1
 40
1.0
176
     1
  0
VISUALSTYLE
  5
FC
102
{ACAD_REACTORS
330
EF
102
}
330
EF
100
AcDbVisualStyle
  2
Thicken
 70
    13
177
     3
291
     1
 70
    58
 90
        2
176
     1
 90
        2
176
     1
 90
        1
176
     1
 90
        0
176
     1
 40
0.6
176
     1
 40
30.0
176
     1
 62
     7
420
 16777215
176
     1
 90
        1
176
     1
 90
        4
176
     1
 62
     7
176
     1
 62
   257
176
     1
 90
        1
176
     1
 90
        1
176
     1
 40
1.0
176
     1
 90
       12
176
     1
 62
     7
176
     1
 40
1.0
176
     1
 90
        1
176
     1
 90
        6
176
     1
 90
        2
176
     1
 62
     7
176
     1
 90
        5
176
     1
 90
        0
176
     1
 90
        0
176
     1
290
     0
176
     1
 90
        1
176
     1
 40
0.0
176
     1
 90
        0
176
     1
290
     0
176
     1
290
     1
176
     1
290
     1
176
     1
290
     0
176
     1
290
     0
176
     1
290
     0
176
     1
290
     0
176
     1
290
     0
176
     1
290
     0
176
     1
 90
       50
176
     1
 40
0.0
176
     1
 40
1.0
176
     1
 90
        0
176
     1
 62
    18
420
        0
176
     1
 90
       50
176
     1
 90
        3
176
     1
 62
     5
420
      255
176
     1
290
     0
176
     1
 90
       50
176
     1
 90
       50
176
     1
 90
       50
176
     1
290
     0
176
     1
 90
       50
176
     1
 62
   256
176
     0
 40
1.0
176
     0
 90
        2
176
     1
  1
strokes_ogs.tif
176
     1
290
     0
176
     1
 40
1.0
176
     1
 40
1.0
176
     1
  0
VISUALSTYLE
  5
F6
102
{ACAD_REACTORS
330
EF
102
}
330
EF
100
AcDbVisualStyle
  2
Wireframe
 70
     5
177
     3
291
     0
 70
    58
 90
        0
176
     1
 90
        2
176
     1
 90
        0
176
     1
 90
        0
176
     1
 40
0.6
176
     1
 40
30.0
176
     1
 62
     7
420
 16777215
176
     1
 90
        1
176
     1
 90
        4
176
     1
 62
     7
176
     1
 62
   257
176
     1
 90
        1
176
     1
 90
        1
176
     1
 40
1.0
176
     1
 90
        0
176
     1
 62
   257
176
     1
 40
1.0
176
     1
 90
        1
176
     1
 90
        6
176
     1
 90
        2
176
     1
 62
     7
176
     1
 90
        3
176
     1
 90
        0
176
     1
 90
        0
176
     1
290
     0
176
     1
 90
        1
176
     1
 40
0.0
176
     1
 90
        0
176
     1
290
     0
176
     1
290
     1
176
     1
290
     1
176
     1
290
     0
176
     1
290
     0
176
     1
290
     0
176
     1
290
     0
176
     1
290
     0
176
     1
290
     0
176
     1
 90
       50
176
     1
 40
0.0
176
     1
 40
1.0
176
     1
 90
        0
176
     1
 62
    18
420
        0
176
     1
 90
       50
176
     1
 90
        3
176
     1
 62
     5
420
      255
176
     1
290
     0
176
     1
 90
       50
176
     1
 90
       50
176
     1
 90
       50
176
     1
290
     0
176
     1
 90
       50
176
     1
 62
   256
176
     0
 40
1.0
176
     0
 90
        2
176
     1
  1
strokes_ogs.tif
176
     1
290
     0
176
     1
 40
1.0
176
     1
 40
1.0
176
     1
  0
VISUALSTYLE
  5
1F1
102
{ACAD_REACTORS
330
EF
102
}
330
EF
100
AcDbVisualStyle
  2
X-Ray
 70
    25
177
     3
291
     0
 70
    58
 90
        2
176
     1
 90
        2
176
     1
 90
        1
176
     1
 90
        1
176
     1
 40
0.5
176
     1
 40
30.0
176
     1
 62
     7
420
 16777215
176
     1
 90
        1
176
     1
 90
        0
176
     1
 62
     7
176
     1
 62
   257
176
     1
 90
        1
176
     1
 90
        1
176
     1
 40
1.0
176
     1
 90
        8
176
     1
 62
     7
176
     1
 40
1.0
176
     1
 90
        1
176
     1
 90
        6
176
     1
 90
        2
176
     1
 62
     7
176
     1
 90
        3
176
     1
 90
        0
176
     1
 90
        0
176
     1
290
     0
176
     1
 90
       13
176
     1
 40
0.0
176
     1
 90
        0
176
     1
290
     0
176
     1
290
     1
176
     1
290
     1
176
     1
290
     0
176
     1
290
     0
176
     1
290
     0
176
     1
290
     0
176
     1
290
     0
176
     1
290
     0
176
     1
 90
       50
176
     1
 40
0.0
176
     1
 40
1.0
176
     1
 90
        0
176
     1
 62
    18
420
        0
176
     1
 90
       50
176
     1
 90
        3
176
     1
 62
     5
420
      255
176
     1
290
     0
176
     1
 90
       50
176
     1
 90
       50
176
     1
 90
       50
176
     1
290
     0
176
     1
 90
       50
176
     1
 62
   256
176
     0
 40
1.0
176
     0
 90
        2
176
     1
  1
strokes_ogs.tif
176
     1
290
     0
176
     1
 40
1.0
176
     1
 40
1.0
176
     1
  0
DICTIONARYVAR
  5
146
102
{ACAD_REACTORS
330
5E
102
}
330
5E
100
DictionaryVariables
280
     0
  1
1:1
  0
DICTIONARYVAR
  5
259
102
{ACAD_REACTORS
330
5E
102
}
330
5E
100
DictionaryVariables
280
     0
  1
3.500000
  0
DICTIONARYVAR
  5
25A
102
{ACAD_REACTORS
330
5E
102
}
330
5E
100
DictionaryVariables
280
     0
  1
acadiso.lin
  0
DICTIONARYVAR
  5
145
102
{ACAD_REACTORS
330
5E
102
}
330
5E
100
DictionaryVariables
280
     0
  1
STANDARD
  0
DICTIONARYVAR
  5
84
102
{ACAD_REACTORS
330
5E
102
}
330
5E
100
DictionaryVariables
280
     0
  1
STANDARD
  0
DICTIONARYVAR
  5
227
102
{ACAD_REACTORS
330
5E
102
}
330
5E
100
DictionaryVariables
280
     0
  1
Metric50
  0
DICTIONARYVAR
  5
228
102
{ACAD_REACTORS
330
5E
102
}
330
5E
100
DictionaryVariables
280
     0
  1
Metric50
  0
DICTIONARYVAR
  5
5F
102
{ACAD_REACTORS
330
5E
102
}
330
5E
100
DictionaryVariables
280
     0
  1
2
  0
DICTIONARYVAR
  5
63
102
{ACAD_REACTORS
330
5E
102
}
330
5E
100
DictionaryVariables
280
     0
  1
1
  0
DICTIONARYVAR
  5
1AE
102
{ACAD_REACTORS
330
5E
102
}
330
5E
100
DictionaryVariables
280
     0
  1
0
  0
DICTIONARYVAR
  5
1AF
102
{ACAD_REACTORS
330
5E
102
}
330
5E
100
DictionaryVariables
280
     0
  1
0
  0
DICTIONARY
  5
205
330
22
100
AcDbDictionary
280
     1
281
     1
  0
DICTIONARY
  5
1F9
330
ED
100
AcDbDictionary
280
     1
281
     1
  3
FBXASSET
360
1FA
  0
DICTIONARY
  5
1F7
330
EC
100
AcDbDictionary
280
     1
281
     1
  3
FBXASSET
360
1F8
  0
DICTIONARY
  5
173
330
EE
100
AcDbDictionary
280
     1
281
     1
  3
BUMPTILE
360
175
  3
DIFFUSETILE
360
174
  3
FBXASSET
360
1FB
  3
OPACITYTILE
360
176
  3
REFLECTIONTILE
360
177
  0
DICTIONARY
  5
162
330
7F
100
AcDbDictionary
280
     1
281
     1
  3
ACAD_ROUNDTRIP_2008_TABLESTYLE_CELLSTYLEMAP
360
5B6
  0
XRECORD
  5
1FA
102
{ACAD_REACTORS
330
1F9
102
}
330
1F9
100
AcDbXrecord
280
     1
 70
     1
 90
429727718
  1
D62C5603-E3A1-4AEA-B7FB-FE5D8D0755AF
310
504B03040A0000080000CC70623B3DEE336E79000000790000001B0000006175746F6465736B2D64657369676E2D7061636B6167652E786D6C3C3F786D6C2076657273696F6E3D22312E302220656E636F64696E673D227574662D3822203F3E3C666F726D6174733E3C666F726D61743E687474703A2F2F736368656D612E
310
6175746F6465736B2E636F6D2F64657369676E2D7061636B6167652F323030393C2F666F726D61743E3C2F666F726D6174733E504B0304140006080800CC70623BD486FD9CA0000000F4000000130000005B436F6E74656E745F54797065735D2E786D6C7D8EC10E82300C865F65E91D8A1E8C310C0EEA1BF002731658846E
310
D98AC1B77784ABF1D8FE5FBFBF75BBCE937A534CCEB38643598122B6FEE978D0B0485F9C41B54DDD7D022595594E1A469170414C76A4D9A4D207E29CF43ECE46F218070CC6BECC4078ACAA135ACF422C856C0E68EA1BF5669944DDD7BCDE7B1F8E415D77AECB980613C2E4AC91FC167A2B244592486606FC29C8FD7F045B9A
310
EF7053A7E60B504B0304140006080800CC70623B853B8169EB0000007C01000008000000636F72652E786D6C8D90416EC3201045AF62CDB6C206821CC7C244919D9CA01740401C94182C03558F5F9C3852BBEB6A467FFE9B197D7EFC9E1EC5975982F5AE035262288C535E5B377690E21535501C055FBC8FBF6C503839990E
310
5619041F179FE64D52DE45E362569DD7661365082642A11EB9E920A89B99642953CC8E702F67A9EE7234257977194EC9EAE275C4EABCCF5EAD5940D4AC6F0E35A568B8F43562CD7046CD199FD07E60174276A7BE677B5EADB0E0D14EEFFB6A31321A0D82627C4084204C3F096B71DD52F6819B16635EADF63F509AF53FA164
310
5DDCD1EDDD17164090FCC8732078B56691CB33A85CD7DCC40F504B0304140006080800CC70623B55019EA25F0000007C00000007000000636E782E786D6C4DCB3B0E80201045D1AD90E915ED2CF8AC45050C11660C8261F98AB1B07AC9C97D42D718D865D3E909258CFD00CCE24AC6E326A164D74DC0B4128928FF32603847
310
2BA13128B1252AC747C6BAB984FC68F0B87FE8960A5C09FE86CFB69FBA01504B0304140006080800CC70623BDBABAAF470010000D40300000C0000006662782F636F72652E786D6CC553D16E823014FD95A6AF4B694182CC941A83FA05FB810A9511A125A5257EFE2E82712ECEB8A7F100CD39F7F69E734AF9FADC366850B6
310
AF8DCE7018308C942E4C59EB2AC3DE1D498AD15A706B8CFB56869196ADCAF00863C12B6B7C374385D14E6907A836A59A41D9F7CA615434B0C8705F7CAA5606D23BA8E84F41278B93AC54100640439DE0BDB320004D43C63716C7C399D30917DCFBBA9CD9BA8469F5B156168B24CED3F7248AC8769F27244EB73B92EED8862C
310
B7F13E0C179B3C8F979C8ECD82BBBABDAA2BAC924E9558448CBD9330242CFA08E3154B5651FCC6D215639C8EE5774DBE2B5F6CF2B5768B68963BB5F5588420E442FC700B1139D4CB01F450C1E918227C2E09DF070D8140C84E1E9AAB8F1340832A9CB13130A5F1376A908D57309505ECF2A0DF179C4E9D30F5B239B87E3823
310
7A79C6F31DE1A8A5AEC08474B03C7837EAE4938639B44E5932B833D2C6B6B279CDC613877FA26EE21F4A2A4C63EC7F29A2F301D1F9F7A0E37D145F504B0304140006080800CC70623B9C113CC27E0000009D0000000B0000006662782F636E782E786D6C4DCCDF0A83201C86E15B91DFB94BFB330DD428C8FB886521330DA7
310
6397BF1A1DECE883878F57749FCDA1B7892F1BBC047A23808C7F84D9FA55424E0BE6803A256208E9EF06C84F9B91703228B1C690F78B66B34CD9A5439DF5CF0BFBF65E35BCA1B8D6A5C6F540381E886698B5741C695F9503EBA150A2F8958E3DC3EA0B504B0304140006080800CC70623B7DF2F77C2A010000120200003100
310
00006662782F41393633353835312D344632462D344230382D423046372D3739314545314133324237412F636F72652E786D6C8D51DB8EC22014FC15C2939B0D2DB4B45643319AE817EC0F6041255A68B86CFCFC856D4D76DF7CE190393373060EDB3DC707F856CE6B6B7A480A0C81328395DA5C7B18C3057510EC3873D686
310
3F34088C18550F330C39BB3A1BA7051AAC09CA84841A2BD5020AEF55806078A44B0FFD7053A328440C89E1EFC52486BBB8AA8214A99D789CF9E05200300FC927E4FB4D5B375D43103D5527440FB843077C5AA3F5861C8F645F5787F59E95B390B318B55CE45AA638FAA2957BD7248B390B7A7CC51F9C124149C82B8C378810
310
84AB2F42B7B8DD56F413775B8C5999E9FF4471926F8AA236A1AE96B8B3CC434E5839373893369E1FAF30EA395917409EB7F26AF8801C171837A4A6AC9C89E9F9C9B1A58BA30FD6A5EF5DDDCF894B9AD9B6A59C957943A9FCAE2FD5BC4DFE03504B0304140006080800CC70623BAD7543B64E01000033030000300000006662
310
782F41393633353835312D344632462D344230382D423046372D3739314545314133324237412F636E782E786D6CD593CD6EC32010845F0571AD6CE3D48AD20813A9873E410FBD12D82434182C7EAAE6EDBB2424CD25871E7B41D6EC30B3FA84F9E67BB2E40B4234DE8DB46F1925E094D7C6ED479AD3AE5951B2113C789FEE
310
6C943839C1488B4C05DF079FE72A69D8C96C13AAD6B8631503449F83828872B949AC57D26200B826A308D316B4064D6E46FCDA41C05550DC9E483A00797BFD207EFB092A45DE9514C1BBD22178396BD39D891265658C238DEA00936C654E5E433CB65A26D9F6EDB5EBC14EBF49A45CB856E66048291F6939A9A81BB5C89177
310
38143CA680F4AA299D66A042CEB3354A2684DC9D8D178FE0D9B8B41CAAD720F880EE7EF93C0C18769E099ECC04D5A102C8049A8A05632F4DDF376CF1DE0F6BB65C2F8627B65A33C6BB62177CEBBDAD973006829F89F22E814B54F4BC2BE347F8AA8F681390B50FA73F804400B5F542E796F19FF974E7F78DB802FE05E20750
310
4B0304140006080800CC70623BE75B7789680500003C100000340000006662782F41393633353835312D344632462D344230382D423046372D3739314545314133324237412F6F626A656374732E786D6CAD575B8F9B3818FD2B887D06C22499CB8AA1CA655245D5B455A356FB305264C061D8018C6C3393D95FBFC7600890
310
A4CD5EF210B0B1BFEBF98E3F7B1FF6596ABC522E1296DF9BAE3D320D9A872C4AF2F8DE2CE5CEBA358D0FBEC719939D65A691938CDE9B6ADAF4BD98B3B2D05311DD91329583D9D5FC0F438434A7A611A644887B5384CF34233629258BA878B12322891DEFF6B66BD70BFB62634E8AE781D082709A4B588AF91C528CDA28B73F
310
1C998EEF39EABBEFA97FBD6A7C7E9553F9D3D79FE442923C3C523610337627CB87ABE99D359D4CC6D6E4FACAB5E6ABF9D2726FC6A3C5F56271377BB88362213924694B38DD99FE47C48627A1E7D49F5A8BB5E1A74C0A599ED3B0F21F1E56366B89112D681E218F0915D0D6F17AD41FBA2A369DCF6335D62ABBD39779D5DDD1
310
11D4D8DE3CBB96B2E04FB8202E41051754A1AA8E8F76B4C6DFE810B580B1547F4B84911149794252234D024EF8BBE963A95AE27B3D310A9D5C215C7960FAEE415ED75694C6AFB17BCACA5D99A60A9AA65F217B0BFC53292ACB92BF283FAD0D3621576592CB5BED907C2FA8E9DF794E35E97BEA31BED21FEB401ABB94C44839
310
DCACBF0E1C5DA8DA5B2F4DFFD32AD86F543D9E565E7056502E157C00AD2671CD534549AB752FCA9CDA00677A313F04E51B22FF19E57B300579E3C97EB29F682D92935CEC18CF901B7B54FD8C51F362B56FC72FE0B3C1EAE335EDCCBF5AEC39ADB17DC238973F804BA5E6F6BFE7AF1FB32E523BE9F3BD571418E3631DCA4D48
310
5250CF639223210A9446CA30052EDF057BD35F8329C1ECD84552BF0DC8D18BE7BCE23BFE6BD960AB4A7DE79923A103BEBD80F911CBAA2C60DB19B01CF164A5583B772EE6D3FFA56666CBCDA74DC97724A48F9A58967497E489C4D979006FD7A05E227A1EBDD0F737C623387A9C844D3709995625106D157315F8B8392CD4E0
310
A0B9A720C4BE9829CEF37EA1E13111214D53925356365ADA634861B52519DD27A00AEB808EAF0628E6F435519D446F45CF2C9CF5214F0A15B2F6D06B79DA3EE3CBF7F56780D2F4E7EF73A0F5E5B02A38D07DC852C6B7C1FBB6664213E0C39E3EBA7FF4E1AD23EA2829407C85E586727488B751B2DB9502BC7B228A3FD68B6E
310
A65A22397E690AA8D158D7E404EC8CDA235CC3B7D1898680131CEC2CDF2638C65196279577750F15884AEE19F94199155B92B13297978469D4F8D358DF0AEF7631E28DC8F0D9F437D5D39A83B2231A1D52D543813A824EF8D44BCFF2FA6A31BD1E8DAD87F1CCB526B3879935BF59CDADD5C37479BB1CDD4CA7B3556B516589
310
EF352754B706114D9C885EC9131DE6EFEB43D99AFE2391C2F958179413D7CFEF6B1B6DB1E7600F00DE6E5C67454A339A4BA2E0FBA85ED26F045D454F463DBFCE484C2F90F2E5E3666003662ED8F755951A7D1BECD5B30B550B2785C8E7320B7292A4838DDA71BBC863ED7613CAF659337A3354231D4FF4A182A54904C2898C
310
98B28C4AD0CE056CCF332A80986E571EE9DBC305BB5FEB7E509220A58D25CF042D712A806AC0AD0C657FDEF80D2D9CEAA2EE4D1C76F60BFE74219A06527D6F82DF6412526107381E55E353090704D085B52408A8913C4ED159D79BDA71BB4BC506F4831350EB6F975CD22D69BF7AC49B91A2C0A9DDA3D5CA36AD20FC478E37
310
E61844E2352865EBCB61A275A65283CAAA9DD27703B4102F5AF51EF5F573B75CBB5AD38BC845F7A49F82A0966A49C2E3EA5EA0ECD326CD965F1DB402C6FA8B51A4658C5C5E2EC9E214602E55810345408596591009A82E7E7FFACA19EEA299B14A0081A705CB3296EBC14CDF658DCD336EA6D1136881AAEB87B81AB9EE53D5
310
F5EB8BC8362082DA24122F98680A4E7930C01A0079749CEA14382A0783E5EBA5A10F8C098456A03D6A4AEB6BB881E2513747552A5DB22C7EDAF83BD5528081A365F7FF06504B0304140006080000CC70623B000000000000000000000000350000006662782F41393633353835312D344632462D344230382D423046372D37
310
39314545314133324237412F76657274696365732E62696E504B0304140006080800CC70623BF270F1330600000004000000360000006662782F41393633353835312D344632462D344230382D423046372D3739314545314133324237412F747269616E676C65732E62696E636660600000504B0304140006080000CC7062
310
3B000000000000000000000000370000006662782F41393633353835312D344632462D344230382D423046372D3739314545314133324237412F617474726962757465732E62696E504B0304140006080800CC70623B08DA0BD19000000041010000360000006662782F41393633353835312D344632462D344230382D4230
310
46372D3739314545314133324237412F6469726563746F72792E786D6C858F410AC3201045AF22B36F53E9A60B35CBEEBAE80D244E44489C6234F4F835464A48035D0DF398FF9F8AF63D0E6CC63039F212F8F9020C7D47C6792B21C5FE7403D62A1188E2E60C98D7234A5830286103A55745067B9D86B8A3CF9C7F90C11DE6
310
07FB144396D7B6A82D282E9A152AD114D5EF2CB866EEE831B8EEA07A7BB5A8D7D61A2BAAEB7FD5F70921FF497D00504B0304140006080800CC70623BEDD1DC58FD000000A00100003B0000006662782F41393633353835312D344632462D344230382D423046372D3739314545314133324237412F7265736F75726365732F
310
636F72652E786D6C8D504B6E833010BD0A9A6D65B00922041947112427E8052C33A156828DFCA97AFC9A40A576D7CDCCE87D344F8F9FBFE667F689CE6B6B3A6039850C8DB2A336530731DC4903D95970676DF82583CCC8193B5861107C72362E3BA4AC096842428D1D7107A5F7182053CF7474E0D507CE32973124857FE48B
310
540F3961CEF244279DE03EB81420DB9EAC1384436FA353E879B1B182C7A8C75DA3C7F453DF353A1075D537A7BA6464B8F535A99AE14A9A2BBD90E350DD183B5CFABE3AF262350B1EF4FC9351399401471025A527C218A1E53BAB5A5AB765F5469B96525EACF23FA6B88CFF34456DC2A1DCE36E360F82A5202F42F062ED2BAD
310
579969AFDD8A6F504B010214000A0000080000CC70623B3DEE336E79000000790000001B00000000000000000000000000000000006175746F6465736B2D64657369676E2D7061636B6167652E786D6C504B01021400140006080800CC70623BD486FD9CA0000000F40000001300000000000000000000000000B20000005B
310
436F6E74656E745F54797065735D2E786D6C504B01021400140006080800CC70623B853B8169EB0000007C010000080000000000000000000000000083010000636F72652E786D6C504B01021400140006080800CC70623B55019EA25F0000007C000000070000000000000000000000000094020000636E782E786D6C504B
310
01021400140006080800CC70623BDBABAAF470010000D40300000C00000000000000000000000000180300006662782F636F72652E786D6C504B01021400140006080800CC70623B9C113CC27E0000009D0000000B00000000000000000000000000B20400006662782F636E782E786D6C504B01021400140006080800CC70
310
623B7DF2F77C2A010000120200003100000000000000000000000000590500006662782F41393633353835312D344632462D344230382D423046372D3739314545314133324237412F636F72652E786D6C504B01021400140006080800CC70623BAD7543B64E010000330300003000000000000000000000000000D2060000
310
6662782F41393633353835312D344632462D344230382D423046372D3739314545314133324237412F636E782E786D6C504B01021400140006080800CC70623BE75B7789680500003C10000034000000000000000000000000006E0800006662782F41393633353835312D344632462D344230382D423046372D3739314545
310
314133324237412F6F626A656374732E786D6C504B01021400140006080000CC70623B0000000000000000000000003500000000000000000000000000280E00006662782F41393633353835312D344632462D344230382D423046372D3739314545314133324237412F76657274696365732E62696E504B01021400140006
310
080800CC70623BF270F133060000000400000036000000000000000000000000007B0E00006662782F41393633353835312D344632462D344230382D423046372D3739314545314133324237412F747269616E676C65732E62696E504B01021400140006080000CC70623B0000000000000000000000003700000000000000
310
000000000000D50E00006662782F41393633353835312D344632462D344230382D423046372D3739314545314133324237412F617474726962757465732E62696E504B01021400140006080800CC70623B08DA0BD1900000004101000036000000000000000000000000002A0F00006662782F41393633353835312D344632
310
462D344230382D423046372D3739314545314133324237412F6469726563746F72792E786D6C504B01021400140006080800CC70623BEDD1DC58FD000000A00100003B000000000000000000000000000E1000006662782F41393633353835312D344632462D344230382D423046372D3739314545314133324237412F7265
310
736F75726365732F636F72652E786D6C504B0506000000000E000E0080040000641100000000
  0
XRECORD
  5
1F8
102
{ACAD_REACTORS
330
1F7
102
}
330
1F7
100
AcDbXrecord
280
     1
 70
     1
 90
429727718
  1
30362254-06B7-45E0-A893-8CFA70E3D6BC
310
504B03040A0000080000CC70623B3DEE336E79000000790000001B0000006175746F6465736B2D64657369676E2D7061636B6167652E786D6C3C3F786D6C2076657273696F6E3D22312E302220656E636F64696E673D227574662D3822203F3E3C666F726D6174733E3C666F726D61743E687474703A2F2F736368656D612E
310
6175746F6465736B2E636F6D2F64657369676E2D7061636B6167652F323030393C2F666F726D61743E3C2F666F726D6174733E504B0304140006080800CC70623BD486FD9CA0000000F4000000130000005B436F6E74656E745F54797065735D2E786D6C7D8EC10E82300C865F65E91D8A1E8C310C0EEA1BF002731658846E
310
D98AC1B77784ABF1D8FE5FBFBF75BBCE937A534CCEB38643598122B6FEE978D0B0485F9C41B54DDD7D022595594E1A469170414C76A4D9A4D207E29CF43ECE46F218070CC6BECC4078ACAA135ACF422C856C0E68EA1BF5669944DDD7BCDE7B1F8E415D77AECB980613C2E4AC91FC167A2B244592486606FC29C8FD7F045B9A
310
EF7053A7E60B504B0304140006080800CC70623B1EC5D7A3EB0000007C01000008000000636F72652E786D6C8D90416EC3201045AF82665B6103C6756C6122AB4D4ED00B204C5C94182C03558F5F9C3852BBEB6A467FFE9B197D71FC9E6FE8CBACC17AD7032D0820E3B41FAD9B7A48F1820F808E52ACDEC75F36404ECDA687
310
4D0629A6D5A76597B477D1B89855E747B38B2A041301E95B6E7A08FAD3CCAA50296647B8168BD2573599823EBB0CA76447F43862C7BCCF5EAC59410E4DDD9C7973C2755553CCCFA4C603E3040F1565ED3B1FDE4E432BCA0D9622DAF9795FAF464533826484B498524CD807E51D79ED187F21878E10516EF63F505AC67F42C9
310
BA58B1FDDD071640D2FCC87D2045B96591CB3DA85CB7DCE40F504B0304140006080800CC70623B55019EA25F0000007C00000007000000636E782E786D6C4DCB3B0E80201045D1AD90E915ED2CF8AC45050C11660C8261F98AB1B07AC9C97D42D718D865D3E909258CFD00CCE24AC6E326A164D74DC0B4128928FF32603847
310
2BA13128B1252AC747C6BAB984FC68F0B87FE8960A5C09FE86CFB69FBA01504B0304140006080800CC70623B8C9102E971010000D40300000C0000006662782F636F72652E786D6CC5535B6E833010BC8AE5DF0A6C08340F1947A84D4ED00B38C6A128602363A31CBFCB234A53A551FA553EC09AD9F5CE8C31DB9E9B1AF5CA
310
7695D1198E428A91D2D214952E33ECDD315861B4E5CC1AE3BE9561A445A3323CC098B3D21ADFCE9034DA29ED00D5A6503328BA4E398C640D8B0C77F253352214DE4145770A5B214FA2546114020D759C75CE8200340D19DE981F0F6746269C33EFAB6266AB02A655C74A59CCF365BADC27CB5D902ED22848F6340DF238A141
310
BE88E2F57B92BFEDF23523433367AE6A2EEAA455C2A902F398D2751045018D3FA264435F3771F242571B4A1919CA6F9A7C5B3CD9E42BED16F12C776AEB308F40C848FC700B1139D4891EF410CEC810227CC6846F8386402064270EF5C5C709A05E49676C024C61FC95EA45ED154CA5211D1FF4FB8291A913A68E9B83EBBB33
310
E2A7673CDE118E5AE8124C0807CB8377834E366998436B950D7A7746DAD846D4CFD978E0F04FD455FC5D49D2D4C6FE9722321F10997F0F32DC47FE05504B0304140006080800CC70623BFFEA85907E0000009D0000000B0000006662782F636E782E786D6C4DCCD10A83201886E15B91FFDC95D95A811AB6F23E625948A6C3
310
E9D8E5AF46073BFAE0E1E365ED67B3E8ADC3CB78C7815C7240DA3DFC64DCC221C519D7805AC182F7F1EF06C88D9BE6703008B6049F9E274D7A1E938DBB5AE3D6131B2589BA0D3D965551E0B2EA732C9B9A624AAEB41E3A557677029960D9AFB4EF11165F504B0304140006080800CC70623B4FEEA4082C0100001202000031
310
0000006662782F39464131463745442D413632322D343644302D413938332D3331353338454246344243312F636F72652E786D6C8D515B6EC32010BC0AE2AB55850DD871ED0813254D72825EC00192A2C460F1A872FC42ED48ED5F7E00CDCECCCEB26C731F6FE05B39AFADE921293004CA082BB5B9F43086336A21D870E6AC
310
0D7F68109861543DCC30E4ECE26C9C164858139409093556AA051CBC570102714B8F1E7AF1A5C6A11862480C7F2DA6415C878B2A4891CA89C7990F2E050073937C42DE1DB7E4F87ED8A36D4329AA9B3D46DBAEAD504556557BD81DEBDD0761E52CE42C462D17B996298E3E6BE59E35C962CE821E1FF18553435012728A7187
310
0841987E927A8D9B35ADDF70BBC6989599FE4F1427F9A4286A132ABAC49D651EF234CD5CE04CDA78BA3DC2A8FB645D00B9DF8B57E215725C60BCA2A463E54C4CE327C7A65E1C7DB02E7DEFCBF594B864C5CA6CDBD49C957943E9FA5D5FBAF336F90F504B0304140006080800CC70623BAD7543B64E01000033030000300000
310
006662782F39464131463745442D413632322D343644302D413938332D3331353338454246344243312F636E782E786D6CD593CD6EC32010845F0571AD6CE3D48AD20813A9873E410FBD12D82434182C7EAAE6EDBB2424CD25871E7B41D6EC30B3FA84F9E67BB2E40B4234DE8DB46F1925E094D7C6ED479AD3AE5951B2113C
310
789FEE6C943839C1488B4C05DF079FE72A69D8C96C13AAD6B8631503449F83828872B949AC57D26200B826A308D316B4064D6E46FCDA41C05550DC9E483A00797BFD207EFB092A45DE9514C1BBD22178396BD39D891265658C238DEA00936C654E5E433CB65A26D9F6EDB5EBC14EBF49A45CB856E66048291F6939A9A81BB5
310
C8917738143CA680F4AA299D66A042CEB3354A2684DC9D8D178FE0D9B8B41CAAD720F880EE7EF93C0C18769E099ECC04D5A102C8049A8A05632F4DDF376CF1DE0F6BB65C2F8627B65A33C6BB62177CEBBDAD973006829F89F22E814B54F4BC2BE347F8AA8F681390B50FA73F804400B5F542E796F19FF974E7F78DB802FE05
310
E207504B0304140006080800CC70623B16AB87BA640500003C100000340000006662782F39464131463745442D413632322D343644302D413938332D3331353338454246344243312F6F626A656374732E786D6CAD575B6FA33818FD2B887DE6924B3BED8A326A92B68A663B534DD4D13E548A0C38942D60649B369D5FBFC7
310
600890A493BDE42160637FD7F31D7FF63E6FB3D478A55C242CBF3247B66B1A340F5994E4F19559CA8D75611A9F7D8F33263BCB4C232719BD32D5B4E97B316765A1A722BA21652A07B3B7B33F0D11D29C9A46981221AE4C113ED38CD8A4942CA2E2C58E882476BCD9DA23BB5ED8171B73523C0F841684D35CC252CCE79062D4
310
468DFA43D7747CCF51DF7D4FFDEB5593E3AB9CCA9FBEFE241792E4E19EB28198C968BAB8199F5D5A67D3E9C49A9E8F47D6EC76B6B0469F26EEFC7C3EBFBCBEB98462213924694B38DD98FE1D62C393D073EA4FADC5DAF04326852CCF6958F90F0F2B9BB5C48816348F90C7840A68EB78EDF68723159BCEE7891A6B95DDE9D3
310
BCEAEEE8086A6C6F9E5D4B59F0175C10A7A0820BAA5055C7473B5AE3CFDD452D602CD5DF12616444529E90D448938013FE6EFA58AA96F85E4F8C42275708571E98FE6827AF6B2B4AE3D7D83D64E5A64C53054DD3AF90BD06FEA9149565C94FCA0F6B834DC85599E4F2423B24DF0B6AFA979E534DFA9E7A4CC6FA631D486393
310
921829879BF5D781A373557BCB85E97FB90DB62B558F8795179C15944B051F40AB495CF35451D26A4727654E6D8033BD98EF82F21D91FF8AF2DD9982BCF1643BDD4EB516C9492E368C67C88DED563FC36D5EACF66DFF057C3658BDBFA69DF9578B3DA735B64F18C7F20770A9D45CFCF7FCF563D6456A277DBEF78A02637CA2
310
43B90A490AEAB94F72244481D24819A6C0E59B606BFA4B3025981DBB48EAB701D97BF19C577CC77F2D1B6C55A9EF3C732474C0B727303F625995056C3B02963D9EAC146BE78EC5FCEC7FA999EBC5EACBAAE41B12D27B4D2C0BBA49F244E2ECDC81B76B502F113D8F5EE8FB1BE3111CDD4FC2AA9B844CAB1288B68AB90A7CDC
310
1C166AB0D3DC5310625FCC14E779BFD0709F8890A629C9292B1B2DED31A4B0DA928CEE135085754027E3018A397D4D5427D15BD1330B677DC8934285AC3DF45A9EB68FF8F2B8FC0A509AFEECFD0FF2DE25CC6047F7214B195F07EFEB9A094D800F7BFAE8FED187B78EA8A3A400F115961BCAD1215E47C966530AF0EE8128FE
310
58CEBB996A8964FFA529A046635D9353B0336A8F700DDF46271A024E70B0B37C9DE01847591E54DED53D54202AB947E4076556AC49C6CA5C9E1226B7F1A7B1BE15DEED62C41B91E1B3E9AFAAA735036547343A925075041DF0A9979E893B391F8FCFA6967B3EFB644DCF6E5CEBFAE272625DCC6FAF3FB93793C5F90CE1EF57
310
407342756B10D1C489E8953CD1617E5CEECAD6F4EF8914CE5D5D504E5C3F1F9736DA62CFC11E00BCDDB8CC8A9466349744C1F75EBDA4DF09BA8A9E8C7A7E9991989E20E5DBDD6A6003664ED8F7A04A8DBE0DF6EAD9B9AA858342E47399053949D2C146EDB85DE4B176BB0965FBAC19BD19AA918E27FA50C1D22402E144464C
310
59462568E704B6E71915404CB72B8FF4EDE184DDAF753F284990D2C6926782963815403548A70C657FDEF80D2D9CEAA2AE4C1C76F60BFE74219A06527D6582DF6412526107381E55E353090704D085B52408D0933C4ED159D79BDA71BB4BC506F4831350EB6F979CD22D69BF7AC49B91A2C0A9DDA3D5CA36AD20FC478E37E6
310
1844E2352865EBCB6EA275A652E3836BE04EFB400BF1A2556F515F1FBB35B2AB35BD889C744FFA1004B5544B121E57F70215746DD2F5E2C1412B602CBF19455AC6C8E5E9922C4E01E65215385004546899059180EAFCF7A707CE7017CD8CDB0410789AB32C63B91E5CEBBBACB17AC6CD347A022D5075FD106377347AAABA7E
310
7D11590744509B44E205134DC1290F06580320F78E537D3D73540E06CB970B431F185308AD40BBD794D6D77003C5A36E8EAA54BA64597CD8F83BD552A080A365F7FF06504B0304140006080000CC70623B000000000000000000000000350000006662782F39464131463745442D413632322D343644302D413938332D3331
310
353338454246344243312F76657274696365732E62696E504B0304140006080800CC70623BF270F1330600000004000000360000006662782F39464131463745442D413632322D343644302D413938332D3331353338454246344243312F747269616E676C65732E62696E636660600000504B0304140006080000CC70623B
310
000000000000000000000000370000006662782F39464131463745442D413632322D343644302D413938332D3331353338454246344243312F617474726962757465732E62696E504B0304140006080800CC70623B08DA0BD19000000041010000360000006662782F39464131463745442D413632322D343644302D413938
310
332D3331353338454246344243312F6469726563746F72792E786D6C858F410AC3201045AF22B36F53E9A60B35CBEEBAE80D244E44489C6234F4F835464A48035D0DF398FF9F8AF63D0E6CC63039F212F8F9020C7D47C6792B21C5FE7403D62A1188E2E60C98D7234A5830286103A55745067B9D86B8A3CF9C7F90C11DE607
310
FB144396D7B6A82D282E9A152AD114D5EF2CB866EEE831B8EEA07A7BB5A8D7D61A2BAAEB7FD5F70921FF497D00504B0304140006080800CC70623B0D6EF93BFE000000A00100003B0000006662782F39464131463745442D413632322D343644302D413938332D3331353338454246344243312F7265736F75726365732F63
310
6F72652E786D6C8D50596E833010BD0A9ADFCA60B334011947A8694ED00B586642AC041B79A97AFC9A40A5F6AF3F33A3B7689E1E3F7DCD8FEC139DD7D6F4C0720A191A65476DA61E62B892236427C19DB5E1970C322367EC618541F0C9D9B8EC90B226A009093576C41D94DE63804C3DD2D18357379C652E63480A7FCF17A9
310
EE72C29CE5894E3AC17D702940B63D59270887DE46A7D0F36263058F518FBB468FE9A7BE6A7420864373B8D4873369AA8691FA421B3294352543C5CAF65C0F6FEF43CB8BD52C78D0F34F46E550061C419494B6843142CB0F5677F4B52BEB177AEC28E5C52AFF638ACBF84F53D42654E51E77B379102C05791282176B5F693D
310
CB4C7BED567C03504B010214000A0000080000CC70623B3DEE336E79000000790000001B00000000000000000000000000000000006175746F6465736B2D64657369676E2D7061636B6167652E786D6C504B01021400140006080800CC70623BD486FD9CA0000000F40000001300000000000000000000000000B20000005B
310
436F6E74656E745F54797065735D2E786D6C504B01021400140006080800CC70623B1EC5D7A3EB0000007C010000080000000000000000000000000083010000636F72652E786D6C504B01021400140006080800CC70623B55019EA25F0000007C000000070000000000000000000000000094020000636E782E786D6C504B
310
01021400140006080800CC70623B8C9102E971010000D40300000C00000000000000000000000000180300006662782F636F72652E786D6C504B01021400140006080800CC70623BFFEA85907E0000009D0000000B00000000000000000000000000B30400006662782F636E782E786D6C504B01021400140006080800CC70
310
623B4FEEA4082C0100001202000031000000000000000000000000005A0500006662782F39464131463745442D413632322D343644302D413938332D3331353338454246344243312F636F72652E786D6C504B01021400140006080800CC70623BAD7543B64E010000330300003000000000000000000000000000D5060000
310
6662782F39464131463745442D413632322D343644302D413938332D3331353338454246344243312F636E782E786D6C504B01021400140006080800CC70623B16AB87BA640500003C1000003400000000000000000000000000710800006662782F39464131463745442D413632322D343644302D413938332D3331353338
310
454246344243312F6F626A656374732E786D6C504B01021400140006080000CC70623B0000000000000000000000003500000000000000000000000000270E00006662782F39464131463745442D413632322D343644302D413938332D3331353338454246344243312F76657274696365732E62696E504B01021400140006
310
080800CC70623BF270F133060000000400000036000000000000000000000000007A0E00006662782F39464131463745442D413632322D343644302D413938332D3331353338454246344243312F747269616E676C65732E62696E504B01021400140006080000CC70623B0000000000000000000000003700000000000000
310
000000000000D40E00006662782F39464131463745442D413632322D343644302D413938332D3331353338454246344243312F617474726962757465732E62696E504B01021400140006080800CC70623B08DA0BD190000000410100003600000000000000000000000000290F00006662782F39464131463745442D413632
310
322D343644302D413938332D3331353338454246344243312F6469726563746F72792E786D6C504B01021400140006080800CC70623B0D6EF93BFE000000A00100003B000000000000000000000000000D1000006662782F39464131463745442D413632322D343644302D413938332D3331353338454246344243312F7265
310
736F75726365732F636F72652E786D6C504B0506000000000E000E0080040000641100000000
  0
XRECORD
  5
175
102
{ACAD_REACTORS
330
173
102
}
330
173
100
AcDbXrecord
280
     1
270
     1
271
     1
  0
XRECORD
  5
174
102
{ACAD_REACTORS
330
173
102
}
330
173
100
AcDbXrecord
280
     1
270
     1
271
     1
  0
XRECORD
  5
1FB
102
{ACAD_REACTORS
330
173
102
}
330
173
100
AcDbXrecord
280
     1
 70
     0
 90
1673772943
  1
ECE7A1D2-D628-4531-984C-D00F80459256
310
504B03040A0000080000CC70623B3DEE336E79000000790000001B0000006175746F6465736B2D64657369676E2D7061636B6167652E786D6C3C3F786D6C2076657273696F6E3D22312E302220656E636F64696E673D227574662D3822203F3E3C666F726D6174733E3C666F726D61743E687474703A2F2F736368656D612E
310
6175746F6465736B2E636F6D2F64657369676E2D7061636B6167652F323030393C2F666F726D61743E3C2F666F726D6174733E504B0304140006080800CC70623BD486FD9CA0000000F4000000130000005B436F6E74656E745F54797065735D2E786D6C7D8EC10E82300C865F65E91D8A1E8C310C0EEA1BF002731658846E
310
D98AC1B77784ABF1D8FE5FBFBF75BBCE937A534CCEB38643598122B6FEE978D0B0485F9C41B54DDD7D022595594E1A469170414C76A4D9A4D207E29CF43ECE46F218070CC6BECC4078ACAA135ACF422C856C0E68EA1BF5669944DDD7BCDE7B1F8E415D77AECB980613C2E4AC91FC167A2B244592486606FC29C8FD7F045B9A
310
EF7053A7E60B504B0304140006080800CC70623BD9DDAED0EC0000007C01000008000000636F72652E786D6C8D90416EC3201045AF82665B61836D9CD8C2444DD39CA01740405C94182C03558F5F9C3852BBEB6A467FFE9B197D7EF89E6EE8CB2CC17A37002D0820E394D7D68D03A478C17B4007C117EFE32F1B20272733C0
310
2A83E0E3E2D3BC49CABB685CCCAAF3DA6CA20CC14440EA969B0182FA34932C648AD911AEC52CD5558EA6A0CF2EC329598D1E47ACCEFBECC59A050463A7EA5833865FEBDD0E37353BE3EE8DBDE3F6786A48D375FBF6CC78B9C282473B3DEFABC5C86834888A900E538A49F5419B9EB47DD5BC907D4F082F57FB1F28CDFA9F50
310
B22ED6D5F6EE030B20687EE43E10BC5CB3C8E51E54AE6B6EE207504B0304140006080800CC70623B55019EA25F0000007C00000007000000636E782E786D6C4DCB3B0E80201045D1AD90E915ED2CF8AC45050C11660C8261F98AB1B07AC9C97D42D718D865D3E909258CFD00CCE24AC6E326A164D74DC0B4128928FF326038
310
472BA13128B1252AC747C6BAB984FC68F0B87FE8960A5C09FE86CFB69FBA01504B0304140006080800CC70623BA24EB22D72010000D40300000C0000006662782F636F72652E786D6CC5535B6E833010BC8AE5DF0A6C5E49888CA3A6694ED00B38E05014B091B1518EDFE511A5A9D228FD2A1F60CDEC7A67C6986DCE4D8D7A
310
69BA4AAB0C073EC548AA5C17952A33ECECD15B61B4E1CC686DBF9561A44423333CC098B3D268D7CE50AE9595CA02AA74216750749DB418E5352C32DCE59FB211BE70162ABA93DF8AFC244AE9073ED050C759670D0840D390E18DF9F1706664C23973AE2A66B62A605A75ACA4C13C4976E1364A12EF355A2EBD384AF65EFA96
310
BC7B8BED2EA6719AAE16FB8491A199335B351775B991C2CA02F390D2D40B028F861F41BCA68B7518BFD0D59A524686F29B26D7164F36B94AD9289CE54E6D1DE6010819891F6E21228B3AD1831EC219194284CF98F06DD01008846CC5A1BEF83801D4CBDC6A1303536877A57A513B0953A94FC707FDBE6064EA84A9E3E6E0FA
310
EE8CF0E9198F7784A316AA0413C2C2F2E0ECA0934D1AE6D05A69BCDE9E91D2A611F573361E38FC1375157F5752AE6B6DFE4B11990F88CCBF0719EE23FF02504B0304140006080800CC70623B408A7D3B7C0000009D0000000B0000006662782F636E782E786D6C4DCCD10A83201886E15B91FFDC552A92A0064DBC8F581632
310
D3703A76F9ABD1C18E3E78F878E5F0D9027ABBFCF2292AE86E2D20171F69F6715550CB827B40839639A5F2770314A7CD293819B45C73AAFB45B35BA61ACAA1C1C7E7855C58C15BC331339661262CC762340413D68D77DA5B42298546CBE6573AF60CEB2F504B0304140006080800CC70623B449FB9BD290100001202000031
310
0000006662782F36394639363044362D344446342D343946362D394244322D3234314243333846323333332F636F72652E786D6C8D515B6EC32010BC0AE22B55850D98B871848994463E412FE002495162B07854397EA176A4F62F3F2C9A9D991D587EB84F37F0AD7D30CEF6905418026DA553C65E7A98E219ED203808EE9D
310
8B7F6810D871D23D2C3014FCE25D9A57483A1BB58D19B54EE9151C43D0110279CB971E06F9A5A7B11A53CC8C70ADE6515EC78BAE4895DB992778883E0700CB907242D17643D7E2538BD869608875438BBAE38922CAC8F1BDD90DB4691A5E2F42C153326A951B95E398B3D1FE599322163C9AE9115F7A3D46ADA0A018778810
310
84E907617BDCEE297BC5BB3DC6BC2EF47FA234AB2745C9D8D8D035EE220B50105E2F0DC1954B9FB747187D9F9D8FA0CCDB042D5FA0C015C65B42DF78BD10F3F3B363CB56C7109DCFDFBBB97E662ED92EB62D13BC2E1BCAE5777DB9966D8A1F504B0304140006080800CC70623BAD7543B64E01000033030000300000006662
310
782F36394639363044362D344446342D343946362D394244322D3234314243333846323333332F636E782E786D6CD593CD6EC32010845F0571AD6CE3D48AD20813A9873E410FBD12D82434182C7EAAE6EDBB2424CD25871E7B41D6EC30B3FA84F9E67BB2E40B4234DE8DB46F1925E094D7C6ED479AD3AE5951B2113C789FEE
310
6C943839C1488B4C05DF079FE72A69D8C96C13AAD6B8631503449F83828872B949AC57D26200B826A308D316B4064D6E46FCDA41C05550DC9E483A00797BFD207EFB092A45DE9514C1BBD22178396BD39D891265658C238DEA00936C654E5E433CB65A26D9F6EDB5EBC14EBF49A45CB856E66048291F6939A9A81BB5C89177
310
38143CA680F4AA299D66A042CEB3354A2684DC9D8D178FE0D9B8B41CAAD720F880EE7EF93C0C18769E099ECC04D5A102C8049A8A05632F4DDF376CF1DE0F6BB65C2F8627B65A33C6BB62177CEBBDAD973006829F89F22E814B54F4BC2BE347F8AA8F681390B50FA73F804400B5F542E796F19FF974E7F78DB802FE05E20750
310
4B0304140006080800CC70623B8D05915C650500003B100000340000006662782F36394639363044362D344446342D343946362D394244322D3234314243333846323333332F6F626A656374732E786D6CAD575B6FA33814FE2B887D06429276DA1565D4266D158D3A339A6846FB502932E050B66023DB74D2FDF5FB190C01
310
9276B2973C046C8ECFF53B17071F77456EBD502133CEAE6CDF9DD81665314F32965ED995DA3A17B6F5310C04E7AA47665B8C14F4CAD6DB7618A48257A5D94AE89654B91AEDDEDDFC61C998326A5B714EA4BCB265FC440BE2924AF184CA6737218AB8E976E7FA6E4338649B0A523E8D98964450A6A029F619B8588D52FE7039
310
B1BD30F0F4F730D0FF866AF6369557DB33949F31A9088B0F848DD8CCFCF9F2767A76E99CCDE733677E3EF59D9BBB9BA5E37F984D16E78BC5E5F5ED25044B25C0C96822E8D60EEFE11B91C581D77CEA34368A1F5329E68CD1B8B61F16D63A1B8E092D294B10C78C4A48EB593D192E7DED9BDEE7995E1B91FDEDD3ACEA9FE831
310
6A756F9F7D4D79F4274C90A7A04248AA51D5F8C718DAE06FB2F75AC4796EBE65D22A88A22223B995679120E2D50E41AA49C260C046A35368846B0BECD0DFF3EBEB8AD4F835768F69B9ADF25C43D30E6B646F807FAA64AD59F61715C7A54127C4AACA98BA3006A9D792DAE165E0D59B61A01FB3A9F9D838D2DAE62445C86166
310
F37564E842E7DE6A69879FEEA2DD5AE7E371E1A5E025154AC307D06A03D73EB5978C58FFA4C8E9033066E0F3BD53BEC1F39F91BE7B55103791EDE6BBB991A2046172CB4581D8B893FA674DDA17A77B3B7C413D1B511FD2743BFF8A38F03A658705E3ADF8015C3A3417FF3D7E439FF591DA0B5F18BC20C1B8981957AE6392A3
310
F43C640C01D1A0B4728E2DD4F26DB4B3C3152A252A3B4E913CEC1C72F012782FF88EFF8637AA552DBEF76408E8A8DE9E50F9E1CB3A2DA0DB1B6039A893B56063DC5B3E3FFB5F72E67AB9FEB4AEC496C4F4C1149625DD662C53E89D7BF0F6151A046260D1337DFDC94502430F83B0EE07A130A224BCAD7DAE1D9FB6CD422FF6
310
920702629C4BB9AE79C12F243C6432A6794E18E5552BA56B431AAB5D91317302B2B071E86C3A42B1A02F999E24061403B5D0EB639195DA655DD3EBEAB4FB862DDF579F014AD0E73C22F99E28DA57FB98E75C6CA2D74D53086D600F4786E0FE3144B771A8A7B900F03594DB8A633CBC49B2EDB69228BB479CF863B5E807AAAB
310
23872F6DFEB4129B949CA33823F58830E86D65621E10047D9DB34D862E8EAC3C2ABC2F7B2C40D67CDFE01F5545B92105AF983AC54D93D69E56FB8E797F88913F898A9FEC705D3F9D1B54EC8426FB500D40A03BD0119B06E1B95DDC7EB8F6975367793EBD70E66733DFB9BC982F9CE564727731999F5D4ECFCE3B8D6A4DC2A0
310
6D50FD148437D110834A64C6CDDF57FBACB5C307A2A477DFE4939736CFEF2B175371E0E10CF0DD1D5C15654E0BCA14D1E87DD02FF93782A162C0A3D95F1524A52770F972BF1EE9809D13CE7DD599467F8ECE9ADD85CE85A34CD45355448C64F9E8A031DC2D596ACC6E5DD93D9B82DE2EF5CAF81363A8E47996A0DE24564A79
310
4115AACE09C55E14540231FDA13C319787134EBF34E3A022514E5B4D9E0826E25C02D5805B15ABE1BEF51B26383D445DD9E875EE33FE4C22DA16427D65A3BCA92CA6D28DD01DF5DC53330704308475351050232CCD31583787BA75774AFB06E5070DD0C8EF484E19968C5D83BA5B90B244D31E54D55A372320FE4786B7EA58
310
44E135AA5467CB7EA333A61683CC6A8C3257034C10CF46F40EF9F5BE59BE5BD30C3C72D235E95D10345C1D45445A5F0BB47E46A5EBE5570F9380B5FA629579952296A773720405982B9DE04011506178964401AA8BDF1FBF0A8EAB6861DD6580C0E38217056766716DAEB2D6FA0917D3E4116581EADB879C4E7CFFB11EFACD
310
3D641311495D92C8676CB409A72D18610D803CE8A626049E8EC1887CB5B44CC39883690DDA8399B4B9855B481E7D71D4A9D22F96E5BB73BF5793020C02137BF837504B0304140006080000CC70623B000000000000000000000000350000006662782F36394639363044362D344446342D343946362D394244322D32343142
310
43333846323333332F76657274696365732E62696E504B0304140006080800CC70623BF270F1330600000004000000360000006662782F36394639363044362D344446342D343946362D394244322D3234314243333846323333332F747269616E676C65732E62696E636660600000504B0304140006080000CC70623B0000
310
00000000000000000000370000006662782F36394639363044362D344446342D343946362D394244322D3234314243333846323333332F617474726962757465732E62696E504B0304140006080800CC70623B08DA0BD19000000041010000360000006662782F36394639363044362D344446342D343946362D394244322D
310
3234314243333846323333332F6469726563746F72792E786D6C858F410AC3201045AF22B36F53E9A60B35CBEEBAE80D244E44489C6234F4F835464A48035D0DF398FF9F8AF63D0E6CC63039F212F8F9020C7D47C6792B21C5FE7403D62A1188E2E60C98D7234A5830286103A55745067B9D86B8A3CF9C7F90C11DE607FB14
310
4396D7B6A82D282E9A152AD114D5EF2CB866EEE831B8EEA07A7BB5A8D7D61A2BAAEB7FD5F70921FF497D00504B0304140006080800CC70623BCA768048FE000000A00100003B0000006662782F36394639363044362D344446342D343946362D394244322D3234314243333846323333332F7265736F75726365732F636F72
310
652E786D6C8D50596E833010BD0A9ADFCA60D600328E9AA639412F609909B1126CE4A5EAF16B0295DABFFECC8CDEA2797AECF8353F924FB44E193D409E5248504B332A3D0D10FC95B4901C39B3C6F85F3248B49871801506CE266BC2B243D2688FDA47549B11775038871E12F988C7004EDE7016A9083E2ADC3D5D84BC8B09
310
D33C8D74D471E6BC8D0192EDC93A815B742658898E651BCB59086ADC356A8C3FD555A1055ED7E7E254D615792D0F075295F585746FF53B694EE78A565DD736979A65AB9933AFE69F8CD2A2F038022F28ED489E135A7CE4554F9BBEA85E68DB53CAB255FEC71496F19FA6A0B42F8B3DEE6673C0F318E4497096AD7DC5F52C33
310
EEB55BFE0D504B010214000A0000080000CC70623B3DEE336E79000000790000001B00000000000000000000000000000000006175746F6465736B2D64657369676E2D7061636B6167652E786D6C504B01021400140006080800CC70623BD486FD9CA0000000F40000001300000000000000000000000000B20000005B436F
310
6E74656E745F54797065735D2E786D6C504B01021400140006080800CC70623BD9DDAED0EC0000007C010000080000000000000000000000000083010000636F72652E786D6C504B01021400140006080800CC70623B55019EA25F0000007C000000070000000000000000000000000095020000636E782E786D6C504B0102
310
1400140006080800CC70623BA24EB22D72010000D40300000C00000000000000000000000000190300006662782F636F72652E786D6C504B01021400140006080800CC70623B408A7D3B7C0000009D0000000B00000000000000000000000000B50400006662782F636E782E786D6C504B01021400140006080800CC70623B
310
449FB9BD290100001202000031000000000000000000000000005A0500006662782F36394639363044362D344446342D343946362D394244322D3234314243333846323333332F636F72652E786D6C504B01021400140006080800CC70623BAD7543B64E010000330300003000000000000000000000000000D20600006662
310
782F36394639363044362D344446342D343946362D394244322D3234314243333846323333332F636E782E786D6C504B01021400140006080800CC70623B8D05915C650500003B10000034000000000000000000000000006E0800006662782F36394639363044362D344446342D343946362D394244322D32343142433338
310
46323333332F6F626A656374732E786D6C504B01021400140006080000CC70623B0000000000000000000000003500000000000000000000000000250E00006662782F36394639363044362D344446342D343946362D394244322D3234314243333846323333332F76657274696365732E62696E504B010214001400060808
310
00CC70623BF270F13306000000040000003600000000000000000000000000780E00006662782F36394639363044362D344446342D343946362D394244322D3234314243333846323333332F747269616E676C65732E62696E504B01021400140006080000CC70623B00000000000000000000000037000000000000000000
310
00000000D20E00006662782F36394639363044362D344446342D343946362D394244322D3234314243333846323333332F617474726962757465732E62696E504B01021400140006080800CC70623B08DA0BD190000000410100003600000000000000000000000000270F00006662782F36394639363044362D344446342D
310
343946362D394244322D3234314243333846323333332F6469726563746F72792E786D6C504B01021400140006080800CC70623BCA768048FE000000A00100003B000000000000000000000000000B1000006662782F36394639363044362D344446342D343946362D394244322D3234314243333846323333332F7265736F
310
75726365732F636F72652E786D6C504B0506000000000E000E0080040000621100000000
  0
XRECORD
  5
176
102
{ACAD_REACTORS
330
173
102
}
330
173
100
AcDbXrecord
280
     1
270
     1
271
     1
  0
XRECORD
  5
177
102
{ACAD_REACTORS
330
173
102
}
330
173
100
AcDbXrecord
280
     1
270
     1
271
     1
  0
CELLSTYLEMAP
  5
5B6
102
{ACAD_REACTORS
330
162
102
}
330
162
100
AcDbCellStyleMap
 90
        3
300
CELLSTYLE
  1
TABLEFORMAT_BEGIN
 90
        5
170
     1
 91
        0
 92
    32768
 62
   257
 93
        1
300
CONTENTFORMAT
  1
CONTENTFORMAT_BEGIN
 90
        0
 91
        0
 92
      512
 93
        0
300

 40
0.0
140
1.0
 94
        5
 62
     0
340
11
144
6.0
309
CONTENTFORMAT_END
171
     1
301
MARGIN
  1
CELLMARGIN_BEGIN
 40
1.5
 40
1.5
 40
1.5
 40
1.5
 40
4.5
 40
4.5
309
CELLMARGIN_END
 94
        6
 95
        1
302
GRIDFORMAT
  1
GRIDFORMAT_BEGIN
 90
        0
 91
        1
 62
     0
 92
       -2
340
14
 93
        0
 40
1.125
309
GRIDFORMAT_END
 95
        2
302
GRIDFORMAT
  1
GRIDFORMAT_BEGIN
 90
        0
 91
        1
 62
     0
 92
       -2
340
14
 93
        0
 40
1.125
309
GRIDFORMAT_END
 95
        4
302
GRIDFORMAT
  1
GRIDFORMAT_BEGIN
 90
        0
 91
        1
 62
     0
 92
       -2
340
14
 93
        0
 40
1.125
309
GRIDFORMAT_END
 95
        8
302
GRIDFORMAT
  1
GRIDFORMAT_BEGIN
 90
        0
 91
        1
 62
     0
 92
       -2
340
14
 93
        0
 40
1.125
309
GRIDFORMAT_END
 95
       16
302
GRIDFORMAT
  1
GRIDFORMAT_BEGIN
 90
        0
 91
        1
 62
     0
 92
       -2
340
14
 93
        0
 40
1.125
309
GRIDFORMAT_END
 95
       32
302
GRIDFORMAT
  1
GRIDFORMAT_BEGIN
 90
        0
 91
        1
 62
     0
 92
       -2
340
14
 93
        0
 40
1.125
309
GRIDFORMAT_END
309
TABLEFORMAT_END
  1
CELLSTYLE_BEGIN
 90
        1
 91
        1
300
_TITLE
309
CELLSTYLE_END
300
CELLSTYLE
  1
TABLEFORMAT_BEGIN
 90
        5
170
     1
 91
        0
 92
        0
 62
   257
 93
        1
300
CONTENTFORMAT
  1
CONTENTFORMAT_BEGIN
 90
        0
 91
        0
 92
      512
 93
        0
300

 40
0.0
140
1.0
 94
        5
 62
     0
340
11
144
4.5
309
CONTENTFORMAT_END
171
     1
301
MARGIN
  1
CELLMARGIN_BEGIN
 40
1.5
 40
1.5
 40
1.5
 40
1.5
 40
4.5
 40
4.5
309
CELLMARGIN_END
 94
        6
 95
        1
302
GRIDFORMAT
  1
GRIDFORMAT_BEGIN
 90
        0
 91
        1
 62
     0
 92
       -2
340
14
 93
        0
 40
1.125
309
GRIDFORMAT_END
 95
        2
302
GRIDFORMAT
  1
GRIDFORMAT_BEGIN
 90
        0
 91
        1
 62
     0
 92
       -2
340
14
 93
        0
 40
1.125
309
GRIDFORMAT_END
 95
        4
302
GRIDFORMAT
  1
GRIDFORMAT_BEGIN
 90
        0
 91
        1
 62
     0
 92
       -2
340
14
 93
        0
 40
1.125
309
GRIDFORMAT_END
 95
        8
302
GRIDFORMAT
  1
GRIDFORMAT_BEGIN
 90
        0
 91
        1
 62
     0
 92
       -2
340
14
 93
        0
 40
1.125
309
GRIDFORMAT_END
 95
       16
302
GRIDFORMAT
  1
GRIDFORMAT_BEGIN
 90
        0
 91
        1
 62
     0
 92
       -2
340
14
 93
        0
 40
1.125
309
GRIDFORMAT_END
 95
       32
302
GRIDFORMAT
  1
GRIDFORMAT_BEGIN
 90
        0
 91
        1
 62
     0
 92
       -2
340
14
 93
        0
 40
1.125
309
GRIDFORMAT_END
309
TABLEFORMAT_END
  1
CELLSTYLE_BEGIN
 90
        2
 91
        1
300
_HEADER
309
CELLSTYLE_END
300
CELLSTYLE
  1
TABLEFORMAT_BEGIN
 90
        5
170
     1
 91
        0
 92
        0
 62
   257
 93
        1
300
CONTENTFORMAT
  1
CONTENTFORMAT_BEGIN
 90
        0
 91
        0
 92
      512
 93
        0
300

 40
0.0
140
1.0
 94
        2
 62
     0
340
11
144
4.5
309
CONTENTFORMAT_END
171
     1
301
MARGIN
  1
CELLMARGIN_BEGIN
 40
1.5
 40
1.5
 40
1.5
 40
1.5
 40
4.5
 40
4.5
309
CELLMARGIN_END
 94
        6
 95
        1
302
GRIDFORMAT
  1
GRIDFORMAT_BEGIN
 90
        0
 91
        1
 62
     0
 92
       -2
340
14
 93
        0
 40
1.125
309
GRIDFORMAT_END
 95
        2
302
GRIDFORMAT
  1
GRIDFORMAT_BEGIN
 90
        0
 91
        1
 62
     0
 92
       -2
340
14
 93
        0
 40
1.125
309
GRIDFORMAT_END
 95
        4
302
GRIDFORMAT
  1
GRIDFORMAT_BEGIN
 90
        0
 91
        1
 62
     0
 92
       -2
340
14
 93
        0
 40
1.125
309
GRIDFORMAT_END
 95
        8
302
GRIDFORMAT
  1
GRIDFORMAT_BEGIN
 90
        0
 91
        1
 62
     0
 92
       -2
340
14
 93
        0
 40
1.125
309
GRIDFORMAT_END
 95
       16
302
GRIDFORMAT
  1
GRIDFORMAT_BEGIN
 90
        0
 91
        1
 62
     0
 92
       -2
340
14
 93
        0
 40
1.125
309
GRIDFORMAT_END
 95
       32
302
GRIDFORMAT
  1
GRIDFORMAT_BEGIN
 90
        0
 91
        1
 62
     0
 92
       -2
340
14
 93
        0
 40
1.125
309
GRIDFORMAT_END
309
TABLEFORMAT_END
  1
CELLSTYLE_BEGIN
 90
        3
 91
        2
300
_DATA
309
CELLSTYLE_END
  0
ENDSEC
  0
SECTION
  2
ACDSDATA
 70
     2
 71
     8
  0
ACDSSCHEMA
 90
        0
  1
AcDb_Thumbnail_Schema
  2
AcDbDs::ID
280
    10
 91
        8
  2
Thumbnail_Data
280
    15
 91
        0
101
ACDSRECORD
 95
        0
 90
        1
  2
AcDbDs::TreatedAsObjectData
280
     1
291
     1
101
ACDSRECORD
 95
        0
 90
        2
  2
AcDbDs::Legacy
280
     1
291
     1
101
ACDSRECORD
  1
AcDbDs::ID
 90
        3
  2
AcDs:Indexable
280
     1
291
     1
101
ACDSRECORD
  1
AcDbDs::ID
 90
        4
  2
AcDbDs::HandleAttribute
280
     7
282
     1
  0
ACDSSCHEMA
 90
        1
  1
AcDbDs::TreatedAsObjectDataSchema
  2
AcDbDs::TreatedAsObjectData
280
     1
 91
        0
  0
ACDSSCHEMA
 90
        2
  1
AcDbDs::LegacySchema
  2
AcDbDs::Legacy
280
     1
 91
        0
  0
ACDSSCHEMA
 90
        3
  1
AcDbDs::IndexedPropertySchema
  2
AcDs:Indexable
280
     1
 91
        0
  0
ACDSSCHEMA
 90
        4
  1
AcDbDs::HandleAttributeSchema
  2
AcDbDs::HandleAttribute
280
     7
 91
        1
284
     1
  0
ACDSRECORD
 90
        0
  2
AcDbDs::ID
280
    10
320
22
  2
Thumbnail_Data
280
    15
 94
     1736
310
89504E470D0A1A0A0000000D49484452000001000000007108030000000DA58D8400000300504C5445212830FFFFFF2128300000000000000000000000000000000000000000000000000000330000660000990000CC0000FF0033000033330033660033990033CC0033FF0066000066330066660066990066CC0066FF0099
310
000099330099660099990099CC0099FF00CC0000CC3300CC6600CC9900CCCC00CCFF00FF0000FF3300FF6600FF9900FFCC00FFFF3300003300333300663300993300CC3300FF3333003333333333663333993333CC3333FF3366003366333366663366993366CC3366FF3399003399333399663399993399CC3399FF33CC00
310
33CC3333CC6633CC9933CCCC33CCFF33FF0033FF3333FF6633FF9933FFCC33FFFF6600006600336600666600996600CC6600FF6633006633336633666633996633CC6633FF6666006666336666666666996666CC6666FF6699006699336699666699996699CC6699FF66CC0066CC3366CC6666CC9966CCCC66CCFF66FF0066
310
FF3366FF6666FF9966FFCC66FFFF9900009900339900669900999900CC9900FF9933009933339933669933999933CC9933FF9966009966339966669966999966CC9966FF9999009999339999669999999999CC9999FF99CC0099CC3399CC6699CC9999CCCC99CCFF99FF0099FF3399FF6699FF9999FFCC99FFFFCC0000CC00
310
33CC0066CC0099CC00CCCC00FFCC3300CC3333CC3366CC3399CC33CCCC33FFCC6600CC6633CC6666CC6699CC66CCCC66FFCC9900CC9933CC9966CC9999CC99CCCC99FFCCCC00CCCC33CCCC66CCCC99CCCCCCCCCCFFCCFF00CCFF33CCFF66CCFF99CCFFCCCCFFFFFF0000FF0033FF0066FF0099FF00CCFF00FFFF3300FF3333
310
FF3366FF3399FF33CCFF33FFFF6600FF6633FF6666FF6699FF66CCFF66FFFF9900FF9933FF9966FF9999FF99CCFF99FFFFCC00FFCC33FFCC66FFCC99FFCCCCFFCCFFFFFF00FFFF33FFFF66FFFF99FFFFCCFFFFFF0000000D0D0D1A1A1A2828283535354343435050505D5D5D6B6B6B787878868686939393A1A1A1AEAEAEBB
310
BBBBC9C9C9D6D6D6E4E4E4F1F1F1FFFFFF0000000000000000000000000000000000000000000000000000000000002E4550F10000033A4944415478DAED9B0B76EB200C44B5036D83FD6F411BEB8B7F181B23517FDE389D7B9AA429388D0621646C895C8E8A7D9E552FF8A4AE9E2A184C025CF249E19EFA2601524AADE373
310
B37EFC28C2E86F5802340C9C1E7E738F07BC4C808602ABE60E8B062F401140CD3CFB8F055837F779008AFD8300769107681C1C01C41320492B0AAE9A353CE99042802B40330416CD5AF1F422F2E7378224C047017134D863BB5F269326E7CE96E6D9F1BBA4E1917560C36C95CD2D9BB775B6D3DC74386078ECEC4712608E83
310
2693E58516E5FB9507D8EA258FEAE2E1DA5A03A0CC1F7D601AB27818B7E2A5078143B711EBD0DC8B80B37FF95247B1D076B3C03CE4355360F83666318BD67170B506D8768118FB49ED91CF068004C8C3EA2E7BD16572F9A8598BD1C116D97014D0FE2420A8405E55370BE847019C64D8CB049DFD80403F9B1DC8A69F511494
310
801838198A2810ED37EB6082E300CD014C12B32CDA6F0E1086A2C03416470398246658B45F0E9086E501C500AE67E62D1E2048020CDF643B80393A39FB01D17D839D008A1204556A1EA0F1FD80EE7E630840DB142D06F0EE9119CF9EB1042806F081EB16500258253B5627E71939A3009207F406E4D43BEB2B09238E00FFEC
310
4F9B21F5C2734000F51246A829903A03F9490186272001642F801703BA04D8A5556802EC3D401D053C01CA19A4E01E60350F2833A16DCCEF0B8245C6B7E41B6F8A0169DB786615980FC29E02A50F5F2B005C1E509B02777A00622698DAA9DD0D0218D632189BB5170A305C2EFCCB0208D4D9A02F407419ECB832F62A01A289
310
50701361B812F38D0284375154B104A86D50B7EFE23910207EA3A42005C1EA76803607F44880F8FF34F81B259B3B02A705107BCF9DA2374C01C5BA597A7769D0DFEE3BEF010A2D809BE39C1600DC03EE1740043906FC5E80AEFB84BF51806FF1800782A0BC7C19AC6E1FFC21010E17B7F7C60096CD5D735EF9CA3CE07F94CD
310
C91F2F9B133C0F7096BC8BCBE69465735802C8C36573025636270F97CD6155CE1EED8955125FAF395E36871403A720F068D91C96FD4BD95C59E45018B7AF0BC90500F9AFBAC4B7D1FE9795CDF5B294CD1D150EB64200CBE608218410420821841042082184104208218410420821841042082184ACF801C802062BE5251CF3
310
0000000049454E44AE426082C0C78F1FB3CB4F975C3D649A315F72F5B3C4C5E4EA0F02C099856A72F5076597172A4C32153F78CA2E6F9D5CDD5B76F9804AADFD0379DC29C08703FFA10000000049454E44AE426082
  0
ENDSEC
  0
EOF
