999
dxfrw 0.6.3
  0
SECTION
  2
HEADER
  9
$ACADVER
  1
AC1021
  9
$DWGCODEPAGE
  3
ANSI_936
  9
$INSBASE
 10
0
 20
0
 30
0
  9
$EXTMIN
 10
4478.95857667592
 20
1454.564274949346
 30
0
  9
$EXTMAX
 10
4647.384330762629
 20
1675.111629539224
 30
0
  9
$LIMMIN
 10
0
 20
0
  9
$LIMMAX
 10
420
 20
297
  9
$ORTHOMODE
 70
    1
  9
$REGENMODE
 70
    1
  9
$FILLMODE
 70
    1
  9
$QTEXTMODE
 70
    0
  9
$MIRRTEXT
 70
    0
  9
$LTSCALE
 40
1
  9
$ATTMODE
 70
    1
  9
$TEXTSIZE
 40
2.5
  9
$TRACEWID
 40
1
  9
$TEXTSTYLE
  7
Standard
  9
$CLAYER
  8
0
  9
$CELTYPE
  6
ByLayer
  9
$CECOLOR
 62
  256
  9
$CELTSCALE
 40
1
  9
$DISPSILH
 70
    0
  9
$DIMSCALE
 40
1
  9
$DIMASZ
 40
2.5
  9
$DIMEXO
 40
0.625
  9
$DIMDLI
 40
3.75
  9
$DIMRND
 40
0
  9
$DIMDLE
 40
0
  9
$DIMEXE
 40
1.25
  9
$DIMTP
 40
0
  9
$DIMTM
 40
0
  9
$DIMTXT
 40
2.5
  9
$DIMCEN
 40
2.5
  9
$DIMTSZ
 40
0
  9
$DIMTOL
 70
    0
  9
$DIMLIM
 70
    0
  9
$DIMTIH
 70
    0
  9
$DIMTOH
 70
    0
  9
$DIMSE1
 70
    0
  9
$DIMSE2
 70
    0
  9
$DIMTAD
 70
    1
  9
$DIMZIN
 70
    8
  9
$DIMBLK
  1

  9
$DIMASO
 70
    1
  9
$DIMSHO
 70
    1
  9
$DIMPOST
  1

  9
$DIMAPOST
  1

  9
$DIMALT
 70
    0
  9
$DIMALTD
 70
    3
  9
$DIMALTF
 40
0.03937007874016
  9
$DIMLFAC
 40
1
  9
$DIMTOFL
 70
    1
  9
$DIMTVP
 40
0
  9
$DIMTIX
 70
    0
  9
$DIMSOXD
 70
    0
  9
$DIMSAH
 70
    0
  9
$DIMBLK1
  1

  9
$DIMBLK2
  1

  9
$DIMSTYLE
  2
ISO-25
  9
$DIMCLRD
 70
    0
  9
$DIMCLRE
 70
    0
  9
$DIMCLRT
 70
    0
  9
$DIMTFAC
 40
1
  9
$DIMGAP
 40
0.625
  9
$DIMJUST
 70
    0
  9
$DIMSD1
 70
    0
  9
$DIMSD2
 70
    0
  9
$DIMTOLJ
 70
    0
  9
$DIMTZIN
 70
    8
  9
$DIMALTZ
 70
    0
  9
$DIMALTTZ
 70
    0
  9
$DIMUPT
 70
    0
  9
$DIMDEC
 70
    2
  9
$DIMTDEC
 70
    2
  9
$DIMALTU
 70
    2
  9
$DIMALTTD
 70
    3
  9
$DIMTXSTY
  7
Standard
  9
$DIMAUNIT
 70
    0
  9
$DIMADEC
 70
    0
  9
$DIMALTRND
 40
0
  9
$DIMAZIN
 70
    0
  9
$DIMDSEP
 70
   44
  9
$DIMATFIT
 70
    3
  9
$DIMFRAC
 70
    0
  9
$DIMLDRBLK
  1

  9
$DIMLUNIT
 70
    2
  9
$DIMLWD
 70
   -2
  9
$DIMLWE
 70
   -2
  9
$DIMTMOVE
 70
    0
  9
$DIMFXL
 40
1
  9
$DIMFXLON
 70
    0
  9
$DIMJOGANG
 40
0.7853981633974483
  9
$DIMTFILL
 70
    0
  9
$DIMTFILLCLR
 70
    0
  9
$DIMARCSYM
 70
    0
  9
$DIMLTYPE
  6
Continuous
  9
$DIMLTEX1
  6
Continuous
  9
$DIMLTEX2
  6
Continuous
  9
$LUNITS
 70
    2
  9
$LUPREC
 70
    4
  9
$SKETCHINC
 40
1
  9
$FILLETRAD
 40
0
  9
$AUNITS
 70
    0
  9
$AUPREC
 70
    0
  9
$MENU
  1
.
  9
$ELEVATION
 40
0
  9
$PELEVATION
 40
0
  9
$THICKNESS
 40
0
  9
$LIMCHECK
 70
    0
  9
$CHAMFERA
 40
0
  9
$CHAMFERB
 40
0
  9
$CHAMFERC
 40
0
  9
$CHAMFERD
 40
0
  9
$SKPOLY
 70
    0
  9
$USRTIMER
 70
    1
  9
$ANGBASE
 50
0
  9
$ANGDIR
 70
    0
  9
$PDMODE
 70
    0
  9
$PDSIZE
 40
0
  9
$PLINEWID
 40
0
  9
$SPLFRAME
 70
    0
  9
$SPLINETYPE
 70
    6
  9
$SPLINESEGS
 70
    8
  9
$HANDSEED
  5
20000
  9
$SURFTAB1
 70
    6
  9
$SURFTAB2
 70
    6
  9
$SURFTYPE
 70
    6
  9
$SURFU
 70
    6
  9
$SURFV
 70
    6
  9
$UCSBASE
  2

  9
$UCSNAME
  2

  9
$UCSORG
 10
0
 20
0
 30
0
  9
$UCSXDIR
 10
1
 20
0
 30
0
  9
$UCSYDIR
 10
0
 20
1
 30
0
  9
$UCSORTHOREF
  2

  9
$UCSORTHOVIEW
 70
    0
  9
$UCSORGTOP
 10
0
 20
0
 30
0
  9
$UCSORGBOTTOM
 10
0
 20
0
 30
0
  9
$UCSORGLEFT
 10
0
 20
0
 30
0
  9
$UCSORGRIGHT
 10
0
 20
0
 30
0
  9
$UCSORGFRONT
 10
0
 20
0
 30
0
  9
$UCSORGBACK
 10
0
 20
0
 30
0
  9
$PUCSBASE
  2

  9
$PUCSNAME
  2

  9
$PUCSORG
 10
0
 20
0
 30
0
  9
$PUCSXDIR
 10
1
 20
0
 30
0
  9
$PUCSYDIR
 10
0
 20
1
 30
0
  9
$PUCSORTHOREF
  2

  9
$PUCSORTHOVIEW
 70
    0
  9
$PUCSORGTOP
 10
0
 20
0
 30
0
  9
$PUCSORGBOTTOM
 10
0
 20
0
 30
0
  9
$PUCSORGLEFT
 10
0
 20
0
 30
0
  9
$PUCSORGRIGHT
 10
0
 20
0
 30
0
  9
$PUCSORGFRONT
 10
0
 20
0
 30
0
  9
$PUCSORGBACK
 10
0
 20
0
 30
0
  9
$USERI1
 70
    0
  9
$USERI2
 70
    0
  9
$USERI3
 70
    0
  9
$USERI4
 70
    0
  9
$USERI5
 70
    0
  9
$USERR1
 40
0
  9
$USERR2
 40
0
  9
$USERR3
 40
0
  9
$USERR4
 40
0
  9
$USERR5
 40
2.5
  9
$WORLDVIEW
 70
    1
  9
$SHADEDGE
 70
    3
  9
$SHADEDIF
 70
   70
  9
$TILEMODE
 70
    1
  9
$MAXACTVP
 70
   64
  9
$PINSBASE
 10
0
 20
0
 30
0
  9
$PLIMCHECK
 70
    0
  9
$PEXTMIN
 10
0
 20
0
 30
0
  9
$PEXTMAX
 10
0
 20
0
 30
0
  9
$GRIDMODE
 70
    1
  9
$SNAPSTYLE
 70
    0
  9
$PLIMMIN
 10
0
 20
0
  9
$PLIMMAX
 10
12
 20
9
  9
$UNITMODE
 70
    0
  9
$VISRETAIN
 70
    1
  9
$PLINEGEN
 70
    0
  9
$PSLTSCALE
 70
    1
  9
$TREEDEPTH
 70
 3020
  9
$CMLSTYLE
  2
Standard
  9
$CMLJUST
 70
    0
  9
$CMLSCALE
 40
20
  9
$PROXYGRAPHICS
 70
    1
  9
$MEASUREMENT
 70
    1
  9
$CELWEIGHT
370
   -1
  9
$ENDCAPS
280
    0
  9
$JOINSTYLE
280
    0
  9
$LWDISPLAY
290
    0
  9
$INSUNITS
 70
    4
  9
$HYPERLINKBASE
  1

  9
$STYLESHEET
  1

  9
$XEDIT
290
    1
  9
$CEPSNTYPE
380
    0
  9
$PSTYLEMODE
290
    1
  9
$EXTNAMES
290
    1
  9
$PSVPSCALE
 40
0
  9
$OLESTARTUP
290
    0
  9
$SORTENTS
280
  127
  9
$INDEXCTL
280
    0
  9
$HIDETEXT
280
    1
  9
$XCLIPFRAME
290
    0
  9
$HALOGAP
280
    0
  9
$OBSCOLOR
 70
  257
  9
$OBSLTYPE
280
    0
  9
$INTERSECTIONDISPLAY
280
    0
  9
$INTERSECTIONCOLOR
 70
  257
  9
$DIMASSOC
280
    2
  9
$PROJECTNAME
  1

  9
$CAMERADISPLAY
290
    0
  9
$LENSLENGTH
 40
50
  9
$CAMERAHEIGHT
 40
0
  9
$STEPSPERSEC
 40
2
  9
$STEPSIZE
 40
6
  9
$3DDWFPREC
 40
2
  9
$PSOLWIDTH
 40
0.25
  9
$PSOLHEIGHT
 40
4
  9
$LOFTANG1
 40
1.570796326794896
  9
$LOFTANG2
 40
1.570796326794896
  9
$LOFTMAG1
 40
0
  9
$LOFTMAG2
 40
0
  9
$LOFTPARAM
 70
    7
  9
$LOFTNORMALS
280
    1
  9
$LATITUDE
 40
37.795
  9
$LONGITUDE
 40
-122.394
  9
$NORTHDIRECTION
 40
0
  9
$TIMEZONE
 70
-8000
  9
$LIGHTGLYPHDISPLAY
280
    1
  9
$TILEMODELIGHTSYNCH
280
    1
  9
$SOLIDHIST
280
    0
  9
$SHOWHIST
280
    1
  9
$DWFFRAME
280
    2
  9
$DGNFRAME
280
    0
  9
$REALWORLDSCALE
290
    1
  9
$INTERFERECOLOR
 62
    1
  9
$CSHADOW
280
    0
  9
$SHADOWPLANELOCATION
 40
0
  0
ENDSEC
  0
SECTION
  2
CLASSES
  0
ENDSEC
  0
SECTION
  2
TABLES
  0
TABLE
  2
VPORT
  5
8
330
0
100
AcDbSymbolTable
 70
    1
  0
VPORT
  5
31
330
2
100
AcDbSymbolTableRecord
100
AcDbViewportTableRecord
  2
*ACTIVE
 70
    0
 10
0
 20
0
 11
1
 21
1
 12
2235.667954132736
 22
594.1275446536669
 13
0
 23
0
 14
10
 24
10
 15
10
 25
10
 16
0
 26
0
 36
1
 17
0
 27
0
 37
0
 40
69.0720487880739
 41
2.125
 42
50
 43
0
 44
0
 50
0
 51
0
 71
    0
 72
  100
 73
    1
 74
    3
 75
    0
 76
    1
 77
    0
 78
    0
281
    0
 65
    1
110
0
120
0
130
0
111
1
121
0
131
0
112
0
122
1
132
0
 79
    0
146
0
348
10020
 60
    7
 61
    5
292
1
282
    1
141
0
142
0
 63
  250
421
3358443
  0
ENDTAB
  0
TABLE
  2
LTYPE
  5
5
330
0
100
AcDbSymbolTable
 70
    4
  0
LTYPE
  5
14
330
5
100
AcDbSymbolTableRecord
100
AcDbLinetypeTableRecord
  2
ByBlock
 70
    0
  3

 72
   65
 73
    0
 40
0
  0
LTYPE
  5
15
330
5
100
AcDbSymbolTableRecord
100
AcDbLinetypeTableRecord
  2
ByLayer
 70
    0
  3

 72
   65
 73
    0
 40
0
  0
LTYPE
  5
16
330
5
100
AcDbSymbolTableRecord
100
AcDbLinetypeTableRecord
  2
Continuous
 70
    0
  3
Solid line
 72
   65
 73
    0
 40
0
  0
LTYPE
  5
32
330
5
100
AcDbSymbolTableRecord
100
AcDbLinetypeTableRecord
  2
DOT
 70
    0
  3
Dot . . . . . . . . . . . . . . . . . . . . . .
 72
   65
 73
    2
 40
6.35
 49
0
 74
    0
 49
-6.35
 74
    0
  0
LTYPE
  5
33
330
5
100
AcDbSymbolTableRecord
100
AcDbLinetypeTableRecord
  2
DOTTINY
 70
    0
  3
Dot (.15x) .....................................
 72
   65
 73
    2
 40
0.9525
 49
0
 74
    0
 49
-0.9525
 74
    0
  0
LTYPE
  5
34
330
5
100
AcDbSymbolTableRecord
100
AcDbLinetypeTableRecord
  2
DOT2
 70
    0
  3
Dot (.5x) .....................................
 72
   65
 73
    2
 40
3.175
 49
0
 74
    0
 49
-3.175
 74
    0
  0
LTYPE
  5
35
330
5
100
AcDbSymbolTableRecord
100
AcDbLinetypeTableRecord
  2
DOTX2
 70
    0
  3
Dot (2x) .  .  .  .  .  .  .  .  .  .  .  .  .
 72
   65
 73
    2
 40
12.7
 49
0
 74
    0
 49
-12.7
 74
    0
  0
LTYPE
  5
36
330
5
100
AcDbSymbolTableRecord
100
AcDbLinetypeTableRecord
  2
DASHED
 70
    0
  3
Dashed _ _ _ _ _ _ _ _ _ _ _ _ _ _ _ _ _
 72
   65
 73
    2
 40
19.05
 49
12.7
 74
    0
 49
-6.35
 74
    0
  0
LTYPE
  5
37
330
5
100
AcDbSymbolTableRecord
100
AcDbLinetypeTableRecord
  2
DASHEDTINY
 70
    0
  3
Dashed (.15x) _ _ _ _ _ _ _ _ _ _ _ _ _ _ _ _ _
 72
   65
 73
    2
 40
2.8575
 49
1.905
 74
    0
 49
-0.9525
 74
    0
  0
LTYPE
  5
38
330
5
100
AcDbSymbolTableRecord
100
AcDbLinetypeTableRecord
  2
DASHED2
 70
    0
  3
Dashed (.5x) _ _ _ _ _ _ _ _ _ _ _ _ _ _ _ _ _
 72
   65
 73
    2
 40
9.524999999999999
 49
6.35
 74
    0
 49
-3.175
 74
    0
  0
LTYPE
  5
39
330
5
100
AcDbSymbolTableRecord
100
AcDbLinetypeTableRecord
  2
DASHEDX2
 70
    0
  3
Dashed (2x) ____  ____  ____  ____  ____  ___
 72
   65
 73
    2
 40
38.09999999999999
 49
25.4
 74
    0
 49
-12.7
 74
    0
  0
LTYPE
  5
3A
330
5
100
AcDbSymbolTableRecord
100
AcDbLinetypeTableRecord
  2
DASHDOT
 70
    0
  3
Dash dot __ . __ . __ . __ . __ . __ . __ . __
 72
   65
 73
    4
 40
25.4
 49
12.7
 74
    0
 49
-6.35
 74
    0
 49
0
 74
    0
 49
-6.35
 74
    0
  0
LTYPE
  5
3B
330
5
100
AcDbSymbolTableRecord
100
AcDbLinetypeTableRecord
  2
DASHDOTTINY
 70
    0
  3
Dash dot (.15x) _._._._._._._._._._._._._._._.
 72
   65
 73
    4
 40
3.81
 49
1.905
 74
    0
 49
-0.9525
 74
    0
 49
0
 74
    0
 49
-0.9525
 74
    0
  0
LTYPE
  5
3C
330
5
100
AcDbSymbolTableRecord
100
AcDbLinetypeTableRecord
  2
DASHDOT2
 70
    0
  3
Dash dot (.5x) _._._._._._._._._._._._._._._.
 72
   65
 73
    4
 40
12.7
 49
6.35
 74
    0
 49
-3.175
 74
    0
 49
0
 74
    0
 49
-3.175
 74
    0
  0
LTYPE
  5
3D
330
5
100
AcDbSymbolTableRecord
100
AcDbLinetypeTableRecord
  2
DASHDOTX2
 70
    0
  3
Dash dot (2x) ____  .  ____  .  ____  .  ___
 72
   65
 73
    4
 40
50.8
 49
25.4
 74
    0
 49
-12.7
 74
    0
 49
0
 74
    0
 49
-12.7
 74
    0
  0
LTYPE
  5
3E
330
5
100
AcDbSymbolTableRecord
100
AcDbLinetypeTableRecord
  2
DIVIDE
 70
    0
  3
Divide ____ . . ____ . . ____ . . ____ . . ____
 72
   65
 73
    6
 40
31.75
 49
12.7
 74
    0
 49
-6.35
 74
    0
 49
0
 74
    0
 49
-6.35
 74
    0
 49
0
 74
    0
 49
-6.35
 74
    0
  0
LTYPE
  5
3F
330
5
100
AcDbSymbolTableRecord
100
AcDbLinetypeTableRecord
  2
DIVIDETINY
 70
    0
  3
Divide (.15x) __..__..__..__..__..__..__..__.._
 72
   65
 73
    6
 40
4.7625
 49
1.905
 74
    0
 49
-0.9525
 74
    0
 49
0
 74
    0
 49
-0.9525
 74
    0
 49
0
 74
    0
 49
-0.9525
 74
    0
  0
LTYPE
  5
40
330
5
100
AcDbSymbolTableRecord
100
AcDbLinetypeTableRecord
  2
DIVIDE2
 70
    0
  3
Divide (.5x) __..__..__..__..__..__..__..__.._
 72
   65
 73
    6
 40
15.875
 49
6.35
 74
    0
 49
-3.175
 74
    0
 49
0
 74
    0
 49
-3.175
 74
    0
 49
0
 74
    0
 49
-3.175
 74
    0
  0
LTYPE
  5
41
330
5
100
AcDbSymbolTableRecord
100
AcDbLinetypeTableRecord
  2
DIVIDEX2
 70
    0
  3
Divide (2x) ________  .  .  ________  .  .  _
 72
   65
 73
    6
 40
63.5
 49
25.4
 74
    0
 49
-12.7
 74
    0
 49
0
 74
    0
 49
-12.7
 74
    0
 49
0
 74
    0
 49
-12.7
 74
    0
  0
LTYPE
  5
42
330
5
100
AcDbSymbolTableRecord
100
AcDbLinetypeTableRecord
  2
BORDER
 70
    0
  3
Border __ __ . __ __ . __ __ . __ __ . __ __ .
 72
   65
 73
    6
 40
44.45
 49
12.7
 74
    0
 49
-6.35
 74
    0
 49
12.7
 74
    0
 49
-6.35
 74
    0
 49
0
 74
    0
 49
-6.35
 74
    0
  0
LTYPE
  5
43
330
5
100
AcDbSymbolTableRecord
100
AcDbLinetypeTableRecord
  2
BORDERTINY
 70
    0
  3
Border (.15x) __.__.__.__.__.__.__.__.__.__.__.
 72
   65
 73
    6
 40
6.6675
 49
1.905
 74
    0
 49
-0.9525
 74
    0
 49
1.905
 74
    0
 49
-0.9525
 74
    0
 49
0
 74
    0
 49
-0.9525
 74
    0
  0
LTYPE
  5
44
330
5
100
AcDbSymbolTableRecord
100
AcDbLinetypeTableRecord
  2
BORDER2
 70
    0
  3
Border (.5x) __.__.__.__.__.__.__.__.__.__.__.
 72
   65
 73
    6
 40
22.225
 49
6.35
 74
    0
 49
-3.175
 74
    0
 49
6.35
 74
    0
 49
-3.175
 74
    0
 49
0
 74
    0
 49
-3.175
 74
    0
  0
LTYPE
  5
45
330
5
100
AcDbSymbolTableRecord
100
AcDbLinetypeTableRecord
  2
BORDERX2
 70
    0
  3
Border (2x) ____  ____  .  ____  ____  .  ___
 72
   65
 73
    6
 40
88.89999999999999
 49
25.4
 74
    0
 49
-12.7
 74
    0
 49
25.4
 74
    0
 49
-12.7
 74
    0
 49
0
 74
    0
 49
-12.7
 74
    0
  0
LTYPE
  5
46
330
5
100
AcDbSymbolTableRecord
100
AcDbLinetypeTableRecord
  2
CENTER
 70
    0
  3
Center ____ _ ____ _ ____ _ ____ _ ____ _ ____
 72
   65
 73
    4
 40
50.8
 49
31.75
 74
    0
 49
-6.35
 74
    0
 49
6.35
 74
    0
 49
-6.35
 74
    0
  0
LTYPE
  5
47
330
5
100
AcDbSymbolTableRecord
100
AcDbLinetypeTableRecord
  2
CENTERTINY
 70
    0
  3
Center (.15x) ___ _ ___ _ ___ _ ___ _ ___ _ ___
 72
   65
 73
    4
 40
7.62
 49
4.7625
 74
    0
 49
-0.9525
 74
    0
 49
0.9525
 74
    0
 49
-0.9525
 74
    0
  0
LTYPE
  5
48
330
5
100
AcDbSymbolTableRecord
100
AcDbLinetypeTableRecord
  2
CENTER2
 70
    0
  3
Center (.5x) ___ _ ___ _ ___ _ ___ _ ___ _ ___
 72
   65
 73
    4
 40
28.575
 49
19.05
 74
    0
 49
-3.175
 74
    0
 49
3.175
 74
    0
 49
-3.175
 74
    0
  0
LTYPE
  5
49
330
5
100
AcDbSymbolTableRecord
100
AcDbLinetypeTableRecord
  2
CENTERX2
 70
    0
  3
Center (2x) ________  __  ________  __  _____
 72
   65
 73
    4
 40
101.6
 49
63.5
 74
    0
 49
-12.7
 74
    0
 49
12.7
 74
    0
 49
-12.7
 74
    0
  0
ENDTAB
  0
TABLE
  2
LAYER
  5
2
330
0
100
AcDbSymbolTable
 70
    1
  0
LAYER
  5
10
330
2
100
AcDbSymbolTableRecord
100
AcDbLayerTableRecord
  2
0
 70
    0
 62
    7
  6
CONTINUOUS
370
   -3
390
F
  0
LAYER
  5
4A
330
2
100
AcDbSymbolTableRecord
100
AcDbLayerTableRecord
  2
1
 70
    0
 62
    7
  6
CONTINUOUS
370
   -3
390
F
  0
LAYER
  5
4B
330
2
100
AcDbSymbolTableRecord
100
AcDbLayerTableRecord
  2
CENTER
 70
    0
 62
    1
  6
CENTER2
370
   15
390
F
  0
LAYER
  5
4C
330
2
100
AcDbSymbolTableRecord
100
AcDbLayerTableRecord
  2
D201
 70
    0
 62
    1
  6
CONTINUOUS
370
   25
390
F
  0
LAYER
  5
4D
330
2
100
AcDbSymbolTableRecord
100
AcDbLayerTableRecord
  2
D202
 70
    0
 62
    5
  6
CONTINUOUS
370
   25
390
F
  0
LAYER
  5
4E
330
2
100
AcDbSymbolTableRecord
100
AcDbLayerTableRecord
  2
D203
 70
    0
 62
    3
  6
CONTINUOUS
370
   25
390
F
  0
LAYER
  5
4F
330
2
100
AcDbSymbolTableRecord
100
AcDbLayerTableRecord
  2
D401
 70
    0
 62
    1
  6
CONTINUOUS
370
   25
390
F
  0
LAYER
  5
50
330
2
100
AcDbSymbolTableRecord
100
AcDbLayerTableRecord
  2
D402
 70
    0
 62
    5
  6
CONTINUOUS
370
   25
390
F
  0
LAYER
  5
51
330
2
100
AcDbSymbolTableRecord
100
AcDbLayerTableRecord
  2
D403
 70
    0
 62
    3
  6
CONTINUOUS
370
   25
390
F
  0
LAYER
  5
52
330
2
100
AcDbSymbolTableRecord
100
AcDbLayerTableRecord
  2
D601
 70
    0
 62
    1
  6
CONTINUOUS
370
   25
390
F
  0
LAYER
  5
53
330
2
100
AcDbSymbolTableRecord
100
AcDbLayerTableRecord
  2
D602
 70
    0
 62
    5
  6
CONTINUOUS
370
   25
390
F
  0
LAYER
  5
54
330
2
100
AcDbSymbolTableRecord
100
AcDbLayerTableRecord
  2
Defpoints
 70
    0
 62
    7
  6
CONTINUOUS
290
0
370
   -3
390
F
  0
LAYER
  5
55
330
2
100
AcDbSymbolTableRecord
100
AcDbLayerTableRecord
  2
KISSCUT1
 70
    0
 62
    3
  6
CONTINUOUS
370
   18
390
F
  0
LAYER
  5
56
330
2
100
AcDbSymbolTableRecord
100
AcDbLayerTableRecord
  2
KISSCUT3
 70
    0
 62
    6
  6
CONTINUOUS
370
   18
390
F
  0
LAYER
  5
57
330
2
100
AcDbSymbolTableRecord
100
AcDbLayerTableRecord
  2
LAYER_1
 70
    0
 62
    7
  6
DASHDOT2
370
   15
390
F
  0
LAYER
  5
58
330
2
100
AcDbSymbolTableRecord
100
AcDbLayerTableRecord
  2
THK
 70
    0
 62
    6
  6
CONTINUOUS
370
   -3
390
F
  0
LAYER
  5
59
330
2
100
AcDbSymbolTableRecord
100
AcDbLayerTableRecord
  2
cc
 70
    0
 62
    7
  6
CONTINUOUS
370
   18
390
F
  0
LAYER
  5
5A
330
2
100
AcDbSymbolTableRecord
100
AcDbLayerTableRecord
  2
dim
 70
    0
 62
  214
  6
CONTINUOUS
370
   15
390
F
  0
LAYER
  5
5B
330
2
100
AcDbSymbolTableRecord
100
AcDbLayerTableRecord
  2
jz
 70
    0
 62
    5
  6
CONTINUOUS
370
   18
390
F
  0
LAYER
  5
5C
330
2
100
AcDbSymbolTableRecord
100
AcDbLayerTableRecord
  2
kisscut2
 70
    0
 62
    5
  6
CONTINUOUS
370
   18
390
F
  0
LAYER
  5
5D
330
2
100
AcDbSymbolTableRecord
100
AcDbLayerTableRecord
  2
line
 70
    0
 62
    7
  6
CONTINUOUS
370
   30
390
F
  0
LAYER
  5
5E
330
2
100
AcDbSymbolTableRecord
100
AcDbLayerTableRecord
  2
qc
 70
    0
 62
    4
  6
CONTINUOUS
370
   20
390
F
  0
LAYER
  5
5F
330
2
100
AcDbSymbolTableRecord
100
AcDbLayerTableRecord
  2
sx
 70
    0
 62
    8
  6
CONTINUOUS
370
   18
390
F
  0
LAYER
  5
60
330
2
100
AcDbSymbolTableRecord
100
AcDbLayerTableRecord
  2
zxx
 70
    0
 62
    6
  6
CENTER
370
   18
390
F
  0
LAYER
  5
61
330
2
100
AcDbSymbolTableRecord
100
AcDbLayerTableRecord
  2
半切
 70
    0
 62
    1
  6
CONTINUOUS
370
   -3
390
F
  0
LAYER
  5
62
330
2
100
AcDbSymbolTableRecord
100
AcDbLayerTableRecord
  2
尺寸线层
 70
    0
 62
    3
  6
CONTINUOUS
370
   18
390
F
  0
LAYER
  5
63
330
2
100
AcDbSymbolTableRecord
100
AcDbLayerTableRecord
  2
总
 70
    0
 62
    7
  6
CONTINUOUS
370
   18
390
F
  0
LAYER
  5
64
330
2
100
AcDbSymbolTableRecord
100
AcDbLayerTableRecord
  2
标题
 70
    0
 62
    7
  6
CONTINUOUS
370
   -3
390
F
  0
ENDTAB
  0
TABLE
  2
STYLE
  5
3
330
0
100
AcDbSymbolTable
 70
    3
  0
STYLE
  5
65
330
2
100
AcDbSymbolTableRecord
100
AcDbTextStyleTableRecord
  2
STANDARD
 70
    0
 40
0
 41
1
 50
0
 71
    0
 42
1
  3
STANDARD
  4

  0
ENDTAB
  0
TABLE
  2
VIEW
  5
6
330
0
100
AcDbSymbolTable
 70
    0
  0
ENDTAB
  0
TABLE
  2
UCS
  5
7
330
0
100
AcDbSymbolTable
 70
    0
  0
ENDTAB
  0
TABLE
  2
APPID
  5
9
330
0
100
AcDbSymbolTable
 70
    1
  0
APPID
  5
12
330
9
100
AcDbSymbolTableRecord
100
AcDbRegAppTableRecord
  2
ACAD
 70
    0
  0
APPID
  5
66
330
9
100
AcDbSymbolTableRecord
100
AcDbRegAppTableRecord
  2
LibreCad
 70
    0
  0
ENDTAB
  0
TABLE
  2
DIMSTYLE
  5
A
330
0
100
AcDbSymbolTable
 70
    1
100
AcDbDimStyleTable
 71
    1
  0
DIMSTYLE
105
67
330
A
100
AcDbSymbolTableRecord
100
AcDbDimStyleTableRecord
  2
Standard
 70
    0
 40
1
 41
2.5
 42
0.625
 43
0.38
 44
1.25
 45
0
 46
0
 47
0
 48
0
 49
1
140
2.5
141
0.09
142
0
143
25.4
144
1
145
0
146
1
147
0.625
148
0
 71
    0
 72
    0
 73
    0
 74
    1
 75
    0
 76
    0
 77
    0
 78
    8
 79
    0
170
    0
171
    2
172
    0
173
    0
174
    0
175
    0
176
    0
177
    0
178
    0
179
    0
271
    2
272
    4
273
    2
274
    2
275
    0
276
    0
277
    2
278
   44
279
    0
280
    0
281
    0
282
    0
283
    1
284
    0
285
    0
286
    0
288
    0
289
    3
340
Standard
341

371
   -2
372
   -2
  0
ENDTAB
  0
TABLE
  2
BLOCK_RECORD
  5
1
330
0
100
AcDbSymbolTable
 70
    2
  0
BLOCK_RECORD
  5
1F
330
1
100
AcDbSymbolTableRecord
100
AcDbBlockTableRecord
  2
*Model_Space
 70
    0
280
    1
281
    0
  0
BLOCK_RECORD
  5
1E
330
1
100
AcDbSymbolTableRecord
100
AcDbBlockTableRecord
  2
*Paper_Space
 70
    0
280
    1
281
    0
  0
BLOCK_RECORD
  5
68
330
1
100
AcDbSymbolTableRecord
100
AcDbBlockTableRecord
  2
_Open30
 70
    0
280
    1
281
    0
  0
BLOCK_RECORD
  5
6B
330
1
100
AcDbSymbolTableRecord
100
AcDbBlockTableRecord
  2
Kuai
 70
    0
280
    1
281
    0
  0
BLOCK_RECORD
  5
6E
330
1
100
AcDbSymbolTableRecord
100
AcDbBlockTableRecord
  2
A$C199D21A7
 70
    0
280
    1
281
    0
  0
ENDTAB
  0
ENDSEC
  0
SECTION
  2
BLOCKS
  0
BLOCK
  5
20
330
1F
100
AcDbEntity
  8
0
100
AcDbBlockBegin
  2
*Model_Space
 70
    0
 10
0
 20
0
 30
0
  3
*Model_Space
  1

  0
ENDBLK
  5
21
330
1F
100
AcDbEntity
  8
0
100
AcDbBlockEnd
  0
BLOCK
  5
1C
330
1B
100
AcDbEntity
  8
0
100
AcDbBlockBegin
  2
*Paper_Space
 70
    0
 10
0
 20
0
 30
0
  3
*Paper_Space
  1

  0
ENDBLK
  5
1D
330
1F
100
AcDbEntity
  8
0
100
AcDbBlockEnd
  0
BLOCK
  5
69
330
68
100
AcDbEntity
  8
0
100
AcDbBlockBegin
  2
_Open30
 70
    0
 10
0
 20
0
  3
_Open30
  1

  0
LINE
  5
71
100
AcDbEntity
  8
0
  6
ByBlock
 62
    0
370
   -2
100
AcDbLine
 10
-1
 20
0.26794919
 11
0
 21
0
  0
LINE
  5
72
100
AcDbEntity
  8
0
  6
ByBlock
 62
    0
370
   -2
100
AcDbLine
 10
0
 20
0
 11
-1
 21
-0.26794919
  0
LINE
  5
73
100
AcDbEntity
  8
0
  6
ByBlock
 62
    0
370
   -2
100
AcDbLine
 10
0
 20
0
 11
-1
 21
0
  0
ENDBLK
  5
6A
330
68
100
AcDbEntity
  8
0
100
AcDbBlockEnd
  0
BLOCK
  5
6C
330
6B
100
AcDbEntity
  8
0
100
AcDbBlockBegin
  2
Kuai
 70
    0
 10
0
 20
0
  3
Kuai
  1

  0
LWPOLYLINE
  5
74
100
AcDbEntity
  8
line
  6
ByLayer
 62
  256
370
   -1
100
AcDbPolyline
 90
    3
 70
    1
 43
0
 10
0
 20
0
 10
1.743831742110159
 20
3.020405177186033
 10
-1.743831742110159
 20
3.020405177186033
  0
LINE
  5
75
100
AcDbEntity
  8
line
  6
ByLayer
 62
  256
370
   -1
100
AcDbLine
 10
1.743831742110159
 20
3.020405177186033
 11
3.544165038221307
 21
6.016562055577367
  0
MTEXT
  5
76
100
AcDbEntity
  8
line
  6
ByLayer
 62
  256
370
   -1
100
AcDbMText
 10
-1.89813434947973
 20
5.58805538802255
 30
0
 40
1.919999999999999
 41
3.199999999999998
 71
    1
 72
    5
  1
0.4
  7
STANDARD
210
0
220
0
230
1
 50
0
 73
    1
 44
1
  0
ENDBLK
  5
6D
330
6B
100
AcDbEntity
  8
0
100
AcDbBlockEnd
  0
BLOCK
  5
6F
330
6E
100
AcDbEntity
  8
0
100
AcDbBlockBegin
  2
A$C199D21A7
 70
    0
 10
0
 20
0
  3
A$C199D21A7
  1

  0
MTEXT
  5
77
100
AcDbEntity
  8
jz
  6
ByLayer
 62
  256
370
   -1
100
AcDbMText
 10
-0.7431331563966525
 20
1.688348796575155
 30
0
 40
2.309999999999999
 41
3.849999999999999
 71
    1
 72
    1
  1
0.4
  7
STANDARD
210
0
220
0
230
1
 50
0
 73
    1
 44
1
  0
LINE
  5
78
100
AcDbEntity
  8
jz
  6
ByLayer
 62
  256
370
   -1
100
AcDbLine
 10
3.260171406884182
 20
-1.038120128949231
 11
-0.7281444647342142
 21
-1.038120128949231
  0
LINE
  5
79
100
AcDbEntity
  8
jz
  6
ByLayer
 62
  256
370
   -1
100
AcDbLine
 10
3.260171406884182
 20
-1.038120128949231
 11
-0.7281444647342142
 21
-1.038120128949231
  0
LINE
  5
7A
100
AcDbEntity
  8
jz
  6
ByLayer
 62
  256
370
   -1
100
AcDbLine
 10
1.29124204465188
 20
-3.806774453907564
 11
5.283793345424783
 21
1.807441392797045
  0
LINE
  5
7B
100
AcDbEntity
  8
jz
  6
ByLayer
 62
  256
370
   -1
100
AcDbLine
 10
1.29124204465188
 20
-3.806774453907564
 11
5.283793345424783
 21
1.807441392797045
  0
LINE
  5
7C
100
AcDbEntity
  8
jz
  6
ByLayer
 62
  256
370
   -1
100
AcDbLine
 10
-0.7281444647342142
 20
-1.038120128949231
 11
1.29124204465188
 21
-3.806774453907564
  0
LINE
  5
7D
100
AcDbEntity
  8
jz
  6
ByLayer
 62
  256
370
   -1
100
AcDbLine
 10
-0.7281444647342142
 20
-1.038120128949231
 11
1.29124204465188
 21
-3.806774453907564
  0
ENDBLK
  5
70
330
6E
100
AcDbEntity
  8
0
100
AcDbBlockEnd
  0
ENDSEC
  0
SECTION
  2
ENTITIES
  0
CIRCLE
  5
7E
100
AcDbEntity
  8
D401
  6
ByLayer
 62
    3
370
   -1
100
AcDbCircle
 10
4619.887173319654
 20
1658.921268661902
 40
4.505
  0
CIRCLE
  5
7F
100
AcDbEntity
  8
D401
  6
ByLayer
 62
    3
370
   -1
100
AcDbCircle
 10
4619.887173319654
 20
1618.921268661902
 40
4.505
  0
CIRCLE
  5
80
100
AcDbEntity
  8
D401
  6
ByLayer
 62
    3
370
   -1
100
AcDbCircle
 10
4579.887173319654
 20
1658.921268661902
 40
3.504999999999999
  0
CIRCLE
  5
81
100
AcDbEntity
  8
D401
  6
ByLayer
 62
    3
370
   -1
100
AcDbCircle
 10
4535.887173319655
 20
1658.921268661902
 40
3.504999999999999
  0
CIRCLE
  5
82
100
AcDbEntity
  8
D401
  6
ByLayer
 62
    3
370
   -1
100
AcDbCircle
 10
4579.887173319654
 20
1618.921268661902
 40
3.504999999999999
  0
CIRCLE
  5
83
100
AcDbEntity
  8
D401
  6
ByLayer
 62
    3
370
   -1
100
AcDbCircle
 10
4535.887173319655
 20
1618.921268661902
 40
3.504999999999999
  0
CIRCLE
  5
84
100
AcDbEntity
  8
D401
  6
ByLayer
 62
    3
370
   -1
100
AcDbCircle
 10
4496.887173319655
 20
1618.921268661902
 40
4.505
  0
LWPOLYLINE
  5
85
100
AcDbEntity
  8
D402
  6
ByLayer
 62
    3
370
   -1
100
AcDbPolyline
 90
   37
 70
    0
 43
0
 10
4639.885329543553
 20
1666.219509264988
 10
4639.882730521093
 20
1669.162052563185
 42
0.1044749939093468
 10
4639.319077732301
 20
1671.782968600939
 42
0.08224448706235891
 10
4638.447592889856
 20
1673.039736219086
 42
0.108731238796933
 10
4636.01271985618
 20
1674.564799741155
 42
0.05465371702777942
 10
4634.236752497883
 20
1675.019729714191
 42
0.03566167968139693
 10
4632.915362113447
 20
1675.111210044702
 10
4575.231045988751
 20
1675.111210044702
 10
4541.9115195824
 20
1675.111210044702
 10
4501.337333516484
 20
1675.111210044702
 10
4485.928932934816
 20
1675.111210044746
 42
0.1157963077285279
 10
4482.118199090769
 20
1674.256427840629
 42
0.1074590338995677
 10
4480.104464520599
 20
1672.708396332698
 42
0.09625537392122192
 10
4479.24719194775
 20
1671.062623273412
 42
0.06873577115526858
 10
4478.961152734609
 20
1669.137562759304
 10
4478.959081431957
 20
1608.896753495347
 42
0.07332987680100297
 10
4479.244707859129
 20
1606.788067447536
 42
0.08548550092049076
 10
4479.983139496714
 20
1605.292042595498
 42
0.07961009668344854
 10
4481.136478795067
 20
1604.168934244571
 42
0.06095235049254482
 10
4482.715346711441
 20
1603.322569968515
 42
0.02919880224972166
 10
4483.642935919141
 20
1603.018473437638
 42
0.0652841678227128
 10
4485.929000053339
 20
1602.731327131403
 10
4492.307264527741
 20
1602.731327131403
 10
4519.058371276449
 20
1602.731327131403
 10
4529.923357509568
 20
1602.731327131403
 10
4553.35399182472
 20
1602.731327131403
 10
4572.969204067343
 20
1602.731327131403
 10
4591.880131548888
 20
1602.731327131403
 10
4612.581506985232
 20
1602.731327131403
 10
4624.473647861207
 20
1602.731327131403
 10
4630.654417548575
 20
1602.731327131403
 10
4632.930156256289
 20
1602.731315169157
 42
0.1337398634190593
 10
4637.222031499269
 20
1603.853255891424
 42
0.1186179752462901
 10
4639.015934532673
 20
1605.516045262447
 42
0.07385683998515381
 10
4639.621830515748
 20
1606.862762875319
 42
0.06489579095249462
 10
4639.883256780278
 20
1608.704840517833
 10
4639.885329543553
 20
1657.558223036616
  0
LINE
  5
86
100
AcDbEntity
  8
D403
  6
ByLayer
 62
    3
370
   -1
100
AcDbLine
 10
4639.885329543553
 20
1657.558223036616
 11
4639.885329543553
 21
1666.219509264988
  0
LWPOLYLINE
  5
87
100
AcDbEntity
  8
D403
  6
ByLayer
 62
    3
370
   -1
100
AcDbPolyline
 90
  114
 70
    1
 43
0
 10
4629.387173319653
 20
1604.845245594344
 10
4623.650219255266
 20
1604.845239105878
 42
0.1767926462394365
 10
4623.335626346136
 20
1604.731994874175
 42
-0.1756483366758742
 10
4622.687173319653
 20
1604.496943601803
 10
4621.093860426213
 20
1604.496943601803
 42
-0.2068998812019476
 10
4619.984792124868
 20
1604.978839534021
 42
0.2653509003998319
 10
4618.743140815874
 20
1605.353285660321
 42
-0.05652248397967948
 10
4618.604160617752
 20
1605.337524294003
 10
4615.887179362595
 20
1605.337524294003
 42
-0.1936311621600769
 10
4615.180402028095
 20
1605.620904861558
 42
0.1933184761962013
 10
4613.927581525452
 20
1606.124096871102
 10
4531.737575730708
 20
1606.124096871581
 42
0.06880145716319469
 10
4531.464669686164
 20
1606.086299988182
 10
4530.165521350437
 20
1605.719734866734
 42
-0.06873337341080418
 10
4529.887173320804
 20
1605.681289610103
 10
4526.686419540351
 20
1605.681289241805
 42
-0.1625132641838269
 10
4526.199349234603
 20
1605.841958245997
 10
4524.794394201376
 20
1606.925397799153
 42
0.1539699509752947
 10
4524.51162621887
 20
1607.014596619426
 10
4523.387112204853
 20
1607.014596623202
 42
0.1308061873775502
 10
4523.142164613548
 20
1606.949399767141
 42
-0.002339867862250688
 10
4522.853548348968
 20
1606.784069807534
 42
-0.1212203642260667
 10
4522.613740036919
 20
1606.7165988391
 42
0.3651182534134235
 10
4521.854539526393
 20
1606.043075506782
 42
-0.3730794503325376
 10
4520.458571409802
 20
1604.845238828576
 10
4517.386763172342
 20
1604.845251994782
 42
-0.1967032175636756
 10
4516.885189575078
 20
1605.050378163186
 10
4516.336674363895
 20
1605.589388219168
 42
0.1956961822220444
 10
4515.990117044853
 20
1605.730429567604
 10
4505.482123580973
 20
1605.730429567604
 42
0.3843325932444583
 10
4504.994606464395
 20
1605.297312251159
 42
-0.3841065922269741
 10
4504.486608201097
 20
1604.845239396703
 10
4498.586623165573
 20
1604.845239396703
 42
0.1823742612895672
 10
4498.26304526777
 20
1604.723879626289
 42
-0.1818670105202446
 10
4497.925735491853
 20
1604.596991689302
 10
4493.248596119328
 20
1604.596991689302
 42
-0.1803148798275
 10
4492.91132411709
 20
1604.723859753601
 42
0.1810870415914751
 10
4492.58717331964
 20
1604.845239105908
 10
4490.787197485354
 20
1604.845239105903
 42
-0.3731652068455549
 10
4490.281952545741
 20
1605.279078898298
 42
0.3736013719187039
 10
4489.697483063211
 20
1605.779582927303
 10
4487.137173319655
 20
1605.779582862003
 10
4485.765344205137
 20
1605.779582862003
 42
-0.1262342445170642
 10
4485.460833398803
 20
1605.858258851881
 10
4483.382292244053
 20
1607.044475909435
 42
-0.2670989186430923
 10
4483.077165799876
 20
1607.572108836034
 10
4483.077173319614
 20
1609.321277275665
 42
0.2914619155343827
 10
4482.79426115982
 20
1609.765374038096
 42
1.918451735657404e-05
 10
4481.129376557316
 20
1610.541715872809
 42
-0.2914847107362057
 10
4480.777173319696
 20
1611.094538822908
 10
4480.777173319654
 20
1654.921268236639
 42
-0.4142133328478476
 10
4481.287173319654
 20
1655.431267837004
 10
4481.637173394172
 20
1655.431267837011
 42
0.4142157453372197
 10
4481.927173319653
 20
1655.721265601103
 10
4481.927173321818
 20
1659.376277865776
 42
0.4538143951580048
 10
4481.484430137846
 20
1659.763104307765
 42
-0.01939210582850497
 10
4481.437172334742
 20
1659.761270980803
 42
-0.4142122059334456
 10
4480.827175016154
 20
1660.371271124402
 10
4480.827175016154
 20
1665.671287667313
 42
-0.4142101428097813
 10
4481.687165923703
 20
1666.531288699548
 10
4482.525297284768
 20
1666.532522200077
 42
0.395411196256676
 10
4483.077174652701
 20
1667.121265579722
 10
4483.077174321919
 20
1669.820159723196
 42
-0.2220887609569748
 10
4483.259372748615
 20
1670.210272223697
 10
4485.230849828293
 20
1671.850341043076
 42
-0.1736868034471119
 10
4485.687173319654
 20
1672.013786455203
 10
4487.137173319655
 20
1672.013786455203
 10
4491.172290470179
 20
1672.013786455203
 42
0.3459215442595099
 10
4491.64906363132
 20
1672.384120131991
 42
-0.3454472652612957
 10
4492.437193570161
 20
1672.997298071542
 10
4496.887164226696
 20
1672.997284918934
 42
-0.1968808475213093
 10
4497.389173121684
 20
1672.792175224796
 10
4498.037673584646
 20
1672.15489973982
 42
0.195789311272355
 10
4498.384229594453
 20
1672.013786455203
 10
4505.788463058638
 20
1672.013786455203
 42
0.3990371322743961
 10
4506.277816560752
 20
1672.47105706437
 42
-0.3986242776172995
 10
4506.787204682281
 20
1672.947888230802
 10
4514.53897106895
 20
1672.947888226048
 42
0.1723396863161603
 10
4514.850023243444
 20
1673.058041825206
 42
-0.1724982569690011
 10
4515.237173319653
 20
1673.195703463203
 10
4517.837143286455
 20
1673.195703463203
 42
-0.4134116158429195
 10
4519.747173319653
 20
1671.313614632221
 10
4519.747173319653
 20
1671.016483595618
 42
0.4137314790039107
 10
4520.337162872478
 20
1670.429931173902
 10
4526.999768459313
 20
1670.429931173902
 42
0.3653714672720265
 10
4527.482915259886
 20
1670.836207338399
 42
-0.3657597736267747
 10
4527.887191485922
 20
1671.175123884402
 10
4619.087199042165
 20
1671.175123884402
 42
0.4136885003528695
 10
4619.577173319654
 20
1671.659188352347
 10
4619.577173319653
 20
1672.691601413072
 42
-0.4128249956924604
 10
4620.087190710084
 20
1673.19570346321
 10
4629.387173319653
 20
1673.19570750814
 10
4634.237182127851
 20
1673.195709617602
 42
-0.1945515690110644
 10
4634.734400813537
 20
1672.994119652581
 10
4637.158622222231
 20
1670.601512294913
 42
-0.19161638915241
 10
4637.297173319655
 20
1670.253307950002
 10
4637.297173319654
 20
1651.421267391402
 42
0.4142135623744729
 10
4637.587171242254
 20
1651.131269468804
 10
4637.687173320889
 20
1651.131269468804
 42
-0.4142135252522435
 10
4638.197173319654
 20
1650.621269405402
 10
4638.197173319654
 20
1630.621268382657
 42
0.07955731930726387
 10
4638.246673319712
 20
1630.312140981701
 42
-0.07955732066376274
 10
4638.297173319655
 20
1629.996768578022
 10
4638.297173319652
 20
1613.021282045119
 42
-0.1270094202047091
 10
4638.170923400681
 20
1612.532313163022
 42
0.1270118110699962
 10
4638.047173319654
 20
1612.053016893736
 10
4638.047163241411
 20
1607.721755735154
 42
-0.1998878008964116
 10
4637.751322930832
 20
1607.010437192531
 10
4637.151306260395
 20
1606.415982541702
 42
-0.1971951537682546
 10
4636.437166350172
 20
1606.124096871102
 10
4634.614830357381
 20
1606.124096875917
 42
0.1956292698621535
 10
4633.917308754322
 20
1605.841122833062
 10
4633.046424047324
 20
1604.99135651049
 42
-0.1957399203672294
 10
4632.687507070873
 20
1604.845249327003
  0
LWPOLYLINE
  5
88
100
AcDbEntity
  8
D401
  6
ByLayer
 62
    3
370
   -1
100
AcDbPolyline
 90
   20
 70
    1
 43
0
 10
4488.370919688943
 20
1633.793237818388
 42
0.1402119507006611
 10
4492.525767279851
 20
1630.424268661898
 42
0.1010205144335131
 10
4499.276561010954
 20
1629.046268661902
 10
4514.45595077655
 20
1629.046268661902
 42
0.2324283103569145
 10
4522.751115091069
 20
1633.190195105653
 42
0.01885211249289855
 10
4523.798556853048
 20
1634.496471136351
 42
0.1588450662848169
 10
4525.762173319652
 20
1640.521433137402
 10
4525.762173319653
 20
1654.122592594803
 42
0.1989123673796254
 10
4522.767340157287
 20
1661.352759432434
 10
4517.718664090186
 20
1666.401435499535
 42
0.1989123673796267
 10
4510.488497252553
 20
1669.396268661903
 10
4497.558901124555
 20
1669.396268661903
 42
0.1002450525063012
 10
4493.580441300877
 20
1668.590529908486
 42
0.06919090810681669
 10
4490.979513243851
 20
1667.019904171513
 42
0.02447710215906116
 10
4489.201952741333
 20
1665.511559508104
 42
0.03078114019553076
 10
4487.19006296754
 20
1663.380573290968
 42
0.03825583462597318
 10
4485.87857265005
 20
1661.597245419151
 42
0.1363807331534187
 10
4484.412173319654
 20
1656.321116221502
 10
4484.412173319654
 20
1642.670843671203
 42
0.1539147210631422
 10
4486.261343666845
 20
1636.806024609494
  0
LWPOLYLINE
  5
89
100
AcDbEntity
  8
D401
  6
ByLayer
 62
    3
370
   -1
100
AcDbPolyline
 90
    8
 70
    1
 43
0
 10
4609.387173319652
 20
1663.941268661903
 10
4596.387173319652
 20
1663.941268661903
 42
0.4142135623728991
 10
4595.367173319655
 20
1662.921268661903
 10
4595.367173319654
 20
1614.921268661903
 42
0.4142135623730298
 10
4596.387173319652
 20
1613.901268661904
 10
4609.387173319652
 20
1613.901268661904
 42
0.4142135623729644
 10
4610.407173319653
 20
1614.921268661903
 10
4610.407173319652
 20
1662.921268661903
 42
0.4142135623728991
  0
LINE
  5
8A
100
AcDbEntity
  8
D402
  6
ByLayer
 62
    3
370
   -1
100
AcDbLine
 10
4552.887173319652
 20
1604.406322525202
 11
4556.887173319653
 21
1604.406322525202
  0
LINE
  5
8B
100
AcDbEntity
  8
D402
  6
ByLayer
 62
    3
370
   -1
100
AcDbLine
 10
4559.887173319653
 20
1604.406322525202
 11
4563.887173319653
 21
1604.406322525202
  0
LINE
  5
8C
100
AcDbEntity
  8
D402
  6
ByLayer
 62
    3
370
   -1
100
AcDbLine
 10
4566.887173319653
 20
1604.406322525202
 11
4570.887173319653
 21
1604.406322525202
  0
LINE
  5
8D
100
AcDbEntity
  8
D402
  6
ByLayer
 62
    3
370
   -1
100
AcDbLine
 10
4573.887173319653
 20
1604.406322525202
 11
4577.887173319653
 21
1604.406322525202
  0
LINE
  5
8E
100
AcDbEntity
  8
D402
  6
ByLayer
 62
    3
370
   -1
100
AcDbLine
 10
4580.887173319653
 20
1604.406322525202
 11
4584.887173319653
 21
1604.406322525202
  0
LINE
  5
8F
100
AcDbEntity
  8
D402
  6
ByLayer
 62
    3
370
   -1
100
AcDbLine
 10
4602.587173319654
 20
1673.421268661902
 11
4598.587173319653
 21
1673.421268661902
  0
LINE
  5
90
100
AcDbEntity
  8
D402
  6
ByLayer
 62
    3
370
   -1
100
AcDbLine
 10
4588.787173319654
 20
1673.421268661902
 11
4584.787173319654
 21
1673.421268661902
  0
SPLINE
  5
91
100
AcDbEntity
  8
D402
  6
ByLayer
 62
    3
370
   -1
100
AcDbSpline
210
0
220
0
230
0
 70
    8
 71
    3
 72
   10
 73
    6
 74
    0
 42
1e-07
 43
1e-07
 40
0
 40
0
 40
0
 40
0
 40
0.5486744
 40
0.5486744
 40
1
 40
1
 40
1
 40
1
 10
4638.214141036917
 20
1605.917812042754
 30
0
 10
4638.355067015408
 20
1606.125016273819
 30
0
 10
4638.47477383324
 20
1606.347496743997
 30
0
 10
4638.654862991931
 20
1606.767878026268
 30
0
 10
4638.721812932147
 20
1606.963657559819
 30
0
 10
4638.777006459869
 20
1607.162738828188
 30
0
  0
SPLINE
  5
92
100
AcDbEntity
  8
D402
  6
ByLayer
 62
    3
370
   -1
100
AcDbSpline
210
0
220
0
230
0
 70
    8
 71
    3
 72
   11
 73
    7
 74
    0
 42
1e-07
 43
1e-07
 40
0
 40
0
 40
0
 40
0
 40
0.2758331
 40
0.5316949
 40
0.7717948
 40
1
 40
1
 40
1
 40
1
 10
4636.371527026053
 20
1604.428003667802
 30
0
 10
4636.485677066953
 20
1604.477695655102
 30
0
 10
4636.703009449154
 20
1604.579958985703
 30
0
 10
4637.007095243954
 20
1604.750505721703
 30
0
 10
4637.280247268453
 20
1604.930479486904
 30
0
 10
4637.448023437554
 20
1605.059436267103
 30
0
 10
4637.527071183153
 20
1605.125470426102
 30
0
  0
SPLINE
  5
93
100
AcDbEntity
  8
D402
  6
ByLayer
 62
    3
370
   -1
100
AcDbSpline
210
0
220
0
230
0
 70
    8
 71
    3
 72
   10
 73
    6
 74
    0
 42
1e-07
 43
1e-07
 40
0
 40
0
 40
0
 40
0
 40
0.5406617
 40
0.5406617
 40
1
 40
1
 40
1
 40
1
 10
4480.557249541583
 20
1670.136866140756
 30
0
 10
4480.61371627593
 20
1670.411183183699
 30
0
 10
4480.686628918988
 20
1670.671554860036
 30
0
 10
4480.853181806697
 20
1671.113686150972
 30
0
 10
4480.941877472226
 20
1671.30096741111
 30
0
 10
4481.043036384419
 20
1671.47158075345
 30
0
  0
SPLINE
  5
94
100
AcDbEntity
  8
D402
  6
ByLayer
 62
    3
370
   -1
100
AcDbSpline
210
0
220
0
230
0
 70
    8
 71
    3
 72
   10
 73
    6
 74
    0
 42
1e-07
 43
1e-07
 40
0
 40
0
 40
0
 40
0
 40
0.5835443
 40
0.5835443
 40
1
 40
1
 40
1
 40
1
 10
4480.557332865433
 20
1607.705248012341
 30
0
 10
4480.612276488098
 20
1607.412875887031
 30
0
 10
4480.6901372781
 20
1607.136992566729
 30
0
 10
4480.864652750259
 20
1606.698731004558
 30
0
 10
4480.94934989653
 20
1606.526678266631
 30
0
 10
4481.045956804382
 20
1606.365975269944
 30
0
  0
SPLINE
  5
95
100
AcDbEntity
  8
D402
  6
ByLayer
 62
    3
370
   -1
100
AcDbSpline
210
0
220
0
230
0
 70
    8
 71
    3
 72
   12
 73
    8
 74
    0
 42
1e-07
 43
1e-07
 40
0
 40
0
 40
0
 40
0
 40
0.0237889
 40
0.3177597
 40
0.6375670999999999
 40
0.9872038
 40
1
 40
1
 40
1
 40
1
 10
4635.412828409354
 20
1673.718367339602
 30
0
 10
4635.402290341854
 20
1673.720938554502
 30
0
 10
4635.261364431454
 20
1673.755016788103
 30
0
 10
4634.974293029353
 20
1673.816296041902
 30
0
 10
4634.530491455553
 20
1673.890023113703
 30
0
 10
4634.210203069054
 20
1673.929140549203
 30
0
 10
4634.038745581554
 20
1673.946585741102
 30
0
 10
4634.032690417053
 20
1673.947197527602
 30
0
  0
LINE
  5
96
100
AcDbEntity
  8
D402
  6
ByLayer
 62
    3
370
   -1
100
AcDbLine
 10
4529.587173319653
 20
1673.421268661902
 11
4533.587173319653
 21
1673.421268661902
  0
LINE
  5
97
100
AcDbEntity
  8
D402
  6
ByLayer
 62
    3
370
   -1
100
AcDbLine
 10
4536.487173319653
 20
1673.421268661902
 11
4540.487173319653
 21
1673.421268661902
  0
LINE
  5
98
100
AcDbEntity
  8
D402
  6
ByLayer
 62
    3
370
   -1
100
AcDbLine
 10
4543.387173319653
 20
1673.421268661902
 11
4547.387173319653
 21
1673.421268661902
  0
LINE
  5
99
100
AcDbEntity
  8
D402
  6
ByLayer
 62
    3
370
   -1
100
AcDbLine
 10
4550.287173319654
 20
1673.421268661902
 11
4554.287173319654
 21
1673.421268661902
  0
LINE
  5
9A
100
AcDbEntity
  8
D402
  6
ByLayer
 62
    3
370
   -1
100
AcDbLine
 10
4557.187173319653
 20
1673.421268661902
 11
4561.187173319654
 21
1673.421268661902
  0
LINE
  5
9B
100
AcDbEntity
  8
D402
  6
ByLayer
 62
    3
370
   -1
100
AcDbLine
 10
4564.087173319654
 20
1673.421268661902
 11
4568.087173319653
 21
1673.421268661902
  0
LINE
  5
9C
100
AcDbEntity
  8
D402
  6
ByLayer
 62
    3
370
   -1
100
AcDbLine
 10
4570.987173319653
 20
1673.421268661902
 11
4574.987173319653
 21
1673.421268661902
  0
LINE
  5
9D
100
AcDbEntity
  8
D402
  6
ByLayer
 62
    3
370
   -1
100
AcDbLine
 10
4577.887173319653
 20
1673.421268661902
 11
4581.887173319652
 21
1673.421268661902
  0
LINE
  5
9E
100
AcDbEntity
  8
D402
  6
ByLayer
 62
    3
370
   -1
100
AcDbLine
 10
4591.687173319654
 20
1673.421268661902
 11
4595.687173319654
 21
1673.421268661902
  0
LINE
  5
9F
100
AcDbEntity
  8
D402
  6
ByLayer
 62
    3
370
   -1
100
AcDbLine
 10
4605.487173319653
 20
1673.421268661902
 11
4609.487173319653
 21
1673.421268661902
  0
LINE
  5
A0
100
AcDbEntity
  8
D402
  6
ByLayer
 62
    3
370
   -1
100
AcDbLine
 10
4616.387173319653
 20
1673.421268661902
 11
4612.387173319652
 21
1673.421268661902
  0
LINE
  5
A1
100
AcDbEntity
  8
D402
  6
ByLayer
 62
    3
370
   -1
100
AcDbLine
 10
4531.887173319653
 20
1604.406322525202
 11
4535.887173319653
 21
1604.406322525202
  0
LINE
  5
A2
100
AcDbEntity
  8
D402
  6
ByLayer
 62
    3
370
   -1
100
AcDbLine
 10
4538.887173319653
 20
1604.406322525202
 11
4542.887173319653
 21
1604.406322525202
  0
LINE
  5
A3
100
AcDbEntity
  8
D402
  6
ByLayer
 62
    3
370
   -1
100
AcDbLine
 10
4545.887173319653
 20
1604.406322525202
 11
4549.887173319652
 21
1604.406322525202
  0
LINE
  5
A4
100
AcDbEntity
  8
D402
  6
ByLayer
 62
    3
370
   -1
100
AcDbLine
 10
4587.887173319653
 20
1604.406322525202
 11
4591.887173319653
 21
1604.406322525202
  0
LINE
  5
A5
100
AcDbEntity
  8
D402
  6
ByLayer
 62
    3
370
   -1
100
AcDbLine
 10
4594.887173319653
 20
1604.406322525202
 11
4598.887173319653
 21
1604.406322525202
  0
LINE
  5
A6
100
AcDbEntity
  8
D402
  6
ByLayer
 62
    3
370
   -1
100
AcDbLine
 10
4601.887173319652
 20
1604.406322525202
 11
4605.887173319653
 21
1604.406322525202
  0
LINE
  5
A7
100
AcDbEntity
  8
D402
  6
ByLayer
 62
    3
370
   -1
100
AcDbLine
 10
4608.887173319653
 20
1604.406322525202
 11
4612.887173319653
 21
1604.406322525202
  0
SPLINE
  5
A8
100
AcDbEntity
  8
D402
  6
ByLayer
 62
    3
370
   -1
100
AcDbSpline
210
0
220
0
230
0
 70
    8
 71
    3
 72
   12
 73
    8
 74
    0
 42
1e-07
 43
1e-07
 40
0
 40
0
 40
0
 40
0
 40
0.09004669999999999
 40
0.3452673
 40
0.6134973
 40
0.8933555999999999
 40
1
 40
1
 40
1
 40
1
 10
4483.715932025653
 20
1604.672548443702
 30
0
 10
4483.757632183554
 20
1604.662875529404
 30
0
 10
4483.918487446454
 20
1604.627095379602
 30
0
 10
4484.210467165453
 20
1604.572326498702
 30
0
 10
4484.603201348053
 20
1604.517250932703
 30
0
 10
4484.930671154553
 20
1604.485749904302
 30
0
 10
4485.126426492154
 20
1604.472362571403
 30
0
 10
4485.180610508954
 20
1604.469055180202
 30
0
  0
SPLINE
  5
A9
100
AcDbEntity
  8
D402
  6
ByLayer
 62
    3
370
   -1
100
AcDbSpline
210
0
220
0
230
0
 70
    8
 71
    3
 72
   14
 73
   10
 74
    0
 42
1e-07
 43
1e-07
 40
0
 40
0
 40
0
 40
0
 40
0.1007204
 40
0.2393484
 40
0.3821433
 40
0.5305054
 40
0.6859440999999999
 40
0.8499211999999999
 40
1
 40
1
 40
1
 40
1
 10
4637.494755216253
 20
1672.709044655703
 30
0
 10
4637.463696410953
 20
1672.738750731303
 30
0
 10
4637.388124218653
 20
1672.807739262903
 30
0
 10
4637.260858676953
 20
1672.911791588003
 30
0
 10
4637.109066574853
 20
1673.020890558603
 30
0
 10
4636.942313074153
 20
1673.125882341402
 30
0
 10
4636.758459858653
 20
1673.226730743603
 30
0
 10
4636.565028874153
 20
1673.318464928402
 30
0
 10
4636.430321481554
 20
1673.373763426303
 30
0
 10
4636.364857041854
 20
1673.398852035703
 30
0
  0
SPLINE
  5
AA
100
AcDbEntity
  8
D402
  6
ByLayer
 62
    3
370
   -1
100
AcDbSpline
210
0
220
0
230
0
 70
    8
 71
    3
 72
    9
 73
    5
 74
    0
 42
1e-07
 43
1e-07
 40
0
 40
0
 40
0
 40
0
 40
0.2659155
 40
1
 40
1
 40
1
 40
1
 10
4485.179729658752
 20
1673.388091165903
 30
0
 10
4485.048117779554
 20
1673.377330850604
 30
0
 10
4484.553745780353
 20
1673.330656421503
 30
0
 10
4484.061637168355
 20
1673.256880035904
 30
0
 10
4483.704633825654
 20
1673.183141586503
 30
0
  0
SPLINE
  5
AB
100
AcDbEntity
  8
D402
  6
ByLayer
 62
    3
370
   -1
100
AcDbSpline
210
0
220
0
230
0
 70
    8
 71
    3
 72
   12
 73
    8
 74
    0
 42
1e-07
 43
1e-07
 40
0
 40
0
 40
0
 40
0
 40
0.264843
 40
0.5156568
 40
0.7581743999999999
 40
0.8786868
 40
1
 40
1
 40
1
 40
1
 10
4482.851192250554
 20
1672.923557039202
 30
0
 10
4482.734411630753
 20
1672.880291876102
 30
0
 10
4482.509920175954
 20
1672.787858156403
 30
0
 10
4482.192545668755
 20
1672.624453572103
 30
0
 10
4481.949625020553
 20
1672.467434847203
 30
0
 10
4481.769488157954
 20
1672.327880379003
 30
0
 10
4481.684072412252
 20
1672.252679303002
 30
0
 10
4481.642390133654
 20
1672.213733805003
 30
0
  0
SPLINE
  5
AC
100
AcDbEntity
  8
D402
  6
ByLayer
 62
    3
370
   -1
100
AcDbSpline
210
0
220
0
230
0
 70
    8
 71
    3
 72
   12
 73
    8
 74
    0
 42
1e-07
 43
1e-07
 40
0
 40
0
 40
0
 40
0
 40
0.4408149
 40
0.4408149
 40
0.8816297999999999
 40
0.8816297999999999
 40
1
 40
1
 40
1
 40
1
 10
4638.77704866429
 20
1670.679648092607
 30
0
 10
4638.721823724572
 20
1670.874114608313
 30
0
 10
4638.657524042174
 20
1671.065741437059
 30
0
 10
4638.501704417737
 20
1671.437889271994
 30
0
 10
4638.41065512769
 20
1671.618496098899
 30
0
 10
4638.275163652052
 20
1671.835092244233
 30
0
 10
4638.245348481087
 20
1671.880200527799
 30
0
 10
4638.214341488228
 20
1671.924434864749
 30
0
  0
SPLINE
  5
AD
100
AcDbEntity
  8
D402
  6
ByLayer
 62
    3
370
   -1
100
AcDbSpline
210
0
220
0
230
0
 70
    8
 71
    3
 72
   10
 73
    6
 74
    0
 42
1e-07
 43
1e-07
 40
0
 40
0
 40
0
 40
0
 40
0.2476582
 40
0.4955501
 40
1
 40
1
 40
1
 40
1
 10
4481.642390133654
 20
1605.628803390904
 30
0
 10
4481.729911765653
 20
1605.552324117103
 30
0
 10
4481.913162428654
 20
1605.408320114603
 30
0
 10
4482.309108824053
 20
1605.155415583003
 30
0
 10
4482.630586629554
 20
1605.004891961403
 30
0
 10
4482.851192250554
 20
1604.918980139103
 30
0
  0
SPLINE
  5
AE
100
AcDbEntity
  8
D402
  6
ByLayer
 62
    3
370
   -1
100
AcDbSpline
210
0
220
0
230
0
 70
    8
 71
    3
 72
   11
 73
    7
 74
    0
 42
1e-07
 43
1e-07
 40
0
 40
0
 40
0
 40
0
 40
0.2713354
 40
0.5284493
 40
0.7713664
 40
1
 40
1
 40
1
 40
1
 10
4634.035246606753
 20
1603.861353339003
 30
0
 10
4634.162374816254
 20
1603.873835353602
 30
0
 10
4634.409590413055
 20
1603.902333486303
 30
0
 10
4634.768486991355
 20
1603.958370988402
 30
0
 10
4635.105088265854
 20
1604.024954384003
 30
0
 10
4635.321069893754
 20
1604.076629306204
 30
0
 10
4635.425119445154
 20
1604.104184262603
 30
0
  0
LWPOLYLINE
  5
AF
100
AcDbEntity
  8
D403
  6
ByLayer
 62
    3
370
   -1
100
AcDbPolyline
 90
    3
 70
    0
 43
0
 10
4635.685715767503
 20
1633.96017051137
 10
4633.685715767503
 20
1633.96017051137
 10
4633.685715767503
 20
1635.96017051137
  0
LWPOLYLINE
  5
B0
100
AcDbEntity
  8
D403
  6
ByLayer
 62
    3
370
   -1
100
AcDbPolyline
 90
    4
 70
    0
 43
0
 10
4553.319280771087
 20
1638.119686138384
 10
4555.319280771086
 20
1638.119686138384
 10
4555.319280771086
 20
1636.119686138384
 10
4557.319280771086
 20
1636.119686138384
  0
LWPOLYLINE
  5
B1
100
AcDbEntity
  8
D402
  6
ByLayer
 62
    3
370
   -1
100
AcDbPolyline
 90
    4
 70
    0
 43
0
 10
4643.384330762629
 20
1638.123358941522
 10
4645.384330762629
 20
1638.123358941522
 10
4645.384330762629
 20
1636.123358941522
 10
4647.384330762629
 20
1636.123358941522
  0
CIRCLE
  5
B2
100
AcDbEntity
  8
D401
  6
ByLayer
 62
    3
370
   -1
100
AcDbCircle
 10
4619.887173319654
 20
1584.837968661903
 40
4.505
  0
CIRCLE
  5
B3
100
AcDbEntity
  8
D401
  6
ByLayer
 62
    3
370
   -1
100
AcDbCircle
 10
4619.887173319654
 20
1544.837968661903
 40
4.505
  0
CIRCLE
  5
B4
100
AcDbEntity
  8
D401
  6
ByLayer
 62
    3
370
   -1
100
AcDbCircle
 10
4579.887173319654
 20
1584.837968661903
 40
3.504999999999999
  0
CIRCLE
  5
B5
100
AcDbEntity
  8
D401
  6
ByLayer
 62
    3
370
   -1
100
AcDbCircle
 10
4535.887173319655
 20
1584.837968661903
 40
3.504999999999999
  0
CIRCLE
  5
B6
100
AcDbEntity
  8
D401
  6
ByLayer
 62
    3
370
   -1
100
AcDbCircle
 10
4579.887173319654
 20
1544.837968661903
 40
3.504999999999999
  0
CIRCLE
  5
B7
100
AcDbEntity
  8
D401
  6
ByLayer
 62
    3
370
   -1
100
AcDbCircle
 10
4535.887173319655
 20
1544.837968661903
 40
3.504999999999999
  0
CIRCLE
  5
B8
100
AcDbEntity
  8
D401
  6
ByLayer
 62
    3
370
   -1
100
AcDbCircle
 10
4496.887173319655
 20
1544.837968661903
 40
4.505
  0
LWPOLYLINE
  5
B9
100
AcDbEntity
  8
D402
  6
ByLayer
 62
    3
370
   -1
100
AcDbPolyline
 90
   37
 70
    0
 43
0
 10
4639.885329543553
 20
1592.136209264988
 10
4639.882730521093
 20
1595.078752563185
 42
0.104474993909347
 10
4639.319077732301
 20
1597.699668600938
 42
0.08224448706235504
 10
4638.447592889856
 20
1598.956436219087
 42
0.108731238796928
 10
4636.01271985618
 20
1600.481499741156
 42
0.05465371702778008
 10
4634.236752497883
 20
1600.936429714191
 42
0.03566167968139605
 10
4632.915362113447
 20
1601.027910044703
 10
4575.231045988751
 20
1601.027910044703
 10
4541.9115195824
 20
1601.027910044703
 10
4501.337333516484
 20
1601.027910044703
 10
4485.928932934816
 20
1601.027910044745
 42
0.1157963077285215
 10
4482.118199090769
 20
1600.173127840629
 42
0.1074590338995767
 10
4480.104464520599
 20
1598.625096332698
 42
0.09625537392121508
 10
4479.247191947751
 20
1596.979323273412
 42
0.06873577115525953
 10
4478.96115273461
 20
1595.054262759304
 10
4478.959081431957
 20
1534.813453495348
 42
0.07332987680100488
 10
4479.244707859129
 20
1532.704767447536
 42
0.08548550092048293
 10
4479.983139496714
 20
1531.208742595497
 42
0.07961009668344932
 10
4481.136478795067
 20
1530.085634244571
 42
0.06095235049254415
 10
4482.715346711441
 20
1529.239269968514
 42
0.02919880224972166
 10
4483.642935919141
 20
1528.935173437637
 42
0.06528416782271347
 10
4485.929000053339
 20
1528.648027131402
 10
4492.307264527741
 20
1528.648027131402
 10
4519.058371276449
 20
1528.648027131402
 10
4529.923357509568
 20
1528.648027131402
 10
4553.35399182472
 20
1528.648027131402
 10
4572.969204067343
 20
1528.648027131402
 10
4591.880131548888
 20
1528.648027131402
 10
4612.581506985232
 20
1528.648027131402
 10
4624.473647861207
 20
1528.648027131402
 10
4630.654417548575
 20
1528.648027131402
 10
4632.930156256289
 20
1528.648015169157
 42
0.1337398634190593
 10
4637.222031499269
 20
1529.769955891424
 42
0.1186179752462874
 10
4639.015934532673
 20
1531.432745262448
 42
0.07385683998515381
 10
4639.621830515748
 20
1532.77946287532
 42
0.0648957909524944
 10
4639.883256780278
 20
1534.621540517834
 10
4639.885329543553
 20
1583.474923036616
  0
LINE
  5
BA
100
AcDbEntity
  8
D403
  6
ByLayer
 62
    3
370
   -1
100
AcDbLine
 10
4639.885329543553
 20
1583.474923036616
 11
4639.885329543553
 21
1592.136209264988
  0
LWPOLYLINE
  5
BB
100
AcDbEntity
  8
D403
  6
ByLayer
 62
    3
370
   -1
100
AcDbPolyline
 90
  114
 70
    1
 43
0
 10
4629.387173319653
 20
1530.761945594344
 10
4623.650219255266
 20
1530.761939105878
 42
0.1767926462394365
 10
4623.335626346136
 20
1530.648694874175
 42
-0.1756483366758742
 10
4622.687173319653
 20
1530.413643601803
 10
4621.093860426213
 20
1530.413643601803
 42
-0.2068998812018986
 10
4619.984792124868
 20
1530.895539534022
 42
0.2653509003998385
 10
4618.743140815874
 20
1531.269985660321
 42
-0.05652248397968884
 10
4618.604160617752
 20
1531.254224294003
 10
4615.887179362595
 20
1531.254224294003
 42
-0.1936311621600614
 10
4615.180402028095
 20
1531.537604861557
 42
0.1933184761961828
 10
4613.927581525452
 20
1532.040796871103
 10
4531.737575730708
 20
1532.040796871581
 42
0.0688014571632219
 10
4531.464669686164
 20
1532.002999988183
 10
4530.165521350437
 20
1531.636434866733
 42
-0.06873337341080731
 10
4529.887173320804
 20
1531.597989610103
 10
4526.686419540351
 20
1531.597989241805
 42
-0.1625132641839135
 10
4526.199349234603
 20
1531.758658245997
 10
4524.794394201376
 20
1532.842097799153
 42
0.1539699509752947
 10
4524.51162621887
 20
1532.931296619426
 10
4523.387112204853
 20
1532.931296623203
 42
0.1308061873775389
 10
4523.142164613548
 20
1532.866099767141
 42
-0.002339867862250688
 10
4522.853548348968
 20
1532.700769807533
 42
-0.1212203642260103
 10
4522.613740036919
 20
1532.6332988391
 42
0.3651182534134235
 10
4521.854539526393
 20
1531.959775506782
 42
-0.3730794503325586
 10
4520.458571409802
 20
1530.761938828577
 10
4517.386763172342
 20
1530.761951994781
 42
-0.1967032175636598
 10
4516.885189575078
 20
1530.967078163186
 10
4516.336674363895
 20
1531.506088219168
 42
0.1956961822220134
 10
4515.990117044853
 20
1531.647129567603
 10
4505.482123580973
 20
1531.647129567603
 42
0.384332593244805
 10
4504.994606464395
 20
1531.214012251159
 42
-0.3841065922271027
 10
4504.486608201097
 20
1530.761939396703
 10
4498.586623165573
 20
1530.761939396703
 42
0.1823742612896872
 10
4498.26304526777
 20
1530.64057962629
 42
-0.1818670105202446
 10
4497.925735491853
 20
1530.513691689303
 10
4493.248596119328
 20
1530.513691689303
 42
-0.1803148798275366
 10
4492.91132411709
 20
1530.640559753601
 42
0.1810870415916703
 10
4492.58717331964
 20
1530.761939105908
 10
4490.787197485354
 20
1530.761939105903
 42
-0.3731652068458086
 10
4490.281952545741
 20
1531.195778898298
 42
0.373601371918594
 10
4489.697483063211
 20
1531.696282927303
 10
4487.137173319655
 20
1531.696282862003
 10
4485.765344205137
 20
1531.696282862003
 42
-0.1262342445170642
 10
4485.460833398803
 20
1531.774958851881
 10
4483.382292244053
 20
1532.961175909435
 42
-0.2670989186430923
 10
4483.077165799876
 20
1533.488808836034
 10
4483.077173319613
 20
1535.237977275665
 42
0.2914619155340695
 10
4482.794261159822
 20
1535.682074038101
 42
1.918451735657404e-05
 10
4481.129376557318
 20
1536.458415872814
 42
-0.2914847107363919
 10
4480.777173319696
 20
1537.011238822907
 10
4480.777173319654
 20
1580.837968236639
 42
-0.4142133328479781
 10
4481.287173319654
 20
1581.347967837003
 10
4481.637173394172
 20
1581.347967837011
 42
0.4142157453379086
 10
4481.927173319653
 20
1581.637965601102
 10
4481.927173321818
 20
1585.292977865776
 42
0.4538143951580048
 10
4481.484430137846
 20
1585.679804307765
 42
-0.01939210582851941
 10
4481.437172334742
 20
1585.677970980803
 42
-0.414212205933664
 10
4480.827175016154
 20
1586.287971124402
 10
4480.827175016154
 20
1591.587987667314
 42
-0.4142101428100136
 10
4481.687165923703
 20
1592.447988699548
 10
4482.525297284768
 20
1592.449222200077
 42
0.3954111962571286
 10
4483.077174652701
 20
1593.037965579723
 10
4483.077174321919
 20
1595.736859723196
 42
-0.2220887609569329
 10
4483.259372748615
 20
1596.126972223697
 10
4485.230849828293
 20
1597.767041043076
 42
-0.1736868034470084
 10
4485.687173319654
 20
1597.930486455203
 10
4487.137173319655
 20
1597.930486455203
 10
4491.172290470179
 20
1597.930486455203
 42
0.3459215442600156
 10
4491.64906363132
 20
1598.300820131992
 42
-0.3454472652612957
 10
4492.437193570161
 20
1598.913998071543
 10
4496.887164226696
 20
1598.913984918933
 42
-0.1968808475211517
 10
4497.389173121684
 20
1598.708875224797
 10
4498.037673584646
 20
1598.07159973982
 42
0.195789311272355
 10
4498.384229594453
 20
1597.930486455203
 10
4505.788463058638
 20
1597.930486455203
 42
0.3990371322738831
 10
4506.277816560753
 20
1598.38775706437
 42
-0.3986242776171674
 10
4506.787204682281
 20
1598.864588230803
 10
4514.53897106895
 20
1598.864588226048
 42
0.1723396863162785
 10
4514.850023243444
 20
1598.974741825207
 42
-0.1724982569690775
 10
4515.237173319653
 20
1599.112403463202
 10
4517.837143286455
 20
1599.112403463202
 42
-0.4134116158429898
 10
4519.747173319653
 20
1597.23031463222
 10
4519.747173319653
 20
1596.933183595617
 42
0.4137314790040225
 10
4520.337162872478
 20
1596.346631173902
 10
4526.999768459313
 20
1596.346631173902
 42
0.3653714672717187
 10
4527.482915259886
 20
1596.7529073384
 42
-0.3657597736267747
 10
4527.887191485922
 20
1597.091823884403
 10
4619.087199042165
 20
1597.091823884403
 42
0.4136885003524612
 10
4619.577173319653
 20
1597.575888352347
 10
4619.577173319654
 20
1598.608301413073
 42
-0.4128249956923266
 10
4620.087190710084
 20
1599.11240346321
 10
4629.387173319653
 20
1599.112407508141
 10
4634.237182127851
 20
1599.112409617602
 42
-0.1945515690110644
 10
4634.734400813537
 20
1598.910819652581
 10
4637.158622222231
 20
1596.518212294913
 42
-0.1916163891523706
 10
4637.297173319654
 20
1596.170007950003
 10
4637.297173319654
 20
1577.337967391403
 42
0.4142135623742432
 10
4637.587171242254
 20
1577.047969468803
 10
4637.687173320889
 20
1577.047969468803
 42
-0.4142135252522434
 10
4638.197173319654
 20
1576.537969405403
 10
4638.197173319654
 20
1556.537968382657
 42
0.07955731930725829
 10
4638.246673319712
 20
1556.2288409817
 42
-0.07955732066376818
 10
4638.297173319655
 20
1555.913468578022
 10
4638.297173319652
 20
1538.93798204512
 42
-0.1270094202046877
 10
4638.170923400681
 20
1538.449013163022
 42
0.1270118110698321
 10
4638.047173319654
 20
1537.969716893737
 10
4638.047163241411
 20
1533.638455735153
 42
-0.1998878008963781
 10
4637.751322930832
 20
1532.927137192531
 10
4637.151306260395
 20
1532.332682541702
 42
-0.1971951537683886
 10
4636.437166350172
 20
1532.040796871103
 10
4634.614830357381
 20
1532.040796875917
 42
0.1956292698622878
 10
4633.917308754322
 20
1531.757822833063
 10
4633.046424047324
 20
1530.908056510491
 42
-0.1957399203672591
 10
4632.687507070873
 20
1530.761949327003
  0
LWPOLYLINE
  5
BC
100
AcDbEntity
  8
D401
  6
ByLayer
 62
    3
370
   -1
100
AcDbPolyline
 90
   20
 70
    1
 43
0
 10
4488.370919688944
 20
1559.709937818389
 42
0.1402119507006518
 10
4492.525767279851
 20
1556.340968661899
 42
0.101020514433514
 10
4499.276561010954
 20
1554.962968661902
 10
4514.45595077655
 20
1554.962968661902
 42
0.2324283103569145
 10
4522.751115091069
 20
1559.106895105653
 42
0.01885211249289833
 10
4523.798556853047
 20
1560.413171136351
 42
0.1588450662848107
 10
4525.762173319653
 20
1566.438133137403
 10
4525.762173319653
 20
1580.039292594803
 42
0.1989123673796347
 10
4522.767340157287
 20
1587.269459432435
 10
4517.718664090186
 20
1592.318135499535
 42
0.1989123673796444
 10
4510.488497252553
 20
1595.312968661902
 10
4497.558901124555
 20
1595.312968661902
 42
0.1002450525063056
 10
4493.580441300877
 20
1594.507229908485
 42
0.06919090810681534
 10
4490.979513243851
 20
1592.936604171512
 42
0.02447710215906094
 10
4489.201952741333
 20
1591.428259508103
 42
0.03078114019553021
 10
4487.190062967541
 20
1589.297273290968
 42
0.03825583462597485
 10
4485.878572650049
 20
1587.51394541915
 42
0.1363807331534091
 10
4484.412173319654
 20
1582.237816221502
 10
4484.412173319653
 20
1568.587543671202
 42
0.1539147210631605
 10
4486.261343666844
 20
1562.722724609494
  0
LWPOLYLINE
  5
BD
100
AcDbEntity
  8
D401
  6
ByLayer
 62
    3
370
   -1
100
AcDbPolyline
 90
    8
 70
    1
 43
0
 10
4609.387173319652
 20
1589.857968661903
 10
4596.387173319652
 20
1589.857968661903
 42
0.4142135623728991
 10
4595.367173319655
 20
1588.837968661903
 10
4595.367173319655
 20
1540.837968661903
 42
0.4142135623729643
 10
4596.387173319652
 20
1539.817968661903
 10
4609.387173319652
 20
1539.817968661903
 42
0.4142135623728991
 10
4610.407173319652
 20
1540.837968661903
 10
4610.407173319652
 20
1588.837968661903
 42
0.4142135623728991
  0
LINE
  5
BE
100
AcDbEntity
  8
D402
  6
ByLayer
 62
    3
370
   -1
100
AcDbLine
 10
4552.887173319652
 20
1530.323022525203
 11
4556.887173319653
 21
1530.323022525203
  0
LINE
  5
BF
100
AcDbEntity
  8
D402
  6
ByLayer
 62
    3
370
   -1
100
AcDbLine
 10
4559.887173319653
 20
1530.323022525203
 11
4563.887173319653
 21
1530.323022525203
  0
LINE
  5
C0
100
AcDbEntity
  8
D402
  6
ByLayer
 62
    3
370
   -1
100
AcDbLine
 10
4566.887173319653
 20
1530.323022525203
 11
4570.887173319653
 21
1530.323022525203
  0
LINE
  5
C1
100
AcDbEntity
  8
D402
  6
ByLayer
 62
    3
370
   -1
100
AcDbLine
 10
4573.887173319653
 20
1530.323022525203
 11
4577.887173319653
 21
1530.323022525203
  0
LINE
  5
C2
100
AcDbEntity
  8
D402
  6
ByLayer
 62
    3
370
   -1
100
AcDbLine
 10
4580.887173319653
 20
1530.323022525203
 11
4584.887173319653
 21
1530.323022525203
  0
LINE
  5
C3
100
AcDbEntity
  8
D402
  6
ByLayer
 62
    3
370
   -1
100
AcDbLine
 10
4602.587173319654
 20
1599.337968661903
 11
4598.587173319653
 21
1599.337968661903
  0
LINE
  5
C4
100
AcDbEntity
  8
D402
  6
ByLayer
 62
    3
370
   -1
100
AcDbLine
 10
4588.787173319654
 20
1599.337968661903
 11
4584.787173319654
 21
1599.337968661903
  0
SPLINE
  5
C5
100
AcDbEntity
  8
D402
  6
ByLayer
 62
    3
370
   -1
100
AcDbSpline
210
0
220
0
230
0
 70
    8
 71
    3
 72
   10
 73
    6
 74
    0
 42
1e-07
 43
1e-07
 40
0
 40
0
 40
0
 40
0
 40
0.5486744
 40
0.5486744
 40
1
 40
1
 40
1
 40
1
 10
4638.214141036917
 20
1531.834512042754
 30
0
 10
4638.355067015408
 20
1532.041716273819
 30
0
 10
4638.47477383324
 20
1532.264196743997
 30
0
 10
4638.654862991931
 20
1532.684578026268
 30
0
 10
4638.721812932147
 20
1532.880357559819
 30
0
 10
4638.777006459869
 20
1533.079438828188
 30
0
  0
SPLINE
  5
C6
100
AcDbEntity
  8
D402
  6
ByLayer
 62
    3
370
   -1
100
AcDbSpline
210
0
220
0
230
0
 70
    8
 71
    3
 72
   11
 73
    7
 74
    0
 42
1e-07
 43
1e-07
 40
0
 40
0
 40
0
 40
0
 40
0.2758331
 40
0.5316949
 40
0.7717948
 40
1
 40
1
 40
1
 40
1
 10
4636.371527026053
 20
1530.344703667803
 30
0
 10
4636.485677066953
 20
1530.394395655102
 30
0
 10
4636.703009449154
 20
1530.496658985702
 30
0
 10
4637.007095243954
 20
1530.667205721703
 30
0
 10
4637.280247268453
 20
1530.847179486903
 30
0
 10
4637.448023437554
 20
1530.976136267103
 30
0
 10
4637.527071183153
 20
1531.042170426103
 30
0
  0
SPLINE
  5
C7
100
AcDbEntity
  8
D402
  6
ByLayer
 62
    3
370
   -1
100
AcDbSpline
210
0
220
0
230
0
 70
    8
 71
    3
 72
   10
 73
    6
 74
    0
 42
1e-07
 43
1e-07
 40
0
 40
0
 40
0
 40
0
 40
0.5406617
 40
0.5406617
 40
1
 40
1
 40
1
 40
1
 10
4480.557249541583
 20
1596.053566140755
 30
0
 10
4480.61371627593
 20
1596.327883183699
 30
0
 10
4480.686628918988
 20
1596.588254860036
 30
0
 10
4480.853181806697
 20
1597.030386150972
 30
0
 10
4480.941877472226
 20
1597.21766741111
 30
0
 10
4481.043036384419
 20
1597.388280753449
 30
0
  0
SPLINE
  5
C8
100
AcDbEntity
  8
D402
  6
ByLayer
 62
    3
370
   -1
100
AcDbSpline
210
0
220
0
230
0
 70
    8
 71
    3
 72
   10
 73
    6
 74
    0
 42
1e-07
 43
1e-07
 40
0
 40
0
 40
0
 40
0
 40
0.5835443
 40
0.5835443
 40
1
 40
1
 40
1
 40
1
 10
4480.557332865433
 20
1533.621948012341
 30
0
 10
4480.612276488098
 20
1533.329575887031
 30
0
 10
4480.6901372781
 20
1533.053692566729
 30
0
 10
4480.864652750259
 20
1532.615431004558
 30
0
 10
4480.94934989653
 20
1532.44337826663
 30
0
 10
4481.045956804382
 20
1532.282675269943
 30
0
  0
SPLINE
  5
C9
100
AcDbEntity
  8
D402
  6
ByLayer
 62
    3
370
   -1
100
AcDbSpline
210
0
220
0
230
0
 70
    8
 71
    3
 72
   12
 73
    8
 74
    0
 42
1e-07
 43
1e-07
 40
0
 40
0
 40
0
 40
0
 40
0.0237889
 40
0.3177597
 40
0.6375670999999999
 40
0.9872038
 40
1
 40
1
 40
1
 40
1
 10
4635.412828409354
 20
1599.635067339603
 30
0
 10
4635.402290341854
 20
1599.637638554503
 30
0
 10
4635.261364431454
 20
1599.671716788103
 30
0
 10
4634.974293029353
 20
1599.732996041902
 30
0
 10
4634.530491455553
 20
1599.806723113702
 30
0
 10
4634.210203069054
 20
1599.845840549203
 30
0
 10
4634.038745581554
 20
1599.863285741102
 30
0
 10
4634.032690417053
 20
1599.863897527603
 30
0
  0
LINE
  5
CA
100
AcDbEntity
  8
D402
  6
ByLayer
 62
    3
370
   -1
100
AcDbLine
 10
4529.587173319653
 20
1599.337968661903
 11
4533.587173319653
 21
1599.337968661903
  0
LINE
  5
CB
100
AcDbEntity
  8
D402
  6
ByLayer
 62
    3
370
   -1
100
AcDbLine
 10
4536.487173319653
 20
1599.337968661903
 11
4540.487173319653
 21
1599.337968661903
  0
LINE
  5
CC
100
AcDbEntity
  8
D402
  6
ByLayer
 62
    3
370
   -1
100
AcDbLine
 10
4543.387173319653
 20
1599.337968661903
 11
4547.387173319653
 21
1599.337968661903
  0
LINE
  5
CD
100
AcDbEntity
  8
D402
  6
ByLayer
 62
    3
370
   -1
100
AcDbLine
 10
4550.287173319654
 20
1599.337968661903
 11
4554.287173319654
 21
1599.337968661903
  0
LINE
  5
CE
100
AcDbEntity
  8
D402
  6
ByLayer
 62
    3
370
   -1
100
AcDbLine
 10
4557.187173319653
 20
1599.337968661903
 11
4561.187173319654
 21
1599.337968661903
  0
LINE
  5
CF
100
AcDbEntity
  8
D402
  6
ByLayer
 62
    3
370
   -1
100
AcDbLine
 10
4564.087173319654
 20
1599.337968661903
 11
4568.087173319653
 21
1599.337968661903
  0
LINE
  5
D0
100
AcDbEntity
  8
D402
  6
ByLayer
 62
    3
370
   -1
100
AcDbLine
 10
4570.987173319653
 20
1599.337968661903
 11
4574.987173319653
 21
1599.337968661903
  0
LINE
  5
D1
100
AcDbEntity
  8
D402
  6
ByLayer
 62
    3
370
   -1
100
AcDbLine
 10
4577.887173319653
 20
1599.337968661903
 11
4581.887173319652
 21
1599.337968661903
  0
LINE
  5
D2
100
AcDbEntity
  8
D402
  6
ByLayer
 62
    3
370
   -1
100
AcDbLine
 10
4591.687173319654
 20
1599.337968661903
 11
4595.687173319654
 21
1599.337968661903
  0
LINE
  5
D3
100
AcDbEntity
  8
D402
  6
ByLayer
 62
    3
370
   -1
100
AcDbLine
 10
4605.487173319653
 20
1599.337968661903
 11
4609.487173319653
 21
1599.337968661903
  0
LINE
  5
D4
100
AcDbEntity
  8
D402
  6
ByLayer
 62
    3
370
   -1
100
AcDbLine
 10
4616.387173319653
 20
1599.337968661903
 11
4612.387173319652
 21
1599.337968661903
  0
LINE
  5
D5
100
AcDbEntity
  8
D402
  6
ByLayer
 62
    3
370
   -1
100
AcDbLine
 10
4531.887173319653
 20
1530.323022525203
 11
4535.887173319653
 21
1530.323022525203
  0
LINE
  5
D6
100
AcDbEntity
  8
D402
  6
ByLayer
 62
    3
370
   -1
100
AcDbLine
 10
4538.887173319653
 20
1530.323022525203
 11
4542.887173319653
 21
1530.323022525203
  0
LINE
  5
D7
100
AcDbEntity
  8
D402
  6
ByLayer
 62
    3
370
   -1
100
AcDbLine
 10
4545.887173319653
 20
1530.323022525203
 11
4549.887173319652
 21
1530.323022525203
  0
LINE
  5
D8
100
AcDbEntity
  8
D402
  6
ByLayer
 62
    3
370
   -1
100
AcDbLine
 10
4587.887173319653
 20
1530.323022525203
 11
4591.887173319653
 21
1530.323022525203
  0
LINE
  5
D9
100
AcDbEntity
  8
D402
  6
ByLayer
 62
    3
370
   -1
100
AcDbLine
 10
4594.887173319653
 20
1530.323022525203
 11
4598.887173319653
 21
1530.323022525203
  0
LINE
  5
DA
100
AcDbEntity
  8
D402
  6
ByLayer
 62
    3
370
   -1
100
AcDbLine
 10
4601.887173319652
 20
1530.323022525203
 11
4605.887173319653
 21
1530.323022525203
  0
LINE
  5
DB
100
AcDbEntity
  8
D402
  6
ByLayer
 62
    3
370
   -1
100
AcDbLine
 10
4608.887173319653
 20
1530.323022525203
 11
4612.887173319653
 21
1530.323022525203
  0
SPLINE
  5
DC
100
AcDbEntity
  8
D402
  6
ByLayer
 62
    3
370
   -1
100
AcDbSpline
210
0
220
0
230
0
 70
    8
 71
    3
 72
   12
 73
    8
 74
    0
 42
1e-07
 43
1e-07
 40
0
 40
0
 40
0
 40
0
 40
0.09004669999999999
 40
0.3452673
 40
0.6134973
 40
0.8933555999999999
 40
1
 40
1
 40
1
 40
1
 10
4483.715932025653
 20
1530.589248443703
 30
0
 10
4483.757632183554
 20
1530.579575529403
 30
0
 10
4483.918487446454
 20
1530.543795379603
 30
0
 10
4484.210467165453
 20
1530.489026498703
 30
0
 10
4484.603201348053
 20
1530.433950932703
 30
0
 10
4484.930671154553
 20
1530.402449904303
 30
0
 10
4485.126426492154
 20
1530.389062571402
 30
0
 10
4485.180610508954
 20
1530.385755180203
 30
0
  0
SPLINE
  5
DD
100
AcDbEntity
  8
D402
  6
ByLayer
 62
    3
370
   -1
100
AcDbSpline
210
0
220
0
230
0
 70
    8
 71
    3
 72
   14
 73
   10
 74
    0
 42
1e-07
 43
1e-07
 40
0
 40
0
 40
0
 40
0
 40
0.1007204
 40
0.2393484
 40
0.3821433
 40
0.5305054
 40
0.6859440999999999
 40
0.8499211999999999
 40
1
 40
1
 40
1
 40
1
 10
4637.494755216253
 20
1598.625744655703
 30
0
 10
4637.463696410953
 20
1598.655450731303
 30
0
 10
4637.388124218653
 20
1598.724439262903
 30
0
 10
4637.260858676953
 20
1598.828491588002
 30
0
 10
4637.109066574853
 20
1598.937590558603
 30
0
 10
4636.942313074153
 20
1599.042582341403
 30
0
 10
4636.758459858653
 20
1599.143430743603
 30
0
 10
4636.565028874153
 20
1599.235164928403
 30
0
 10
4636.430321481554
 20
1599.290463426302
 30
0
 10
4636.364857041854
 20
1599.315552035703
 30
0
  0
SPLINE
  5
DE
100
AcDbEntity
  8
D402
  6
ByLayer
 62
    3
370
   -1
100
AcDbSpline
210
0
220
0
230
0
 70
    8
 71
    3
 72
    9
 73
    5
 74
    0
 42
1e-07
 43
1e-07
 40
0
 40
0
 40
0
 40
0
 40
0.2659155
 40
1
 40
1
 40
1
 40
1
 10
4485.179729658752
 20
1599.304791165903
 30
0
 10
4485.048117779554
 20
1599.294030850603
 30
0
 10
4484.553745780353
 20
1599.247356421503
 30
0
 10
4484.061637168355
 20
1599.173580035903
 30
0
 10
4483.704633825654
 20
1599.099841586503
 30
0
  0
SPLINE
  5
DF
100
AcDbEntity
  8
D402
  6
ByLayer
 62
    3
370
   -1
100
AcDbSpline
210
0
220
0
230
0
 70
    8
 71
    3
 72
   12
 73
    8
 74
    0
 42
1e-07
 43
1e-07
 40
0
 40
0
 40
0
 40
0
 40
0.264843
 40
0.5156568
 40
0.7581743999999999
 40
0.8786868
 40
1
 40
1
 40
1
 40
1
 10
4482.851192250554
 20
1598.840257039203
 30
0
 10
4482.734411630753
 20
1598.796991876103
 30
0
 10
4482.509920175954
 20
1598.704558156403
 30
0
 10
4482.192545668755
 20
1598.541153572103
 30
0
 10
4481.949625020553
 20
1598.384134847203
 30
0
 10
4481.769488157954
 20
1598.244580379003
 30
0
 10
4481.684072412252
 20
1598.169379303003
 30
0
 10
4481.642390133654
 20
1598.130433805003
 30
0
  0
SPLINE
  5
E0
100
AcDbEntity
  8
D402
  6
ByLayer
 62
    3
370
   -1
100
AcDbSpline
210
0
220
0
230
0
 70
    8
 71
    3
 72
   12
 73
    8
 74
    0
 42
1e-07
 43
1e-07
 40
0
 40
0
 40
0
 40
0
 40
0.4408149
 40
0.4408149
 40
0.8816297999999999
 40
0.8816297999999999
 40
1
 40
1
 40
1
 40
1
 10
4638.77704866429
 20
1596.596348092607
 30
0
 10
4638.721823724572
 20
1596.790814608314
 30
0
 10
4638.657524042174
 20
1596.98244143706
 30
0
 10
4638.501704417737
 20
1597.354589271993
 30
0
 10
4638.41065512769
 20
1597.535196098899
 30
0
 10
4638.275163652052
 20
1597.751792244232
 30
0
 10
4638.245348481087
 20
1597.796900527799
 30
0
 10
4638.214341488228
 20
1597.841134864749
 30
0
  0
SPLINE
  5
E1
100
AcDbEntity
  8
D402
  6
ByLayer
 62
    3
370
   -1
100
AcDbSpline
210
0
220
0
230
0
 70
    8
 71
    3
 72
   10
 73
    6
 74
    0
 42
1e-07
 43
1e-07
 40
0
 40
0
 40
0
 40
0
 40
0.2476582
 40
0.4955501
 40
1
 40
1
 40
1
 40
1
 10
4481.642390133654
 20
1531.545503390903
 30
0
 10
4481.729911765653
 20
1531.469024117103
 30
0
 10
4481.913162428654
 20
1531.325020114603
 30
0
 10
4482.309108824053
 20
1531.072115583003
 30
0
 10
4482.630586629554
 20
1530.921591961403
 30
0
 10
4482.851192250554
 20
1530.835680139103
 30
0
  0
SPLINE
  5
E2
100
AcDbEntity
  8
D402
  6
ByLayer
 62
    3
370
   -1
100
AcDbSpline
210
0
220
0
230
0
 70
    8
 71
    3
 72
   11
 73
    7
 74
    0
 42
1e-07
 43
1e-07
 40
0
 40
0
 40
0
 40
0
 40
0.2713354
 40
0.5284493
 40
0.7713664
 40
1
 40
1
 40
1
 40
1
 10
4634.035246606753
 20
1529.778053339003
 30
0
 10
4634.162374816254
 20
1529.790535353603
 30
0
 10
4634.409590413055
 20
1529.819033486303
 30
0
 10
4634.768486991355
 20
1529.875070988403
 30
0
 10
4635.105088265854
 20
1529.941654384003
 30
0
 10
4635.321069893754
 20
1529.993329306203
 30
0
 10
4635.425119445154
 20
1530.020884262603
 30
0
  0
LWPOLYLINE
  5
E3
100
AcDbEntity
  8
D403
  6
ByLayer
 62
    3
370
   -1
100
AcDbPolyline
 90
    3
 70
    0
 43
0
 10
4635.685715767503
 20
1559.87687051137
 10
4633.685715767503
 20
1559.87687051137
 10
4633.685715767503
 20
1561.87687051137
  0
LWPOLYLINE
  5
E4
100
AcDbEntity
  8
D403
  6
ByLayer
 62
    3
370
   -1
100
AcDbPolyline
 90
    4
 70
    0
 43
0
 10
4553.319280771087
 20
1564.036386138384
 10
4555.319280771086
 20
1564.036386138384
 10
4555.319280771086
 20
1562.036386138384
 10
4557.319280771086
 20
1562.036386138384
  0
LWPOLYLINE
  5
E5
100
AcDbEntity
  8
D402
  6
ByLayer
 62
    3
370
   -1
100
AcDbPolyline
 90
    4
 70
    0
 43
0
 10
4643.384330762629
 20
1564.040058941522
 10
4645.384330762629
 20
1564.040058941522
 10
4645.384330762629
 20
1562.040058941522
 10
4647.384330762629
 20
1562.040058941522
  0
CIRCLE
  5
E6
100
AcDbEntity
  8
D401
  6
ByLayer
 62
    3
370
   -1
100
AcDbCircle
 10
4619.887173319654
 20
1510.754668661903
 40
4.505
  0
CIRCLE
  5
E7
100
AcDbEntity
  8
D401
  6
ByLayer
 62
    3
370
   -1
100
AcDbCircle
 10
4619.887173319654
 20
1470.754668661903
 40
4.505
  0
CIRCLE
  5
E8
100
AcDbEntity
  8
D401
  6
ByLayer
 62
    3
370
   -1
100
AcDbCircle
 10
4579.887173319654
 20
1510.754668661903
 40
3.504999999999999
  0
CIRCLE
  5
E9
100
AcDbEntity
  8
D401
  6
ByLayer
 62
    3
370
   -1
100
AcDbCircle
 10
4535.887173319655
 20
1510.754668661903
 40
3.504999999999999
  0
CIRCLE
  5
EA
100
AcDbEntity
  8
D401
  6
ByLayer
 62
    3
370
   -1
100
AcDbCircle
 10
4579.887173319654
 20
1470.754668661903
 40
3.504999999999999
  0
CIRCLE
  5
EB
100
AcDbEntity
  8
D401
  6
ByLayer
 62
    3
370
   -1
100
AcDbCircle
 10
4535.887173319655
 20
1470.754668661903
 40
3.504999999999999
  0
CIRCLE
  5
EC
100
AcDbEntity
  8
D401
  6
ByLayer
 62
    3
370
   -1
100
AcDbCircle
 10
4496.887173319655
 20
1470.754668661903
 40
4.505
  0
LWPOLYLINE
  5
ED
100
AcDbEntity
  8
D402
  6
ByLayer
 62
    3
370
   -1
100
AcDbPolyline
 90
   37
 70
    0
 43
0
 10
4639.885329543553
 20
1518.052909264988
 10
4639.882730521093
 20
1520.995452563185
 42
0.104474993909347
 10
4639.319077732301
 20
1523.616368600938
 42
0.08224448706235504
 10
4638.447592889856
 20
1524.873136219087
 42
0.108731238796928
 10
4636.01271985618
 20
1526.398199741156
 42
0.05465371702778175
 10
4634.236752497883
 20
1526.85312971419
 42
0.0356616796813956
 10
4632.915362113447
 20
1526.944610044703
 10
4575.231045988751
 20
1526.944610044703
 10
4541.9115195824
 20
1526.944610044703
 10
4501.337333516484
 20
1526.944610044703
 10
4485.928932934816
 20
1526.944610044745
 42
0.1157963077285276
 10
4482.118199090769
 20
1526.089827840629
 42
0.1074590338995764
 10
4480.104464520599
 20
1524.541796332697
 42
0.09625537392121722
 10
4479.24719194775
 20
1522.896023273412
 42
0.06873577115526858
 10
4478.961152734609
 20
1520.970962759304
 10
4478.959081431957
 20
1460.730153495348
 42
0.07332987680100488
 10
4479.244707859129
 20
1458.621467447536
 42
0.0854855009204846
 10
4479.983139496714
 20
1457.125442595497
 42
0.07961009668344965
 10
4481.136478795067
 20
1456.00233424457
 42
0.06095235049254393
 10
4482.715346711441
 20
1455.155969968514
 42
0.02919880224972166
 10
4483.642935919141
 20
1454.851873437637
 42
0.06528416782271192
 10
4485.929000053339
 20
1454.564727131402
 10
4492.307264527741
 20
1454.564727131402
 10
4519.058371276449
 20
1454.564727131402
 10
4529.923357509568
 20
1454.564727131402
 10
4553.35399182472
 20
1454.564727131402
 10
4572.969204067343
 20
1454.564727131402
 10
4591.880131548888
 20
1454.564727131402
 10
4612.581506985232
 20
1454.564727131402
 10
4624.473647861207
 20
1454.564727131402
 10
4630.654417548575
 20
1454.564727131402
 10
4632.930156256289
 20
1454.564715169157
 42
0.1337398634190593
 10
4637.222031499269
 20
1455.686655891424
 42
0.1186179752462854
 10
4639.015934532674
 20
1457.349445262448
 42
0.0738568399851498
 10
4639.621830515748
 20
1458.69616287532
 42
0.0648957909524944
 10
4639.883256780278
 20
1460.538240517834
 10
4639.885329543553
 20
1509.391623036615
  0
LINE
  5
EE
100
AcDbEntity
  8
D403
  6
ByLayer
 62
    3
370
   -1
100
AcDbLine
 10
4639.885329543553
 20
1509.391623036615
 11
4639.885329543553
 21
1518.052909264988
  0
LWPOLYLINE
  5
EF
100
AcDbEntity
  8
D403
  6
ByLayer
 62
    3
370
   -1
100
AcDbPolyline
 90
  114
 70
    1
 43
0
 10
4629.387173319653
 20
1456.678645594343
 10
4623.650219255266
 20
1456.678639105878
 42
0.1767926462394365
 10
4623.335626346136
 20
1456.565394874175
 42
-0.1756483366758742
 10
4622.687173319653
 20
1456.330343601803
 10
4621.093860426213
 20
1456.330343601803
 42
-0.2068998812019476
 10
4619.984792124868
 20
1456.812239534021
 42
0.2653509003998385
 10
4618.743140815874
 20
1457.18668566032
 42
-0.05652248397968505
 10
4618.604160617752
 20
1457.170924294003
 10
4615.887179362595
 20
1457.170924294003
 42
-0.1936311621599812
 10
4615.180402028095
 20
1457.454304861557
 42
0.1933184761961828
 10
4613.927581525452
 20
1457.957496871103
 10
4531.737575730708
 20
1457.957496871581
 42
0.06880145716319107
 10
4531.464669686164
 20
1457.919699988183
 10
4530.165521350437
 20
1457.553134866733
 42
-0.06873337341080731
 10
4529.887173320804
 20
1457.514689610103
 10
4526.686419540351
 20
1457.514689241804
 42
-0.1625132641838554
 10
4526.199349234603
 20
1457.675358245997
 10
4524.794394201376
 20
1458.758797799153
 42
0.1539699509751414
 10
4524.51162621887
 20
1458.847996619426
 10
4523.387112204853
 20
1458.847996623203
 42
0.1308061873774147
 10
4523.142164613548
 20
1458.78279976714
 42
-0.002339867862250688
 10
4522.853548348968
 20
1458.617469807533
 42
-0.1212203642260649
 10
4522.613740036919
 20
1458.5499988391
 42
0.3651182534134235
 10
4521.854539526393
 20
1457.876475506782
 42
-0.3730794503325586
 10
4520.458571409802
 20
1456.678638828577
 10
4517.386763172342
 20
1456.678651994781
 42
-0.1967032175636598
 10
4516.885189575078
 20
1456.883778163186
 10
4516.336674363895
 20
1457.422788219167
 42
0.1956961822218261
 10
4515.990117044853
 20
1457.563829567603
 10
4505.482123580973
 20
1457.563829567603
 42
0.3843325932444583
 10
4504.994606464395
 20
1457.130712251158
 42
-0.3841065922265922
 10
4504.486608201097
 20
1456.678639396703
 10
4498.586623165573
 20
1456.678639396703
 42
0.1823742612895285
 10
4498.26304526777
 20
1456.55727962629
 42
-0.1818670105202446
 10
4497.925735491853
 20
1456.430391689303
 10
4493.248596119328
 20
1456.430391689303
 42
-0.1803148798275356
 10
4492.91132411709
 20
1456.5572597536
 42
0.1810870415915925
 10
4492.58717331964
 20
1456.678639105908
 10
4490.787197485354
 20
1456.678639105903
 42
-0.3731652068451775
 10
4490.281952545741
 20
1457.112478898297
 42
0.3736013719185441
 10
4489.697483063211
 20
1457.612982927303
 10
4487.137173319655
 20
1457.612982862003
 10
4485.765344205137
 20
1457.612982862003
 42
-0.1262342445170642
 10
4485.460833398803
 20
1457.691658851881
 10
4483.382292244053
 20
1458.877875909435
 42
-0.2670989186430923
 10
4483.077165799876
 20
1459.405508836034
 10
4483.077173319614
 20
1461.154677275665
 42
0.2914619155342568
 10
4482.794261159822
 20
1461.598774038102
 42
1.918451735657404e-05
 10
4481.129376557318
 20
1462.375115872815
 42
-0.2914847107364593
 10
4480.777173319696
 20
1462.927938822907
 10
4480.777173319654
 20
1506.754668236639
 42
-0.4142133328482393
 10
4481.287173319654
 20
1507.264667837003
 10
4481.637173394172
 20
1507.26466783701
 42
0.4142157453372197
 10
4481.927173319653
 20
1507.554665601102
 10
4481.927173321818
 20
1511.209677865775
 42
0.4538143951581803
 10
4481.484430137846
 20
1511.596504307764
 42
-0.01939210582851252
 10
4481.437172334742
 20
1511.594670980803
 42
-0.4142122059334456
 10
4480.827175016154
 20
1512.204671124402
 10
4480.827175016154
 20
1517.504687667313
 42
-0.4142101428097813
 10
4481.687165923703
 20
1518.364688699548
 10
4482.525297284768
 20
1518.365922200076
 42
0.3954111962570172
 10
4483.077174652701
 20
1518.954665579722
 10
4483.077174321919
 20
1521.653559723196
 42
-0.2220887609569748
 10
4483.259372748615
 20
1522.043672223697
 10
4485.230849828293
 20
1523.683741043076
 42
-0.1736868034470826
 10
4485.687173319654
 20
1523.847186455202
 10
4487.137173319655
 20
1523.847186455202
 10
4491.172290470179
 20
1523.847186455202
 42
0.3459215442597451
 10
4491.64906363132
 20
1524.217520131992
 42
-0.3454472652612953
 10
4492.437193570161
 20
1524.830698071543
 10
4496.887164226696
 20
1524.830684918933
 42
-0.1968808475211517
 10
4497.389173121684
 20
1524.625575224797
 10
4498.037673584646
 20
1523.988299739819
 42
0.195789311272355
 10
4498.384229594453
 20
1523.847186455202
 10
4505.788463058638
 20
1523.847186455202
 42
0.3990371322740185
 10
4506.277816560752
 20
1524.30445706437
 42
-0.3986242776170679
 10
4506.787204682281
 20
1524.781288230803
 10
4514.53897106895
 20
1524.781288226048
 42
0.172339686316428
 10
4514.850023243444
 20
1524.891441825207
 42
-0.1724982569689918
 10
4515.237173319653
 20
1525.029103463202
 10
4517.837143286455
 20
1525.029103463202
 42
-0.4134116158429193
 10
4519.747173319653
 20
1523.14701463222
 10
4519.747173319653
 20
1522.849883595617
 42
0.4137314790042489
 10
4520.337162872478
 20
1522.263331173902
 10
4526.999768459313
 20
1522.263331173902
 42
0.3653714672720265
 10
4527.482915259886
 20
1522.669607338399
 42
-0.3657597736267747
 10
4527.887191485922
 20
1523.008523884402
 10
4619.087199042165
 20
1523.008523884402
 42
0.4136885003528695
 10
4619.577173319654
 20
1523.492588352347
 10
4619.577173319653
 20
1524.525001413073
 42
-0.4128249956921957
 10
4620.087190710084
 20
1525.029103463209
 10
4629.387173319653
 20
1525.029107508141
 10
4634.237182127851
 20
1525.029109617602
 42
-0.1945515690110644
 10
4634.734400813537
 20
1524.827519652581
 10
4637.158622222231
 20
1522.434912294913
 42
-0.19161638915241
 10
4637.297173319655
 20
1522.086707950002
 10
4637.297173319654
 20
1503.254667391402
 42
0.414213562373784
 10
4637.587171242254
 20
1502.964669468803
 10
4637.687173320889
 20
1502.964669468803
 42
-0.4142135252522434
 10
4638.197173319654
 20
1502.454669405403
 10
4638.197173319654
 20
1482.454668382657
 42
0.07955731930725829
 10
4638.246673319712
 20
1482.1455409817
 42
-0.07955732066376818
 10
4638.297173319655
 20
1481.830168578022
 10
4638.297173319652
 20
1464.854682045119
 42
-0.1270094202047091
 10
4638.170923400681
 20
1464.365713163022
 42
0.1270118110699451
 10
4638.047173319654
 20
1463.886416893737
 10
4638.047163241411
 20
1459.555155735153
 42
-0.1998878008963781
 10
4637.751322930832
 20
1458.843837192531
 10
4637.151306260395
 20
1458.249382541701
 42
-0.1971951537682514
 10
4636.437166350172
 20
1457.957496871103
 10
4634.614830357381
 20
1457.957496875916
 42
0.1956292698622878
 10
4633.917308754322
 20
1457.674522833062
 10
4633.046424047324
 20
1456.82475651049
 42
-0.1957399203672294
 10
4632.687507070873
 20
1456.678649327003
  0
LWPOLYLINE
  5
F0
100
AcDbEntity
  8
D401
  6
ByLayer
 62
    3
370
   -1
100
AcDbPolyline
 90
   20
 70
    1
 43
0
 10
4488.370919688944
 20
1485.626637818389
 42
0.1402119507006518
 10
4492.525767279851
 20
1482.257668661899
 42
0.101020514433514
 10
4499.276561010954
 20
1480.879668661902
 10
4514.45595077655
 20
1480.879668661902
 42
0.2324283103569145
 10
4522.751115091069
 20
1485.023595105652
 42
0.01885211249289833
 10
4523.798556853047
 20
1486.329871136351
 42
0.1588450662848107
 10
4525.762173319652
 20
1492.354833137403
 10
4525.762173319653
 20
1505.955992594803
 42
0.1989123673796331
 10
4522.767340157287
 20
1513.186159432435
 10
4517.718664090186
 20
1518.234835499535
 42
0.1989123673796362
 10
4510.488497252553
 20
1521.229668661902
 10
4497.558901124555
 20
1521.229668661902
 42
0.1002450525063012
 10
4493.580441300877
 20
1520.423929908485
 42
0.06919090810681669
 10
4490.979513243851
 20
1518.853304171512
 42
0.02447710215906116
 10
4489.201952741333
 20
1517.344959508103
 42
0.03078114019552998
 10
4487.190062967541
 20
1515.213973290967
 42
0.03825583462597396
 10
4485.878572650049
 20
1513.430645419149
 42
0.1363807331534125
 10
4484.412173319654
 20
1508.154516221502
 10
4484.412173319654
 20
1494.504243671202
 42
0.1539147210631464
 10
4486.261343666845
 20
1488.639424609494
  0
LWPOLYLINE
  5
F1
100
AcDbEntity
  8
D401
  6
ByLayer
 62
    3
370
   -1
100
AcDbPolyline
 90
    8
 70
    1
 43
0
 10
4609.387173319652
 20
1515.774668661902
 10
4596.387173319652
 20
1515.774668661902
 42
0.4142135623729644
 10
4595.367173319654
 20
1514.754668661903
 10
4595.367173319655
 20
1466.754668661903
 42
0.4142135623729643
 10
4596.387173319652
 20
1465.734668661903
 10
4609.387173319652
 20
1465.734668661903
 42
0.4142135623728991
 10
4610.407173319652
 20
1466.754668661903
 10
4610.407173319653
 20
1514.754668661903
 42
0.4142135623729644
  0
LINE
  5
F2
100
AcDbEntity
  8
D402
  6
ByLayer
 62
    3
370
   -1
100
AcDbLine
 10
4552.887173319652
 20
1456.239722525203
 11
4556.887173319653
 21
1456.239722525203
  0
LINE
  5
F3
100
AcDbEntity
  8
D402
  6
ByLayer
 62
    3
370
   -1
100
AcDbLine
 10
4559.887173319653
 20
1456.239722525203
 11
4563.887173319653
 21
1456.239722525203
  0
LINE
  5
F4
100
AcDbEntity
  8
D402
  6
ByLayer
 62
    3
370
   -1
100
AcDbLine
 10
4566.887173319653
 20
1456.239722525203
 11
4570.887173319653
 21
1456.239722525203
  0
LINE
  5
F5
100
AcDbEntity
  8
D402
  6
ByLayer
 62
    3
370
   -1
100
AcDbLine
 10
4573.887173319653
 20
1456.239722525203
 11
4577.887173319653
 21
1456.239722525203
  0
LINE
  5
F6
100
AcDbEntity
  8
D402
  6
ByLayer
 62
    3
370
   -1
100
AcDbLine
 10
4580.887173319653
 20
1456.239722525203
 11
4584.887173319653
 21
1456.239722525203
  0
LINE
  5
F7
100
AcDbEntity
  8
D402
  6
ByLayer
 62
    3
370
   -1
100
AcDbLine
 10
4602.587173319654
 20
1525.254668661903
 11
4598.587173319653
 21
1525.254668661903
  0
LINE
  5
F8
100
AcDbEntity
  8
D402
  6
ByLayer
 62
    3
370
   -1
100
AcDbLine
 10
4588.787173319654
 20
1525.254668661903
 11
4584.787173319654
 21
1525.254668661903
  0
SPLINE
  5
F9
100
AcDbEntity
  8
D402
  6
ByLayer
 62
    3
370
   -1
100
AcDbSpline
210
0
220
0
230
0
 70
    8
 71
    3
 72
   10
 73
    6
 74
    0
 42
1e-07
 43
1e-07
 40
0
 40
0
 40
0
 40
0
 40
0.5486744
 40
0.5486744
 40
1
 40
1
 40
1
 40
1
 10
4638.214141036917
 20
1457.751212042754
 30
0
 10
4638.355067015408
 20
1457.958416273819
 30
0
 10
4638.47477383324
 20
1458.180896743997
 30
0
 10
4638.654862991931
 20
1458.601278026268
 30
0
 10
4638.721812932147
 20
1458.797057559818
 30
0
 10
4638.777006459869
 20
1458.996138828188
 30
0
  0
SPLINE
  5
FA
100
AcDbEntity
  8
D402
  6
ByLayer
 62
    3
370
   -1
100
AcDbSpline
210
0
220
0
230
0
 70
    8
 71
    3
 72
   11
 73
    7
 74
    0
 42
1e-07
 43
1e-07
 40
0
 40
0
 40
0
 40
0
 40
0.2758331
 40
0.5316949
 40
0.7717948
 40
1
 40
1
 40
1
 40
1
 10
4636.371527026053
 20
1456.261403667802
 30
0
 10
4636.485677066953
 20
1456.311095655102
 30
0
 10
4636.703009449154
 20
1456.413358985702
 30
0
 10
4637.007095243954
 20
1456.583905721703
 30
0
 10
4637.280247268453
 20
1456.763879486903
 30
0
 10
4637.448023437554
 20
1456.892836267102
 30
0
 10
4637.527071183153
 20
1456.958870426103
 30
0
  0
SPLINE
  5
FB
100
AcDbEntity
  8
D402
  6
ByLayer
 62
    3
370
   -1
100
AcDbSpline
210
0
220
0
230
0
 70
    8
 71
    3
 72
   10
 73
    6
 74
    0
 42
1e-07
 43
1e-07
 40
0
 40
0
 40
0
 40
0
 40
0.5406617
 40
0.5406617
 40
1
 40
1
 40
1
 40
1
 10
4480.557249541583
 20
1521.970266140755
 30
0
 10
4480.61371627593
 20
1522.244583183699
 30
0
 10
4480.686628918988
 20
1522.504954860036
 30
0
 10
4480.853181806697
 20
1522.947086150972
 30
0
 10
4480.941877472226
 20
1523.13436741111
 30
0
 10
4481.043036384419
 20
1523.304980753449
 30
0
  0
SPLINE
  5
FC
100
AcDbEntity
  8
D402
  6
ByLayer
 62
    3
370
   -1
100
AcDbSpline
210
0
220
0
230
0
 70
    8
 71
    3
 72
   10
 73
    6
 74
    0
 42
1e-07
 43
1e-07
 40
0
 40
0
 40
0
 40
0
 40
0.5835443
 40
0.5835443
 40
1
 40
1
 40
1
 40
1
 10
4480.557332865433
 20
1459.538648012341
 30
0
 10
4480.612276488098
 20
1459.246275887031
 30
0
 10
4480.6901372781
 20
1458.970392566729
 30
0
 10
4480.864652750259
 20
1458.532131004558
 30
0
 10
4480.94934989653
 20
1458.36007826663
 30
0
 10
4481.045956804382
 20
1458.199375269943
 30
0
  0
SPLINE
  5
FD
100
AcDbEntity
  8
D402
  6
ByLayer
 62
    3
370
   -1
100
AcDbSpline
210
0
220
0
230
0
 70
    8
 71
    3
 72
   12
 73
    8
 74
    0
 42
1e-07
 43
1e-07
 40
0
 40
0
 40
0
 40
0
 40
0.0237889
 40
0.3177597
 40
0.6375670999999999
 40
0.9872038
 40
1
 40
1
 40
1
 40
1
 10
4635.412828409354
 20
1525.551767339603
 30
0
 10
4635.402290341854
 20
1525.554338554503
 30
0
 10
4635.261364431454
 20
1525.588416788102
 30
0
 10
4634.974293029353
 20
1525.649696041902
 30
0
 10
4634.530491455553
 20
1525.723423113702
 30
0
 10
4634.210203069054
 20
1525.762540549203
 30
0
 10
4634.038745581554
 20
1525.779985741102
 30
0
 10
4634.032690417053
 20
1525.780597527603
 30
0
  0
LINE
  5
FE
100
AcDbEntity
  8
D402
  6
ByLayer
 62
    3
370
   -1
100
AcDbLine
 10
4529.587173319653
 20
1525.254668661903
 11
4533.587173319653
 21
1525.254668661903
  0
LINE
  5
FF
100
AcDbEntity
  8
D402
  6
ByLayer
 62
    3
370
   -1
100
AcDbLine
 10
4536.487173319653
 20
1525.254668661903
 11
4540.487173319653
 21
1525.254668661903
  0
LINE
  5
100
100
AcDbEntity
  8
D402
  6
ByLayer
 62
    3
370
   -1
100
AcDbLine
 10
4543.387173319653
 20
1525.254668661903
 11
4547.387173319653
 21
1525.254668661903
  0
LINE
  5
101
100
AcDbEntity
  8
D402
  6
ByLayer
 62
    3
370
   -1
100
AcDbLine
 10
4550.287173319654
 20
1525.254668661903
 11
4554.287173319654
 21
1525.254668661903
  0
LINE
  5
102
100
AcDbEntity
  8
D402
  6
ByLayer
 62
    3
370
   -1
100
AcDbLine
 10
4557.187173319653
 20
1525.254668661903
 11
4561.187173319654
 21
1525.254668661903
  0
LINE
  5
103
100
AcDbEntity
  8
D402
  6
ByLayer
 62
    3
370
   -1
100
AcDbLine
 10
4564.087173319654
 20
1525.254668661903
 11
4568.087173319653
 21
1525.254668661903
  0
LINE
  5
104
100
AcDbEntity
  8
D402
  6
ByLayer
 62
    3
370
   -1
100
AcDbLine
 10
4570.987173319653
 20
1525.254668661903
 11
4574.987173319653
 21
1525.254668661903
  0
LINE
  5
105
100
AcDbEntity
  8
D402
  6
ByLayer
 62
    3
370
   -1
100
AcDbLine
 10
4577.887173319653
 20
1525.254668661903
 11
4581.887173319652
 21
1525.254668661903
  0
LINE
  5
106
100
AcDbEntity
  8
D402
  6
ByLayer
 62
    3
370
   -1
100
AcDbLine
 10
4591.687173319654
 20
1525.254668661903
 11
4595.687173319654
 21
1525.254668661903
  0
LINE
  5
107
100
AcDbEntity
  8
D402
  6
ByLayer
 62
    3
370
   -1
100
AcDbLine
 10
4605.487173319653
 20
1525.254668661903
 11
4609.487173319653
 21
1525.254668661903
  0
LINE
  5
108
100
AcDbEntity
  8
D402
  6
ByLayer
 62
    3
370
   -1
100
AcDbLine
 10
4616.387173319653
 20
1525.254668661903
 11
4612.387173319652
 21
1525.254668661903
  0
LINE
  5
109
100
AcDbEntity
  8
D402
  6
ByLayer
 62
    3
370
   -1
100
AcDbLine
 10
4531.887173319653
 20
1456.239722525203
 11
4535.887173319653
 21
1456.239722525203
  0
LINE
  5
10A
100
AcDbEntity
  8
D402
  6
ByLayer
 62
    3
370
   -1
100
AcDbLine
 10
4538.887173319653
 20
1456.239722525203
 11
4542.887173319653
 21
1456.239722525203
  0
LINE
  5
10B
100
AcDbEntity
  8
D402
  6
ByLayer
 62
    3
370
   -1
100
AcDbLine
 10
4545.887173319653
 20
1456.239722525203
 11
4549.887173319652
 21
1456.239722525203
  0
LINE
  5
10C
100
AcDbEntity
  8
D402
  6
ByLayer
 62
    3
370
   -1
100
AcDbLine
 10
4587.887173319653
 20
1456.239722525203
 11
4591.887173319653
 21
1456.239722525203
  0
LINE
  5
10D
100
AcDbEntity
  8
D402
  6
ByLayer
 62
    3
370
   -1
100
AcDbLine
 10
4594.887173319653
 20
1456.239722525203
 11
4598.887173319653
 21
1456.239722525203
  0
LINE
  5
10E
100
AcDbEntity
  8
D402
  6
ByLayer
 62
    3
370
   -1
100
AcDbLine
 10
4601.887173319652
 20
1456.239722525203
 11
4605.887173319653
 21
1456.239722525203
  0
LINE
  5
10F
100
AcDbEntity
  8
D402
  6
ByLayer
 62
    3
370
   -1
100
AcDbLine
 10
4608.887173319653
 20
1456.239722525203
 11
4612.887173319653
 21
1456.239722525203
  0
SPLINE
  5
110
100
AcDbEntity
  8
D402
  6
ByLayer
 62
    3
370
   -1
100
AcDbSpline
210
0
220
0
230
0
 70
    8
 71
    3
 72
   12
 73
    8
 74
    0
 42
1e-07
 43
1e-07
 40
0
 40
0
 40
0
 40
0
 40
0.09004669999999999
 40
0.3452673
 40
0.6134973
 40
0.8933555999999999
 40
1
 40
1
 40
1
 40
1
 10
4483.715932025653
 20
1456.505948443703
 30
0
 10
4483.757632183554
 20
1456.496275529403
 30
0
 10
4483.918487446454
 20
1456.460495379603
 30
0
 10
4484.210467165453
 20
1456.405726498703
 30
0
 10
4484.603201348053
 20
1456.350650932703
 30
0
 10
4484.930671154553
 20
1456.319149904303
 30
0
 10
4485.126426492154
 20
1456.305762571402
 30
0
 10
4485.180610508954
 20
1456.302455180203
 30
0
  0
SPLINE
  5
111
100
AcDbEntity
  8
D402
  6
ByLayer
 62
    3
370
   -1
100
AcDbSpline
210
0
220
0
230
0
 70
    8
 71
    3
 72
   14
 73
   10
 74
    0
 42
1e-07
 43
1e-07
 40
0
 40
0
 40
0
 40
0
 40
0.1007204
 40
0.2393484
 40
0.3821433
 40
0.5305054
 40
0.6859440999999999
 40
0.8499211999999999
 40
1
 40
1
 40
1
 40
1
 10
4637.494755216253
 20
1524.542444655703
 30
0
 10
4637.463696410953
 20
1524.572150731302
 30
0
 10
4637.388124218653
 20
1524.641139262903
 30
0
 10
4637.260858676953
 20
1524.745191588002
 30
0
 10
4637.109066574853
 20
1524.854290558603
 30
0
 10
4636.942313074153
 20
1524.959282341403
 30
0
 10
4636.758459858653
 20
1525.060130743603
 30
0
 10
4636.565028874153
 20
1525.151864928403
 30
0
 10
4636.430321481554
 20
1525.207163426302
 30
0
 10
4636.364857041854
 20
1525.232252035702
 30
0
  0
SPLINE
  5
112
100
AcDbEntity
  8
D402
  6
ByLayer
 62
    3
370
   -1
100
AcDbSpline
210
0
220
0
230
0
 70
    8
 71
    3
 72
    9
 73
    5
 74
    0
 42
1e-07
 43
1e-07
 40
0
 40
0
 40
0
 40
0
 40
0.2659155
 40
1
 40
1
 40
1
 40
1
 10
4485.179729658752
 20
1525.221491165902
 30
0
 10
4485.048117779554
 20
1525.210730850603
 30
0
 10
4484.553745780353
 20
1525.164056421503
 30
0
 10
4484.061637168355
 20
1525.090280035903
 30
0
 10
4483.704633825654
 20
1525.016541586502
 30
0
  0
SPLINE
  5
113
100
AcDbEntity
  8
D402
  6
ByLayer
 62
    3
370
   -1
100
AcDbSpline
210
0
220
0
230
0
 70
    8
 71
    3
 72
   12
 73
    8
 74
    0
 42
1e-07
 43
1e-07
 40
0
 40
0
 40
0
 40
0
 40
0.264843
 40
0.5156568
 40
0.7581743999999999
 40
0.8786868
 40
1
 40
1
 40
1
 40
1
 10
4482.851192250554
 20
1524.756957039203
 30
0
 10
4482.734411630753
 20
1524.713691876103
 30
0
 10
4482.509920175954
 20
1524.621258156402
 30
0
 10
4482.192545668755
 20
1524.457853572102
 30
0
 10
4481.949625020553
 20
1524.300834847202
 30
0
 10
4481.769488157954
 20
1524.161280379003
 30
0
 10
4481.684072412252
 20
1524.086079303003
 30
0
 10
4481.642390133654
 20
1524.047133805002
 30
0
  0
SPLINE
  5
114
100
AcDbEntity
  8
D402
  6
ByLayer
 62
    3
370
   -1
100
AcDbSpline
210
0
220
0
230
0
 70
    8
 71
    3
 72
   12
 73
    8
 74
    0
 42
1e-07
 43
1e-07
 40
0
 40
0
 40
0
 40
0
 40
0.4408149
 40
0.4408149
 40
0.8816297999999999
 40
0.8816297999999999
 40
1
 40
1
 40
1
 40
1
 10
4638.77704866429
 20
1522.513048092607
 30
0
 10
4638.721823724572
 20
1522.707514608314
 30
0
 10
4638.657524042174
 20
1522.89914143706
 30
0
 10
4638.501704417737
 20
1523.271289271993
 30
0
 10
4638.41065512769
 20
1523.451896098899
 30
0
 10
4638.275163652052
 20
1523.668492244232
 30
0
 10
4638.245348481087
 20
1523.713600527799
 30
0
 10
4638.214341488228
 20
1523.757834864749
 30
0
  0
SPLINE
  5
115
100
AcDbEntity
  8
D402
  6
ByLayer
 62
    3
370
   -1
100
AcDbSpline
210
0
220
0
230
0
 70
    8
 71
    3
 72
   10
 73
    6
 74
    0
 42
1e-07
 43
1e-07
 40
0
 40
0
 40
0
 40
0
 40
0.2476582
 40
0.4955501
 40
1
 40
1
 40
1
 40
1
 10
4481.642390133654
 20
1457.462203390903
 30
0
 10
4481.729911765653
 20
1457.385724117103
 30
0
 10
4481.913162428654
 20
1457.241720114603
 30
0
 10
4482.309108824053
 20
1456.988815583003
 30
0
 10
4482.630586629554
 20
1456.838291961403
 30
0
 10
4482.851192250554
 20
1456.752380139103
 30
0
  0
SPLINE
  5
116
100
AcDbEntity
  8
D402
  6
ByLayer
 62
    3
370
   -1
100
AcDbSpline
210
0
220
0
230
0
 70
    8
 71
    3
 72
   11
 73
    7
 74
    0
 42
1e-07
 43
1e-07
 40
0
 40
0
 40
0
 40
0
 40
0.2713354
 40
0.5284493
 40
0.7713664
 40
1
 40
1
 40
1
 40
1
 10
4634.035246606753
 20
1455.694753339003
 30
0
 10
4634.162374816254
 20
1455.707235353603
 30
0
 10
4634.409590413055
 20
1455.735733486303
 30
0
 10
4634.768486991355
 20
1455.791770988402
 30
0
 10
4635.105088265854
 20
1455.858354384003
 30
0
 10
4635.321069893754
 20
1455.910029306203
 30
0
 10
4635.425119445154
 20
1455.937584262603
 30
0
  0
LWPOLYLINE
  5
117
100
AcDbEntity
  8
D403
  6
ByLayer
 62
    3
370
   -1
100
AcDbPolyline
 90
    3
 70
    0
 43
0
 10
4635.685715767503
 20
1485.79357051137
 10
4633.685715767503
 20
1485.79357051137
 10
4633.685715767503
 20
1487.79357051137
  0
LWPOLYLINE
  5
118
100
AcDbEntity
  8
D403
  6
ByLayer
 62
    3
370
   -1
100
AcDbPolyline
 90
    4
 70
    0
 43
0
 10
4553.319280771087
 20
1489.953086138384
 10
4555.319280771086
 20
1489.953086138384
 10
4555.319280771086
 20
1487.953086138384
 10
4557.319280771086
 20
1487.953086138384
  0
LWPOLYLINE
  5
119
100
AcDbEntity
  8
D402
  6
ByLayer
 62
    3
370
   -1
100
AcDbPolyline
 90
    4
 70
    0
 43
0
 10
4643.384330762629
 20
1489.956758941522
 10
4645.384330762629
 20
1489.956758941522
 10
4645.384330762629
 20
1487.956758941522
 10
4647.384330762629
 20
1487.956758941522
  0
LWPOLYLINE
  5
11A
100
AcDbEntity
  8
D403
  6
ByLayer
 62
    3
370
    0
100
AcDbPolyline
 90
    3
 70
    0
 43
0
 10
4568.359458460935
 20
1643.580502031643
 10
4570.358880657539
 20
1642.247937814206
 10
4572.359454595039
 20
1642.247937814206
  0
LWPOLYLINE
  5
11B
100
AcDbEntity
  8
D403
  6
ByLayer
 62
    3
370
    0
100
AcDbPolyline
 90
    2
 70
    0
 43
0
 10
4570.358880657539
 20
1642.247937814206
 10
4568.359458460935
 20
1640.914221855873
  0
LWPOLYLINE
  5
11C
100
AcDbEntity
  8
D403
  6
ByLayer
 62
    3
370
    0
100
AcDbPolyline
 90
    2
 70
    0
 43
0
 10
4572.359454595039
 20
1638.334763164184
 10
4568.359458460935
 20
1635.668482988414
  0
LWPOLYLINE
  5
11D
100
AcDbEntity
  8
D403
  6
ByLayer
 62
    3
370
    0
100
AcDbPolyline
 90
    2
 70
    0
 43
0
 10
4568.359458460935
 20
1638.334763164184
 10
4572.359454595039
 20
1635.668482988414
  0
LWPOLYLINE
  5
11E
100
AcDbEntity
  8
D403
  6
ByLayer
 62
    3
370
    0
100
AcDbPolyline
 90
    2
 70
    0
 43
0
 10
4569.026316440102
 20
1632.564185222127
 10
4568.359458460935
 20
1631.89732724296
  0
LWPOLYLINE
  5
11F
100
AcDbEntity
  8
D403
  6
ByLayer
 62
    3
370
    0
100
AcDbPolyline
 90
    2
 70
    0
 43
0
 10
4568.359458460935
 20
1631.89732724296
 10
4572.359454595039
 20
1631.89732724296
  0
LWPOLYLINE
  5
120
100
AcDbEntity
  8
D403
  6
ByLayer
 62
    3
370
    0
100
AcDbPolyline
 90
    2
 70
    0
 43
0
 10
4572.359454595039
 20
1632.564185222127
 10
4572.359454595039
 20
1631.23162100469
  0
LWPOLYLINE
  5
121
100
AcDbEntity
  8
D403
  6
ByLayer
 62
    3
370
    0
100
AcDbPolyline
 90
    2
 70
    0
 43
0
 10
4569.026316440102
 20
1560.060193584827
 10
4568.359458460935
 20
1559.393335605661
  0
LWPOLYLINE
  5
122
100
AcDbEntity
  8
D403
  6
ByLayer
 62
    3
370
    0
100
AcDbPolyline
 90
    2
 70
    0
 43
0
 10
4568.359458460935
 20
1559.393335605661
 10
4568.359458460935
 20
1558.059619647327
  0
LWPOLYLINE
  5
123
100
AcDbEntity
  8
D403
  6
ByLayer
 62
    3
370
    0
100
AcDbPolyline
 90
    2
 70
    0
 43
0
 10
4568.359458460935
 20
1558.059619647327
 10
4569.026316440102
 20
1557.392761668161
  0
LWPOLYLINE
  5
124
100
AcDbEntity
  8
D403
  6
ByLayer
 62
    3
370
    0
100
AcDbPolyline
 90
    2
 70
    0
 43
0
 10
4569.026316440102
 20
1557.392761668161
 10
4569.693174419269
 20
1557.392761668161
  0
LWPOLYLINE
  5
125
100
AcDbEntity
  8
D403
  6
ByLayer
 62
    3
370
    0
100
AcDbPolyline
 90
    2
 70
    0
 43
0
 10
4569.693174419269
 20
1557.392761668161
 10
4570.358880657539
 20
1558.059619647327
  0
LWPOLYLINE
  5
126
100
AcDbEntity
  8
D403
  6
ByLayer
 62
    3
370
    0
100
AcDbPolyline
 90
    2
 70
    0
 43
0
 10
4570.358880657539
 20
1558.059619647327
 10
4570.358880657539
 20
1559.393335605661
  0
LWPOLYLINE
  5
127
100
AcDbEntity
  8
D403
  6
ByLayer
 62
    3
370
    0
100
AcDbPolyline
 90
    2
 70
    0
 43
0
 10
4570.358880657539
 20
1559.393335605661
 10
4571.025738636705
 20
1560.060193584827
  0
LWPOLYLINE
  5
128
100
AcDbEntity
  8
D403
  6
ByLayer
 62
    3
370
    0
100
AcDbPolyline
 90
    2
 70
    0
 43
0
 10
4571.025738636705
 20
1560.060193584827
 10
4572.359454595039
 20
1560.060193584827
  0
LWPOLYLINE
  5
129
100
AcDbEntity
  8
D403
  6
ByLayer
 62
    3
370
    0
100
AcDbPolyline
 90
    2
 70
    0
 43
0
 10
4572.359454595039
 20
1560.060193584827
 10
4572.359454595039
 20
1557.392761668161
  0
LWPOLYLINE
  5
12A
100
AcDbEntity
  8
D403
  6
ByLayer
 62
    3
370
    0
100
AcDbPolyline
 90
    2
 70
    0
 43
0
 10
4569.026316440102
 20
1486.276442351131
 10
4568.359458460935
 20
1485.609584371964
  0
LWPOLYLINE
  5
12B
100
AcDbEntity
  8
D403
  6
ByLayer
 62
    3
370
    0
100
AcDbPolyline
 90
    2
 70
    0
 43
0
 10
4568.359458460935
 20
1485.609584371964
 10
4568.359458460935
 20
1484.277020154527
  0
LWPOLYLINE
  5
12C
100
AcDbEntity
  8
D403
  6
ByLayer
 62
    3
370
    0
100
AcDbPolyline
 90
    2
 70
    0
 43
0
 10
4568.359458460935
 20
1484.277020154527
 10
4569.026316440102
 20
1483.61016217536
  0
LWPOLYLINE
  5
12D
100
AcDbEntity
  8
D403
  6
ByLayer
 62
    3
370
    0
100
AcDbPolyline
 90
    2
 70
    0
 43
0
 10
4569.026316440102
 20
1483.61016217536
 10
4569.693174419269
 20
1483.61016217536
  0
LWPOLYLINE
  5
12E
100
AcDbEntity
  8
D403
  6
ByLayer
 62
    3
370
    0
100
AcDbPolyline
 90
    2
 70
    0
 43
0
 10
4569.693174419269
 20
1483.61016217536
 10
4570.358880657539
 20
1484.277020154527
  0
LWPOLYLINE
  5
12F
100
AcDbEntity
  8
D403
  6
ByLayer
 62
    3
370
    0
100
AcDbPolyline
 90
    2
 70
    0
 43
0
 10
4570.358880657539
 20
1484.277020154527
 10
4570.358880657539
 20
1484.942726392797
  0
LWPOLYLINE
  5
130
100
AcDbEntity
  8
D403
  6
ByLayer
 62
    3
370
    0
100
AcDbPolyline
 90
    2
 70
    0
 43
0
 10
4570.358880657539
 20
1484.277020154527
 10
4571.025738636705
 20
1483.61016217536
  0
LWPOLYLINE
  5
131
100
AcDbEntity
  8
D403
  6
ByLayer
 62
    3
370
    0
100
AcDbPolyline
 90
    2
 70
    0
 43
0
 10
4571.025738636705
 20
1483.61016217536
 10
4571.692596615872
 20
1483.61016217536
  0
LWPOLYLINE
  5
132
100
AcDbEntity
  8
D403
  6
ByLayer
 62
    3
370
    0
100
AcDbPolyline
 90
    2
 70
    0
 43
0
 10
4571.692596615872
 20
1483.61016217536
 10
4572.359454595039
 20
1484.277020154527
  0
LWPOLYLINE
  5
133
100
AcDbEntity
  8
D403
  6
ByLayer
 62
    3
370
    0
100
AcDbPolyline
 90
    2
 70
    0
 43
0
 10
4572.359454595039
 20
1484.277020154527
 10
4572.359454595039
 20
1485.609584371964
  0
LWPOLYLINE
  5
134
100
AcDbEntity
  8
D403
  6
ByLayer
 62
    3
370
    0
100
AcDbPolyline
 90
    2
 70
    0
 43
0
 10
4572.359454595039
 20
1485.609584371964
 10
4571.692596615872
 20
1486.276442351131
  0
LWPOLYLINE
  5
135
100
AcDbEntity
  8
D403
  6
ByLayer
 62
    3
370
    0
100
AcDbPolyline
 90
    3
 70
    0
 43
0
 10
4568.359458460935
 20
1569.497202031644
 10
4570.358880657539
 20
1568.164637814207
 10
4572.359454595039
 20
1568.164637814207
  0
LWPOLYLINE
  5
136
100
AcDbEntity
  8
D403
  6
ByLayer
 62
    3
370
    0
100
AcDbPolyline
 90
    2
 70
    0
 43
0
 10
4570.358880657539
 20
1568.164637814207
 10
4568.359458460935
 20
1566.830921855873
  0
LWPOLYLINE
  5
137
100
AcDbEntity
  8
D403
  6
ByLayer
 62
    3
370
    0
100
AcDbPolyline
 90
    2
 70
    0
 43
0
 10
4572.359454595039
 20
1564.251463164185
 10
4568.359458460935
 20
1561.585182988414
  0
LWPOLYLINE
  5
138
100
AcDbEntity
  8
D403
  6
ByLayer
 62
    3
370
    0
100
AcDbPolyline
 90
    2
 70
    0
 43
0
 10
4568.359458460935
 20
1564.251463164185
 10
4572.359454595039
 20
1561.585182988414
  0
LWPOLYLINE
  5
139
100
AcDbEntity
  8
D403
  6
ByLayer
 62
    3
370
    0
100
AcDbPolyline
 90
    3
 70
    0
 43
0
 10
4568.359458460935
 20
1495.413902031644
 10
4570.358880657539
 20
1494.081337814207
 10
4572.359454595039
 20
1494.081337814207
  0
LWPOLYLINE
  5
13A
100
AcDbEntity
  8
D403
  6
ByLayer
 62
    3
370
    0
100
AcDbPolyline
 90
    2
 70
    0
 43
0
 10
4570.358880657539
 20
1494.081337814207
 10
4568.359458460935
 20
1492.747621855873
  0
LWPOLYLINE
  5
13B
100
AcDbEntity
  8
D403
  6
ByLayer
 62
    3
370
    0
100
AcDbPolyline
 90
    2
 70
    0
 43
0
 10
4572.359454595039
 20
1490.168163164184
 10
4568.359458460935
 20
1487.501882988414
  0
LWPOLYLINE
  5
13C
100
AcDbEntity
  8
D403
  6
ByLayer
 62
    3
370
    0
100
AcDbPolyline
 90
    2
 70
    0
 43
0
 10
4568.359458460935
 20
1490.168163164184
 10
4572.359454595039
 20
1487.501882988414
  0
ENDSEC
  0
SECTION
  2
OBJECTS
  0
DICTIONARY
  5
C
330
0
100
AcDbDictionary
281
    1
  3
ACAD_GROUP
350
D
  0
DICTIONARY
  5
D
330
C
100
AcDbDictionary
281
    1
  0
PLOTSETTINGS
  5
13D
100
AcDbPlotSettings
  6
1x1
 40
0
 41
0
 42
0
 43
0
  0
ENDSEC
  0
EOF
