  0
SECTION
  2
HEADER
  9
$ACADVER
  1
AC1027
  9
$ACADMAINTVER
 70
   125
  9
$DWGCODEPAGE
  3
ANSI_936
  9
$LASTSAVEDBY
  1
admin
  9
$REQUIREDVERSIONS
160
                 0
  9
$INSBASE
 10
0.0
 20
0.0
 30
0.0
  9
$EXTMIN
 10
4478.95857667592
 20
1454.564274949346
 30
0.0
  9
$EXTMAX
 10
4647.384330762628
 20
1675.111629539224
 30
0.0
  9
$LIMMIN
 10
0.0
 20
0.0
  9
$LIMMAX
 10
420.0
 20
297.0
  9
$ORTHOMODE
 70
     1
  9
$REGENMODE
 70
     1
  9
$FILLMODE
 70
     1
  9
$QTEXTMODE
 70
     0
  9
$MIRRTEXT
 70
     0
  9
$LTSCALE
 40
1.0
  9
$ATTMODE
 70
     1
  9
$TEXTSIZE
 40
1.0
  9
$TRACEWID
 40
1.0
  9
$TEXTSTYLE
  7
STANDARD
  9
$CLAYER
  8
0
  9
$CELTYPE
  6
ByLayer
  9
$CECOLOR
 62
   256
  9
$CELTSCALE
 40
1.0
  9
$DISPSILH
 70
     0
  9
$DIMSCALE
 40
1.0
  9
$DIMASZ
 40
2.5
  9
$DIMEXO
 40
0.625
  9
$DIMDLI
 40
3.75
  9
$DIMRND
 40
0.0
  9
$DIMDLE
 40
0.0
  9
$DIMEXE
 40
1.25
  9
$DIMTP
 40
0.0
  9
$DIMTM
 40
0.0
  9
$DIMTXT
 40
2.5
  9
$DIMCEN
 40
2.5
  9
$DIMTSZ
 40
0.0
  9
$DIMTOL
 70
     0
  9
$DIMLIM
 70
     0
  9
$DIMTIH
 70
     0
  9
$DIMTOH
 70
     0
  9
$DIMSE1
 70
     0
  9
$DIMSE2
 70
     0
  9
$DIMTAD
 70
     1
  9
$DIMZIN
 70
     8
  9
$DIMBLK
  1

  9
$DIMASO
 70
     1
  9
$DIMSHO
 70
     1
  9
$DIMPOST
  1

  9
$DIMAPOST
  1

  9
$DIMALT
 70
     0
  9
$DIMALTD
 70
     3
  9
$DIMALTF
 40
0.03937007874016
  9
$DIMLFAC
 40
1.0
  9
$DIMTOFL
 70
     1
  9
$DIMTVP
 40
0.0
  9
$DIMTIX
 70
     0
  9
$DIMSOXD
 70
     0
  9
$DIMSAH
 70
     0
  9
$DIMBLK1
  1

  9
$DIMBLK2
  1

  9
$DIMSTYLE
  2
Standard
  9
$DIMCLRD
 70
     0
  9
$DIMCLRE
 70
     0
  9
$DIMCLRT
 70
     0
  9
$DIMTFAC
 40
1.0
  9
$DIMGAP
 40
0.625
  9
$DIMJUST
 70
     0
  9
$DIMSD1
 70
     0
  9
$DIMSD2
 70
     0
  9
$DIMTOLJ
 70
     0
  9
$DIMTZIN
 70
     8
  9
$DIMALTZ
 70
     0
  9
$DIMALTTZ
 70
     0
  9
$DIMUPT
 70
     0
  9
$DIMDEC
 70
     2
  9
$DIMTDEC
 70
     2
  9
$DIMALTU
 70
     2
  9
$DIMALTTD
 70
     3
  9
$DIMTXSTY
  7
STANDARD
  9
$DIMAUNIT
 70
     0
  9
$DIMADEC
 70
     0
  9
$DIMALTRND
 40
0.0
  9
$DIMAZIN
 70
     0
  9
$DIMDSEP
 70
    44
  9
$DIMATFIT
 70
     3
  9
$DIMFRAC
 70
     0
  9
$DIMLDRBLK
  1

  9
$DIMLUNIT
 70
     2
  9
$DIMLWD
 70
    -2
  9
$DIMLWE
 70
    -2
  9
$DIMTMOVE
 70
     0
  9
$DIMFXL
 40
1.0
  9
$DIMFXLON
 70
     0
  9
$DIMJOGANG
 40
0.7853981633974483
  9
$DIMTFILL
 70
     0
  9
$DIMTFILLCLR
 70
     0
  9
$DIMARCSYM
 70
     0
  9
$DIMLTYPE
  6
Continuous
  9
$DIMLTEX1
  6
Continuous
  9
$DIMLTEX2
  6
Continuous
  9
$DIMTXTDIRECTION
 70
     0
  9
$LUNITS
 70
     2
  9
$LUPREC
 70
     4
  9
$SKETCHINC
 40
1.0
  9
$FILLETRAD
 40
0.0
  9
$AUNITS
 70
     0
  9
$AUPREC
 70
     0
  9
$MENU
  1
.
  9
$ELEVATION
 40
0.0
  9
$PELEVATION
 40
0.0
  9
$THICKNESS
 40
0.0
  9
$LIMCHECK
 70
     0
  9
$CHAMFERA
 40
0.0
  9
$CHAMFERB
 40
0.0
  9
$CHAMFERC
 40
0.0
  9
$CHAMFERD
 40
0.0
  9
$SKPOLY
 70
     0
  9
$TDCREATE
 40
2460452.887870371
  9
$TDUCREATE
 40
2460452.554537037
  9
$TDUPDATE
 40
2460452.888541667
  9
$TDUUPDATE
 40
2460452.555208334
  9
$TDINDWG
 40
0.0006712963
  9
$TDUSRTIMER
 40
0.0006712963
  9
$USRTIMER
 70
     1
  9
$ANGBASE
 50
0.0
  9
$ANGDIR
 70
     0
  9
$PDMODE
 70
     0
  9
$PDSIZE
 40
0.0
  9
$PLINEWID
 40
0.0
  9
$SPLFRAME
 70
     0
  9
$SPLINETYPE
 70
     6
  9
$SPLINESEGS
 70
     8
  9
$HANDSEED
  5
20067
  9
$SURFTAB1
 70
     6
  9
$SURFTAB2
 70
     6
  9
$SURFTYPE
 70
     6
  9
$SURFU
 70
     6
  9
$SURFV
 70
     6
  9
$UCSBASE
  2

  9
$UCSNAME
  2

  9
$UCSORG
 10
0.0
 20
0.0
 30
0.0
  9
$UCSXDIR
 10
1.0
 20
0.0
 30
0.0
  9
$UCSYDIR
 10
0.0
 20
1.0
 30
0.0
  9
$UCSORTHOREF
  2

  9
$UCSORTHOVIEW
 70
     0
  9
$UCSORGTOP
 10
0.0
 20
0.0
 30
0.0
  9
$UCSORGBOTTOM
 10
0.0
 20
0.0
 30
0.0
  9
$UCSORGLEFT
 10
0.0
 20
0.0
 30
0.0
  9
$UCSORGRIGHT
 10
0.0
 20
0.0
 30
0.0
  9
$UCSORGFRONT
 10
0.0
 20
0.0
 30
0.0
  9
$UCSORGBACK
 10
0.0
 20
0.0
 30
0.0
  9
$PUCSBASE
  2

  9
$PUCSNAME
  2

  9
$PUCSORG
 10
0.0
 20
0.0
 30
0.0
  9
$PUCSXDIR
 10
1.0
 20
0.0
 30
0.0
  9
$PUCSYDIR
 10
0.0
 20
1.0
 30
0.0
  9
$PUCSORTHOREF
  2

  9
$PUCSORTHOVIEW
 70
     0
  9
$PUCSORGTOP
 10
0.0
 20
0.0
 30
0.0
  9
$PUCSORGBOTTOM
 10
0.0
 20
0.0
 30
0.0
  9
$PUCSORGLEFT
 10
0.0
 20
0.0
 30
0.0
  9
$PUCSORGRIGHT
 10
0.0
 20
0.0
 30
0.0
  9
$PUCSORGFRONT
 10
0.0
 20
0.0
 30
0.0
  9
$PUCSORGBACK
 10
0.0
 20
0.0
 30
0.0
  9
$USERI1
 70
     0
  9
$USERI2
 70
     0
  9
$USERI3
 70
     0
  9
$USERI4
 70
     0
  9
$USERI5
 70
     0
  9
$USERR1
 40
0.0
  9
$USERR2
 40
0.0
  9
$USERR3
 40
0.0
  9
$USERR4
 40
0.0
  9
$USERR5
 40
2.5
  9
$WORLDVIEW
 70
     1
  9
$SHADEDGE
 70
     3
  9
$SHADEDIF
 70
    70
  9
$TILEMODE
 70
     1
  9
$MAXACTVP
 70
    64
  9
$PINSBASE
 10
0.0
 20
0.0
 30
0.0
  9
$PLIMCHECK
 70
     0
  9
$PEXTMIN
 10
0.0
 20
0.0
 30
0.0
  9
$PEXTMAX
 10
0.0
 20
0.0
 30
0.0
  9
$PLIMMIN
 10
0.0
 20
0.0
  9
$PLIMMAX
 10
12.0
 20
9.0
  9
$UNITMODE
 70
     0
  9
$VISRETAIN
 70
     1
  9
$PLINEGEN
 70
     0
  9
$PSLTSCALE
 70
     1
  9
$TREEDEPTH
 70
  3020
  9
$CMLSTYLE
  2
Standard
  9
$CMLJUST
 70
     0
  9
$CMLSCALE
 40
20.0
  9
$PROXYGRAPHICS
 70
     1
  9
$MEASUREMENT
 70
     1
  9
$CELWEIGHT
370
    -1
  9
$ENDCAPS
280
     0
  9
$JOINSTYLE
280
     0
  9
$LWDISPLAY
290
     0
  9
$INSUNITS
 70
     4
  9
$HYPERLINKBASE
  1

  9
$STYLESHEET
  1

  9
$XEDIT
290
     1
  9
$CEPSNTYPE
380
     0
  9
$PSTYLEMODE
290
     1
  9
$FINGERPRINTGUID
  2
{BEAF99C1-7EBB-0240-92A1-C71DD4E9D68C}
  9
$VERSIONGUID
  2
{C402C390-3ACD-504C-B2FD-244A628D1E72}
  9
$EXTNAMES
290
     1
  9
$PSVPSCALE
 40
0.0
  9
$OLESTARTUP
290
     0
  9
$SORTENTS
280
   127
  9
$INDEXCTL
280
     0
  9
$HIDETEXT
280
     1
  9
$XCLIPFRAME
280
     0
  9
$HALOGAP
280
     0
  9
$OBSCOLOR
 70
   257
  9
$OBSLTYPE
280
     0
  9
$INTERSECTIONDISPLAY
280
     0
  9
$INTERSECTIONCOLOR
 70
   257
  9
$DIMASSOC
280
     2
  9
$PROJECTNAME
  1

  9
$CAMERADISPLAY
290
     0
  9
$LENSLENGTH
 40
50.0
  9
$CAMERAHEIGHT
 40
0.0
  9
$STEPSPERSEC
 40
2.0
  9
$STEPSIZE
 40
6.0
  9
$3DDWFPREC
 40
2.0
  9
$PSOLWIDTH
 40
0.25
  9
$PSOLHEIGHT
 40
4.0
  9
$LOFTANG1
 40
1.570796326794896
  9
$LOFTANG2
 40
1.570796326794896
  9
$LOFTMAG1
 40
0.0
  9
$LOFTMAG2
 40
0.0
  9
$LOFTPARAM
 70
     7
  9
$LOFTNORMALS
280
     1
  9
$LATITUDE
 40
37.795
  9
$LONGITUDE
 40
-122.394
  9
$NORTHDIRECTION
 40
0.0
  9
$TIMEZONE
 70
 -8000
  9
$LIGHTGLYPHDISPLAY
280
     1
  9
$TILEMODELIGHTSYNCH
280
     1
  9
$CMATERIAL
347
20005
  9
$SOLIDHIST
280
     0
  9
$SHOWHIST
280
     1
  9
$DWFFRAME
280
     2
  9
$DGNFRAME
280
     0
  9
$REALWORLDSCALE
290
     1
  9
$INTERFERECOLOR
 62
     1
  9
$INTERFEREOBJVS
345
20027
  9
$INTERFEREVPVS
346
20024
  9
$CSHADOW
280
     0
  9
$SHADOWPLANELOCATION
 40
0.0
  0
ENDSEC
  0
SECTION
  2
CLASSES
  0
CLASS
  1
PLOTSETTINGS
  2
AcDbPlotSettings
  3
ObjectDBX Classes
 90
        0
 91
        1
280
     0
281
     0
  0
CLASS
  1
ACDBDICTIONARYWDFLT
  2
AcDbDictionaryWithDefault
  3
ObjectDBX Classes
 90
        0
 91
        1
280
     0
281
     0
  0
CLASS
  1
MATERIAL
  2
AcDbMaterial
  3
ObjectDBX Classes
 90
     1153
 91
        3
280
     0
281
     0
  0
CLASS
  1
VISUALSTYLE
  2
AcDbVisualStyle
  3
ObjectDBX Classes
 90
     4095
 91
       24
280
     0
281
     0
  0
CLASS
  1
TABLESTYLE
  2
AcDbTableStyle
  3
ObjectDBX Classes
 90
     4095
 91
        1
280
     0
281
     0
  0
CLASS
  1
SCALE
  2
AcDbScale
  3
ObjectDBX Classes
 90
     1153
 91
       17
280
     0
281
     0
  0
CLASS
  1
MLEADERSTYLE
  2
AcDbMLeaderStyle
  3
ACDB_MLEADERSTYLE_CLASS
 90
     4095
 91
        1
280
     0
281
     0
  0
CLASS
  1
ACDBSECTIONVIEWSTYLE
  2
AcDbSectionViewStyle
  3
ObjectDBX Classes
 90
     1025
 91
        1
280
     0
281
     0
  0
CLASS
  1
ACDBDETAILVIEWSTYLE
  2
AcDbDetailViewStyle
  3
ObjectDBX Classes
 90
     1025
 91
        1
280
     0
281
     0
  0
CLASS
  1
DICTIONARYVAR
  2
AcDbDictionaryVar
  3
ObjectDBX Classes
 90
        0
 91
        5
280
     0
281
     0
  0
CLASS
  1
CELLSTYLEMAP
  2
AcDbCellStyleMap
  3
ObjectDBX Classes
 90
     1152
 91
        1
280
     0
281
     0
  0
ENDSEC
  0
SECTION
  2
TABLES
  0
TABLE
  2
VPORT
  5
8
330
0
100
AcDbSymbolTable
 70
     1
1001
ACAD
1000
DbSaveVer
1071
      224
  0
VPORT
  5
31
330
8
100
AcDbSymbolTableRecord
100
AcDbViewportTableRecord
  2
*ACTIVE
 70
     0
 10
0.0
 20
0.0
 11
1.0
 21
1.0
 12
4517.415659876427
 22
1586.976400365957
 13
0.0
 23
0.0
 14
10.0
 24
10.0
 15
10.0
 25
10.0
 16
0.0
 26
0.0
 36
1.0
 17
0.0
 27
0.0
 37
0.0
 40
235.8453491532127
 41
2.292712066905615
 42
50.0
 43
0.0
 44
0.0
 50
0.0
 51
0.0
 71
     0
 72
   100
 73
     1
 74
     3
 75
     0
 76
     1
 77
     0
 78
     0
281
     0
 65
     1
110
0.0
120
0.0
130
0.0
111
1.0
121
0.0
131
0.0
112
0.0
122
1.0
132
0.0
 79
     0
146
0.0
348
20023
 60
     7
 61
     5
292
     1
282
     1
141
0.0
142
0.0
 63
   160
421
  3358443
1001
ACAD_NAV_VCDISPLAY
1070
     3
  0
ENDTAB
  0
TABLE
  2
LTYPE
  5
5
330
0
100
AcDbSymbolTable
 70
    25
  0
LTYPE
  5
14
330
5
100
AcDbSymbolTableRecord
100
AcDbLinetypeTableRecord
  2
ByBlock
 70
     0
  3

 72
    65
 73
     0
 40
0.0
  0
LTYPE
  5
15
330
5
100
AcDbSymbolTableRecord
100
AcDbLinetypeTableRecord
  2
ByLayer
 70
     0
  3

 72
    65
 73
     0
 40
0.0
  0
LTYPE
  5
16
330
5
100
AcDbSymbolTableRecord
100
AcDbLinetypeTableRecord
  2
Continuous
 70
     0
  3
Solid line
 72
    65
 73
     0
 40
0.0
  0
LTYPE
  5
32
330
5
100
AcDbSymbolTableRecord
100
AcDbLinetypeTableRecord
  2
DOT
 70
     0
  3
Dot . . . . . . . . . . . . . . . . . . . . . .
 72
    65
 73
     2
 40
6.349999999999999
 49
0.0
 74
     0
 49
-6.349999999999999
 74
     0
  0
LTYPE
  5
33
330
5
100
AcDbSymbolTableRecord
100
AcDbLinetypeTableRecord
  2
DOTTINY
 70
     0
  3
Dot (.15x) .....................................
 72
    65
 73
     2
 40
0.9525
 49
0.0
 74
     0
 49
-0.9525
 74
     0
  0
LTYPE
  5
34
330
5
100
AcDbSymbolTableRecord
100
AcDbLinetypeTableRecord
  2
DOT2
 70
     0
  3
Dot (.5x) .....................................
 72
    65
 73
     2
 40
3.174999999999999
 49
0.0
 74
     0
 49
-3.174999999999999
 74
     0
  0
LTYPE
  5
35
330
5
100
AcDbSymbolTableRecord
100
AcDbLinetypeTableRecord
  2
DOTX2
 70
     0
  3
Dot (2x) .  .  .  .  .  .  .  .  .  .  .  .  .
 72
    65
 73
     2
 40
12.7
 49
0.0
 74
     0
 49
-12.7
 74
     0
  0
LTYPE
  5
36
330
5
100
AcDbSymbolTableRecord
100
AcDbLinetypeTableRecord
  2
DASHED
 70
     0
  3
Dashed _ _ _ _ _ _ _ _ _ _ _ _ _ _ _ _ _
 72
    65
 73
     2
 40
19.05
 49
12.7
 74
     0
 49
-6.349999999999999
 74
     0
  0
LTYPE
  5
37
330
5
100
AcDbSymbolTableRecord
100
AcDbLinetypeTableRecord
  2
DASHEDTINY
 70
     0
  3
Dashed (.15x) _ _ _ _ _ _ _ _ _ _ _ _ _ _ _ _ _
 72
    65
 73
     2
 40
2.857499999999999
 49
1.905
 74
     0
 49
-0.9525
 74
     0
  0
LTYPE
  5
38
330
5
100
AcDbSymbolTableRecord
100
AcDbLinetypeTableRecord
  2
DASHED2
 70
     0
  3
Dashed (.5x) _ _ _ _ _ _ _ _ _ _ _ _ _ _ _ _ _
 72
    65
 73
     2
 40
9.525
 49
6.349999999999999
 74
     0
 49
-3.174999999999999
 74
     0
  0
LTYPE
  5
39
330
5
100
AcDbSymbolTableRecord
100
AcDbLinetypeTableRecord
  2
DASHEDX2
 70
     0
  3
Dashed (2x) ____  ____  ____  ____  ____  ___
 72
    65
 73
     2
 40
38.09999999999999
 49
25.4
 74
     0
 49
-12.7
 74
     0
  0
LTYPE
  5
3A
330
5
100
AcDbSymbolTableRecord
100
AcDbLinetypeTableRecord
  2
DASHDOT
 70
     0
  3
Dash dot __ . __ . __ . __ . __ . __ . __ . __
 72
    65
 73
     4
 40
25.4
 49
12.7
 74
     0
 49
-6.349999999999999
 74
     0
 49
0.0
 74
     0
 49
-6.349999999999999
 74
     0
  0
LTYPE
  5
3B
330
5
100
AcDbSymbolTableRecord
100
AcDbLinetypeTableRecord
  2
DASHDOTTINY
 70
     0
  3
Dash dot (.15x) _._._._._._._._._._._._._._._.
 72
    65
 73
     4
 40
3.81
 49
1.905
 74
     0
 49
-0.9525
 74
     0
 49
0.0
 74
     0
 49
-0.9525
 74
     0
  0
LTYPE
  5
3C
330
5
100
AcDbSymbolTableRecord
100
AcDbLinetypeTableRecord
  2
DASHDOT2
 70
     0
  3
Dash dot (.5x) _._._._._._._._._._._._._._._.
 72
    65
 73
     4
 40
12.7
 49
6.349999999999999
 74
     0
 49
-3.174999999999999
 74
     0
 49
0.0
 74
     0
 49
-3.174999999999999
 74
     0
  0
LTYPE
  5
3D
330
5
100
AcDbSymbolTableRecord
100
AcDbLinetypeTableRecord
  2
DASHDOTX2
 70
     0
  3
Dash dot (2x) ____  .  ____  .  ____  .  ___
 72
    65
 73
     4
 40
50.8
 49
25.4
 74
     0
 49
-12.7
 74
     0
 49
0.0
 74
     0
 49
-12.7
 74
     0
  0
LTYPE
  5
3E
330
5
100
AcDbSymbolTableRecord
100
AcDbLinetypeTableRecord
  2
DIVIDE
 70
     0
  3
Divide ____ . . ____ . . ____ . . ____ . . ____
 72
    65
 73
     6
 40
31.75
 49
12.7
 74
     0
 49
-6.349999999999999
 74
     0
 49
0.0
 74
     0
 49
-6.349999999999999
 74
     0
 49
0.0
 74
     0
 49
-6.349999999999999
 74
     0
  0
LTYPE
  5
3F
330
5
100
AcDbSymbolTableRecord
100
AcDbLinetypeTableRecord
  2
DIVIDETINY
 70
     0
  3
Divide (.15x) __..__..__..__..__..__..__..__.._
 72
    65
 73
     6
 40
4.7625
 49
1.905
 74
     0
 49
-0.9525
 74
     0
 49
0.0
 74
     0
 49
-0.9525
 74
     0
 49
0.0
 74
     0
 49
-0.9525
 74
     0
  0
LTYPE
  5
40
330
5
100
AcDbSymbolTableRecord
100
AcDbLinetypeTableRecord
  2
DIVIDE2
 70
     0
  3
Divide (.5x) __..__..__..__..__..__..__..__.._
 72
    65
 73
     6
 40
15.875
 49
6.349999999999999
 74
     0
 49
-3.174999999999999
 74
     0
 49
0.0
 74
     0
 49
-3.174999999999999
 74
     0
 49
0.0
 74
     0
 49
-3.174999999999999
 74
     0
  0
LTYPE
  5
41
330
5
100
AcDbSymbolTableRecord
100
AcDbLinetypeTableRecord
  2
DIVIDEX2
 70
     0
  3
Divide (2x) ________  .  .  ________  .  .  _
 72
    65
 73
     6
 40
63.5
 49
25.4
 74
     0
 49
-12.7
 74
     0
 49
0.0
 74
     0
 49
-12.7
 74
     0
 49
0.0
 74
     0
 49
-12.7
 74
     0
  0
LTYPE
  5
42
330
5
100
AcDbSymbolTableRecord
100
AcDbLinetypeTableRecord
  2
BORDER
 70
     0
  3
Border __ __ . __ __ . __ __ . __ __ . __ __ .
 72
    65
 73
     6
 40
44.45
 49
12.7
 74
     0
 49
-6.349999999999999
 74
     0
 49
12.7
 74
     0
 49
-6.349999999999999
 74
     0
 49
0.0
 74
     0
 49
-6.349999999999999
 74
     0
  0
LTYPE
  5
43
330
5
100
AcDbSymbolTableRecord
100
AcDbLinetypeTableRecord
  2
BORDERTINY
 70
     0
  3
Border (.15x) __.__.__.__.__.__.__.__.__.__.__.
 72
    65
 73
     6
 40
6.6675
 49
1.905
 74
     0
 49
-0.9525
 74
     0
 49
1.905
 74
     0
 49
-0.9525
 74
     0
 49
0.0
 74
     0
 49
-0.9525
 74
     0
  0
LTYPE
  5
44
330
5
100
AcDbSymbolTableRecord
100
AcDbLinetypeTableRecord
  2
BORDER2
 70
     0
  3
Border (.5x) __.__.__.__.__.__.__.__.__.__.__.
 72
    65
 73
     6
 40
22.225
 49
6.349999999999999
 74
     0
 49
-3.174999999999999
 74
     0
 49
6.349999999999999
 74
     0
 49
-3.174999999999999
 74
     0
 49
0.0
 74
     0
 49
-3.174999999999999
 74
     0
  0
LTYPE
  5
45
330
5
100
AcDbSymbolTableRecord
100
AcDbLinetypeTableRecord
  2
BORDERX2
 70
     0
  3
Border (2x) ____  ____  .  ____  ____  .  ___
 72
    65
 73
     6
 40
88.89999999999998
 49
25.4
 74
     0
 49
-12.7
 74
     0
 49
25.4
 74
     0
 49
-12.7
 74
     0
 49
0.0
 74
     0
 49
-12.7
 74
     0
  0
LTYPE
  5
46
330
5
100
AcDbSymbolTableRecord
100
AcDbLinetypeTableRecord
  2
CENTER
 70
     0
  3
Center ____ _ ____ _ ____ _ ____ _ ____ _ ____
 72
    65
 73
     4
 40
50.8
 49
31.75
 74
     0
 49
-6.349999999999999
 74
     0
 49
6.349999999999999
 74
     0
 49
-6.349999999999999
 74
     0
  0
LTYPE
  5
47
330
5
100
AcDbSymbolTableRecord
100
AcDbLinetypeTableRecord
  2
CENTERTINY
 70
     0
  3
Center (.15x) ___ _ ___ _ ___ _ ___ _ ___ _ ___
 72
    65
 73
     4
 40
7.62
 49
4.7625
 74
     0
 49
-0.9525
 74
     0
 49
0.9525
 74
     0
 49
-0.9525
 74
     0
  0
LTYPE
  5
48
330
5
100
AcDbSymbolTableRecord
100
AcDbLinetypeTableRecord
  2
CENTER2
 70
     0
  3
Center (.5x) ___ _ ___ _ ___ _ ___ _ ___ _ ___
 72
    65
 73
     4
 40
28.575
 49
19.05
 74
     0
 49
-3.174999999999999
 74
     0
 49
3.174999999999999
 74
     0
 49
-3.174999999999999
 74
     0
  0
LTYPE
  5
49
330
5
100
AcDbSymbolTableRecord
100
AcDbLinetypeTableRecord
  2
CENTERX2
 70
     0
  3
Center (2x) ________  __  ________  __  _____
 72
    65
 73
     4
 40
101.6
 49
63.5
 74
     0
 49
-12.7
 74
     0
 49
12.7
 74
     0
 49
-12.7
 74
     0
  0
ENDTAB
  0
TABLE
  2
LAYER
  5
2
330
0
100
AcDbSymbolTable
 70
    28
  0
LAYER
  5
10
330
2
100
AcDbSymbolTableRecord
100
AcDbLayerTableRecord
  2
0
 70
     0
 62
     7
  6
Continuous
370
    -3
390
F
347
20015
348
0
  0
LAYER
  5
4A
330
2
100
AcDbSymbolTableRecord
100
AcDbLayerTableRecord
  2
1
 70
     0
 62
     7
  6
Continuous
370
    -3
390
F
347
20015
348
0
  0
LAYER
  5
4B
330
2
100
AcDbSymbolTableRecord
100
AcDbLayerTableRecord
  2
CENTER
 70
     0
 62
     1
  6
CENTER2
370
    15
390
F
347
20015
348
0
  0
LAYER
  5
4C
330
2
100
AcDbSymbolTableRecord
100
AcDbLayerTableRecord
  2
D201
 70
     0
 62
     1
  6
Continuous
370
    25
390
F
347
20015
348
0
  0
LAYER
  5
4D
330
2
100
AcDbSymbolTableRecord
100
AcDbLayerTableRecord
  2
D202
 70
     0
 62
     5
  6
Continuous
370
    25
390
F
347
20015
348
0
  0
LAYER
  5
4E
330
2
100
AcDbSymbolTableRecord
100
AcDbLayerTableRecord
  2
D203
 70
     0
 62
     3
  6
Continuous
370
    25
390
F
347
20015
348
0
  0
LAYER
  5
4F
330
2
100
AcDbSymbolTableRecord
100
AcDbLayerTableRecord
  2
D401
 70
     0
 62
     1
  6
Continuous
370
    25
390
F
347
20015
348
0
  0
LAYER
  5
50
330
2
100
AcDbSymbolTableRecord
100
AcDbLayerTableRecord
  2
D402
 70
     0
 62
     5
  6
Continuous
370
    25
390
F
347
20015
348
0
  0
LAYER
  5
51
330
2
100
AcDbSymbolTableRecord
100
AcDbLayerTableRecord
  2
D403
 70
     0
 62
     3
  6
Continuous
370
    25
390
F
347
20015
348
0
  0
LAYER
  5
52
330
2
100
AcDbSymbolTableRecord
100
AcDbLayerTableRecord
  2
D601
 70
     0
 62
     1
  6
Continuous
370
    25
390
F
347
20015
348
0
  0
LAYER
  5
53
330
2
100
AcDbSymbolTableRecord
100
AcDbLayerTableRecord
  2
D602
 70
     0
 62
     5
  6
Continuous
370
    25
390
F
347
20015
348
0
  0
LAYER
  5
54
330
2
100
AcDbSymbolTableRecord
100
AcDbLayerTableRecord
  2
Defpoints
 70
     0
 62
     7
  6
Continuous
290
     0
370
    -3
390
F
347
20015
348
0
  0
LAYER
  5
55
330
2
100
AcDbSymbolTableRecord
100
AcDbLayerTableRecord
  2
KISSCUT1
 70
     0
 62
     3
  6
Continuous
370
    18
390
F
347
20015
348
0
  0
LAYER
  5
56
330
2
100
AcDbSymbolTableRecord
100
AcDbLayerTableRecord
  2
KISSCUT3
 70
     0
 62
     6
  6
Continuous
370
    18
390
F
347
20015
348
0
  0
LAYER
  5
57
330
2
100
AcDbSymbolTableRecord
100
AcDbLayerTableRecord
  2
LAYER_1
 70
     0
 62
     7
  6
DASHDOT2
370
    15
390
F
347
20015
348
0
  0
LAYER
  5
58
330
2
100
AcDbSymbolTableRecord
100
AcDbLayerTableRecord
  2
THK
 70
     0
 62
     6
  6
Continuous
370
    -3
390
F
347
20015
348
0
  0
LAYER
  5
59
330
2
100
AcDbSymbolTableRecord
100
AcDbLayerTableRecord
  2
cc
 70
     0
 62
     7
  6
Continuous
370
    18
390
F
347
20015
348
0
  0
LAYER
  5
5A
330
2
100
AcDbSymbolTableRecord
100
AcDbLayerTableRecord
  2
dim
 70
     0
 62
   214
  6
Continuous
370
    15
390
F
347
20015
348
0
  0
LAYER
  5
5B
330
2
100
AcDbSymbolTableRecord
100
AcDbLayerTableRecord
  2
jz
 70
     0
 62
     5
  6
Continuous
370
    18
390
F
347
20015
348
0
  0
LAYER
  5
5C
330
2
100
AcDbSymbolTableRecord
100
AcDbLayerTableRecord
  2
kisscut2
 70
     0
 62
     5
  6
Continuous
370
    18
390
F
347
20015
348
0
  0
LAYER
  5
5D
330
2
100
AcDbSymbolTableRecord
100
AcDbLayerTableRecord
  2
line
 70
     0
 62
     7
  6
Continuous
370
    30
390
F
347
20015
348
0
  0
LAYER
  5
5E
330
2
100
AcDbSymbolTableRecord
100
AcDbLayerTableRecord
  2
qc
 70
     0
 62
     4
  6
Continuous
370
    20
390
F
347
20015
348
0
  0
LAYER
  5
5F
330
2
100
AcDbSymbolTableRecord
100
AcDbLayerTableRecord
  2
sx
 70
     0
 62
     8
  6
Continuous
370
    18
390
F
347
20015
348
0
  0
LAYER
  5
60
330
2
100
AcDbSymbolTableRecord
100
AcDbLayerTableRecord
  2
zxx
 70
     0
 62
     6
  6
CENTER
370
    18
390
F
347
20015
348
0
  0
LAYER
  5
61
330
2
100
AcDbSymbolTableRecord
100
AcDbLayerTableRecord
  2
半切
 70
     0
 62
     1
  6
Continuous
370
    -3
390
F
347
20015
348
0
  0
LAYER
  5
62
330
2
100
AcDbSymbolTableRecord
100
AcDbLayerTableRecord
  2
尺寸线层
 70
     0
 62
     3
  6
Continuous
370
    18
390
F
347
20015
348
0
  0
LAYER
  5
63
330
2
100
AcDbSymbolTableRecord
100
AcDbLayerTableRecord
  2
总
 70
     0
 62
     7
  6
Continuous
370
    18
390
F
347
20015
348
0
  0
LAYER
  5
64
330
2
100
AcDbSymbolTableRecord
100
AcDbLayerTableRecord
  2
标题
 70
     0
 62
     7
  6
Continuous
370
    -3
390
F
347
20015
348
0
  0
ENDTAB
  0
TABLE
  2
STYLE
  5
3
330
0
100
AcDbSymbolTable
 70
     1
  0
STYLE
  5
65
330
3
100
AcDbSymbolTableRecord
100
AcDbTextStyleTableRecord
  2
STANDARD
 70
     0
 40
0.0
 41
1.0
 50
0.0
 71
     0
 42
1.0
  3
STANDARD
  4

  0
ENDTAB
  0
TABLE
  2
VIEW
  5
6
330
0
100
AcDbSymbolTable
 70
     0
  0
ENDTAB
  0
TABLE
  2
UCS
  5
7
330
0
100
AcDbSymbolTable
 70
     0
  0
ENDTAB
  0
TABLE
  2
APPID
  5
9
330
0
100
AcDbSymbolTable
 70
     3
  0
APPID
  5
12
330
9
100
AcDbSymbolTableRecord
100
AcDbRegAppTableRecord
  2
ACAD
 70
     0
  0
APPID
  5
66
330
9
100
AcDbSymbolTableRecord
100
AcDbRegAppTableRecord
  2
LibreCad
 70
     0
  0
APPID
  5
2005F
330
9
100
AcDbSymbolTableRecord
100
AcDbRegAppTableRecord
  2
ACAD_NAV_VCDISPLAY
 70
     0
  0
ENDTAB
  0
TABLE
  2
DIMSTYLE
  5
A
330
0
100
AcDbSymbolTable
 70
     1
100
AcDbDimStyleTable
 71
     0
  0
DIMSTYLE
105
67
330
A
100
AcDbSymbolTableRecord
100
AcDbDimStyleTableRecord
  2
Standard
 70
     0
 41
2.5
 42
0.625
 44
1.25
 73
     0
 78
     8
140
2.5
147
0.625
271
     2
278
    44
  0
ENDTAB
  0
TABLE
  2
BLOCK_RECORD
  5
1
330
0
100
AcDbSymbolTable
 70
     3
  0
BLOCK_RECORD
  5
1F
330
1
100
AcDbSymbolTableRecord
100
AcDbBlockTableRecord
  2
*Model_Space
340
20055
 70
     0
280
     1
281
     0
  0
BLOCK_RECORD
  5
1E
330
1
100
AcDbSymbolTableRecord
100
AcDbBlockTableRecord
  2
*Paper_Space
340
20056
 70
     0
280
     1
281
     0
  0
BLOCK_RECORD
  5
68
330
1
100
AcDbSymbolTableRecord
100
AcDbBlockTableRecord
  2
_Open30
340
0
 70
     0
280
     1
281
     0
  0
BLOCK_RECORD
  5
6B
330
1
100
AcDbSymbolTableRecord
100
AcDbBlockTableRecord
  2
Kuai
340
0
 70
     0
280
     1
281
     0
  0
BLOCK_RECORD
  5
6E
330
1
100
AcDbSymbolTableRecord
100
AcDbBlockTableRecord
  2
A$C199D21A7
340
0
 70
     0
280
     1
281
     0
  0
ENDTAB
  0
ENDSEC
  0
SECTION
  2
BLOCKS
  0
BLOCK
  5
20
330
1F
100
AcDbEntity
  8
0
100
AcDbBlockBegin
  2
*Model_Space
 70
     0
 10
0.0
 20
0.0
 30
0.0
  3
*Model_Space
  1

  0
ENDBLK
  5
21
330
1F
100
AcDbEntity
  8
0
100
AcDbBlockEnd
  0
BLOCK
  5
1C
330
1E
100
AcDbEntity
 67
     1
  8
0
100
AcDbBlockBegin
  2
*Paper_Space
 70
     0
 10
0.0
 20
0.0
 30
0.0
  3
*Paper_Space
  1

  0
ENDBLK
  5
1D
330
1E
100
AcDbEntity
 67
     1
  8
0
100
AcDbBlockEnd
  0
BLOCK
  5
69
330
68
100
AcDbEntity
  8
0
100
AcDbBlockBegin
  2
_Open30
 70
     0
 10
0.0
 20
0.0
 30
0.0
  3
_Open30
  1

  0
LINE
  5
71
330
68
100
AcDbEntity
  8
0
  6
ByBlock
 62
     0
370
    -2
100
AcDbLine
 10
-1.0
 20
0.26794919
 30
0.0
 11
0.0
 21
0.0
 31
0.0
  0
LINE
  5
72
330
68
100
AcDbEntity
  8
0
  6
ByBlock
 62
     0
370
    -2
100
AcDbLine
 10
0.0
 20
0.0
 30
0.0
 11
-1.0
 21
-0.26794919
 31
0.0
  0
LINE
  5
73
330
68
100
AcDbEntity
  8
0
  6
ByBlock
 62
     0
370
    -2
100
AcDbLine
 10
0.0
 20
0.0
 30
0.0
 11
-1.0
 21
0.0
 31
0.0
  0
ENDBLK
  5
6A
330
68
100
AcDbEntity
  8
0
100
AcDbBlockEnd
  0
BLOCK
  5
6C
330
6B
100
AcDbEntity
  8
0
100
AcDbBlockBegin
  2
Kuai
 70
     0
 10
0.0
 20
0.0
 30
0.0
  3
Kuai
  1

  0
LWPOLYLINE
  5
74
330
6B
100
AcDbEntity
  8
line
100
AcDbPolyline
 90
        3
 70
     1
 43
0.0
 10
0.0
 20
0.0
 10
1.743831742110159
 20
3.020405177186033
 10
-1.743831742110159
 20
3.020405177186033
  0
LINE
  5
75
330
6B
100
AcDbEntity
  8
line
100
AcDbLine
 10
1.743831742110159
 20
3.020405177186033
 30
0.0
 11
3.544165038221307
 21
6.016562055577367
 31
0.0
  0
MTEXT
  5
76
330
6B
100
AcDbEntity
  8
line
100
AcDbMText
 10
-1.89813434947973
 20
5.58805538802255
 30
0.0
 40
1.919999999999999
 41
3.199999999999998
 46
0.0
 71
     1
 72
     5
  1
0.4
 73
     1
 44
1.0
  0
ENDBLK
  5
6D
330
6B
100
AcDbEntity
  8
0
100
AcDbBlockEnd
  0
BLOCK
  5
6F
330
6E
100
AcDbEntity
  8
0
100
AcDbBlockBegin
  2
A$C199D21A7
 70
     0
 10
0.0
 20
0.0
 30
0.0
  3
A$C199D21A7
  1

  0
MTEXT
  5
77
330
6E
100
AcDbEntity
  8
jz
100
AcDbMText
 10
-0.7431331563966525
 20
1.688348796575154
 30
0.0
 40
2.309999999999999
 41
3.849999999999998
 46
0.0
 71
     1
 72
     1
  1
0.4
 73
     1
 44
1.0
  0
LINE
  5
78
330
6E
100
AcDbEntity
  8
jz
100
AcDbLine
 10
3.260171406884181
 20
-1.038120128949231
 30
0.0
 11
-0.7281444647342143
 21
-1.038120128949231
 31
0.0
  0
LINE
  5
79
330
6E
100
AcDbEntity
  8
jz
100
AcDbLine
 10
3.260171406884181
 20
-1.038120128949231
 30
0.0
 11
-0.7281444647342143
 21
-1.038120128949231
 31
0.0
  0
LINE
  5
7A
330
6E
100
AcDbEntity
  8
jz
100
AcDbLine
 10
1.291242044651879
 20
-3.806774453907563
 30
0.0
 11
5.283793345424783
 21
1.807441392797044
 31
0.0
  0
LINE
  5
7B
330
6E
100
AcDbEntity
  8
jz
100
AcDbLine
 10
1.291242044651879
 20
-3.806774453907563
 30
0.0
 11
5.283793345424783
 21
1.807441392797044
 31
0.0
  0
LINE
  5
7C
330
6E
100
AcDbEntity
  8
jz
100
AcDbLine
 10
-0.7281444647342143
 20
-1.038120128949231
 30
0.0
 11
1.291242044651879
 21
-3.806774453907563
 31
0.0
  0
LINE
  5
7D
330
6E
100
AcDbEntity
  8
jz
100
AcDbLine
 10
-0.7281444647342143
 20
-1.038120128949231
 30
0.0
 11
1.291242044651879
 21
-3.806774453907563
 31
0.0
  0
ENDBLK
  5
70
330
6E
100
AcDbEntity
  8
0
100
AcDbBlockEnd
  0
ENDSEC
  0
SECTION
  2
ENTITIES
  0
CIRCLE
  5
7E
330
1F
100
AcDbEntity
  8
D401
 62
     3
100
AcDbCircle
 10
4619.887173319654
 20
1658.921268661902
 30
0.0
 40
4.504999999999999
  0
CIRCLE
  5
7F
330
1F
100
AcDbEntity
  8
D401
 62
     3
100
AcDbCircle
 10
4619.887173319654
 20
1618.921268661902
 30
0.0
 40
4.504999999999999
  0
CIRCLE
  5
80
330
1F
100
AcDbEntity
  8
D401
 62
     3
100
AcDbCircle
 10
4579.887173319654
 20
1658.921268661902
 30
0.0
 40
3.504999999999999
  0
CIRCLE
  5
81
330
1F
100
AcDbEntity
  8
D401
 62
     3
100
AcDbCircle
 10
4535.887173319655
 20
1658.921268661902
 30
0.0
 40
3.504999999999999
  0
CIRCLE
  5
82
330
1F
100
AcDbEntity
  8
D401
 62
     3
100
AcDbCircle
 10
4579.887173319654
 20
1618.921268661902
 30
0.0
 40
3.504999999999999
  0
CIRCLE
  5
83
330
1F
100
AcDbEntity
  8
D401
 62
     3
100
AcDbCircle
 10
4535.887173319655
 20
1618.921268661902
 30
0.0
 40
3.504999999999999
  0
CIRCLE
  5
84
330
1F
100
AcDbEntity
  8
D401
 62
     3
100
AcDbCircle
 10
4496.887173319655
 20
1618.921268661902
 30
0.0
 40
4.504999999999999
  0
LWPOLYLINE
  5
85
330
1F
100
AcDbEntity
  8
D402
 62
     3
100
AcDbPolyline
 90
       37
 70
     0
 43
0.0
 10
4639.885329543552
 20
1666.219509264988
 10
4639.882730521093
 20
1669.162052563185
 42
0.1044749939093468
 10
4639.319077732301
 20
1671.782968600939
 42
0.0822444870623589
 10
4638.447592889855
 20
1673.039736219086
 42
0.108731238796933
 10
4636.01271985618
 20
1674.564799741155
 42
0.0546537170277794
 10
4634.236752497883
 20
1675.019729714191
 42
0.0356616796813969
 10
4632.915362113447
 20
1675.111210044702
 10
4575.231045988751
 20
1675.111210044702
 10
4541.9115195824
 20
1675.111210044702
 10
4501.337333516484
 20
1675.111210044702
 10
4485.928932934816
 20
1675.111210044746
 42
0.1157963077285279
 10
4482.118199090769
 20
1674.256427840629
 42
0.1074590338995677
 10
4480.104464520598
 20
1672.708396332698
 42
0.0962553739212219
 10
4479.247191947751
 20
1671.062623273412
 42
0.0687357711552686
 10
4478.961152734608
 20
1669.137562759304
 10
4478.959081431957
 20
1608.896753495347
 42
0.073329876801003
 10
4479.244707859129
 20
1606.788067447536
 42
0.0854855009204908
 10
4479.983139496714
 20
1605.292042595498
 42
0.0796100966834486
 10
4481.136478795067
 20
1604.168934244571
 42
0.0609523504925448
 10
4482.715346711441
 20
1603.322569968515
 42
0.0291988022497217
 10
4483.642935919141
 20
1603.018473437638
 42
0.0652841678227128
 10
4485.929000053339
 20
1602.731327131403
 10
4492.307264527741
 20
1602.731327131403
 10
4519.058371276449
 20
1602.731327131403
 10
4529.923357509567
 20
1602.731327131403
 10
4553.35399182472
 20
1602.731327131403
 10
4572.969204067343
 20
1602.731327131403
 10
4591.880131548888
 20
1602.731327131403
 10
4612.581506985232
 20
1602.731327131403
 10
4624.473647861207
 20
1602.731327131403
 10
4630.654417548575
 20
1602.731327131403
 10
4632.930156256288
 20
1602.731315169157
 42
0.1337398634190593
 10
4637.222031499269
 20
1603.853255891424
 42
0.1186179752462901
 10
4639.015934532673
 20
1605.516045262447
 42
0.0738568399851538
 10
4639.621830515748
 20
1606.862762875319
 42
0.0648957909524946
 10
4639.883256780278
 20
1608.704840517833
 10
4639.885329543552
 20
1657.558223036616
  0
LINE
  5
86
330
1F
100
AcDbEntity
  8
D403
 62
     3
100
AcDbLine
 10
4639.885329543552
 20
1657.558223036616
 30
0.0
 11
4639.885329543552
 21
1666.219509264988
 31
0.0
  0
LWPOLYLINE
  5
87
330
1F
100
AcDbEntity
  8
D403
 62
     3
100
AcDbPolyline
 90
      114
 70
     1
 43
0.0
 10
4629.387173319653
 20
1604.845245594344
 10
4623.650219255266
 20
1604.845239105878
 42
0.1767926462394365
 10
4623.335626346135
 20
1604.731994874175
 42
-0.1756483366758742
 10
4622.687173319653
 20
1604.496943601803
 10
4621.093860426213
 20
1604.496943601803
 42
-0.2068998812019476
 10
4619.984792124868
 20
1604.978839534021
 42
0.2653509003998319
 10
4618.743140815873
 20
1605.353285660321
 42
-0.0565224839796795
 10
4618.604160617752
 20
1605.337524294003
 10
4615.887179362594
 20
1605.337524294003
 42
-0.1936311621600769
 10
4615.180402028095
 20
1605.620904861558
 42
0.1933184761962013
 10
4613.927581525452
 20
1606.124096871102
 10
4531.737575730708
 20
1606.124096871581
 42
0.0688014571631947
 10
4531.464669686164
 20
1606.086299988182
 10
4530.165521350437
 20
1605.719734866734
 42
-0.0687333734108042
 10
4529.887173320804
 20
1605.681289610103
 10
4526.686419540351
 20
1605.681289241805
 42
-0.1625132641838269
 10
4526.199349234603
 20
1605.841958245997
 10
4524.794394201375
 20
1606.925397799153
 42
0.1539699509752947
 10
4524.51162621887
 20
1607.014596619426
 10
4523.387112204853
 20
1607.014596623202
 42
0.1308061873775502
 10
4523.142164613548
 20
1606.949399767141
 42
-0.0023398678622507
 10
4522.853548348968
 20
1606.784069807534
 42
-0.1212203642260667
 10
4522.613740036919
 20
1606.7165988391
 42
0.3651182534134235
 10
4521.854539526393
 20
1606.043075506782
 42
-0.3730794503325376
 10
4520.458571409802
 20
1604.845238828576
 10
4517.386763172342
 20
1604.845251994782
 42
-0.1967032175636756
 10
4516.885189575077
 20
1605.050378163186
 10
4516.336674363895
 20
1605.589388219168
 42
0.1956961822220444
 10
4515.990117044853
 20
1605.730429567604
 10
4505.482123580973
 20
1605.730429567604
 42
0.3843325932444583
 10
4504.994606464395
 20
1605.297312251159
 42
-0.3841065922269741
 10
4504.486608201097
 20
1604.845239396703
 10
4498.586623165572
 20
1604.845239396703
 42
0.1823742612895672
 10
4498.26304526777
 20
1604.723879626289
 42
-0.1818670105202446
 10
4497.925735491853
 20
1604.596991689302
 10
4493.248596119328
 20
1604.596991689302
 42
-0.1803148798275
 10
4492.91132411709
 20
1604.723859753601
 42
0.1810870415914751
 10
4492.58717331964
 20
1604.845239105908
 10
4490.787197485354
 20
1604.845239105903
 42
-0.3731652068455549
 10
4490.281952545741
 20
1605.279078898298
 42
0.3736013719187039
 10
4489.697483063211
 20
1605.779582927303
 10
4487.137173319655
 20
1605.779582862003
 10
4485.765344205137
 20
1605.779582862003
 42
-0.1262342445170642
 10
4485.460833398803
 20
1605.858258851881
 10
4483.382292244053
 20
1607.044475909435
 42
-0.2670989186430923
 10
4483.077165799875
 20
1607.572108836034
 10
4483.077173319614
 20
1609.321277275665
 42
0.2914619155343827
 10
4482.794261159821
 20
1609.765374038096
 42
0.0000191845173566
 10
4481.129376557316
 20
1610.541715872809
 42
-0.2914847107362057
 10
4480.777173319696
 20
1611.094538822908
 10
4480.777173319654
 20
1654.921268236639
 42
-0.4142133328478476
 10
4481.287173319654
 20
1655.431267837004
 10
4481.637173394172
 20
1655.431267837011
 42
0.4142157453372198
 10
4481.927173319653
 20
1655.721265601103
 10
4481.927173321818
 20
1659.376277865776
 42
0.4538143951580049
 10
4481.484430137846
 20
1659.763104307765
 42
-0.019392105828505
 10
4481.437172334742
 20
1659.761270980803
 42
-0.4142122059334456
 10
4480.827175016154
 20
1660.371271124402
 10
4480.827175016154
 20
1665.671287667313
 42
-0.4142101428097814
 10
4481.687165923703
 20
1666.531288699548
 10
4482.525297284769
 20
1666.532522200077
 42
0.395411196256676
 10
4483.0771746527
 20
1667.121265579722
 10
4483.077174321919
 20
1669.820159723196
 42
-0.2220887609569748
 10
4483.259372748615
 20
1670.210272223697
 10
4485.230849828293
 20
1671.850341043076
 42
-0.1736868034471119
 10
4485.687173319654
 20
1672.013786455203
 10
4487.137173319655
 20
1672.013786455203
 10
4491.172290470179
 20
1672.013786455203
 42
0.3459215442595099
 10
4491.64906363132
 20
1672.384120131991
 42
-0.3454472652612957
 10
4492.437193570161
 20
1672.997298071542
 10
4496.887164226696
 20
1672.997284918934
 42
-0.1968808475213093
 10
4497.389173121684
 20
1672.792175224796
 10
4498.037673584645
 20
1672.15489973982
 42
0.195789311272355
 10
4498.384229594453
 20
1672.013786455203
 10
4505.788463058638
 20
1672.013786455203
 42
0.3990371322743961
 10
4506.277816560753
 20
1672.47105706437
 42
-0.3986242776172995
 10
4506.787204682281
 20
1672.947888230802
 10
4514.53897106895
 20
1672.947888226048
 42
0.1723396863161603
 10
4514.850023243444
 20
1673.058041825206
 42
-0.1724982569690011
 10
4515.237173319652
 20
1673.195703463203
 10
4517.837143286455
 20
1673.195703463203
 42
-0.4134116158429196
 10
4519.747173319653
 20
1671.313614632221
 10
4519.747173319653
 20
1671.016483595618
 42
0.4137314790039107
 10
4520.337162872478
 20
1670.429931173902
 10
4526.999768459313
 20
1670.429931173902
 42
0.3653714672720265
 10
4527.482915259886
 20
1670.836207338399
 42
-0.3657597736267747
 10
4527.887191485922
 20
1671.175123884402
 10
4619.087199042165
 20
1671.175123884402
 42
0.4136885003528695
 10
4619.577173319654
 20
1671.659188352347
 10
4619.577173319652
 20
1672.691601413072
 42
-0.4128249956924604
 10
4620.087190710084
 20
1673.19570346321
 10
4629.387173319653
 20
1673.19570750814
 10
4634.237182127851
 20
1673.195709617602
 42
-0.1945515690110644
 10
4634.734400813537
 20
1672.994119652581
 10
4637.15862222223
 20
1670.601512294913
 42
-0.19161638915241
 10
4637.297173319655
 20
1670.253307950002
 10
4637.297173319653
 20
1651.421267391402
 42
0.4142135623744729
 10
4637.587171242254
 20
1651.131269468804
 10
4637.687173320889
 20
1651.131269468804
 42
-0.4142135252522435
 10
4638.197173319654
 20
1650.621269405402
 10
4638.197173319654
 20
1630.621268382657
 42
0.0795573193072639
 10
4638.246673319712
 20
1630.312140981701
 42
-0.0795573206637628
 10
4638.297173319656
 20
1629.996768578022
 10
4638.297173319652
 20
1613.021282045119
 42
-0.1270094202047091
 10
4638.170923400681
 20
1612.532313163022
 42
0.1270118110699962
 10
4638.047173319653
 20
1612.053016893736
 10
4638.047163241411
 20
1607.721755735154
 42
-0.1998878008964116
 10
4637.751322930831
 20
1607.010437192531
 10
4637.151306260395
 20
1606.415982541702
 42
-0.1971951537682546
 10
4636.437166350172
 20
1606.124096871102
 10
4634.614830357381
 20
1606.124096875917
 42
0.1956292698621535
 10
4633.917308754322
 20
1605.841122833062
 10
4633.046424047324
 20
1604.99135651049
 42
-0.1957399203672294
 10
4632.687507070873
 20
1604.845249327003
  0
LWPOLYLINE
  5
88
330
1F
100
AcDbEntity
  8
D401
 62
     3
100
AcDbPolyline
 90
       20
 70
     1
 43
0.0
 10
4488.370919688943
 20
1633.793237818388
 42
0.1402119507006611
 10
4492.52576727985
 20
1630.424268661898
 42
0.1010205144335131
 10
4499.276561010954
 20
1629.046268661902
 10
4514.45595077655
 20
1629.046268661902
 42
0.2324283103569145
 10
4522.751115091068
 20
1633.190195105653
 42
0.0188521124928986
 10
4523.798556853048
 20
1634.496471136351
 42
0.1588450662848169
 10
4525.762173319652
 20
1640.521433137402
 10
4525.762173319653
 20
1654.122592594803
 42
0.1989123673796254
 10
4522.767340157287
 20
1661.352759432434
 10
4517.718664090186
 20
1666.401435499535
 42
0.1989123673796267
 10
4510.488497252553
 20
1669.396268661903
 10
4497.558901124555
 20
1669.396268661903
 42
0.1002450525063012
 10
4493.580441300877
 20
1668.590529908486
 42
0.0691909081068167
 10
4490.97951324385
 20
1667.019904171513
 42
0.0244771021590612
 10
4489.201952741333
 20
1665.511559508104
 42
0.0307811401955308
 10
4487.190062967539
 20
1663.380573290968
 42
0.0382558346259732
 10
4485.87857265005
 20
1661.597245419151
 42
0.1363807331534187
 10
4484.412173319654
 20
1656.321116221502
 10
4484.412173319654
 20
1642.670843671203
 42
0.1539147210631422
 10
4486.261343666845
 20
1636.806024609494
  0
LWPOLYLINE
  5
89
330
1F
100
AcDbEntity
  8
D401
 62
     3
100
AcDbPolyline
 90
        8
 70
     1
 43
0.0
 10
4609.387173319652
 20
1663.941268661903
 10
4596.387173319651
 20
1663.941268661903
 42
0.4142135623728991
 10
4595.367173319655
 20
1662.921268661903
 10
4595.367173319654
 20
1614.921268661903
 42
0.4142135623730299
 10
4596.387173319651
 20
1613.901268661904
 10
4609.387173319652
 20
1613.901268661904
 42
0.4142135623729645
 10
4610.407173319653
 20
1614.921268661903
 10
4610.407173319653
 20
1662.921268661903
 42
0.4142135623728991
  0
LINE
  5
8A
330
1F
100
AcDbEntity
  8
D402
 62
     3
100
AcDbLine
 10
4552.887173319652
 20
1604.406322525202
 30
0.0
 11
4556.887173319653
 21
1604.406322525202
 31
0.0
  0
LINE
  5
8B
330
1F
100
AcDbEntity
  8
D402
 62
     3
100
AcDbLine
 10
4559.887173319653
 20
1604.406322525202
 30
0.0
 11
4563.887173319653
 21
1604.406322525202
 31
0.0
  0
LINE
  5
8C
330
1F
100
AcDbEntity
  8
D402
 62
     3
100
AcDbLine
 10
4566.887173319653
 20
1604.406322525202
 30
0.0
 11
4570.887173319653
 21
1604.406322525202
 31
0.0
  0
LINE
  5
8D
330
1F
100
AcDbEntity
  8
D402
 62
     3
100
AcDbLine
 10
4573.887173319653
 20
1604.406322525202
 30
0.0
 11
4577.887173319653
 21
1604.406322525202
 31
0.0
  0
LINE
  5
8E
330
1F
100
AcDbEntity
  8
D402
 62
     3
100
AcDbLine
 10
4580.887173319653
 20
1604.406322525202
 30
0.0
 11
4584.887173319653
 21
1604.406322525202
 31
0.0
  0
LINE
  5
8F
330
1F
100
AcDbEntity
  8
D402
 62
     3
100
AcDbLine
 10
4602.587173319654
 20
1673.421268661902
 30
0.0
 11
4598.587173319653
 21
1673.421268661902
 31
0.0
  0
LINE
  5
90
330
1F
100
AcDbEntity
  8
D402
 62
     3
100
AcDbLine
 10
4588.787173319654
 20
1673.421268661902
 30
0.0
 11
4584.787173319654
 21
1673.421268661902
 31
0.0
  0
SPLINE
  5
91
330
1F
100
AcDbEntity
  8
D402
 62
     3
100
AcDbSpline
210
0.0
220
0.0
230
1.0
 70
     8
 71
     3
 72
    10
 73
     6
 74
     0
 42
0.0000001
 43
0.0000000001
 40
0.0
 40
0.0
 40
0.0
 40
0.0
 40
0.5486744
 40
0.5486744
 40
1.0
 40
1.0
 40
1.0
 40
1.0
 10
4638.214141036916
 20
1605.917812042754
 30
0.0
 10
4638.355067015408
 20
1606.125016273819
 30
0.0
 10
4638.47477383324
 20
1606.347496743997
 30
0.0
 10
4638.654862991931
 20
1606.767878026268
 30
0.0
 10
4638.721812932147
 20
1606.963657559819
 30
0.0
 10
4638.777006459869
 20
1607.162738828188
 30
0.0
  0
SPLINE
  5
92
330
1F
100
AcDbEntity
  8
D402
 62
     3
100
AcDbSpline
210
0.0
220
0.0
230
1.0
 70
     8
 71
     3
 72
    11
 73
     7
 74
     0
 42
0.0000001
 43
0.0000000001
 40
0.0
 40
0.0
 40
0.0
 40
0.0
 40
0.2758330999999999
 40
0.5316949000000001
 40
0.7717948
 40
1.0
 40
1.0
 40
1.0
 40
1.0
 10
4636.371527026052
 20
1604.428003667802
 30
0.0
 10
4636.485677066953
 20
1604.477695655102
 30
0.0
 10
4636.703009449154
 20
1604.579958985703
 30
0.0
 10
4637.007095243954
 20
1604.750505721703
 30
0.0
 10
4637.280247268452
 20
1604.930479486904
 30
0.0
 10
4637.448023437553
 20
1605.059436267103
 30
0.0
 10
4637.527071183153
 20
1605.125470426102
 30
0.0
  0
SPLINE
  5
93
330
1F
100
AcDbEntity
  8
D402
 62
     3
100
AcDbSpline
210
0.0
220
0.0
230
1.0
 70
     8
 71
     3
 72
    10
 73
     6
 74
     0
 42
0.0000001
 43
0.0000000001
 40
0.0
 40
0.0
 40
0.0
 40
0.0
 40
0.5406616999999999
 40
0.5406616999999999
 40
1.0
 40
1.0
 40
1.0
 40
1.0
 10
4480.557249541583
 20
1670.136866140756
 30
0.0
 10
4480.61371627593
 20
1670.411183183699
 30
0.0
 10
4480.686628918988
 20
1670.671554860036
 30
0.0
 10
4480.853181806696
 20
1671.113686150972
 30
0.0
 10
4480.941877472226
 20
1671.30096741111
 30
0.0
 10
4481.043036384419
 20
1671.47158075345
 30
0.0
  0
SPLINE
  5
94
330
1F
100
AcDbEntity
  8
D402
 62
     3
100
AcDbSpline
210
0.0
220
0.0
230
1.0
 70
     8
 71
     3
 72
    10
 73
     6
 74
     0
 42
0.0000001
 43
0.0000000001
 40
0.0
 40
0.0
 40
0.0
 40
0.0
 40
0.5835443
 40
0.5835443
 40
1.0
 40
1.0
 40
1.0
 40
1.0
 10
4480.557332865433
 20
1607.705248012341
 30
0.0
 10
4480.612276488098
 20
1607.412875887031
 30
0.0
 10
4480.6901372781
 20
1607.136992566729
 30
0.0
 10
4480.864652750258
 20
1606.698731004558
 30
0.0
 10
4480.949349896529
 20
1606.526678266631
 30
0.0
 10
4481.045956804382
 20
1606.365975269944
 30
0.0
  0
SPLINE
  5
95
330
1F
100
AcDbEntity
  8
D402
 62
     3
100
AcDbSpline
210
0.0
220
0.0
230
1.0
 70
     8
 71
     3
 72
    12
 73
     8
 74
     0
 42
0.0000001
 43
0.0000000001
 40
0.0
 40
0.0
 40
0.0
 40
0.0
 40
0.0237889
 40
0.3177597
 40
0.6375671
 40
0.9872037999999999
 40
1.0
 40
1.0
 40
1.0
 40
1.0
 10
4635.412828409354
 20
1673.718367339602
 30
0.0
 10
4635.402290341854
 20
1673.720938554502
 30
0.0
 10
4635.261364431454
 20
1673.755016788103
 30
0.0
 10
4634.974293029353
 20
1673.816296041902
 30
0.0
 10
4634.530491455552
 20
1673.890023113703
 30
0.0
 10
4634.210203069054
 20
1673.929140549203
 30
0.0
 10
4634.038745581555
 20
1673.946585741102
 30
0.0
 10
4634.032690417053
 20
1673.947197527602
 30
0.0
  0
LINE
  5
96
330
1F
100
AcDbEntity
  8
D402
 62
     3
100
AcDbLine
 10
4529.587173319653
 20
1673.421268661902
 30
0.0
 11
4533.587173319652
 21
1673.421268661902
 31
0.0
  0
LINE
  5
97
330
1F
100
AcDbEntity
  8
D402
 62
     3
100
AcDbLine
 10
4536.487173319652
 20
1673.421268661902
 30
0.0
 11
4540.487173319652
 21
1673.421268661902
 31
0.0
  0
LINE
  5
98
330
1F
100
AcDbEntity
  8
D402
 62
     3
100
AcDbLine
 10
4543.387173319653
 20
1673.421268661902
 30
0.0
 11
4547.387173319653
 21
1673.421268661902
 31
0.0
  0
LINE
  5
99
330
1F
100
AcDbEntity
  8
D402
 62
     3
100
AcDbLine
 10
4550.287173319654
 20
1673.421268661902
 30
0.0
 11
4554.287173319654
 21
1673.421268661902
 31
0.0
  0
LINE
  5
9A
330
1F
100
AcDbEntity
  8
D402
 62
     3
100
AcDbLine
 10
4557.187173319653
 20
1673.421268661902
 30
0.0
 11
4561.187173319654
 21
1673.421268661902
 31
0.0
  0
LINE
  5
9B
330
1F
100
AcDbEntity
  8
D402
 62
     3
100
AcDbLine
 10
4564.087173319654
 20
1673.421268661902
 30
0.0
 11
4568.087173319653
 21
1673.421268661902
 31
0.0
  0
LINE
  5
9C
330
1F
100
AcDbEntity
  8
D402
 62
     3
100
AcDbLine
 10
4570.987173319652
 20
1673.421268661902
 30
0.0
 11
4574.987173319652
 21
1673.421268661902
 31
0.0
  0
LINE
  5
9D
330
1F
100
AcDbEntity
  8
D402
 62
     3
100
AcDbLine
 10
4577.887173319653
 20
1673.421268661902
 30
0.0
 11
4581.887173319652
 21
1673.421268661902
 31
0.0
  0
LINE
  5
9E
330
1F
100
AcDbEntity
  8
D402
 62
     3
100
AcDbLine
 10
4591.687173319654
 20
1673.421268661902
 30
0.0
 11
4595.687173319654
 21
1673.421268661902
 31
0.0
  0
LINE
  5
9F
330
1F
100
AcDbEntity
  8
D402
 62
     3
100
AcDbLine
 10
4605.487173319652
 20
1673.421268661902
 30
0.0
 11
4609.487173319652
 21
1673.421268661902
 31
0.0
  0
LINE
  5
A0
330
1F
100
AcDbEntity
  8
D402
 62
     3
100
AcDbLine
 10
4616.387173319653
 20
1673.421268661902
 30
0.0
 11
4612.387173319652
 21
1673.421268661902
 31
0.0
  0
LINE
  5
A1
330
1F
100
AcDbEntity
  8
D402
 62
     3
100
AcDbLine
 10
4531.887173319653
 20
1604.406322525202
 30
0.0
 11
4535.887173319653
 21
1604.406322525202
 31
0.0
  0
LINE
  5
A2
330
1F
100
AcDbEntity
  8
D402
 62
     3
100
AcDbLine
 10
4538.887173319653
 20
1604.406322525202
 30
0.0
 11
4542.887173319653
 21
1604.406322525202
 31
0.0
  0
LINE
  5
A3
330
1F
100
AcDbEntity
  8
D402
 62
     3
100
AcDbLine
 10
4545.887173319653
 20
1604.406322525202
 30
0.0
 11
4549.887173319652
 21
1604.406322525202
 31
0.0
  0
LINE
  5
A4
330
1F
100
AcDbEntity
  8
D402
 62
     3
100
AcDbLine
 10
4587.887173319653
 20
1604.406322525202
 30
0.0
 11
4591.887173319653
 21
1604.406322525202
 31
0.0
  0
LINE
  5
A5
330
1F
100
AcDbEntity
  8
D402
 62
     3
100
AcDbLine
 10
4594.887173319653
 20
1604.406322525202
 30
0.0
 11
4598.887173319653
 21
1604.406322525202
 31
0.0
  0
LINE
  5
A6
330
1F
100
AcDbEntity
  8
D402
 62
     3
100
AcDbLine
 10
4601.887173319652
 20
1604.406322525202
 30
0.0
 11
4605.887173319653
 21
1604.406322525202
 31
0.0
  0
LINE
  5
A7
330
1F
100
AcDbEntity
  8
D402
 62
     3
100
AcDbLine
 10
4608.887173319653
 20
1604.406322525202
 30
0.0
 11
4612.887173319653
 21
1604.406322525202
 31
0.0
  0
SPLINE
  5
A8
330
1F
100
AcDbEntity
  8
D402
 62
     3
100
AcDbSpline
210
0.0
220
0.0
230
1.0
 70
     8
 71
     3
 72
    12
 73
     8
 74
     0
 42
0.0000001
 43
0.0000000001
 40
0.0
 40
0.0
 40
0.0
 40
0.0
 40
0.0900467
 40
0.3452673
 40
0.6134973000000002
 40
0.8933555999999999
 40
1.0
 40
1.0
 40
1.0
 40
1.0
 10
4483.715932025653
 20
1604.672548443702
 30
0.0
 10
4483.757632183554
 20
1604.662875529404
 30
0.0
 10
4483.918487446453
 20
1604.627095379602
 30
0.0
 10
4484.210467165453
 20
1604.572326498702
 30
0.0
 10
4484.603201348052
 20
1604.517250932703
 30
0.0
 10
4484.930671154553
 20
1604.485749904302
 30
0.0
 10
4485.126426492153
 20
1604.472362571403
 30
0.0
 10
4485.180610508954
 20
1604.469055180202
 30
0.0
  0
SPLINE
  5
A9
330
1F
100
AcDbEntity
  8
D402
 62
     3
100
AcDbSpline
210
0.0
220
0.0
230
1.0
 70
     8
 71
     3
 72
    14
 73
    10
 74
     0
 42
0.0000001
 43
0.0000000001
 40
0.0
 40
0.0
 40
0.0
 40
0.0
 40
0.1007204
 40
0.2393484
 40
0.3821433
 40
0.5305054000000001
 40
0.6859441
 40
0.8499211999999999
 40
1.0
 40
1.0
 40
1.0
 40
1.0
 10
4637.494755216253
 20
1672.709044655703
 30
0.0
 10
4637.463696410953
 20
1672.738750731303
 30
0.0
 10
4637.388124218652
 20
1672.807739262903
 30
0.0
 10
4637.260858676953
 20
1672.911791588003
 30
0.0
 10
4637.109066574852
 20
1673.020890558603
 30
0.0
 10
4636.942313074152
 20
1673.125882341402
 30
0.0
 10
4636.758459858652
 20
1673.226730743603
 30
0.0
 10
4636.565028874152
 20
1673.318464928402
 30
0.0
 10
4636.430321481554
 20
1673.373763426303
 30
0.0
 10
4636.364857041854
 20
1673.398852035703
 30
0.0
  0
SPLINE
  5
AA
330
1F
100
AcDbEntity
  8
D402
 62
     3
100
AcDbSpline
210
0.0
220
0.0
230
1.0
 70
     8
 71
     3
 72
     9
 73
     5
 74
     0
 42
0.0000001
 43
0.0000000001
 40
0.0
 40
0.0
 40
0.0
 40
0.0
 40
0.2659155
 40
1.0
 40
1.0
 40
1.0
 40
1.0
 10
4485.179729658752
 20
1673.388091165903
 30
0.0
 10
4485.048117779554
 20
1673.377330850604
 30
0.0
 10
4484.553745780353
 20
1673.330656421503
 30
0.0
 10
4484.061637168355
 20
1673.256880035904
 30
0.0
 10
4483.704633825654
 20
1673.183141586503
 30
0.0
  0
SPLINE
  5
AB
330
1F
100
AcDbEntity
  8
D402
 62
     3
100
AcDbSpline
210
0.0
220
0.0
230
1.0
 70
     8
 71
     3
 72
    12
 73
     8
 74
     0
 42
0.0000001
 43
0.0000000001
 40
0.0
 40
0.0
 40
0.0
 40
0.0
 40
0.264843
 40
0.5156568
 40
0.7581743999999999
 40
0.8786868
 40
1.0
 40
1.0
 40
1.0
 40
1.0
 10
4482.851192250554
 20
1672.923557039202
 30
0.0
 10
4482.734411630753
 20
1672.880291876102
 30
0.0
 10
4482.509920175954
 20
1672.787858156403
 30
0.0
 10
4482.192545668755
 20
1672.624453572103
 30
0.0
 10
4481.949625020553
 20
1672.467434847203
 30
0.0
 10
4481.769488157953
 20
1672.327880379003
 30
0.0
 10
4481.684072412252
 20
1672.252679303002
 30
0.0
 10
4481.642390133654
 20
1672.213733805003
 30
0.0
  0
SPLINE
  5
AC
330
1F
100
AcDbEntity
  8
D402
 62
     3
100
AcDbSpline
210
0.0
220
0.0
230
1.0
 70
     8
 71
     3
 72
    12
 73
     8
 74
     0
 42
0.0000001
 43
0.0000000001
 40
0.0
 40
0.0
 40
0.0
 40
0.0
 40
0.4408149
 40
0.4408149
 40
0.8816297999999999
 40
0.8816297999999999
 40
1.0
 40
1.0
 40
1.0
 40
1.0
 10
4638.777048664289
 20
1670.679648092607
 30
0.0
 10
4638.721823724572
 20
1670.874114608313
 30
0.0
 10
4638.657524042174
 20
1671.065741437059
 30
0.0
 10
4638.501704417737
 20
1671.437889271994
 30
0.0
 10
4638.41065512769
 20
1671.618496098899
 30
0.0
 10
4638.275163652052
 20
1671.835092244233
 30
0.0
 10
4638.245348481087
 20
1671.880200527799
 30
0.0
 10
4638.214341488228
 20
1671.924434864749
 30
0.0
  0
SPLINE
  5
AD
330
1F
100
AcDbEntity
  8
D402
 62
     3
100
AcDbSpline
210
0.0
220
0.0
230
1.0
 70
     8
 71
     3
 72
    10
 73
     6
 74
     0
 42
0.0000001
 43
0.0000000001
 40
0.0
 40
0.0
 40
0.0
 40
0.0
 40
0.2476582
 40
0.4955501
 40
1.0
 40
1.0
 40
1.0
 40
1.0
 10
4481.642390133654
 20
1605.628803390904
 30
0.0
 10
4481.729911765653
 20
1605.552324117103
 30
0.0
 10
4481.913162428654
 20
1605.408320114603
 30
0.0
 10
4482.309108824052
 20
1605.155415583003
 30
0.0
 10
4482.630586629554
 20
1605.004891961403
 30
0.0
 10
4482.851192250554
 20
1604.918980139103
 30
0.0
  0
SPLINE
  5
AE
330
1F
100
AcDbEntity
  8
D402
 62
     3
100
AcDbSpline
210
0.0
220
0.0
230
1.0
 70
     8
 71
     3
 72
    11
 73
     7
 74
     0
 42
0.0000001
 43
0.0000000001
 40
0.0
 40
0.0
 40
0.0
 40
0.0
 40
0.2713354
 40
0.5284493000000001
 40
0.7713664000000002
 40
1.0
 40
1.0
 40
1.0
 40
1.0
 10
4634.035246606752
 20
1603.861353339003
 30
0.0
 10
4634.162374816255
 20
1603.873835353602
 30
0.0
 10
4634.409590413055
 20
1603.902333486303
 30
0.0
 10
4634.768486991355
 20
1603.958370988402
 30
0.0
 10
4635.105088265854
 20
1604.024954384003
 30
0.0
 10
4635.321069893755
 20
1604.076629306204
 30
0.0
 10
4635.425119445153
 20
1604.104184262603
 30
0.0
  0
LWPOLYLINE
  5
AF
330
1F
100
AcDbEntity
  8
D403
 62
     3
100
AcDbPolyline
 90
        3
 70
     0
 43
0.0
 10
4635.685715767503
 20
1633.960170511369
 10
4633.685715767503
 20
1633.960170511369
 10
4633.685715767503
 20
1635.96017051137
  0
LWPOLYLINE
  5
B0
330
1F
100
AcDbEntity
  8
D403
 62
     3
100
AcDbPolyline
 90
        4
 70
     0
 43
0.0
 10
4553.319280771087
 20
1638.119686138384
 10
4555.319280771086
 20
1638.119686138384
 10
4555.319280771086
 20
1636.119686138384
 10
4557.319280771086
 20
1636.119686138384
  0
LWPOLYLINE
  5
B1
330
1F
100
AcDbEntity
  8
D402
 62
     3
100
AcDbPolyline
 90
        4
 70
     0
 43
0.0
 10
4643.384330762628
 20
1638.123358941522
 10
4645.384330762628
 20
1638.123358941522
 10
4645.384330762628
 20
1636.123358941522
 10
4647.384330762628
 20
1636.123358941522
  0
CIRCLE
  5
B2
330
1F
100
AcDbEntity
  8
D401
 62
     3
100
AcDbCircle
 10
4619.887173319654
 20
1584.837968661903
 30
0.0
 40
4.504999999999999
  0
CIRCLE
  5
B3
330
1F
100
AcDbEntity
  8
D401
 62
     3
100
AcDbCircle
 10
4619.887173319654
 20
1544.837968661903
 30
0.0
 40
4.504999999999999
  0
CIRCLE
  5
B4
330
1F
100
AcDbEntity
  8
D401
 62
     3
100
AcDbCircle
 10
4579.887173319654
 20
1584.837968661903
 30
0.0
 40
3.504999999999999
  0
CIRCLE
  5
B5
330
1F
100
AcDbEntity
  8
D401
 62
     3
100
AcDbCircle
 10
4535.887173319655
 20
1584.837968661903
 30
0.0
 40
3.504999999999999
  0
CIRCLE
  5
B6
330
1F
100
AcDbEntity
  8
D401
 62
     3
100
AcDbCircle
 10
4579.887173319654
 20
1544.837968661903
 30
0.0
 40
3.504999999999999
  0
CIRCLE
  5
B7
330
1F
100
AcDbEntity
  8
D401
 62
     3
100
AcDbCircle
 10
4535.887173319655
 20
1544.837968661903
 30
0.0
 40
3.504999999999999
  0
CIRCLE
  5
B8
330
1F
100
AcDbEntity
  8
D401
 62
     3
100
AcDbCircle
 10
4496.887173319655
 20
1544.837968661903
 30
0.0
 40
4.504999999999999
  0
LWPOLYLINE
  5
B9
330
1F
100
AcDbEntity
  8
D402
 62
     3
100
AcDbPolyline
 90
       37
 70
     0
 43
0.0
 10
4639.885329543552
 20
1592.136209264988
 10
4639.882730521093
 20
1595.078752563185
 42
0.104474993909347
 10
4639.319077732301
 20
1597.699668600938
 42
0.0822444870623551
 10
4638.447592889855
 20
1598.956436219087
 42
0.108731238796928
 10
4636.01271985618
 20
1600.481499741156
 42
0.0546537170277801
 10
4634.236752497883
 20
1600.936429714191
 42
0.0356616796813961
 10
4632.915362113447
 20
1601.027910044703
 10
4575.231045988751
 20
1601.027910044703
 10
4541.9115195824
 20
1601.027910044703
 10
4501.337333516484
 20
1601.027910044703
 10
4485.928932934816
 20
1601.027910044745
 42
0.1157963077285215
 10
4482.118199090769
 20
1600.173127840629
 42
0.1074590338995767
 10
4480.104464520598
 20
1598.625096332698
 42
0.0962553739212151
 10
4479.247191947751
 20
1596.979323273412
 42
0.0687357711552595
 10
4478.961152734609
 20
1595.054262759304
 10
4478.959081431957
 20
1534.813453495348
 42
0.0733298768010049
 10
4479.244707859129
 20
1532.704767447536
 42
0.085485500920483
 10
4479.983139496714
 20
1531.208742595497
 42
0.0796100966834493
 10
4481.136478795067
 20
1530.085634244571
 42
0.0609523504925442
 10
4482.715346711441
 20
1529.239269968514
 42
0.0291988022497217
 10
4483.642935919141
 20
1528.935173437637
 42
0.0652841678227135
 10
4485.929000053339
 20
1528.648027131402
 10
4492.307264527741
 20
1528.648027131402
 10
4519.058371276449
 20
1528.648027131402
 10
4529.923357509567
 20
1528.648027131402
 10
4553.35399182472
 20
1528.648027131402
 10
4572.969204067343
 20
1528.648027131402
 10
4591.880131548888
 20
1528.648027131402
 10
4612.581506985232
 20
1528.648027131402
 10
4624.473647861207
 20
1528.648027131402
 10
4630.654417548575
 20
1528.648027131402
 10
4632.930156256288
 20
1528.648015169157
 42
0.1337398634190593
 10
4637.222031499269
 20
1529.769955891424
 42
0.1186179752462874
 10
4639.015934532673
 20
1531.432745262448
 42
0.0738568399851538
 10
4639.621830515748
 20
1532.77946287532
 42
0.0648957909524944
 10
4639.883256780278
 20
1534.621540517834
 10
4639.885329543552
 20
1583.474923036616
  0
LINE
  5
BA
330
1F
100
AcDbEntity
  8
D403
 62
     3
100
AcDbLine
 10
4639.885329543552
 20
1583.474923036616
 30
0.0
 11
4639.885329543552
 21
1592.136209264988
 31
0.0
  0
LWPOLYLINE
  5
BB
330
1F
100
AcDbEntity
  8
D403
 62
     3
100
AcDbPolyline
 90
      114
 70
     1
 43
0.0
 10
4629.387173319653
 20
1530.761945594344
 10
4623.650219255266
 20
1530.761939105878
 42
0.1767926462394365
 10
4623.335626346135
 20
1530.648694874175
 42
-0.1756483366758742
 10
4622.687173319653
 20
1530.413643601803
 10
4621.093860426213
 20
1530.413643601803
 42
-0.2068998812018986
 10
4619.984792124868
 20
1530.895539534022
 42
0.2653509003998385
 10
4618.743140815873
 20
1531.269985660321
 42
-0.0565224839796888
 10
4618.604160617752
 20
1531.254224294003
 10
4615.887179362594
 20
1531.254224294003
 42
-0.1936311621600614
 10
4615.180402028095
 20
1531.537604861557
 42
0.1933184761961828
 10
4613.927581525452
 20
1532.040796871103
 10
4531.737575730708
 20
1532.040796871581
 42
0.0688014571632219
 10
4531.464669686164
 20
1532.002999988183
 10
4530.165521350437
 20
1531.636434866733
 42
-0.0687333734108073
 10
4529.887173320804
 20
1531.597989610103
 10
4526.686419540351
 20
1531.597989241805
 42
-0.1625132641839135
 10
4526.199349234603
 20
1531.758658245997
 10
4524.794394201375
 20
1532.842097799153
 42
0.1539699509752947
 10
4524.51162621887
 20
1532.931296619426
 10
4523.387112204853
 20
1532.931296623203
 42
0.1308061873775389
 10
4523.142164613548
 20
1532.866099767141
 42
-0.0023398678622507
 10
4522.853548348968
 20
1532.700769807533
 42
-0.1212203642260103
 10
4522.613740036919
 20
1532.6332988391
 42
0.3651182534134235
 10
4521.854539526393
 20
1531.959775506782
 42
-0.3730794503325586
 10
4520.458571409802
 20
1530.761938828577
 10
4517.386763172342
 20
1530.761951994781
 42
-0.1967032175636598
 10
4516.885189575077
 20
1530.967078163186
 10
4516.336674363895
 20
1531.506088219168
 42
0.1956961822220134
 10
4515.990117044853
 20
1531.647129567603
 10
4505.482123580973
 20
1531.647129567603
 42
0.3843325932448049
 10
4504.994606464395
 20
1531.214012251159
 42
-0.3841065922271027
 10
4504.486608201097
 20
1530.761939396703
 10
4498.586623165572
 20
1530.761939396703
 42
0.1823742612896872
 10
4498.26304526777
 20
1530.64057962629
 42
-0.1818670105202446
 10
4497.925735491853
 20
1530.513691689303
 10
4493.248596119328
 20
1530.513691689303
 42
-0.1803148798275366
 10
4492.91132411709
 20
1530.640559753601
 42
0.1810870415916703
 10
4492.58717331964
 20
1530.761939105908
 10
4490.787197485354
 20
1530.761939105903
 42
-0.3731652068458086
 10
4490.281952545741
 20
1531.195778898298
 42
0.373601371918594
 10
4489.697483063211
 20
1531.696282927303
 10
4487.137173319655
 20
1531.696282862003
 10
4485.765344205137
 20
1531.696282862003
 42
-0.1262342445170642
 10
4485.460833398803
 20
1531.774958851881
 10
4483.382292244053
 20
1532.961175909435
 42
-0.2670989186430923
 10
4483.077165799875
 20
1533.488808836034
 10
4483.077173319613
 20
1535.237977275665
 42
0.2914619155340695
 10
4482.794261159821
 20
1535.682074038101
 42
0.0000191845173566
 10
4481.129376557318
 20
1536.458415872814
 42
-0.291484710736392
 10
4480.777173319696
 20
1537.011238822907
 10
4480.777173319654
 20
1580.837968236639
 42
-0.4142133328479782
 10
4481.287173319654
 20
1581.347967837003
 10
4481.637173394172
 20
1581.347967837011
 42
0.4142157453379087
 10
4481.927173319653
 20
1581.637965601102
 10
4481.927173321818
 20
1585.292977865776
 42
0.4538143951580049
 10
4481.484430137846
 20
1585.679804307765
 42
-0.0193921058285194
 10
4481.437172334742
 20
1585.677970980803
 42
-0.4142122059336641
 10
4480.827175016154
 20
1586.287971124401
 10
4480.827175016154
 20
1591.587987667314
 42
-0.4142101428100136
 10
4481.687165923703
 20
1592.447988699548
 10
4482.525297284769
 20
1592.449222200077
 42
0.3954111962571286
 10
4483.0771746527
 20
1593.037965579723
 10
4483.077174321919
 20
1595.736859723196
 42
-0.2220887609569329
 10
4483.259372748615
 20
1596.126972223697
 10
4485.230849828293
 20
1597.767041043075
 42
-0.1736868034470084
 10
4485.687173319654
 20
1597.930486455203
 10
4487.137173319655
 20
1597.930486455203
 10
4491.172290470179
 20
1597.930486455203
 42
0.3459215442600156
 10
4491.64906363132
 20
1598.300820131992
 42
-0.3454472652612957
 10
4492.437193570161
 20
1598.913998071543
 10
4496.887164226696
 20
1598.913984918933
 42
-0.1968808475211517
 10
4497.389173121684
 20
1598.708875224797
 10
4498.037673584645
 20
1598.07159973982
 42
0.195789311272355
 10
4498.384229594453
 20
1597.930486455203
 10
4505.788463058638
 20
1597.930486455203
 42
0.3990371322738831
 10
4506.277816560753
 20
1598.38775706437
 42
-0.3986242776171674
 10
4506.787204682281
 20
1598.864588230803
 10
4514.53897106895
 20
1598.864588226048
 42
0.1723396863162785
 10
4514.850023243444
 20
1598.974741825207
 42
-0.1724982569690775
 10
4515.237173319652
 20
1599.112403463202
 10
4517.837143286455
 20
1599.112403463202
 42
-0.4134116158429899
 10
4519.747173319653
 20
1597.23031463222
 10
4519.747173319653
 20
1596.933183595617
 42
0.4137314790040226
 10
4520.337162872478
 20
1596.346631173902
 10
4526.999768459313
 20
1596.346631173902
 42
0.3653714672717187
 10
4527.482915259886
 20
1596.7529073384
 42
-0.3657597736267747
 10
4527.887191485922
 20
1597.091823884403
 10
4619.087199042165
 20
1597.091823884403
 42
0.4136885003524612
 10
4619.577173319652
 20
1597.575888352347
 10
4619.577173319654
 20
1598.608301413073
 42
-0.4128249956923267
 10
4620.087190710084
 20
1599.11240346321
 10
4629.387173319653
 20
1599.112407508141
 10
4634.237182127851
 20
1599.112409617602
 42
-0.1945515690110644
 10
4634.734400813537
 20
1598.910819652581
 10
4637.15862222223
 20
1596.518212294913
 42
-0.1916163891523706
 10
4637.297173319653
 20
1596.170007950003
 10
4637.297173319653
 20
1577.337967391403
 42
0.4142135623742433
 10
4637.587171242254
 20
1577.047969468803
 10
4637.687173320889
 20
1577.047969468803
 42
-0.4142135252522435
 10
4638.197173319654
 20
1576.537969405403
 10
4638.197173319654
 20
1556.537968382657
 42
0.0795573193072583
 10
4638.246673319712
 20
1556.2288409817
 42
-0.0795573206637682
 10
4638.297173319656
 20
1555.913468578022
 10
4638.297173319652
 20
1538.93798204512
 42
-0.1270094202046877
 10
4638.170923400681
 20
1538.449013163022
 42
0.1270118110698321
 10
4638.047173319653
 20
1537.969716893737
 10
4638.047163241411
 20
1533.638455735153
 42
-0.1998878008963781
 10
4637.751322930831
 20
1532.927137192531
 10
4637.151306260395
 20
1532.332682541702
 42
-0.1971951537683886
 10
4636.437166350172
 20
1532.040796871103
 10
4634.614830357381
 20
1532.040796875917
 42
0.1956292698622878
 10
4633.917308754322
 20
1531.757822833063
 10
4633.046424047324
 20
1530.908056510491
 42
-0.1957399203672591
 10
4632.687507070873
 20
1530.761949327003
  0
LWPOLYLINE
  5
BC
330
1F
100
AcDbEntity
  8
D401
 62
     3
100
AcDbPolyline
 90
       20
 70
     1
 43
0.0
 10
4488.370919688944
 20
1559.709937818389
 42
0.1402119507006518
 10
4492.52576727985
 20
1556.340968661899
 42
0.101020514433514
 10
4499.276561010954
 20
1554.962968661902
 10
4514.45595077655
 20
1554.962968661902
 42
0.2324283103569145
 10
4522.751115091068
 20
1559.106895105653
 42
0.0188521124928983
 10
4523.798556853047
 20
1560.413171136351
 42
0.1588450662848107
 10
4525.762173319653
 20
1566.438133137403
 10
4525.762173319653
 20
1580.039292594803
 42
0.1989123673796347
 10
4522.767340157287
 20
1587.269459432435
 10
4517.718664090186
 20
1592.318135499535
 42
0.1989123673796444
 10
4510.488497252553
 20
1595.312968661902
 10
4497.558901124555
 20
1595.312968661902
 42
0.1002450525063056
 10
4493.580441300877
 20
1594.507229908485
 42
0.0691909081068154
 10
4490.97951324385
 20
1592.936604171512
 42
0.024477102159061
 10
4489.201952741333
 20
1591.428259508103
 42
0.0307811401955302
 10
4487.190062967541
 20
1589.297273290968
 42
0.0382558346259749
 10
4485.878572650049
 20
1587.51394541915
 42
0.1363807331534091
 10
4484.412173319654
 20
1582.237816221502
 10
4484.412173319652
 20
1568.587543671202
 42
0.1539147210631605
 10
4486.261343666843
 20
1562.722724609494
  0
LWPOLYLINE
  5
BD
330
1F
100
AcDbEntity
  8
D401
 62
     3
100
AcDbPolyline
 90
        8
 70
     1
 43
0.0
 10
4609.387173319652
 20
1589.857968661903
 10
4596.387173319651
 20
1589.857968661903
 42
0.4142135623728991
 10
4595.367173319655
 20
1588.837968661903
 10
4595.367173319655
 20
1540.837968661903
 42
0.4142135623729643
 10
4596.387173319651
 20
1539.817968661903
 10
4609.387173319652
 20
1539.817968661903
 42
0.4142135623728991
 10
4610.407173319653
 20
1540.837968661903
 10
4610.407173319653
 20
1588.837968661903
 42
0.4142135623728991
  0
LINE
  5
BE
330
1F
100
AcDbEntity
  8
D402
 62
     3
100
AcDbLine
 10
4552.887173319652
 20
1530.323022525203
 30
0.0
 11
4556.887173319653
 21
1530.323022525203
 31
0.0
  0
LINE
  5
BF
330
1F
100
AcDbEntity
  8
D402
 62
     3
100
AcDbLine
 10
4559.887173319653
 20
1530.323022525203
 30
0.0
 11
4563.887173319653
 21
1530.323022525203
 31
0.0
  0
LINE
  5
C0
330
1F
100
AcDbEntity
  8
D402
 62
     3
100
AcDbLine
 10
4566.887173319653
 20
1530.323022525203
 30
0.0
 11
4570.887173319653
 21
1530.323022525203
 31
0.0
  0
LINE
  5
C1
330
1F
100
AcDbEntity
  8
D402
 62
     3
100
AcDbLine
 10
4573.887173319653
 20
1530.323022525203
 30
0.0
 11
4577.887173319653
 21
1530.323022525203
 31
0.0
  0
LINE
  5
C2
330
1F
100
AcDbEntity
  8
D402
 62
     3
100
AcDbLine
 10
4580.887173319653
 20
1530.323022525203
 30
0.0
 11
4584.887173319653
 21
1530.323022525203
 31
0.0
  0
LINE
  5
C3
330
1F
100
AcDbEntity
  8
D402
 62
     3
100
AcDbLine
 10
4602.587173319654
 20
1599.337968661903
 30
0.0
 11
4598.587173319653
 21
1599.337968661903
 31
0.0
  0
LINE
  5
C4
330
1F
100
AcDbEntity
  8
D402
 62
     3
100
AcDbLine
 10
4588.787173319654
 20
1599.337968661903
 30
0.0
 11
4584.787173319654
 21
1599.337968661903
 31
0.0
  0
SPLINE
  5
C5
330
1F
100
AcDbEntity
  8
D402
 62
     3
100
AcDbSpline
210
0.0
220
0.0
230
1.0
 70
     8
 71
     3
 72
    10
 73
     6
 74
     0
 42
0.0000001
 43
0.0000000001
 40
0.0
 40
0.0
 40
0.0
 40
0.0
 40
0.5486744
 40
0.5486744
 40
1.0
 40
1.0
 40
1.0
 40
1.0
 10
4638.214141036916
 20
1531.834512042754
 30
0.0
 10
4638.355067015408
 20
1532.041716273819
 30
0.0
 10
4638.47477383324
 20
1532.264196743997
 30
0.0
 10
4638.654862991931
 20
1532.684578026268
 30
0.0
 10
4638.721812932147
 20
1532.880357559819
 30
0.0
 10
4638.777006459869
 20
1533.079438828188
 30
0.0
  0
SPLINE
  5
C6
330
1F
100
AcDbEntity
  8
D402
 62
     3
100
AcDbSpline
210
0.0
220
0.0
230
1.0
 70
     8
 71
     3
 72
    11
 73
     7
 74
     0
 42
0.0000001
 43
0.0000000001
 40
0.0
 40
0.0
 40
0.0
 40
0.0
 40
0.2758330999999999
 40
0.5316949000000001
 40
0.7717948
 40
1.0
 40
1.0
 40
1.0
 40
1.0
 10
4636.371527026052
 20
1530.344703667803
 30
0.0
 10
4636.485677066953
 20
1530.394395655102
 30
0.0
 10
4636.703009449154
 20
1530.496658985702
 30
0.0
 10
4637.007095243954
 20
1530.667205721703
 30
0.0
 10
4637.280247268452
 20
1530.847179486903
 30
0.0
 10
4637.448023437553
 20
1530.976136267103
 30
0.0
 10
4637.527071183153
 20
1531.042170426103
 30
0.0
  0
SPLINE
  5
C7
330
1F
100
AcDbEntity
  8
D402
 62
     3
100
AcDbSpline
210
0.0
220
0.0
230
1.0
 70
     8
 71
     3
 72
    10
 73
     6
 74
     0
 42
0.0000001
 43
0.0000000001
 40
0.0
 40
0.0
 40
0.0
 40
0.0
 40
0.5406616999999999
 40
0.5406616999999999
 40
1.0
 40
1.0
 40
1.0
 40
1.0
 10
4480.557249541583
 20
1596.053566140755
 30
0.0
 10
4480.61371627593
 20
1596.327883183699
 30
0.0
 10
4480.686628918988
 20
1596.588254860036
 30
0.0
 10
4480.853181806696
 20
1597.030386150972
 30
0.0
 10
4480.941877472226
 20
1597.21766741111
 30
0.0
 10
4481.043036384419
 20
1597.388280753449
 30
0.0
  0
SPLINE
  5
C8
330
1F
100
AcDbEntity
  8
D402
 62
     3
100
AcDbSpline
210
0.0
220
0.0
230
1.0
 70
     8
 71
     3
 72
    10
 73
     6
 74
     0
 42
0.0000001
 43
0.0000000001
 40
0.0
 40
0.0
 40
0.0
 40
0.0
 40
0.5835443
 40
0.5835443
 40
1.0
 40
1.0
 40
1.0
 40
1.0
 10
4480.557332865433
 20
1533.621948012341
 30
0.0
 10
4480.612276488098
 20
1533.329575887031
 30
0.0
 10
4480.6901372781
 20
1533.053692566729
 30
0.0
 10
4480.864652750258
 20
1532.615431004558
 30
0.0
 10
4480.949349896529
 20
1532.44337826663
 30
0.0
 10
4481.045956804382
 20
1532.282675269943
 30
0.0
  0
SPLINE
  5
C9
330
1F
100
AcDbEntity
  8
D402
 62
     3
100
AcDbSpline
210
0.0
220
0.0
230
1.0
 70
     8
 71
     3
 72
    12
 73
     8
 74
     0
 42
0.0000001
 43
0.0000000001
 40
0.0
 40
0.0
 40
0.0
 40
0.0
 40
0.0237889
 40
0.3177597
 40
0.6375671
 40
0.9872037999999999
 40
1.0
 40
1.0
 40
1.0
 40
1.0
 10
4635.412828409354
 20
1599.635067339603
 30
0.0
 10
4635.402290341854
 20
1599.637638554503
 30
0.0
 10
4635.261364431454
 20
1599.671716788103
 30
0.0
 10
4634.974293029353
 20
1599.732996041901
 30
0.0
 10
4634.530491455552
 20
1599.806723113702
 30
0.0
 10
4634.210203069054
 20
1599.845840549203
 30
0.0
 10
4634.038745581555
 20
1599.863285741102
 30
0.0
 10
4634.032690417053
 20
1599.863897527603
 30
0.0
  0
LINE
  5
CA
330
1F
100
AcDbEntity
  8
D402
 62
     3
100
AcDbLine
 10
4529.587173319653
 20
1599.337968661903
 30
0.0
 11
4533.587173319652
 21
1599.337968661903
 31
0.0
  0
LINE
  5
CB
330
1F
100
AcDbEntity
  8
D402
 62
     3
100
AcDbLine
 10
4536.487173319652
 20
1599.337968661903
 30
0.0
 11
4540.487173319652
 21
1599.337968661903
 31
0.0
  0
LINE
  5
CC
330
1F
100
AcDbEntity
  8
D402
 62
     3
100
AcDbLine
 10
4543.387173319653
 20
1599.337968661903
 30
0.0
 11
4547.387173319653
 21
1599.337968661903
 31
0.0
  0
LINE
  5
CD
330
1F
100
AcDbEntity
  8
D402
 62
     3
100
AcDbLine
 10
4550.287173319654
 20
1599.337968661903
 30
0.0
 11
4554.287173319654
 21
1599.337968661903
 31
0.0
  0
LINE
  5
CE
330
1F
100
AcDbEntity
  8
D402
 62
     3
100
AcDbLine
 10
4557.187173319653
 20
1599.337968661903
 30
0.0
 11
4561.187173319654
 21
1599.337968661903
 31
0.0
  0
LINE
  5
CF
330
1F
100
AcDbEntity
  8
D402
 62
     3
100
AcDbLine
 10
4564.087173319654
 20
1599.337968661903
 30
0.0
 11
4568.087173319653
 21
1599.337968661903
 31
0.0
  0
LINE
  5
D0
330
1F
100
AcDbEntity
  8
D402
 62
     3
100
AcDbLine
 10
4570.987173319652
 20
1599.337968661903
 30
0.0
 11
4574.987173319652
 21
1599.337968661903
 31
0.0
  0
LINE
  5
D1
330
1F
100
AcDbEntity
  8
D402
 62
     3
100
AcDbLine
 10
4577.887173319653
 20
1599.337968661903
 30
0.0
 11
4581.887173319652
 21
1599.337968661903
 31
0.0
  0
LINE
  5
D2
330
1F
100
AcDbEntity
  8
D402
 62
     3
100
AcDbLine
 10
4591.687173319654
 20
1599.337968661903
 30
0.0
 11
4595.687173319654
 21
1599.337968661903
 31
0.0
  0
LINE
  5
D3
330
1F
100
AcDbEntity
  8
D402
 62
     3
100
AcDbLine
 10
4605.487173319652
 20
1599.337968661903
 30
0.0
 11
4609.487173319652
 21
1599.337968661903
 31
0.0
  0
LINE
  5
D4
330
1F
100
AcDbEntity
  8
D402
 62
     3
100
AcDbLine
 10
4616.387173319653
 20
1599.337968661903
 30
0.0
 11
4612.387173319652
 21
1599.337968661903
 31
0.0
  0
LINE
  5
D5
330
1F
100
AcDbEntity
  8
D402
 62
     3
100
AcDbLine
 10
4531.887173319653
 20
1530.323022525203
 30
0.0
 11
4535.887173319653
 21
1530.323022525203
 31
0.0
  0
LINE
  5
D6
330
1F
100
AcDbEntity
  8
D402
 62
     3
100
AcDbLine
 10
4538.887173319653
 20
1530.323022525203
 30
0.0
 11
4542.887173319653
 21
1530.323022525203
 31
0.0
  0
LINE
  5
D7
330
1F
100
AcDbEntity
  8
D402
 62
     3
100
AcDbLine
 10
4545.887173319653
 20
1530.323022525203
 30
0.0
 11
4549.887173319652
 21
1530.323022525203
 31
0.0
  0
LINE
  5
D8
330
1F
100
AcDbEntity
  8
D402
 62
     3
100
AcDbLine
 10
4587.887173319653
 20
1530.323022525203
 30
0.0
 11
4591.887173319653
 21
1530.323022525203
 31
0.0
  0
LINE
  5
D9
330
1F
100
AcDbEntity
  8
D402
 62
     3
100
AcDbLine
 10
4594.887173319653
 20
1530.323022525203
 30
0.0
 11
4598.887173319653
 21
1530.323022525203
 31
0.0
  0
LINE
  5
DA
330
1F
100
AcDbEntity
  8
D402
 62
     3
100
AcDbLine
 10
4601.887173319652
 20
1530.323022525203
 30
0.0
 11
4605.887173319653
 21
1530.323022525203
 31
0.0
  0
LINE
  5
DB
330
1F
100
AcDbEntity
  8
D402
 62
     3
100
AcDbLine
 10
4608.887173319653
 20
1530.323022525203
 30
0.0
 11
4612.887173319653
 21
1530.323022525203
 31
0.0
  0
SPLINE
  5
DC
330
1F
100
AcDbEntity
  8
D402
 62
     3
100
AcDbSpline
210
0.0
220
0.0
230
1.0
 70
     8
 71
     3
 72
    12
 73
     8
 74
     0
 42
0.0000001
 43
0.0000000001
 40
0.0
 40
0.0
 40
0.0
 40
0.0
 40
0.0900467
 40
0.3452673
 40
0.6134973000000002
 40
0.8933555999999999
 40
1.0
 40
1.0
 40
1.0
 40
1.0
 10
4483.715932025653
 20
1530.589248443703
 30
0.0
 10
4483.757632183554
 20
1530.579575529403
 30
0.0
 10
4483.918487446453
 20
1530.543795379603
 30
0.0
 10
4484.210467165453
 20
1530.489026498703
 30
0.0
 10
4484.603201348052
 20
1530.433950932703
 30
0.0
 10
4484.930671154553
 20
1530.402449904303
 30
0.0
 10
4485.126426492153
 20
1530.389062571402
 30
0.0
 10
4485.180610508954
 20
1530.385755180203
 30
0.0
  0
SPLINE
  5
DD
330
1F
100
AcDbEntity
  8
D402
 62
     3
100
AcDbSpline
210
0.0
220
0.0
230
1.0
 70
     8
 71
     3
 72
    14
 73
    10
 74
     0
 42
0.0000001
 43
0.0000000001
 40
0.0
 40
0.0
 40
0.0
 40
0.0
 40
0.1007204
 40
0.2393484
 40
0.3821433
 40
0.5305054000000001
 40
0.6859441
 40
0.8499211999999999
 40
1.0
 40
1.0
 40
1.0
 40
1.0
 10
4637.494755216253
 20
1598.625744655703
 30
0.0
 10
4637.463696410953
 20
1598.655450731303
 30
0.0
 10
4637.388124218652
 20
1598.724439262903
 30
0.0
 10
4637.260858676953
 20
1598.828491588002
 30
0.0
 10
4637.109066574852
 20
1598.937590558603
 30
0.0
 10
4636.942313074152
 20
1599.042582341403
 30
0.0
 10
4636.758459858652
 20
1599.143430743603
 30
0.0
 10
4636.565028874152
 20
1599.235164928403
 30
0.0
 10
4636.430321481554
 20
1599.290463426302
 30
0.0
 10
4636.364857041854
 20
1599.315552035703
 30
0.0
  0
SPLINE
  5
DE
330
1F
100
AcDbEntity
  8
D402
 62
     3
100
AcDbSpline
210
0.0
220
0.0
230
1.0
 70
     8
 71
     3
 72
     9
 73
     5
 74
     0
 42
0.0000001
 43
0.0000000001
 40
0.0
 40
0.0
 40
0.0
 40
0.0
 40
0.2659155
 40
1.0
 40
1.0
 40
1.0
 40
1.0
 10
4485.179729658752
 20
1599.304791165903
 30
0.0
 10
4485.048117779554
 20
1599.294030850603
 30
0.0
 10
4484.553745780353
 20
1599.247356421503
 30
0.0
 10
4484.061637168355
 20
1599.173580035903
 30
0.0
 10
4483.704633825654
 20
1599.099841586503
 30
0.0
  0
SPLINE
  5
DF
330
1F
100
AcDbEntity
  8
D402
 62
     3
100
AcDbSpline
210
0.0
220
0.0
230
1.0
 70
     8
 71
     3
 72
    12
 73
     8
 74
     0
 42
0.0000001
 43
0.0000000001
 40
0.0
 40
0.0
 40
0.0
 40
0.0
 40
0.264843
 40
0.5156568
 40
0.7581743999999999
 40
0.8786868
 40
1.0
 40
1.0
 40
1.0
 40
1.0
 10
4482.851192250554
 20
1598.840257039203
 30
0.0
 10
4482.734411630753
 20
1598.796991876103
 30
0.0
 10
4482.509920175954
 20
1598.704558156403
 30
0.0
 10
4482.192545668755
 20
1598.541153572103
 30
0.0
 10
4481.949625020553
 20
1598.384134847203
 30
0.0
 10
4481.769488157953
 20
1598.244580379003
 30
0.0
 10
4481.684072412252
 20
1598.169379303003
 30
0.0
 10
4481.642390133654
 20
1598.130433805003
 30
0.0
  0
SPLINE
  5
E0
330
1F
100
AcDbEntity
  8
D402
 62
     3
100
AcDbSpline
210
0.0
220
0.0
230
1.0
 70
     8
 71
     3
 72
    12
 73
     8
 74
     0
 42
0.0000001
 43
0.0000000001
 40
0.0
 40
0.0
 40
0.0
 40
0.0
 40
0.4408149
 40
0.4408149
 40
0.8816297999999999
 40
0.8816297999999999
 40
1.0
 40
1.0
 40
1.0
 40
1.0
 10
4638.777048664289
 20
1596.596348092607
 30
0.0
 10
4638.721823724572
 20
1596.790814608314
 30
0.0
 10
4638.657524042174
 20
1596.98244143706
 30
0.0
 10
4638.501704417737
 20
1597.354589271993
 30
0.0
 10
4638.41065512769
 20
1597.535196098899
 30
0.0
 10
4638.275163652052
 20
1597.751792244232
 30
0.0
 10
4638.245348481087
 20
1597.796900527799
 30
0.0
 10
4638.214341488228
 20
1597.841134864749
 30
0.0
  0
SPLINE
  5
E1
330
1F
100
AcDbEntity
  8
D402
 62
     3
100
AcDbSpline
210
0.0
220
0.0
230
1.0
 70
     8
 71
     3
 72
    10
 73
     6
 74
     0
 42
0.0000001
 43
0.0000000001
 40
0.0
 40
0.0
 40
0.0
 40
0.0
 40
0.2476582
 40
0.4955501
 40
1.0
 40
1.0
 40
1.0
 40
1.0
 10
4481.642390133654
 20
1531.545503390903
 30
0.0
 10
4481.729911765653
 20
1531.469024117103
 30
0.0
 10
4481.913162428654
 20
1531.325020114603
 30
0.0
 10
4482.309108824052
 20
1531.072115583003
 30
0.0
 10
4482.630586629554
 20
1530.921591961402
 30
0.0
 10
4482.851192250554
 20
1530.835680139103
 30
0.0
  0
SPLINE
  5
E2
330
1F
100
AcDbEntity
  8
D402
 62
     3
100
AcDbSpline
210
0.0
220
0.0
230
1.0
 70
     8
 71
     3
 72
    11
 73
     7
 74
     0
 42
0.0000001
 43
0.0000000001
 40
0.0
 40
0.0
 40
0.0
 40
0.0
 40
0.2713354
 40
0.5284493000000001
 40
0.7713664000000002
 40
1.0
 40
1.0
 40
1.0
 40
1.0
 10
4634.035246606752
 20
1529.778053339003
 30
0.0
 10
4634.162374816255
 20
1529.790535353603
 30
0.0
 10
4634.409590413055
 20
1529.819033486303
 30
0.0
 10
4634.768486991355
 20
1529.875070988403
 30
0.0
 10
4635.105088265854
 20
1529.941654384003
 30
0.0
 10
4635.321069893755
 20
1529.993329306203
 30
0.0
 10
4635.425119445153
 20
1530.020884262603
 30
0.0
  0
LWPOLYLINE
  5
E3
330
1F
100
AcDbEntity
  8
D403
 62
     3
100
AcDbPolyline
 90
        3
 70
     0
 43
0.0
 10
4635.685715767503
 20
1559.87687051137
 10
4633.685715767503
 20
1559.87687051137
 10
4633.685715767503
 20
1561.87687051137
  0
LWPOLYLINE
  5
E4
330
1F
100
AcDbEntity
  8
D403
 62
     3
100
AcDbPolyline
 90
        4
 70
     0
 43
0.0
 10
4553.319280771087
 20
1564.036386138384
 10
4555.319280771086
 20
1564.036386138384
 10
4555.319280771086
 20
1562.036386138384
 10
4557.319280771086
 20
1562.036386138384
  0
LWPOLYLINE
  5
E5
330
1F
100
AcDbEntity
  8
D402
 62
     3
100
AcDbPolyline
 90
        4
 70
     0
 43
0.0
 10
4643.384330762628
 20
1564.040058941522
 10
4645.384330762628
 20
1564.040058941522
 10
4645.384330762628
 20
1562.040058941522
 10
4647.384330762628
 20
1562.040058941522
  0
LWPOLYLINE
  5
11A
330
1F
100
AcDbEntity
  8
D403
 62
     3
370
     0
100
AcDbPolyline
 90
        3
 70
     0
 43
0.0
 10
4568.359458460935
 20
1643.580502031643
 10
4570.358880657539
 20
1642.247937814206
 10
4572.359454595039
 20
1642.247937814206
  0
LWPOLYLINE
  5
11B
330
1F
100
AcDbEntity
  8
D403
 62
     3
370
     0
100
AcDbPolyline
 90
        2
 70
     0
 43
0.0
 10
4570.358880657539
 20
1642.247937814206
 10
4568.359458460935
 20
1640.914221855873
  0
LWPOLYLINE
  5
11C
330
1F
100
AcDbEntity
  8
D403
 62
     3
370
     0
100
AcDbPolyline
 90
        2
 70
     0
 43
0.0
 10
4572.359454595039
 20
1638.334763164184
 10
4568.359458460935
 20
1635.668482988414
  0
LWPOLYLINE
  5
11D
330
1F
100
AcDbEntity
  8
D403
 62
     3
370
     0
100
AcDbPolyline
 90
        2
 70
     0
 43
0.0
 10
4568.359458460935
 20
1638.334763164184
 10
4572.359454595039
 20
1635.668482988414
  0
LWPOLYLINE
  5
11E
330
1F
100
AcDbEntity
  8
D403
 62
     3
370
     0
100
AcDbPolyline
 90
        2
 70
     0
 43
0.0
 10
4569.026316440102
 20
1632.564185222127
 10
4568.359458460935
 20
1631.89732724296
  0
LWPOLYLINE
  5
11F
330
1F
100
AcDbEntity
  8
D403
 62
     3
370
     0
100
AcDbPolyline
 90
        2
 70
     0
 43
0.0
 10
4568.359458460935
 20
1631.89732724296
 10
4572.359454595039
 20
1631.89732724296
  0
LWPOLYLINE
  5
120
330
1F
100
AcDbEntity
  8
D403
 62
     3
370
     0
100
AcDbPolyline
 90
        2
 70
     0
 43
0.0
 10
4572.359454595039
 20
1632.564185222127
 10
4572.359454595039
 20
1631.23162100469
  0
LWPOLYLINE
  5
121
330
1F
100
AcDbEntity
  8
D403
 62
     3
370
     0
100
AcDbPolyline
 90
        2
 70
     0
 43
0.0
 10
4569.026316440102
 20
1560.060193584827
 10
4568.359458460935
 20
1559.393335605661
  0
LWPOLYLINE
  5
122
330
1F
100
AcDbEntity
  8
D403
 62
     3
370
     0
100
AcDbPolyline
 90
        2
 70
     0
 43
0.0
 10
4568.359458460935
 20
1559.393335605661
 10
4568.359458460935
 20
1558.059619647327
  0
LWPOLYLINE
  5
123
330
1F
100
AcDbEntity
  8
D403
 62
     3
370
     0
100
AcDbPolyline
 90
        2
 70
     0
 43
0.0
 10
4568.359458460935
 20
1558.059619647327
 10
4569.026316440102
 20
1557.392761668161
  0
LWPOLYLINE
  5
124
330
1F
100
AcDbEntity
  8
D403
 62
     3
370
     0
100
AcDbPolyline
 90
        2
 70
     0
 43
0.0
 10
4569.026316440102
 20
1557.392761668161
 10
4569.693174419269
 20
1557.392761668161
  0
LWPOLYLINE
  5
125
330
1F
100
AcDbEntity
  8
D403
 62
     3
370
     0
100
AcDbPolyline
 90
        2
 70
     0
 43
0.0
 10
4569.693174419269
 20
1557.392761668161
 10
4570.358880657539
 20
1558.059619647327
  0
LWPOLYLINE
  5
126
330
1F
100
AcDbEntity
  8
D403
 62
     3
370
     0
100
AcDbPolyline
 90
        2
 70
     0
 43
0.0
 10
4570.358880657539
 20
1558.059619647327
 10
4570.358880657539
 20
1559.393335605661
  0
LWPOLYLINE
  5
127
330
1F
100
AcDbEntity
  8
D403
 62
     3
370
     0
100
AcDbPolyline
 90
        2
 70
     0
 43
0.0
 10
4570.358880657539
 20
1559.393335605661
 10
4571.025738636705
 20
1560.060193584827
  0
LWPOLYLINE
  5
128
330
1F
100
AcDbEntity
  8
D403
 62
     3
370
     0
100
AcDbPolyline
 90
        2
 70
     0
 43
0.0
 10
4571.025738636705
 20
1560.060193584827
 10
4572.359454595039
 20
1560.060193584827
  0
LWPOLYLINE
  5
129
330
1F
100
AcDbEntity
  8
D403
 62
     3
370
     0
100
AcDbPolyline
 90
        2
 70
     0
 43
0.0
 10
4572.359454595039
 20
1560.060193584827
 10
4572.359454595039
 20
1557.392761668161
  0
LWPOLYLINE
  5
135
330
1F
100
AcDbEntity
  8
D403
 62
     3
370
     0
100
AcDbPolyline
 90
        3
 70
     0
 43
0.0
 10
4568.359458460935
 20
1569.497202031644
 10
4570.358880657539
 20
1568.164637814207
 10
4572.359454595039
 20
1568.164637814207
  0
LWPOLYLINE
  5
136
330
1F
100
AcDbEntity
  8
D403
 62
     3
370
     0
100
AcDbPolyline
 90
        2
 70
     0
 43
0.0
 10
4570.358880657539
 20
1568.164637814207
 10
4568.359458460935
 20
1566.830921855873
  0
LWPOLYLINE
  5
137
330
1F
100
AcDbEntity
  8
D403
 62
     3
370
     0
100
AcDbPolyline
 90
        2
 70
     0
 43
0.0
 10
4572.359454595039
 20
1564.251463164185
 10
4568.359458460935
 20
1561.585182988414
  0
LWPOLYLINE
  5
138
330
1F
100
AcDbEntity
  8
D403
 62
     3
370
     0
100
AcDbPolyline
 90
        2
 70
     0
 43
0.0
 10
4568.359458460935
 20
1564.251463164185
 10
4572.359454595039
 20
1561.585182988414
  0
ENDSEC
  0
SECTION
  2
OBJECTS
  0
DICTIONARY
  5
C
330
0
100
AcDbDictionary
281
     1
  3
ACAD_CIP_PREVIOUS_PRODUCT_INFO
350
20058
  3
ACAD_COLOR
350
20036
  3
ACAD_DETAILVIEWSTYLE
350
20052
  3
ACAD_GROUP
350
D
  3
ACAD_LAYOUT
350
20037
  3
ACAD_MATERIAL
350
20004
  3
ACAD_MLEADERSTYLE
350
2004E
  3
ACAD_MLINESTYLE
350
2003A
  3
ACAD_PLOTSETTINGS
350
20054
  3
ACAD_PLOTSTYLENAME
350
20002
  3
ACAD_SCALELIST
350
2003C
  3
ACAD_SECTIONVIEWSTYLE
350
20050
  3
ACAD_TABLESTYLE
350
20038
  3
ACAD_VISUALSTYLE
350
2001D
  3
ACDB_RECOMPOSE_DATA
350
20062
  3
AcDbVariableDictionary
350
20059
  0
XRECORD
  5
20058
102
{ACAD_REACTORS
330
C
102
}
330
C
100
AcDbXrecord
280
     1
300
ACD
300
2021
300

  0
DICTIONARY
  5
20036
102
{ACAD_REACTORS
330
C
102
}
330
C
100
AcDbDictionary
281
     1
  0
DICTIONARY
  5
20052
102
{ACAD_REACTORS
330
C
102
}
330
C
100
AcDbDictionary
281
     1
  3
Metric50
350
20053
  0
DICTIONARY
  5
D
330
C
100
AcDbDictionary
281
     1
  0
DICTIONARY
  5
20037
102
{ACAD_REACTORS
330
C
102
}
330
C
100
AcDbDictionary
281
     1
  3
Model
350
20055
  3
布局1
350
20056
  0
DICTIONARY
  5
20004
102
{ACAD_REACTORS
330
C
102
}
330
C
100
AcDbDictionary
281
     1
  3
ByBlock
350
2000D
  3
ByLayer
350
20005
  3
Global
350
20015
  0
DICTIONARY
  5
2004E
102
{ACAD_REACTORS
330
C
102
}
330
C
100
AcDbDictionary
281
     1
  3
Standard
350
2004F
  0
DICTIONARY
  5
2003A
102
{ACAD_REACTORS
330
C
102
}
330
C
100
AcDbDictionary
281
     1
  3
Standard
350
2003B
  0
DICTIONARY
  5
20054
102
{ACAD_REACTORS
330
C
102
}
330
C
100
AcDbDictionary
281
     1
  0
ACDBDICTIONARYWDFLT
  5
20002
102
{ACAD_REACTORS
330
C
102
}
330
C
100
AcDbDictionary
281
     1
  3
Normal
350
20003
100
AcDbDictionaryWithDefault
340
20003
  0
DICTIONARY
  5
2003C
102
{ACAD_REACTORS
330
C
102
}
330
C
100
AcDbDictionary
281
     1
  3
A0
350
2003D
  3
A1
350
2003E
  3
A2
350
2003F
  3
A3
350
20040
  3
A4
350
20041
  3
A5
350
20042
  3
A6
350
20043
  3
A7
350
20044
  3
A8
350
20045
  3
A9
350
20046
  3
B0
350
20047
  3
B1
350
20048
  3
B2
350
20049
  3
B3
350
2004A
  3
B4
350
2004B
  3
B5
350
2004C
  3
B6
350
2004D
  0
DICTIONARY
  5
20050
102
{ACAD_REACTORS
330
C
102
}
330
C
100
AcDbDictionary
281
     1
  3
Metric50
350
20051
  0
DICTIONARY
  5
20038
102
{ACAD_REACTORS
330
C
102
}
330
C
100
AcDbDictionary
281
     1
  3
Standard
350
20039
  0
DICTIONARY
  5
2001D
102
{ACAD_REACTORS
330
C
102
}
330
C
100
AcDbDictionary
281
     1
  3
2dWireframe
350
20023
  3
Basic
350
20022
  3
Brighten
350
20029
  3
ColorChange
350
2002D
  3
Conceptual
350
20026
  3
Dim
350
20028
  3
EdgeColorOff
350
20035
  3
Facepattern
350
2002C
  3
Flat
350
2001E
  3
FlatWithEdges
350
2001F
  3
Gouraud
350
20020
  3
GouraudWithEdges
350
20021
  3
Hidden
350
20025
  3
JitterOff
350
20033
  3
Linepattern
350
2002B
  3
OverhangOff
350
20034
  3
Realistic
350
20027
  3
Shaded
350
20032
  3
Shaded with edges
350
20031
  3
Shades of Gray
350
2002E
  3
Sketchy
350
2002F
  3
Thicken
350
2002A
  3
Wireframe
350
20024
  3
X-Ray
350
20030
  0
XRECORD
  5
20062
102
{ACAD_REACTORS
330
C
102
}
330
C
100
AcDbXrecord
280
     1
 90
        1
330
20039
  0
DICTIONARY
  5
20059
102
{ACAD_REACTORS
330
C
102
}
330
C
100
AcDbDictionary
281
     1
  3
CANNOSCALE
350
2005E
  3
CMLEADERSTYLE
350
2005B
  3
CTABLESTYLE
350
2005A
  3
CVIEWDETAILSTYLE
350
2005C
  3
CVIEWSECTIONSTYLE
350
2005D
  0
ACDBDETAILVIEWSTYLE
  5
20053
102
{ACAD_XDICTIONARY
360
20065
102
}
102
{ACAD_REACTORS
330
20052
102
}
330
20052
100
AcDbModelDocViewStyle
 70
     0
  3
Metric50
290
     0
100
AcDbDetailViewStyle
 70
     0
 71
     0
 90
        3
 71
     1
340
65
 62
   256
 40
5.0
340
0
 62
   256
 40
5.0
300

 40
0.0
280
     1
 71
     2
340
16
 90
       25
 62
   256
 71
     3
340
65
 62
   256
 40
5.0
 90
        0
 40
15.0
 90
        1
300
%<\AcVar ViewDetailId>% (%<\AcVar ViewScale \f "%sn">%)
 71
     4
340
16
 90
       25
 62
   256
340
16
 90
       25
 62
   256
280
     0
  0
LAYOUT
  5
20055
102
{ACAD_REACTORS
330
20037
102
}
330
20037
100
AcDbPlotSettings
  1

  2
Microsoft Print to PDF
  4

  6

 40
0.0
 41
0.0
 42
0.0
 43
0.0
 44
0.0
 45
0.0
 46
0.0
 47
0.0
 48
0.0
 49
0.0
140
0.0
141
0.0
142
1.0
143
1.0
 70
  1712
 72
     0
 73
     0
 74
     0
  7

 75
     0
147
1.0
 76
     0
 77
     2
 78
   300
148
0.0
149
0.0
100
AcDbLayout
  1
Model
 70
     1
 71
     0
 10
0.0
 20
0.0
 11
12.0
 21
9.0
 12
0.0
 22
0.0
 32
0.0
 14
0.0
 24
0.0
 34
0.0
 15
0.0
 25
0.0
 35
0.0
146
0.0
 13
0.0
 23
0.0
 33
0.0
 16
1.0
 26
0.0
 36
0.0
 17
0.0
 27
1.0
 37
0.0
 76
     0
330
1F
331
31
  0
LAYOUT
  5
20056
102
{ACAD_REACTORS
330
20037
102
}
330
20037
100
AcDbPlotSettings
  1

  2
Microsoft Print to PDF
  4

  6

 40
0.0
 41
0.0
 42
0.0
 43
0.0
 44
0.0
 45
0.0
 46
0.0
 47
0.0
 48
0.0
 49
0.0
140
0.0
141
0.0
142
1.0
143
1.0
 70
   688
 72
     0
 73
     0
 74
     5
  7

 75
    16
147
1.0
 76
     0
 77
     2
 78
   300
148
0.0
149
0.0
100
AcDbLayout
  1
布局1
 70
     1
 71
     1
 10
0.0
 20
0.0
 11
12.0
 21
9.0
 12
0.0
 22
0.0
 32
0.0
 14
0.0
 24
0.0
 34
0.0
 15
0.0
 25
0.0
 35
0.0
146
0.0
 13
0.0
 23
0.0
 33
0.0
 16
1.0
 26
0.0
 36
0.0
 17
0.0
 27
1.0
 37
0.0
 76
     0
330
1E
  0
MATERIAL
  5
2000D
102
{ACAD_XDICTIONARY
360
2000E
102
}
102
{ACAD_REACTORS
330
20004
102
}
330
20004
100
AcDbMaterial
  1
ByBlock
 72
     0
 43
0.0008202099737533
 43
0.0
 43
0.0
 43
0.0
 43
0.0
 43
0.0008202099737533
 43
0.0
 43
0.0
 43
0.0
 43
0.0
 43
1.0
 43
0.0
 43
0.0
 43
0.0
 43
0.0
 43
1.0
 77
     0
 47
0.0008202099737533
 47
0.0
 47
0.0
 47
0.0
 47
0.0
 47
0.0008202099737533
 47
0.0
 47
0.0
 47
0.0
 47
0.0
 47
1.0
 47
0.0
 47
0.0
 47
0.0
 47
0.0
 47
1.0
171
     0
 49
0.0008202099737533
 49
0.0
 49
0.0
 49
0.0
 49
0.0
 49
0.0008202099737533
 49
0.0
 49
0.0
 49
0.0
 49
0.0
 49
1.0
 49
0.0
 49
0.0
 49
0.0
 49
0.0
 49
1.0
175
     0
142
0.0008202099737533
142
0.0
142
0.0
142
0.0
142
0.0
142
0.0008202099737533
142
0.0
142
0.0
142
0.0
142
0.0
142
1.0
142
0.0
142
0.0
142
0.0
142
0.0
142
1.0
179
     0
144
0.0008202099737533
144
0.0
144
0.0
144
0.0
144
0.0
144
0.0008202099737533
144
0.0
144
0.0
144
0.0
144
0.0
144
1.0
144
0.0
144
0.0
144
0.0
144
0.0
144
1.0
147
0.0008202099737533
147
0.0
147
0.0
147
0.0
147
0.0
147
0.0008202099737533
147
0.0
147
0.0
147
0.0
147
0.0
147
1.0
147
0.0
147
0.0
147
0.0
147
0.0
147
1.0
  0
MATERIAL
  5
20005
102
{ACAD_XDICTIONARY
360
20006
102
}
102
{ACAD_REACTORS
330
20004
102
}
330
20004
100
AcDbMaterial
  1
ByLayer
 72
     0
 43
0.0008202099737533
 43
0.0
 43
0.0
 43
0.0
 43
0.0
 43
0.0008202099737533
 43
0.0
 43
0.0
 43
0.0
 43
0.0
 43
1.0
 43
0.0
 43
0.0
 43
0.0
 43
0.0
 43
1.0
 77
     0
 47
0.0008202099737533
 47
0.0
 47
0.0
 47
0.0
 47
0.0
 47
0.0008202099737533
 47
0.0
 47
0.0
 47
0.0
 47
0.0
 47
1.0
 47
0.0
 47
0.0
 47
0.0
 47
0.0
 47
1.0
171
     0
 49
0.0008202099737533
 49
0.0
 49
0.0
 49
0.0
 49
0.0
 49
0.0008202099737533
 49
0.0
 49
0.0
 49
0.0
 49
0.0
 49
1.0
 49
0.0
 49
0.0
 49
0.0
 49
0.0
 49
1.0
175
     0
142
0.0008202099737533
142
0.0
142
0.0
142
0.0
142
0.0
142
0.0008202099737533
142
0.0
142
0.0
142
0.0
142
0.0
142
1.0
142
0.0
142
0.0
142
0.0
142
0.0
142
1.0
179
     0
144
0.0008202099737533
144
0.0
144
0.0
144
0.0
144
0.0
144
0.0008202099737533
144
0.0
144
0.0
144
0.0
144
0.0
144
1.0
144
0.0
144
0.0
144
0.0
144
0.0
144
1.0
147
0.0008202099737533
147
0.0
147
0.0
147
0.0
147
0.0
147
0.0008202099737533
147
0.0
147
0.0
147
0.0
147
0.0
147
1.0
147
0.0
147
0.0
147
0.0
147
0.0
147
1.0
  0
MATERIAL
  5
20015
102
{ACAD_XDICTIONARY
360
20016
102
}
102
{ACAD_REACTORS
330
20004
102
}
330
20004
100
AcDbMaterial
  1
Global
 72
     0
 43
0.0008202099737533
 43
0.0
 43
0.0
 43
0.0
 43
0.0
 43
0.0008202099737533
 43
0.0
 43
0.0
 43
0.0
 43
0.0
 43
1.0
 43
0.0
 43
0.0
 43
0.0
 43
0.0
 43
1.0
 77
     0
 47
0.0008202099737533
 47
0.0
 47
0.0
 47
0.0
 47
0.0
 47
0.0008202099737533
 47
0.0
 47
0.0
 47
0.0
 47
0.0
 47
1.0
 47
0.0
 47
0.0
 47
0.0
 47
0.0
 47
1.0
171
     0
 49
0.0008202099737533
 49
0.0
 49
0.0
 49
0.0
 49
0.0
 49
0.0008202099737533
 49
0.0
 49
0.0
 49
0.0
 49
0.0
 49
1.0
 49
0.0
 49
0.0
 49
0.0
 49
0.0
 49
1.0
175
     0
142
0.0008202099737533
142
0.0
142
0.0
142
0.0
142
0.0
142
0.0008202099737533
142
0.0
142
0.0
142
0.0
142
0.0
142
1.0
142
0.0
142
0.0
142
0.0
142
0.0
142
1.0
179
     0
144
0.0008202099737533
144
0.0
144
0.0
144
0.0
144
0.0
144
0.0008202099737533
144
0.0
144
0.0
144
0.0
144
0.0
144
1.0
144
0.0
144
0.0
144
0.0
144
0.0
144
1.0
147
0.0008202099737533
147
0.0
147
0.0
147
0.0
147
0.0
147
0.0008202099737533
147
0.0
147
0.0
147
0.0
147
0.0
147
1.0
147
0.0
147
0.0
147
0.0
147
0.0
147
1.0
  0
MLEADERSTYLE
  5
2004F
102
{ACAD_REACTORS
330
2004E
102
}
330
2004E
100
AcDbMLeaderStyle
179
     2
170
     2
171
     1
172
     0
 90
        2
 40
0.0
 41
0.0
173
     1
 91
-1056964608
340
14
 92
       -2
290
     1
 42
2.0
291
     1
 43
0.36
  3
Standard
 44
4.0
300

342
65
174
     1
178
     6
175
     1
176
     0
 93
-1056964608
 45
4.0
292
     0
297
     0
 46
4.0
 94
-1056964608
 47
1.0
 49
1.0
140
1.0
293
     1
141
0.0
294
     1
177
     0
142
1.0
295
     0
296
     0
143
0.125
271
     0
272
     9
273
     9
298
     0
  0
MLINESTYLE
  5
2003B
102
{ACAD_REACTORS
330
2003A
102
}
330
2003A
100
AcDbMlineStyle
  2
STANDARD
 70
     0
  3

 62
   256
 51
90.0
 52
90.0
 71
     2
 49
0.5
 62
   256
  6
BYLAYER
 49
-0.5
 62
   256
  6
BYLAYER
  0
ACDBPLACEHOLDER
  5
20003
102
{ACAD_REACTORS
330
20002
102
}
330
20002
  0
SCALE
  5
2003D
102
{ACAD_REACTORS
330
2003C
102
}
330
2003C
100
AcDbScale
 70
     0
300
1:1
140
1.0
141
1.0
290
     1
  0
SCALE
  5
2003E
102
{ACAD_REACTORS
330
2003C
102
}
330
2003C
100
AcDbScale
 70
     0
300
1:2
140
1.0
141
2.0
290
     0
  0
SCALE
  5
2003F
102
{ACAD_REACTORS
330
2003C
102
}
330
2003C
100
AcDbScale
 70
     0
300
1:4
140
1.0
141
4.0
290
     0
  0
SCALE
  5
20040
102
{ACAD_REACTORS
330
2003C
102
}
330
2003C
100
AcDbScale
 70
     0
300
1:5
140
1.0
141
5.0
290
     0
  0
SCALE
  5
20041
102
{ACAD_REACTORS
330
2003C
102
}
330
2003C
100
AcDbScale
 70
     0
300
1:8
140
1.0
141
8.0
290
     0
  0
SCALE
  5
20042
102
{ACAD_REACTORS
330
2003C
102
}
330
2003C
100
AcDbScale
 70
     0
300
1:10
140
1.0
141
10.0
290
     0
  0
SCALE
  5
20043
102
{ACAD_REACTORS
330
2003C
102
}
330
2003C
100
AcDbScale
 70
     0
300
1:16
140
1.0
141
16.0
290
     0
  0
SCALE
  5
20044
102
{ACAD_REACTORS
330
2003C
102
}
330
2003C
100
AcDbScale
 70
     0
300
1:20
140
1.0
141
20.0
290
     0
  0
SCALE
  5
20045
102
{ACAD_REACTORS
330
2003C
102
}
330
2003C
100
AcDbScale
 70
     0
300
1:30
140
1.0
141
30.0
290
     0
  0
SCALE
  5
20046
102
{ACAD_REACTORS
330
2003C
102
}
330
2003C
100
AcDbScale
 70
     0
300
1:40
140
1.0
141
40.0
290
     0
  0
SCALE
  5
20047
102
{ACAD_REACTORS
330
2003C
102
}
330
2003C
100
AcDbScale
 70
     0
300
1:50
140
1.0
141
50.0
290
     0
  0
SCALE
  5
20048
102
{ACAD_REACTORS
330
2003C
102
}
330
2003C
100
AcDbScale
 70
     0
300
1:100
140
1.0
141
100.0
290
     0
  0
SCALE
  5
20049
102
{ACAD_REACTORS
330
2003C
102
}
330
2003C
100
AcDbScale
 70
     0
300
2:1
140
2.0
141
1.0
290
     0
  0
SCALE
  5
2004A
102
{ACAD_REACTORS
330
2003C
102
}
330
2003C
100
AcDbScale
 70
     0
300
4:1
140
4.0
141
1.0
290
     0
  0
SCALE
  5
2004B
102
{ACAD_REACTORS
330
2003C
102
}
330
2003C
100
AcDbScale
 70
     0
300
8:1
140
8.0
141
1.0
290
     0
  0
SCALE
  5
2004C
102
{ACAD_REACTORS
330
2003C
102
}
330
2003C
100
AcDbScale
 70
     0
300
10:1
140
10.0
141
1.0
290
     0
  0
SCALE
  5
2004D
102
{ACAD_REACTORS
330
2003C
102
}
330
2003C
100
AcDbScale
 70
     0
300
100:1
140
100.0
141
1.0
290
     0
  0
ACDBSECTIONVIEWSTYLE
  5
20051
102
{ACAD_XDICTIONARY
360
20063
102
}
102
{ACAD_REACTORS
330
20050
102
}
330
20050
100
AcDbModelDocViewStyle
 70
     0
  3
Metric50
290
     0
100
AcDbSectionViewStyle
 70
     0
 71
     0
 90
      102
 71
     1
340
65
 62
   256
 40
5.0
340
0
340
0
 62
   256
 40
5.0
300
I, O, Q, S, X, Z
 40
10.0
 90
        0
 40
2.5
 90
        0
 71
     2
340
16
 90
       25
 62
   256
340
16
 90
       50
 62
   256
 40
5.0
 40
2.5
 40
5.0
 71
     3
340
65
 62
   256
 40
5.0
 90
        0
 40
15.0
 90
        1
300
%<\AcVar ViewSectionStartId>%-%<\AcVar ViewSectionEndId>% (%<\AcVar ViewScale \f "%sn">%)
 71
     4
 62
   256
 62
   257
300
ANSI31
 40
1.0
 90
        0
290
     0
290
     0
 90
        6
 40
0.0
 40
1.570796326794896
 40
0.2617993877991494
 40
1.308996938995747
 40
-0.2617993877991494
 40
1.832595714594046
  0
TABLESTYLE
  5
20039
102
{ACAD_XDICTIONARY
360
20060
102
}
102
{ACAD_REACTORS
330
20038
102
}
330
20038
100
AcDbTableStyle
280
     0
  3
Standard
 70
     0
 71
     0
 40
1.5
 41
1.5
280
     0
281
     0
  7
STANDARD
140
4.5
170
     2
 62
     0
 63
     7
283
     0
 90
      512
 91
        0
  1

274
    -2
284
     1
 64
     0
275
    -2
285
     1
 65
     0
276
    -2
286
     1
 66
     0
277
    -2
287
     1
 67
     0
278
    -2
288
     1
 68
     0
279
    -2
289
     1
 69
     0
  7
STANDARD
140
6.0
170
     5
 62
     0
 63
     7
283
     0
 90
      512
 91
        0
  1

274
    -2
284
     1
 64
     0
275
    -2
285
     1
 65
     0
276
    -2
286
     1
 66
     0
277
    -2
287
     1
 67
     0
278
    -2
288
     1
 68
     0
279
    -2
289
     1
 69
     0
  7
STANDARD
140
4.5
170
     5
 62
     0
 63
     7
283
     0
 90
      512
 91
        0
  1

274
    -2
284
     1
 64
     0
275
    -2
285
     1
 65
     0
276
    -2
286
     1
 66
     0
277
    -2
287
     1
 67
     0
278
    -2
288
     1
 68
     0
279
    -2
289
     1
 69
     0
  0
VISUALSTYLE
  5
20023
102
{ACAD_REACTORS
330
2001D
102
}
330
2001D
100
AcDbVisualStyle
  2
2dWireframe
 70
     4
177
     3
291
     0
 70
    58
 90
        0
176
     1
 90
        2
176
     1
 90
        0
176
     1
 90
        0
176
     1
 40
0.6
176
     1
 40
30.0
176
     1
 62
     7
420
 16777215
176
     1
 90
        1
176
     1
 90
        4
176
     1
 62
     7
176
     1
 62
   257
176
     1
 90
        1
176
     1
 90
        1
176
     1
 40
1.0
176
     1
 90
        0
176
     1
 62
   257
176
     1
 40
1.0
176
     1
 90
        1
176
     1
 90
        6
176
     1
 90
        2
176
     1
 62
     7
176
     1
 90
        5
176
     1
 90
        0
176
     1
 90
        0
176
     1
290
     0
176
     1
 90
        1
176
     1
 40
0.0
176
     1
 90
        0
176
     1
290
     1
176
     1
290
     1
176
     1
290
     0
176
     1
290
     0
176
     1
290
     0
176
     1
290
     0
176
     1
290
     0
176
     1
290
     0
176
     1
290
     0
176
     1
 90
       50
176
     1
 40
0.0
176
     1
 40
1.0
176
     1
 90
        0
176
     1
 62
    18
420
        0
176
     1
 90
       50
176
     1
 90
        3
176
     1
 62
     5
420
      255
176
     1
290
     0
176
     1
 90
       50
176
     1
 90
       50
176
     1
 90
       50
176
     1
290
     0
176
     1
 90
       50
176
     1
 62
   256
176
     0
 40
1.0
176
     0
 90
        2
176
     1
  1
strokes_ogs.tif
176
     1
290
     0
176
     1
 40
1.0
176
     1
 40
1.0
176
     1
1001
ACAD
1000
AcDbSavedByObjectVersion
1070
     0
  0
VISUALSTYLE
  5
20022
102
{ACAD_REACTORS
330
2001D
102
}
330
2001D
100
AcDbVisualStyle
  2
Basic
 70
     7
177
     3
291
     1
 70
    58
 90
        1
176
     1
 90
        0
176
     1
 90
        1
176
     1
 90
        0
176
     1
 40
0.6
176
     1
 40
30.0
176
     1
 62
     7
420
 16777215
176
     1
 90
        0
176
     1
 90
        4
176
     1
 62
     7
176
     1
 62
   257
176
     1
 90
        1
176
     1
 90
        1
176
     1
 40
1.0
176
     1
 90
        8
176
     1
 62
     7
176
     1
 40
1.0
176
     1
 90
        1
176
     1
 90
        6
176
     1
 90
        2
176
     1
 62
     7
176
     1
 90
        5
176
     1
 90
        0
176
     1
 90
        0
176
     1
290
     0
176
     1
 90
        1
176
     1
 40
0.0
176
     1
 90
        0
176
     1
290
     0
176
     1
290
     1
176
     1
290
     1
176
     1
290
     0
176
     1
290
     0
176
     1
290
     0
176
     1
290
     0
176
     1
290
     0
176
     1
290
     0
176
     1
 90
       50
176
     1
 40
0.0
176
     1
 40
1.0
176
     1
 90
        0
176
     1
 62
    18
420
        0
176
     1
 90
       50
176
     1
 90
        3
176
     1
 62
     5
420
      255
176
     1
290
     0
176
     1
 90
       50
176
     1
 90
       50
176
     1
 90
       50
176
     1
290
     0
176
     1
 90
       50
176
     1
 62
   256
176
     0
 40
1.0
176
     0
 90
        2
176
     1
  1
strokes_ogs.tif
176
     1
290
     0
176
     1
 40
1.0
176
     1
 40
1.0
176
     1
1001
ACAD
1000
AcDbSavedByObjectVersion
1070
     0
  0
VISUALSTYLE
  5
20029
102
{ACAD_REACTORS
330
2001D
102
}
330
2001D
100
AcDbVisualStyle
  2
Brighten
 70
    12
177
     3
291
     1
 70
    58
 90
        2
176
     1
 90
        2
176
     1
 90
        0
176
     1
 90
        0
176
     1
 40
0.6
176
     1
 40
30.0
176
     1
 62
     7
420
 16777215
176
     1
 90
        1
176
     1
 90
        4
176
     1
 62
     7
176
     1
 62
   257
176
     1
 90
        1
176
     1
 90
        1
176
     1
 40
1.0
176
     1
 90
        8
176
     1
 62
     7
176
     1
 40
1.0
176
     1
 90
        1
176
     1
 90
        6
176
     1
 90
        2
176
     1
 62
     7
176
     1
 90
        5
176
     1
 90
        0
176
     1
 90
        0
176
     1
290
     0
176
     1
 90
        1
176
     1
 40
50.0
176
     1
 90
        0
176
     1
290
     0
176
     1
290
     1
176
     1
290
     1
176
     1
290
     0
176
     1
290
     0
176
     1
290
     0
176
     1
290
     0
176
     1
290
     0
176
     1
290
     0
176
     1
 90
       50
176
     1
 40
0.0
176
     1
 40
1.0
176
     1
 90
        0
176
     1
 62
    18
420
        0
176
     1
 90
       50
176
     1
 90
        3
176
     1
 62
     5
420
      255
176
     1
290
     0
176
     1
 90
       50
176
     1
 90
       50
176
     1
 90
       50
176
     1
290
     0
176
     1
 90
       50
176
     1
 62
   256
176
     0
 40
1.0
176
     0
 90
        2
176
     1
  1
strokes_ogs.tif
176
     1
290
     0
176
     1
 40
1.0
176
     1
 40
1.0
176
     1
1001
ACAD
1000
AcDbSavedByObjectVersion
1070
     0
  0
VISUALSTYLE
  5
2002D
102
{ACAD_REACTORS
330
2001D
102
}
330
2001D
100
AcDbVisualStyle
  2
ColorChange
 70
    16
177
     3
291
     1
 70
    58
 90
        2
176
     1
 90
        2
176
     1
 90
        3
176
     1
 90
        0
176
     1
 40
0.6
176
     1
 40
30.0
176
     1
 62
     8
420
  8421504
176
     1
 90
        1
176
     1
 90
        4
176
     1
 62
     7
176
     1
 62
   257
176
     1
 90
        1
176
     1
 90
        1
176
     1
 40
1.0
176
     1
 90
        8
176
     1
 62
     8
420
  8421504
176
     1
 40
1.0
176
     1
 90
        1
176
     1
 90
        6
176
     1
 90
        2
176
     1
 62
     7
176
     1
 90
        5
176
     1
 90
        0
176
     1
 90
        0
176
     1
290
     0
176
     1
 90
        1
176
     1
 40
0.0
176
     1
 90
        0
176
     1
290
     0
176
     1
290
     1
176
     1
290
     1
176
     1
290
     0
176
     1
290
     0
176
     1
290
     0
176
     1
290
     0
176
     1
290
     0
176
     1
290
     0
176
     1
 90
       50
176
     1
 40
0.0
176
     1
 40
1.0
176
     1
 90
        0
176
     1
 62
    18
420
        0
176
     1
 90
       50
176
     1
 90
        3
176
     1
 62
     5
420
      255
176
     1
290
     0
176
     1
 90
       50
176
     1
 90
       50
176
     1
 90
       50
176
     1
290
     0
176
     1
 90
       50
176
     1
 62
   256
176
     0
 40
1.0
176
     0
 90
        2
176
     1
  1
strokes_ogs.tif
176
     1
290
     0
176
     1
 40
1.0
176
     1
 40
1.0
176
     1
1001
ACAD
1000
AcDbSavedByObjectVersion
1070
     0
  0
VISUALSTYLE
  5
20026
102
{ACAD_REACTORS
330
2001D
102
}
330
2001D
100
AcDbVisualStyle
  2
Conceptual
 70
     9
177
     3
291
     0
 70
    58
 90
        3
176
     1
 90
        2
176
     1
 90
        0
176
     1
 90
        0
176
     1
 40
0.6
176
     1
 40
30.0
176
     1
 62
     7
420
 16777215
176
     1
 90
        2
176
     1
 90
        2
176
     1
 62
     7
176
     1
 62
   257
176
     1
 90
        1
176
     1
 90
        1
176
     1
 40
179.0
176
     1
 90
        8
176
     1
 62
     7
176
     1
 40
1.0
176
     1
 90
        1
176
     1
 90
        6
176
     1
 90
        2
176
     1
 62
     7
176
     1
 90
        3
176
     1
 90
        0
176
     1
 90
        0
176
     1
290
     0
176
     1
 90
        1
176
     1
 40
0.0
176
     1
 90
        0
176
     1
290
     0
176
     1
290
     1
176
     1
290
     1
176
     1
290
     0
176
     1
290
     0
176
     1
290
     0
176
     1
290
     0
176
     1
290
     0
176
     1
290
     0
176
     1
 90
       50
176
     1
 40
0.0
176
     1
 40
1.0
176
     1
 90
        0
176
     1
 62
    18
420
        0
176
     1
 90
       50
176
     1
 90
        3
176
     1
 62
     5
420
      255
176
     1
290
     0
176
     1
 90
       50
176
     1
 90
       50
176
     1
 90
       50
176
     1
290
     0
176
     1
 90
       50
176
     1
 62
   256
176
     0
 40
1.0
176
     0
 90
        2
176
     1
  1
strokes_ogs.tif
176
     1
290
     0
176
     1
 40
1.0
176
     1
 40
1.0
176
     1
1001
ACAD
1000
AcDbSavedByObjectVersion
1070
     0
  0
VISUALSTYLE
  5
20028
102
{ACAD_REACTORS
330
2001D
102
}
330
2001D
100
AcDbVisualStyle
  2
Dim
 70
    11
177
     3
291
     1
 70
    58
 90
        2
176
     1
 90
        2
176
     1
 90
        0
176
     1
 90
        0
176
     1
 40
0.6
176
     1
 40
30.0
176
     1
 62
     7
420
 16777215
176
     1
 90
        1
176
     1
 90
        4
176
     1
 62
     7
176
     1
 62
   257
176
     1
 90
        1
176
     1
 90
        1
176
     1
 40
1.0
176
     1
 90
        8
176
     1
 62
     7
176
     1
 40
1.0
176
     1
 90
        1
176
     1
 90
        6
176
     1
 90
        2
176
     1
 62
     7
176
     1
 90
        5
176
     1
 90
        0
176
     1
 90
        0
176
     1
290
     0
176
     1
 90
        1
176
     1
 40
-50.0
176
     1
 90
        0
176
     1
290
     0
176
     1
290
     1
176
     1
290
     1
176
     1
290
     0
176
     1
290
     0
176
     1
290
     0
176
     1
290
     0
176
     1
290
     0
176
     1
290
     0
176
     1
 90
       50
176
     1
 40
0.0
176
     1
 40
1.0
176
     1
 90
        0
176
     1
 62
    18
420
        0
176
     1
 90
       50
176
     1
 90
        3
176
     1
 62
     5
420
      255
176
     1
290
     0
176
     1
 90
       50
176
     1
 90
       50
176
     1
 90
       50
176
     1
290
     0
176
     1
 90
       50
176
     1
 62
   256
176
     0
 40
1.0
176
     0
 90
        2
176
     1
  1
strokes_ogs.tif
176
     1
290
     0
176
     1
 40
1.0
176
     1
 40
1.0
176
     1
1001
ACAD
1000
AcDbSavedByObjectVersion
1070
     0
  0
VISUALSTYLE
  5
20035
102
{ACAD_REACTORS
330
2001D
102
}
330
2001D
100
AcDbVisualStyle
  2
EdgeColorOff
 70
    22
177
     3
291
     1
 70
    58
 90
        2
176
     0
 90
        2
176
     0
 90
        0
176
     0
 90
        0
176
     0
 40
0.6
176
     0
 40
30.0
176
     0
 62
     7
420
 16777215
176
     0
 90
        1
176
     0
 90
        4
176
     0
 62
     7
176
     0
 62
   257
176
     0
 90
        1
176
     0
 90
        1
176
     0
 40
1.0
176
     0
 90
        8
176
     2
 62
     7
176
     0
 40
1.0
176
     0
 90
        1
176
     0
 90
        6
176
     0
 90
        2
176
     0
 62
     7
176
     0
 90
        5
176
     0
 90
        0
176
     0
 90
        0
176
     0
290
     0
176
     0
 90
        1
176
     0
 40
0.0
176
     0
 90
        0
176
     0
290
     0
176
     1
290
     1
176
     1
290
     1
176
     1
290
     0
176
     1
290
     0
176
     1
290
     0
176
     1
290
     0
176
     1
290
     0
176
     1
290
     0
176
     1
 90
       50
176
     0
 40
0.0
176
     0
 40
1.0
176
     0
 90
        0
176
     0
 62
    18
420
        0
176
     0
 90
       50
176
     0
 90
        3
176
     0
 62
     5
420
      255
176
     0
290
     0
176
     1
 90
       50
176
     0
 90
       50
176
     0
 90
       50
176
     0
290
     0
176
     1
 90
       50
176
     0
 62
   256
176
     0
 40
1.0
176
     0
 90
        2
176
     0
  1
strokes_ogs.tif
176
     0
290
     0
176
     1
 40
1.0
176
     0
 40
1.0
176
     0
1001
ACAD
1000
AcDbSavedByObjectVersion
1070
     0
  0
VISUALSTYLE
  5
2002C
102
{ACAD_REACTORS
330
2001D
102
}
330
2001D
100
AcDbVisualStyle
  2
Facepattern
 70
    15
177
     3
291
     1
 70
    58
 90
        2
176
     1
 90
        2
176
     1
 90
        0
176
     1
 90
        0
176
     1
 40
0.6
176
     1
 40
30.0
176
     1
 62
     7
420
 16777215
176
     1
 90
        1
176
     1
 90
        4
176
     1
 62
     7
176
     1
 62
   257
176
     1
 90
        1
176
     1
 90
        1
176
     1
 40
1.0
176
     1
 90
        8
176
     1
 62
     7
176
     1
 40
1.0
176
     1
 90
        1
176
     1
 90
        6
176
     1
 90
        2
176
     1
 62
     7
176
     1
 90
        5
176
     1
 90
        0
176
     1
 90
        0
176
     1
290
     0
176
     1
 90
        1
176
     1
 40
0.0
176
     1
 90
        0
176
     1
290
     0
176
     1
290
     1
176
     1
290
     1
176
     1
290
     0
176
     1
290
     0
176
     1
290
     0
176
     1
290
     0
176
     1
290
     0
176
     1
290
     0
176
     1
 90
       50
176
     1
 40
0.0
176
     1
 40
1.0
176
     1
 90
        0
176
     1
 62
    18
420
        0
176
     1
 90
       50
176
     1
 90
        3
176
     1
 62
     5
420
      255
176
     1
290
     0
176
     1
 90
       50
176
     1
 90
       50
176
     1
 90
       50
176
     1
290
     0
176
     1
 90
       50
176
     1
 62
   256
176
     0
 40
1.0
176
     0
 90
        2
176
     1
  1
strokes_ogs.tif
176
     1
290
     0
176
     1
 40
1.0
176
     1
 40
1.0
176
     1
1001
ACAD
1000
AcDbSavedByObjectVersion
1070
     0
  0
VISUALSTYLE
  5
2001E
102
{ACAD_REACTORS
330
2001D
102
}
330
2001D
100
AcDbVisualStyle
  2
Flat
 70
     0
177
     3
291
     1
 70
    58
 90
        2
176
     1
 90
        1
176
     1
 90
        1
176
     1
 90
        2
176
     1
 40
0.6
176
     1
 40
30.0
176
     1
 62
     7
420
 16777215
176
     1
 90
        0
176
     1
 90
        0
176
     1
 62
     7
176
     1
 62
   257
176
     1
 90
        1
176
     1
 90
        1
176
     1
 40
1.0
176
     1
 90
        8
176
     1
 62
     7
176
     1
 40
1.0
176
     1
 90
        1
176
     1
 90
        6
176
     1
 90
        2
176
     1
 62
     7
176
     1
 90
        5
176
     1
 90
        0
176
     1
 90
        0
176
     1
290
     0
176
     1
 90
       13
176
     1
 40
0.0
176
     1
 90
        0
176
     1
290
     0
176
     1
290
     1
176
     1
290
     1
176
     1
290
     0
176
     1
290
     0
176
     1
290
     0
176
     1
290
     0
176
     1
290
     0
176
     1
290
     0
176
     1
 90
       50
176
     1
 40
0.0
176
     1
 40
1.0
176
     1
 90
        0
176
     1
 62
    18
420
        0
176
     1
 90
       50
176
     1
 90
        3
176
     1
 62
     5
420
      255
176
     1
290
     0
176
     1
 90
       50
176
     1
 90
       50
176
     1
 90
       50
176
     1
290
     0
176
     1
 90
       50
176
     1
 62
   256
176
     0
 40
1.0
176
     0
 90
        2
176
     1
  1
strokes_ogs.tif
176
     1
290
     0
176
     1
 40
1.0
176
     1
 40
1.0
176
     1
1001
ACAD
1000
AcDbSavedByObjectVersion
1070
     0
  0
VISUALSTYLE
  5
2001F
102
{ACAD_REACTORS
330
2001D
102
}
330
2001D
100
AcDbVisualStyle
  2
FlatWithEdges
 70
     1
177
     3
291
     1
 70
    58
 90
        2
176
     1
 90
        1
176
     1
 90
        1
176
     1
 90
        2
176
     1
 40
0.6
176
     1
 40
30.0
176
     1
 62
     7
420
 16777215
176
     1
 90
        1
176
     1
 90
        0
176
     1
 62
     7
176
     1
 62
   257
176
     1
 90
        1
176
     1
 90
        1
176
     1
 40
1.0
176
     1
 90
        0
176
     1
 62
   257
176
     1
 40
1.0
176
     1
 90
        1
176
     1
 90
        6
176
     1
 90
        2
176
     1
 62
     7
176
     1
 90
        5
176
     1
 90
        0
176
     1
 90
        0
176
     1
290
     0
176
     1
 90
       13
176
     1
 40
0.0
176
     1
 90
        0
176
     1
290
     0
176
     1
290
     1
176
     1
290
     1
176
     1
290
     0
176
     1
290
     0
176
     1
290
     0
176
     1
290
     0
176
     1
290
     0
176
     1
290
     0
176
     1
 90
       50
176
     1
 40
0.0
176
     1
 40
1.0
176
     1
 90
        0
176
     1
 62
    18
420
        0
176
     1
 90
       50
176
     1
 90
        3
176
     1
 62
     5
420
      255
176
     1
290
     0
176
     1
 90
       50
176
     1
 90
       50
176
     1
 90
       50
176
     1
290
     0
176
     1
 90
       50
176
     1
 62
   256
176
     0
 40
1.0
176
     0
 90
        2
176
     1
  1
strokes_ogs.tif
176
     1
290
     0
176
     1
 40
1.0
176
     1
 40
1.0
176
     1
1001
ACAD
1000
AcDbSavedByObjectVersion
1070
     0
  0
VISUALSTYLE
  5
20020
102
{ACAD_REACTORS
330
2001D
102
}
330
2001D
100
AcDbVisualStyle
  2
Gouraud
 70
     2
177
     3
291
     1
 70
    58
 90
        2
176
     1
 90
        2
176
     1
 90
        1
176
     1
 90
        2
176
     1
 40
0.6
176
     1
 40
30.0
176
     1
 62
     7
420
 16777215
176
     1
 90
        0
176
     1
 90
        0
176
     1
 62
     7
176
     1
 62
   257
176
     1
 90
        1
176
     1
 90
        1
176
     1
 40
1.0
176
     1
 90
        0
176
     1
 62
     7
176
     1
 40
1.0
176
     1
 90
        1
176
     1
 90
        6
176
     1
 90
        2
176
     1
 62
     7
176
     1
 90
        5
176
     1
 90
        0
176
     1
 90
        0
176
     1
290
     0
176
     1
 90
       13
176
     1
 40
0.0
176
     1
 90
        0
176
     1
290
     0
176
     1
290
     1
176
     1
290
     1
176
     1
290
     0
176
     1
290
     0
176
     1
290
     0
176
     1
290
     0
176
     1
290
     0
176
     1
290
     0
176
     1
 90
       50
176
     1
 40
0.0
176
     1
 40
1.0
176
     1
 90
        0
176
     1
 62
    18
420
        0
176
     1
 90
       50
176
     1
 90
        3
176
     1
 62
     5
420
      255
176
     1
290
     0
176
     1
 90
       50
176
     1
 90
       50
176
     1
 90
       50
176
     1
290
     0
176
     1
 90
       50
176
     1
 62
   256
176
     0
 40
1.0
176
     0
 90
        2
176
     1
  1
strokes_ogs.tif
176
     1
290
     0
176
     1
 40
1.0
176
     1
 40
1.0
176
     1
1001
ACAD
1000
AcDbSavedByObjectVersion
1070
     0
  0
VISUALSTYLE
  5
20021
102
{ACAD_REACTORS
330
2001D
102
}
330
2001D
100
AcDbVisualStyle
  2
GouraudWithEdges
 70
     3
177
     3
291
     1
 70
    58
 90
        2
176
     1
 90
        2
176
     1
 90
        1
176
     1
 90
        2
176
     1
 40
0.6
176
     1
 40
30.0
176
     1
 62
     7
420
 16777215
176
     1
 90
        1
176
     1
 90
        0
176
     1
 62
     7
176
     1
 62
   257
176
     1
 90
        1
176
     1
 90
        1
176
     1
 40
1.0
176
     1
 90
        0
176
     1
 62
   257
176
     1
 40
1.0
176
     1
 90
        1
176
     1
 90
        6
176
     1
 90
        2
176
     1
 62
     7
176
     1
 90
        5
176
     1
 90
        0
176
     1
 90
        0
176
     1
290
     0
176
     1
 90
       13
176
     1
 40
0.0
176
     1
 90
        0
176
     1
290
     0
176
     1
290
     1
176
     1
290
     1
176
     1
290
     0
176
     1
290
     0
176
     1
290
     0
176
     1
290
     0
176
     1
290
     0
176
     1
290
     0
176
     1
 90
       50
176
     1
 40
0.0
176
     1
 40
1.0
176
     1
 90
        0
176
     1
 62
    18
420
        0
176
     1
 90
       50
176
     1
 90
        3
176
     1
 62
     5
420
      255
176
     1
290
     0
176
     1
 90
       50
176
     1
 90
       50
176
     1
 90
       50
176
     1
290
     0
176
     1
 90
       50
176
     1
 62
   256
176
     0
 40
1.0
176
     0
 90
        2
176
     1
  1
strokes_ogs.tif
176
     1
290
     0
176
     1
 40
1.0
176
     1
 40
1.0
176
     1
1001
ACAD
1000
AcDbSavedByObjectVersion
1070
     0
  0
VISUALSTYLE
  5
20025
102
{ACAD_REACTORS
330
2001D
102
}
330
2001D
100
AcDbVisualStyle
  2
Hidden
 70
     6
177
     3
291
     0
 70
    58
 90
        1
176
     1
 90
        2
176
     1
 90
        2
176
     1
 90
        0
176
     1
 40
0.6
176
     1
 40
30.0
176
     1
 62
     7
420
 16777215
176
     1
 90
        2
176
     1
 90
        2
176
     1
 62
     7
176
     1
 62
   257
176
     1
 90
        2
176
     1
 90
        1
176
     1
 40
40.0
176
     1
 90
        0
176
     1
 62
   257
176
     1
 40
1.0
176
     1
 90
        1
176
     1
 90
        6
176
     1
 90
        2
176
     1
 62
     7
176
     1
 90
        3
176
     1
 90
        0
176
     1
 90
        0
176
     1
290
     0
176
     1
 90
        1
176
     1
 40
0.0
176
     1
 90
        0
176
     1
290
     0
176
     1
290
     1
176
     1
290
     1
176
     1
290
     0
176
     1
290
     0
176
     1
290
     0
176
     1
290
     0
176
     1
290
     0
176
     1
290
     0
176
     1
 90
       50
176
     1
 40
0.0
176
     1
 40
1.0
176
     1
 90
        0
176
     1
 62
    18
420
        0
176
     1
 90
       50
176
     1
 90
        3
176
     1
 62
     5
420
      255
176
     1
290
     0
176
     1
 90
       50
176
     1
 90
       50
176
     1
 90
       50
176
     1
290
     0
176
     1
 90
       50
176
     1
 62
   256
176
     0
 40
1.0
176
     0
 90
        2
176
     1
  1
strokes_ogs.tif
176
     1
290
     0
176
     1
 40
1.0
176
     1
 40
1.0
176
     1
1001
ACAD
1000
AcDbSavedByObjectVersion
1070
     0
  0
VISUALSTYLE
  5
20033
102
{ACAD_REACTORS
330
2001D
102
}
330
2001D
100
AcDbVisualStyle
  2
JitterOff
 70
    20
177
     3
291
     1
 70
    58
 90
        2
176
     0
 90
        2
176
     0
 90
        0
176
     0
 90
        0
176
     0
 40
0.6
176
     0
 40
30.0
176
     0
 62
     7
420
 16777215
176
     0
 90
        1
176
     0
 90
        4
176
     0
 62
     7
176
     0
 62
   257
176
     0
 90
        1
176
     0
 90
        1
176
     0
 40
1.0
176
     0
 90
       10
176
     2
 62
     7
176
     0
 40
1.0
176
     0
 90
        1
176
     0
 90
        6
176
     0
 90
        2
176
     0
 62
     7
176
     0
 90
        5
176
     0
 90
        0
176
     0
 90
        0
176
     0
290
     0
176
     0
 90
        1
176
     0
 40
0.0
176
     0
 90
        0
176
     0
290
     0
176
     1
290
     1
176
     1
290
     1
176
     1
290
     0
176
     1
290
     0
176
     1
290
     0
176
     1
290
     0
176
     1
290
     0
176
     1
290
     0
176
     1
 90
       50
176
     0
 40
0.0
176
     0
 40
1.0
176
     0
 90
        0
176
     0
 62
    18
420
        0
176
     0
 90
       50
176
     0
 90
        3
176
     0
 62
     5
420
      255
176
     0
290
     0
176
     1
 90
       50
176
     0
 90
       50
176
     0
 90
       50
176
     0
290
     0
176
     1
 90
       50
176
     0
 62
   256
176
     0
 40
1.0
176
     0
 90
        2
176
     0
  1
strokes_ogs.tif
176
     0
290
     0
176
     1
 40
1.0
176
     0
 40
1.0
176
     0
1001
ACAD
1000
AcDbSavedByObjectVersion
1070
     0
  0
VISUALSTYLE
  5
2002B
102
{ACAD_REACTORS
330
2001D
102
}
330
2001D
100
AcDbVisualStyle
  2
Linepattern
 70
    14
177
     3
291
     1
 70
    58
 90
        2
176
     1
 90
        2
176
     1
 90
        0
176
     1
 90
        0
176
     1
 40
0.6
176
     1
 40
30.0
176
     1
 62
     7
420
 16777215
176
     1
 90
        1
176
     1
 90
        4
176
     1
 62
     7
176
     1
 62
   257
176
     1
 90
        7
176
     1
 90
        7
176
     1
 40
1.0
176
     1
 90
        8
176
     1
 62
     7
176
     1
 40
1.0
176
     1
 90
        1
176
     1
 90
        6
176
     1
 90
        2
176
     1
 62
     7
176
     1
 90
        5
176
     1
 90
        0
176
     1
 90
        0
176
     1
290
     0
176
     1
 90
        1
176
     1
 40
0.0
176
     1
 90
        0
176
     1
290
     0
176
     1
290
     1
176
     1
290
     1
176
     1
290
     0
176
     1
290
     0
176
     1
290
     0
176
     1
290
     0
176
     1
290
     0
176
     1
290
     0
176
     1
 90
       50
176
     1
 40
0.0
176
     1
 40
1.0
176
     1
 90
        0
176
     1
 62
    18
420
        0
176
     1
 90
       50
176
     1
 90
        3
176
     1
 62
     5
420
      255
176
     1
290
     0
176
     1
 90
       50
176
     1
 90
       50
176
     1
 90
       50
176
     1
290
     0
176
     1
 90
       50
176
     1
 62
   256
176
     0
 40
1.0
176
     0
 90
        2
176
     1
  1
strokes_ogs.tif
176
     1
290
     0
176
     1
 40
1.0
176
     1
 40
1.0
176
     1
1001
ACAD
1000
AcDbSavedByObjectVersion
1070
     0
  0
VISUALSTYLE
  5
20034
102
{ACAD_REACTORS
330
2001D
102
}
330
2001D
100
AcDbVisualStyle
  2
OverhangOff
 70
    21
177
     3
291
     1
 70
    58
 90
        2
176
     0
 90
        2
176
     0
 90
        0
176
     0
 90
        0
176
     0
 40
0.6
176
     0
 40
30.0
176
     0
 62
     7
420
 16777215
176
     0
 90
        1
176
     0
 90
        4
176
     0
 62
     7
176
     0
 62
   257
176
     0
 90
        1
176
     0
 90
        1
176
     0
 40
1.0
176
     0
 90
        9
176
     2
 62
     7
176
     0
 40
1.0
176
     0
 90
        1
176
     0
 90
        6
176
     0
 90
        2
176
     0
 62
     7
176
     0
 90
        5
176
     0
 90
        0
176
     0
 90
        0
176
     0
290
     0
176
     0
 90
        1
176
     0
 40
0.0
176
     0
 90
        0
176
     0
290
     0
176
     1
290
     1
176
     1
290
     1
176
     1
290
     0
176
     1
290
     0
176
     1
290
     0
176
     1
290
     0
176
     1
290
     0
176
     1
290
     0
176
     1
 90
       50
176
     0
 40
0.0
176
     0
 40
1.0
176
     0
 90
        0
176
     0
 62
    18
420
        0
176
     0
 90
       50
176
     0
 90
        3
176
     0
 62
     5
420
      255
176
     0
290
     0
176
     1
 90
       50
176
     0
 90
       50
176
     0
 90
       50
176
     0
290
     0
176
     1
 90
       50
176
     0
 62
   256
176
     0
 40
1.0
176
     0
 90
        2
176
     0
  1
strokes_ogs.tif
176
     0
290
     0
176
     1
 40
1.0
176
     0
 40
1.0
176
     0
1001
ACAD
1000
AcDbSavedByObjectVersion
1070
     0
  0
VISUALSTYLE
  5
20027
102
{ACAD_REACTORS
330
2001D
102
}
330
2001D
100
AcDbVisualStyle
  2
Realistic
 70
     8
177
     3
291
     0
 70
    58
 90
        2
176
     1
 90
        3
176
     1
 90
        0
176
     1
 90
        2
176
     1
 40
0.6
176
     1
 40
30.0
176
     1
 62
     7
420
 16777215
176
     1
 90
        0
176
     1
 90
        0
176
     1
 62
     7
176
     1
 62
   257
176
     1
 90
        1
176
     1
 90
        1
176
     1
 40
1.0
176
     1
 90
        8
176
     1
 62
   257
176
     1
 40
1.0
176
     1
 90
        1
176
     1
 90
        6
176
     1
 90
        2
176
     1
 62
     7
176
     1
 90
        3
176
     1
 90
        0
176
     1
 90
        0
176
     1
290
     0
176
     1
 90
       13
176
     1
 40
0.0
176
     1
 90
        0
176
     1
290
     0
176
     1
290
     1
176
     1
290
     1
176
     1
290
     0
176
     1
290
     0
176
     1
290
     0
176
     1
290
     0
176
     1
290
     0
176
     1
290
     0
176
     1
 90
       50
176
     1
 40
0.0
176
     1
 40
1.0
176
     1
 90
        0
176
     1
 62
    18
420
        0
176
     1
 90
       50
176
     1
 90
        3
176
     1
 62
     5
420
      255
176
     1
290
     0
176
     1
 90
       50
176
     1
 90
       50
176
     1
 90
       50
176
     1
290
     0
176
     1
 90
       50
176
     1
 62
   256
176
     0
 40
1.0
176
     0
 90
        2
176
     1
  1
strokes_ogs.tif
176
     1
290
     0
176
     1
 40
1.0
176
     1
 40
1.0
176
     1
1001
ACAD
1000
AcDbSavedByObjectVersion
1070
     0
  0
VISUALSTYLE
  5
20032
102
{ACAD_REACTORS
330
2001D
102
}
330
2001D
100
AcDbVisualStyle
  2
Shaded
 70
    27
177
     3
291
     0
 70
    58
 90
        2
176
     1
 90
        2
176
     1
 90
        1
176
     1
 90
        2
176
     1
 40
0.6
176
     1
 40
30.0
176
     1
 62
     7
420
 16777215
176
     1
 90
        0
176
     1
 90
        4
176
     1
 62
     7
176
     1
 62
   257
176
     1
 90
        1
176
     1
 90
        1
176
     1
 40
1.0
176
     1
 90
        8
176
     1
 62
   257
176
     1
 40
1.0
176
     1
 90
        1
176
     1
 90
        6
176
     1
 90
        2
176
     1
 62
     8
420
  7895160
176
     1
 90
        3
176
     1
 90
        0
176
     1
 90
        0
176
     1
290
     0
176
     1
 90
        5
176
     1
 40
0.0
176
     1
 90
        0
176
     1
290
     0
176
     1
290
     1
176
     1
290
     1
176
     1
290
     0
176
     1
290
     0
176
     1
290
     0
176
     1
290
     0
176
     1
290
     0
176
     1
290
     0
176
     1
 90
       50
176
     1
 40
0.0
176
     1
 40
1.0
176
     1
 90
        0
176
     1
 62
    18
420
        0
176
     1
 90
       50
176
     1
 90
        3
176
     1
 62
     5
420
      255
176
     1
290
     0
176
     1
 90
       50
176
     1
 90
       50
176
     1
 90
       50
176
     1
290
     0
176
     1
 90
       50
176
     1
 62
   256
176
     0
 40
1.0
176
     0
 90
        2
176
     1
  1
strokes_ogs.tif
176
     1
290
     0
176
     1
 40
1.0
176
     1
 40
1.0
176
     1
1001
ACAD
1000
AcDbSavedByObjectVersion
1070
     0
  0
VISUALSTYLE
  5
20031
102
{ACAD_REACTORS
330
2001D
102
}
330
2001D
100
AcDbVisualStyle
  2
Shaded with edges
 70
    26
177
     3
291
     0
 70
    58
 90
        2
176
     1
 90
        2
176
     1
 90
        1
176
     1
 90
        2
176
     1
 40
0.6
176
     1
 40
30.0
176
     1
 62
     7
420
 16777215
176
     1
 90
        1
176
     1
 90
        2
176
     1
 62
     7
176
     1
 62
   257
176
     1
 90
        2
176
     1
 90
        1
176
     1
 40
1.0
176
     1
 90
        8
176
     1
 62
   257
176
     1
 40
1.0
176
     1
 90
        1
176
     1
 90
        6
176
     1
 90
        2
176
     1
 62
     7
176
     1
 90
        3
176
     1
 90
        0
176
     1
 90
        0
176
     1
290
     0
176
     1
 90
        5
176
     1
 40
0.0
176
     1
 90
        0
176
     1
290
     0
176
     1
290
     1
176
     1
290
     1
176
     1
290
     0
176
     1
290
     0
176
     1
290
     0
176
     1
290
     0
176
     1
290
     0
176
     1
290
     0
176
     1
 90
       50
176
     1
 40
0.0
176
     1
 40
1.0
176
     1
 90
        0
176
     1
 62
    18
420
        0
176
     1
 90
       50
176
     1
 90
        3
176
     1
 62
     5
420
      255
176
     1
290
     0
176
     1
 90
       50
176
     1
 90
       50
176
     1
 90
       50
176
     1
290
     0
176
     1
 90
       50
176
     1
 62
   256
176
     0
 40
1.0
176
     0
 90
        2
176
     1
  1
strokes_ogs.tif
176
     1
290
     0
176
     1
 40
1.0
176
     1
 40
1.0
176
     1
1001
ACAD
1000
AcDbSavedByObjectVersion
1070
     0
  0
VISUALSTYLE
  5
2002E
102
{ACAD_REACTORS
330
2001D
102
}
330
2001D
100
AcDbVisualStyle
  2
Shades of Gray
 70
    23
177
     3
291
     0
 70
    58
 90
        2
176
     1
 90
        2
176
     1
 90
        3
176
     1
 90
        0
176
     1
 40
0.6
176
     1
 40
30.0
176
     1
 62
     7
420
 16777215
176
     1
 90
        2
176
     1
 90
        2
176
     1
 62
     7
176
     1
 62
     7
176
     1
 90
        1
176
     1
 90
        1
176
     1
 40
40.0
176
     1
 90
        8
176
     1
 62
     7
176
     1
 40
1.0
176
     1
 90
        1
176
     1
 90
        6
176
     1
 90
        2
176
     1
 62
     7
176
     1
 90
        3
176
     1
 90
        0
176
     1
 90
        0
176
     1
290
     0
176
     1
 90
        1
176
     1
 40
0.0
176
     1
 90
        0
176
     1
290
     0
176
     1
290
     1
176
     1
290
     1
176
     1
290
     0
176
     1
290
     0
176
     1
290
     0
176
     1
290
     0
176
     1
290
     0
176
     1
290
     0
176
     1
 90
       50
176
     1
 40
0.0
176
     1
 40
1.0
176
     1
 90
        0
176
     1
 62
    18
420
        0
176
     1
 90
       50
176
     1
 90
        3
176
     1
 62
     5
420
      255
176
     1
290
     0
176
     1
 90
       50
176
     1
 90
       50
176
     1
 90
       50
176
     1
290
     0
176
     1
 90
       50
176
     1
 62
   256
176
     0
 40
1.0
176
     0
 90
        2
176
     1
  1
strokes_ogs.tif
176
     1
290
     0
176
     1
 40
1.0
176
     1
 40
1.0
176
     1
1001
ACAD
1000
AcDbSavedByObjectVersion
1070
     0
  0
VISUALSTYLE
  5
2002F
102
{ACAD_REACTORS
330
2001D
102
}
330
2001D
100
AcDbVisualStyle
  2
Sketchy
 70
    24
177
     3
291
     0
 70
    58
 90
        1
176
     1
 90
        2
176
     1
 90
        2
176
     1
 90
        0
176
     1
 40
0.6
176
     1
 40
30.0
176
     1
 62
     7
420
 16777215
176
     1
 90
        2
176
     1
 90
        2
176
     1
 62
     7
176
     1
 62
     7
176
     1
 90
        1
176
     1
 90
        1
176
     1
 40
40.0
176
     1
 90
       11
176
     1
 62
     7
176
     1
 40
1.0
176
     1
 90
        1
176
     1
 90
        6
176
     1
 90
        2
176
     1
 62
     7
176
     1
 90
        6
176
     1
 90
        0
176
     1
 90
        0
176
     1
290
     0
176
     1
 90
        1
176
     1
 40
0.0
176
     1
 90
        0
176
     1
290
     0
176
     1
290
     1
176
     1
290
     1
176
     1
290
     0
176
     1
290
     0
176
     1
290
     0
176
     1
290
     0
176
     1
290
     0
176
     1
290
     0
176
     1
 90
       50
176
     1
 40
0.0
176
     1
 40
1.0
176
     1
 90
        0
176
     1
 62
    18
420
        0
176
     1
 90
       50
176
     1
 90
        3
176
     1
 62
     5
420
      255
176
     1
290
     0
176
     1
 90
       50
176
     1
 90
       50
176
     1
 90
       50
176
     1
290
     0
176
     1
 90
       50
176
     1
 62
   256
176
     0
 40
1.0
176
     0
 90
        2
176
     1
  1
strokes_ogs.tif
176
     1
290
     0
176
     1
 40
1.0
176
     1
 40
1.0
176
     1
1001
ACAD
1000
AcDbSavedByObjectVersion
1070
     0
  0
VISUALSTYLE
  5
2002A
102
{ACAD_REACTORS
330
2001D
102
}
330
2001D
100
AcDbVisualStyle
  2
Thicken
 70
    13
177
     3
291
     1
 70
    58
 90
        2
176
     1
 90
        2
176
     1
 90
        0
176
     1
 90
        0
176
     1
 40
0.6
176
     1
 40
30.0
176
     1
 62
     7
420
 16777215
176
     1
 90
        1
176
     1
 90
        4
176
     1
 62
     7
176
     1
 62
   257
176
     1
 90
        1
176
     1
 90
        1
176
     1
 40
1.0
176
     1
 90
       12
176
     1
 62
     7
176
     1
 40
1.0
176
     1
 90
        1
176
     1
 90
        6
176
     1
 90
        2
176
     1
 62
     7
176
     1
 90
        5
176
     1
 90
        0
176
     1
 90
        0
176
     1
290
     0
176
     1
 90
        1
176
     1
 40
0.0
176
     1
 90
        0
176
     1
290
     0
176
     1
290
     1
176
     1
290
     1
176
     1
290
     0
176
     1
290
     0
176
     1
290
     0
176
     1
290
     0
176
     1
290
     0
176
     1
290
     0
176
     1
 90
       50
176
     1
 40
0.0
176
     1
 40
1.0
176
     1
 90
        0
176
     1
 62
    18
420
        0
176
     1
 90
       50
176
     1
 90
        3
176
     1
 62
     5
420
      255
176
     1
290
     0
176
     1
 90
       50
176
     1
 90
       50
176
     1
 90
       50
176
     1
290
     0
176
     1
 90
       50
176
     1
 62
   256
176
     0
 40
1.0
176
     0
 90
        2
176
     1
  1
strokes_ogs.tif
176
     1
290
     0
176
     1
 40
1.0
176
     1
 40
1.0
176
     1
1001
ACAD
1000
AcDbSavedByObjectVersion
1070
     0
  0
VISUALSTYLE
  5
20024
102
{ACAD_REACTORS
330
2001D
102
}
330
2001D
100
AcDbVisualStyle
  2
Wireframe
 70
     5
177
     3
291
     0
 70
    58
 90
        0
176
     1
 90
        2
176
     1
 90
        0
176
     1
 90
        0
176
     1
 40
0.6
176
     1
 40
30.0
176
     1
 62
     7
420
 16777215
176
     1
 90
        1
176
     1
 90
        4
176
     1
 62
     7
176
     1
 62
   257
176
     1
 90
        1
176
     1
 90
        1
176
     1
 40
1.0
176
     1
 90
        0
176
     1
 62
   257
176
     1
 40
1.0
176
     1
 90
        1
176
     1
 90
        6
176
     1
 90
        2
176
     1
 62
     7
176
     1
 90
        3
176
     1
 90
        0
176
     1
 90
        0
176
     1
290
     0
176
     1
 90
        1
176
     1
 40
0.0
176
     1
 90
        0
176
     1
290
     0
176
     1
290
     1
176
     1
290
     1
176
     1
290
     0
176
     1
290
     0
176
     1
290
     0
176
     1
290
     0
176
     1
290
     0
176
     1
290
     0
176
     1
 90
       50
176
     1
 40
0.0
176
     1
 40
1.0
176
     1
 90
        0
176
     1
 62
    18
420
        0
176
     1
 90
       50
176
     1
 90
        3
176
     1
 62
     5
420
      255
176
     1
290
     0
176
     1
 90
       50
176
     1
 90
       50
176
     1
 90
       50
176
     1
290
     0
176
     1
 90
       50
176
     1
 62
   256
176
     0
 40
1.0
176
     0
 90
        2
176
     1
  1
strokes_ogs.tif
176
     1
290
     0
176
     1
 40
1.0
176
     1
 40
1.0
176
     1
1001
ACAD
1000
AcDbSavedByObjectVersion
1070
     0
  0
VISUALSTYLE
  5
20030
102
{ACAD_REACTORS
330
2001D
102
}
330
2001D
100
AcDbVisualStyle
  2
X-Ray
 70
    25
177
     3
291
     0
 70
    58
 90
        2
176
     1
 90
        2
176
     1
 90
        1
176
     1
 90
        1
176
     1
 40
0.5
176
     1
 40
30.0
176
     1
 62
     7
420
 16777215
176
     1
 90
        1
176
     1
 90
        0
176
     1
 62
     7
176
     1
 62
   257
176
     1
 90
        1
176
     1
 90
        1
176
     1
 40
1.0
176
     1
 90
        8
176
     1
 62
     7
176
     1
 40
1.0
176
     1
 90
        1
176
     1
 90
        6
176
     1
 90
        2
176
     1
 62
     7
176
     1
 90
        3
176
     1
 90
        0
176
     1
 90
        0
176
     1
290
     0
176
     1
 90
       13
176
     1
 40
0.0
176
     1
 90
        0
176
     1
290
     0
176
     1
290
     1
176
     1
290
     1
176
     1
290
     0
176
     1
290
     0
176
     1
290
     0
176
     1
290
     0
176
     1
290
     0
176
     1
290
     0
176
     1
 90
       50
176
     1
 40
0.0
176
     1
 40
1.0
176
     1
 90
        0
176
     1
 62
    18
420
        0
176
     1
 90
       50
176
     1
 90
        3
176
     1
 62
     5
420
      255
176
     1
290
     0
176
     1
 90
       50
176
     1
 90
       50
176
     1
 90
       50
176
     1
290
     0
176
     1
 90
       50
176
     1
 62
   256
176
     0
 40
1.0
176
     0
 90
        2
176
     1
  1
strokes_ogs.tif
176
     1
290
     0
176
     1
 40
1.0
176
     1
 40
1.0
176
     1
1001
ACAD
1000
AcDbSavedByObjectVersion
1070
     0
  0
DICTIONARYVAR
  5
2005E
102
{ACAD_REACTORS
330
20059
102
}
330
20059
100
DictionaryVariables
280
     0
  1
1:1
  0
DICTIONARYVAR
  5
2005B
102
{ACAD_REACTORS
330
20059
102
}
330
20059
100
DictionaryVariables
280
     0
  1
STANDARD
  0
DICTIONARYVAR
  5
2005A
102
{ACAD_REACTORS
330
20059
102
}
330
20059
100
DictionaryVariables
280
     0
  1
STANDARD
  0
DICTIONARYVAR
  5
2005C
102
{ACAD_REACTORS
330
20059
102
}
330
20059
100
DictionaryVariables
280
     0
  1
Metric50
  0
DICTIONARYVAR
  5
2005D
102
{ACAD_REACTORS
330
20059
102
}
330
20059
100
DictionaryVariables
280
     0
  1
Metric50
  0
DICTIONARY
  5
20065
330
20053
100
AcDbDictionary
280
     1
281
     1
  3
ACAD_XREC_ROUNDTRIP
360
20066
  0
DICTIONARY
  5
2000E
330
2000D
100
AcDbDictionary
280
     1
281
     1
  3
BUMPTILE
360
20010
  3
DIFFUSETILE
360
2000F
  3
OPACITYTILE
360
20013
  3
REFLECTIONTILE
360
20012
  3
REFRACTIONTILE
360
20014
  3
SPECULARTILE
360
20011
  0
DICTIONARY
  5
20006
330
20005
100
AcDbDictionary
280
     1
281
     1
  3
BUMPTILE
360
20008
  3
DIFFUSETILE
360
20007
  3
OPACITYTILE
360
2000B
  3
REFLECTIONTILE
360
2000A
  3
REFRACTIONTILE
360
2000C
  3
SPECULARTILE
360
20009
  0
DICTIONARY
  5
20016
330
20015
100
AcDbDictionary
280
     1
281
     1
  3
BUMPTILE
360
20018
  3
DIFFUSETILE
360
20017
  3
OPACITYTILE
360
2001B
  3
REFLECTIONTILE
360
2001A
  3
REFRACTIONTILE
360
2001C
  3
SPECULARTILE
360
20019
  0
DICTIONARY
  5
20063
330
20051
100
AcDbDictionary
280
     1
281
     1
  3
ACAD_XREC_ROUNDTRIP
360
20064
  0
DICTIONARY
  5
20060
330
20039
100
AcDbDictionary
280
     1
281
     1
  3
ACAD_ROUNDTRIP_2008_TABLESTYLE_CELLSTYLEMAP
360
20061
  0
XRECORD
  5
20066
102
{ACAD_REACTORS
330
20065
102
}
330
20065
100
AcDbXrecord
280
     1
102
DISPLAYNAME
  1
Metric50
102
FLAGS
 90
        0
  0
XRECORD
  5
20010
102
{ACAD_REACTORS
330
2000E
102
}
330
2000E
100
AcDbXrecord
280
     1
270
     1
271
     1
  0
XRECORD
  5
2000F
102
{ACAD_REACTORS
330
2000E
102
}
330
2000E
100
AcDbXrecord
280
     1
270
     1
271
     1
  0
XRECORD
  5
20013
102
{ACAD_REACTORS
330
2000E
102
}
330
2000E
100
AcDbXrecord
280
     1
270
     1
271
     1
  0
XRECORD
  5
20012
102
{ACAD_REACTORS
330
2000E
102
}
330
2000E
100
AcDbXrecord
280
     1
270
     1
271
     1
  0
XRECORD
  5
20014
102
{ACAD_REACTORS
330
2000E
102
}
330
2000E
100
AcDbXrecord
280
     1
270
     1
271
     1
  0
XRECORD
  5
20011
102
{ACAD_REACTORS
330
2000E
102
}
330
2000E
100
AcDbXrecord
280
     1
270
     1
271
     1
  0
XRECORD
  5
20008
102
{ACAD_REACTORS
330
20006
102
}
330
20006
100
AcDbXrecord
280
     1
270
     1
271
     1
  0
XRECORD
  5
20007
102
{ACAD_REACTORS
330
20006
102
}
330
20006
100
AcDbXrecord
280
     1
270
     1
271
     1
  0
XRECORD
  5
2000B
102
{ACAD_REACTORS
330
20006
102
}
330
20006
100
AcDbXrecord
280
     1
270
     1
271
     1
  0
XRECORD
  5
2000A
102
{ACAD_REACTORS
330
20006
102
}
330
20006
100
AcDbXrecord
280
     1
270
     1
271
     1
  0
XRECORD
  5
2000C
102
{ACAD_REACTORS
330
20006
102
}
330
20006
100
AcDbXrecord
280
     1
270
     1
271
     1
  0
XRECORD
  5
20009
102
{ACAD_REACTORS
330
20006
102
}
330
20006
100
AcDbXrecord
280
     1
270
     1
271
     1
  0
XRECORD
  5
20018
102
{ACAD_REACTORS
330
20016
102
}
330
20016
100
AcDbXrecord
280
     1
270
     1
271
     1
  0
XRECORD
  5
20017
102
{ACAD_REACTORS
330
20016
102
}
330
20016
100
AcDbXrecord
280
     1
270
     1
271
     1
  0
XRECORD
  5
2001B
102
{ACAD_REACTORS
330
20016
102
}
330
20016
100
AcDbXrecord
280
     1
270
     1
271
     1
  0
XRECORD
  5
2001A
102
{ACAD_REACTORS
330
20016
102
}
330
20016
100
AcDbXrecord
280
     1
270
     1
271
     1
  0
XRECORD
  5
2001C
102
{ACAD_REACTORS
330
20016
102
}
330
20016
100
AcDbXrecord
280
     1
270
     1
271
     1
  0
XRECORD
  5
20019
102
{ACAD_REACTORS
330
20016
102
}
330
20016
100
AcDbXrecord
280
     1
270
     1
271
     1
  0
XRECORD
  5
20064
102
{ACAD_REACTORS
330
20063
102
}
330
20063
100
AcDbXrecord
280
     1
102
DISPLAYNAME
  1
Metric50
102
FLAGS
 90
        0
  0
CELLSTYLEMAP
  5
20061
102
{ACAD_REACTORS
330
20060
102
}
330
20060
100
AcDbCellStyleMap
 90
        3
300
CELLSTYLE
  1
TABLEFORMAT_BEGIN
 90
        5
170
     1
 91
        0
 92
    32768
 62
   257
 93
        1
300
CONTENTFORMAT
  1
CONTENTFORMAT_BEGIN
 90
        0
 91
        0
 92
      512
 93
        0
300

 40
0.0
140
1.0
 94
        5
 62
     0
340
65
144
6.0
309
CONTENTFORMAT_END
171
     1
301
MARGIN
  1
CELLMARGIN_BEGIN
 40
1.5
 40
1.5
 40
1.5
 40
1.5
 40
4.5
 40
4.5
309
CELLMARGIN_END
 94
        6
 95
        1
302
GRIDFORMAT
  1
GRIDFORMAT_BEGIN
 90
        0
 91
        1
 62
     0
 92
       -2
340
0
 93
        0
 40
1.125
309
GRIDFORMAT_END
 95
        2
302
GRIDFORMAT
  1
GRIDFORMAT_BEGIN
 90
        0
 91
        1
 62
     0
 92
       -2
340
0
 93
        0
 40
1.125
309
GRIDFORMAT_END
 95
        4
302
GRIDFORMAT
  1
GRIDFORMAT_BEGIN
 90
        0
 91
        1
 62
     0
 92
       -2
340
0
 93
        0
 40
1.125
309
GRIDFORMAT_END
 95
        8
302
GRIDFORMAT
  1
GRIDFORMAT_BEGIN
 90
        0
 91
        1
 62
     0
 92
       -2
340
0
 93
        0
 40
1.125
309
GRIDFORMAT_END
 95
       16
302
GRIDFORMAT
  1
GRIDFORMAT_BEGIN
 90
        0
 91
        1
 62
     0
 92
       -2
340
0
 93
        0
 40
1.125
309
GRIDFORMAT_END
 95
       32
302
GRIDFORMAT
  1
GRIDFORMAT_BEGIN
 90
        0
 91
        1
 62
     0
 92
       -2
340
0
 93
        0
 40
1.125
309
GRIDFORMAT_END
309
TABLEFORMAT_END
  1
CELLSTYLE_BEGIN
 90
        1
 91
        1
300
_TITLE
309
CELLSTYLE_END
300
CELLSTYLE
  1
TABLEFORMAT_BEGIN
 90
        5
170
     1
 91
        0
 92
        0
 62
   257
 93
        1
300
CONTENTFORMAT
  1
CONTENTFORMAT_BEGIN
 90
        0
 91
        0
 92
      512
 93
        0
300

 40
0.0
140
1.0
 94
        5
 62
     0
340
65
144
4.5
309
CONTENTFORMAT_END
171
     1
301
MARGIN
  1
CELLMARGIN_BEGIN
 40
1.5
 40
1.5
 40
1.5
 40
1.5
 40
4.5
 40
4.5
309
CELLMARGIN_END
 94
        6
 95
        1
302
GRIDFORMAT
  1
GRIDFORMAT_BEGIN
 90
        0
 91
        1
 62
     0
 92
       -2
340
0
 93
        0
 40
1.125
309
GRIDFORMAT_END
 95
        2
302
GRIDFORMAT
  1
GRIDFORMAT_BEGIN
 90
        0
 91
        1
 62
     0
 92
       -2
340
0
 93
        0
 40
1.125
309
GRIDFORMAT_END
 95
        4
302
GRIDFORMAT
  1
GRIDFORMAT_BEGIN
 90
        0
 91
        1
 62
     0
 92
       -2
340
0
 93
        0
 40
1.125
309
GRIDFORMAT_END
 95
        8
302
GRIDFORMAT
  1
GRIDFORMAT_BEGIN
 90
        0
 91
        1
 62
     0
 92
       -2
340
0
 93
        0
 40
1.125
309
GRIDFORMAT_END
 95
       16
302
GRIDFORMAT
  1
GRIDFORMAT_BEGIN
 90
        0
 91
        1
 62
     0
 92
       -2
340
0
 93
        0
 40
1.125
309
GRIDFORMAT_END
 95
       32
302
GRIDFORMAT
  1
GRIDFORMAT_BEGIN
 90
        0
 91
        1
 62
     0
 92
       -2
340
0
 93
        0
 40
1.125
309
GRIDFORMAT_END
309
TABLEFORMAT_END
  1
CELLSTYLE_BEGIN
 90
        2
 91
        1
300
_HEADER
309
CELLSTYLE_END
300
CELLSTYLE
  1
TABLEFORMAT_BEGIN
 90
        5
170
     1
 91
        0
 92
        0
 62
   257
 93
        1
300
CONTENTFORMAT
  1
CONTENTFORMAT_BEGIN
 90
        0
 91
        0
 92
      512
 93
        0
300

 40
0.0
140
1.0
 94
        2
 62
     0
340
65
144
4.5
309
CONTENTFORMAT_END
171
     1
301
MARGIN
  1
CELLMARGIN_BEGIN
 40
1.5
 40
1.5
 40
1.5
 40
1.5
 40
4.5
 40
4.5
309
CELLMARGIN_END
 94
        6
 95
        1
302
GRIDFORMAT
  1
GRIDFORMAT_BEGIN
 90
        0
 91
        1
 62
     0
 92
       -2
340
0
 93
        0
 40
1.125
309
GRIDFORMAT_END
 95
        2
302
GRIDFORMAT
  1
GRIDFORMAT_BEGIN
 90
        0
 91
        1
 62
     0
 92
       -2
340
0
 93
        0
 40
1.125
309
GRIDFORMAT_END
 95
        4
302
GRIDFORMAT
  1
GRIDFORMAT_BEGIN
 90
        0
 91
        1
 62
     0
 92
       -2
340
0
 93
        0
 40
1.125
309
GRIDFORMAT_END
 95
        8
302
GRIDFORMAT
  1
GRIDFORMAT_BEGIN
 90
        0
 91
        1
 62
     0
 92
       -2
340
0
 93
        0
 40
1.125
309
GRIDFORMAT_END
 95
       16
302
GRIDFORMAT
  1
GRIDFORMAT_BEGIN
 90
        0
 91
        1
 62
     0
 92
       -2
340
0
 93
        0
 40
1.125
309
GRIDFORMAT_END
 95
       32
302
GRIDFORMAT
  1
GRIDFORMAT_BEGIN
 90
        0
 91
        1
 62
     0
 92
       -2
340
0
 93
        0
 40
1.125
309
GRIDFORMAT_END
309
TABLEFORMAT_END
  1
CELLSTYLE_BEGIN
 90
        3
 91
        2
300
_DATA
309
CELLSTYLE_END
  0
ENDSEC
  0
EOF
